%TF.GenerationSoftware,KiCad,Pcbnew,9.0.6*%
%TF.CreationDate,2026-08-22T05:36:46-07:00*%
%TF.ProjectId,AS5600,41533536-3030-42e6-9b69-6361645f7063,rev?*%
%TF.SameCoordinates,Original*%
%TF.FileFunction,Legend,Top*%
%TF.FilePolarity,Positive*%
%FSLAX46Y46*%
G04 Gerber Fmt 4.6, Leading zero omitted, Abs format (unit mm)*
G04 Created by KiCad (PCBNEW 9.0.6) date 2026-08-22 05:36:46*
%MOMM*%
%LPD*%
G01*
G04 APERTURE LIST*
%ADD10C,0.100000*%
%ADD11C,0.150000*%
%ADD12C,0.120000*%
G04 APERTURE END LIST*
D10*
X138372419Y-95505639D02*
X138372419Y-95315163D01*
X138372419Y-95315163D02*
X138420038Y-95219925D01*
X138420038Y-95219925D02*
X138515276Y-95124687D01*
X138515276Y-95124687D02*
X138705752Y-95077068D01*
X138705752Y-95077068D02*
X139039085Y-95077068D01*
X139039085Y-95077068D02*
X139229561Y-95124687D01*
X139229561Y-95124687D02*
X139324800Y-95219925D01*
X139324800Y-95219925D02*
X139372419Y-95315163D01*
X139372419Y-95315163D02*
X139372419Y-95505639D01*
X139372419Y-95505639D02*
X139324800Y-95600877D01*
X139324800Y-95600877D02*
X139229561Y-95696115D01*
X139229561Y-95696115D02*
X139039085Y-95743734D01*
X139039085Y-95743734D02*
X138705752Y-95743734D01*
X138705752Y-95743734D02*
X138515276Y-95696115D01*
X138515276Y-95696115D02*
X138420038Y-95600877D01*
X138420038Y-95600877D02*
X138372419Y-95505639D01*
X138372419Y-94648496D02*
X139181942Y-94648496D01*
X139181942Y-94648496D02*
X139277180Y-94600877D01*
X139277180Y-94600877D02*
X139324800Y-94553258D01*
X139324800Y-94553258D02*
X139372419Y-94458020D01*
X139372419Y-94458020D02*
X139372419Y-94267544D01*
X139372419Y-94267544D02*
X139324800Y-94172306D01*
X139324800Y-94172306D02*
X139277180Y-94124687D01*
X139277180Y-94124687D02*
X139181942Y-94077068D01*
X139181942Y-94077068D02*
X138372419Y-94077068D01*
X138372419Y-93743734D02*
X138372419Y-93172306D01*
X139372419Y-93458020D02*
X138372419Y-93458020D01*
X133372419Y-95338972D02*
X134372419Y-95005639D01*
X134372419Y-95005639D02*
X133372419Y-94672306D01*
X134372419Y-94338972D02*
X133372419Y-94338972D01*
X133372419Y-94338972D02*
X133372419Y-94100877D01*
X133372419Y-94100877D02*
X133420038Y-93958020D01*
X133420038Y-93958020D02*
X133515276Y-93862782D01*
X133515276Y-93862782D02*
X133610514Y-93815163D01*
X133610514Y-93815163D02*
X133800990Y-93767544D01*
X133800990Y-93767544D02*
X133943847Y-93767544D01*
X133943847Y-93767544D02*
X134134323Y-93815163D01*
X134134323Y-93815163D02*
X134229561Y-93862782D01*
X134229561Y-93862782D02*
X134324800Y-93958020D01*
X134324800Y-93958020D02*
X134372419Y-94100877D01*
X134372419Y-94100877D02*
X134372419Y-94338972D01*
X134372419Y-93338972D02*
X133372419Y-93338972D01*
X133372419Y-93338972D02*
X133372419Y-93100877D01*
X133372419Y-93100877D02*
X133420038Y-92958020D01*
X133420038Y-92958020D02*
X133515276Y-92862782D01*
X133515276Y-92862782D02*
X133610514Y-92815163D01*
X133610514Y-92815163D02*
X133800990Y-92767544D01*
X133800990Y-92767544D02*
X133943847Y-92767544D01*
X133943847Y-92767544D02*
X134134323Y-92815163D01*
X134134323Y-92815163D02*
X134229561Y-92862782D01*
X134229561Y-92862782D02*
X134324800Y-92958020D01*
X134324800Y-92958020D02*
X134372419Y-93100877D01*
X134372419Y-93100877D02*
X134372419Y-93338972D01*
X144824800Y-95743734D02*
X144872419Y-95600877D01*
X144872419Y-95600877D02*
X144872419Y-95362782D01*
X144872419Y-95362782D02*
X144824800Y-95267544D01*
X144824800Y-95267544D02*
X144777180Y-95219925D01*
X144777180Y-95219925D02*
X144681942Y-95172306D01*
X144681942Y-95172306D02*
X144586704Y-95172306D01*
X144586704Y-95172306D02*
X144491466Y-95219925D01*
X144491466Y-95219925D02*
X144443847Y-95267544D01*
X144443847Y-95267544D02*
X144396228Y-95362782D01*
X144396228Y-95362782D02*
X144348609Y-95553258D01*
X144348609Y-95553258D02*
X144300990Y-95648496D01*
X144300990Y-95648496D02*
X144253371Y-95696115D01*
X144253371Y-95696115D02*
X144158133Y-95743734D01*
X144158133Y-95743734D02*
X144062895Y-95743734D01*
X144062895Y-95743734D02*
X143967657Y-95696115D01*
X143967657Y-95696115D02*
X143920038Y-95648496D01*
X143920038Y-95648496D02*
X143872419Y-95553258D01*
X143872419Y-95553258D02*
X143872419Y-95315163D01*
X143872419Y-95315163D02*
X143920038Y-95172306D01*
X144872419Y-94743734D02*
X143872419Y-94743734D01*
X143872419Y-94743734D02*
X143872419Y-94505639D01*
X143872419Y-94505639D02*
X143920038Y-94362782D01*
X143920038Y-94362782D02*
X144015276Y-94267544D01*
X144015276Y-94267544D02*
X144110514Y-94219925D01*
X144110514Y-94219925D02*
X144300990Y-94172306D01*
X144300990Y-94172306D02*
X144443847Y-94172306D01*
X144443847Y-94172306D02*
X144634323Y-94219925D01*
X144634323Y-94219925D02*
X144729561Y-94267544D01*
X144729561Y-94267544D02*
X144824800Y-94362782D01*
X144824800Y-94362782D02*
X144872419Y-94505639D01*
X144872419Y-94505639D02*
X144872419Y-94743734D01*
X144586704Y-93791353D02*
X144586704Y-93315163D01*
X144872419Y-93886591D02*
X143872419Y-93553258D01*
X143872419Y-93553258D02*
X144872419Y-93219925D01*
X135920038Y-95172306D02*
X135872419Y-95267544D01*
X135872419Y-95267544D02*
X135872419Y-95410401D01*
X135872419Y-95410401D02*
X135920038Y-95553258D01*
X135920038Y-95553258D02*
X136015276Y-95648496D01*
X136015276Y-95648496D02*
X136110514Y-95696115D01*
X136110514Y-95696115D02*
X136300990Y-95743734D01*
X136300990Y-95743734D02*
X136443847Y-95743734D01*
X136443847Y-95743734D02*
X136634323Y-95696115D01*
X136634323Y-95696115D02*
X136729561Y-95648496D01*
X136729561Y-95648496D02*
X136824800Y-95553258D01*
X136824800Y-95553258D02*
X136872419Y-95410401D01*
X136872419Y-95410401D02*
X136872419Y-95315163D01*
X136872419Y-95315163D02*
X136824800Y-95172306D01*
X136824800Y-95172306D02*
X136777180Y-95124687D01*
X136777180Y-95124687D02*
X136443847Y-95124687D01*
X136443847Y-95124687D02*
X136443847Y-95315163D01*
X136872419Y-94696115D02*
X135872419Y-94696115D01*
X135872419Y-94696115D02*
X136872419Y-94124687D01*
X136872419Y-94124687D02*
X135872419Y-94124687D01*
X136872419Y-93648496D02*
X135872419Y-93648496D01*
X135872419Y-93648496D02*
X135872419Y-93410401D01*
X135872419Y-93410401D02*
X135920038Y-93267544D01*
X135920038Y-93267544D02*
X136015276Y-93172306D01*
X136015276Y-93172306D02*
X136110514Y-93124687D01*
X136110514Y-93124687D02*
X136300990Y-93077068D01*
X136300990Y-93077068D02*
X136443847Y-93077068D01*
X136443847Y-93077068D02*
X136634323Y-93124687D01*
X136634323Y-93124687D02*
X136729561Y-93172306D01*
X136729561Y-93172306D02*
X136824800Y-93267544D01*
X136824800Y-93267544D02*
X136872419Y-93410401D01*
X136872419Y-93410401D02*
X136872419Y-93648496D01*
X141824800Y-95743734D02*
X141872419Y-95600877D01*
X141872419Y-95600877D02*
X141872419Y-95362782D01*
X141872419Y-95362782D02*
X141824800Y-95267544D01*
X141824800Y-95267544D02*
X141777180Y-95219925D01*
X141777180Y-95219925D02*
X141681942Y-95172306D01*
X141681942Y-95172306D02*
X141586704Y-95172306D01*
X141586704Y-95172306D02*
X141491466Y-95219925D01*
X141491466Y-95219925D02*
X141443847Y-95267544D01*
X141443847Y-95267544D02*
X141396228Y-95362782D01*
X141396228Y-95362782D02*
X141348609Y-95553258D01*
X141348609Y-95553258D02*
X141300990Y-95648496D01*
X141300990Y-95648496D02*
X141253371Y-95696115D01*
X141253371Y-95696115D02*
X141158133Y-95743734D01*
X141158133Y-95743734D02*
X141062895Y-95743734D01*
X141062895Y-95743734D02*
X140967657Y-95696115D01*
X140967657Y-95696115D02*
X140920038Y-95648496D01*
X140920038Y-95648496D02*
X140872419Y-95553258D01*
X140872419Y-95553258D02*
X140872419Y-95315163D01*
X140872419Y-95315163D02*
X140920038Y-95172306D01*
X141777180Y-94172306D02*
X141824800Y-94219925D01*
X141824800Y-94219925D02*
X141872419Y-94362782D01*
X141872419Y-94362782D02*
X141872419Y-94458020D01*
X141872419Y-94458020D02*
X141824800Y-94600877D01*
X141824800Y-94600877D02*
X141729561Y-94696115D01*
X141729561Y-94696115D02*
X141634323Y-94743734D01*
X141634323Y-94743734D02*
X141443847Y-94791353D01*
X141443847Y-94791353D02*
X141300990Y-94791353D01*
X141300990Y-94791353D02*
X141110514Y-94743734D01*
X141110514Y-94743734D02*
X141015276Y-94696115D01*
X141015276Y-94696115D02*
X140920038Y-94600877D01*
X140920038Y-94600877D02*
X140872419Y-94458020D01*
X140872419Y-94458020D02*
X140872419Y-94362782D01*
X140872419Y-94362782D02*
X140920038Y-94219925D01*
X140920038Y-94219925D02*
X140967657Y-94172306D01*
X141872419Y-93267544D02*
X141872419Y-93743734D01*
X141872419Y-93743734D02*
X140872419Y-93743734D01*
D11*
X144333333Y-83954819D02*
X144000000Y-83478628D01*
X143761905Y-83954819D02*
X143761905Y-82954819D01*
X143761905Y-82954819D02*
X144142857Y-82954819D01*
X144142857Y-82954819D02*
X144238095Y-83002438D01*
X144238095Y-83002438D02*
X144285714Y-83050057D01*
X144285714Y-83050057D02*
X144333333Y-83145295D01*
X144333333Y-83145295D02*
X144333333Y-83288152D01*
X144333333Y-83288152D02*
X144285714Y-83383390D01*
X144285714Y-83383390D02*
X144238095Y-83431009D01*
X144238095Y-83431009D02*
X144142857Y-83478628D01*
X144142857Y-83478628D02*
X143761905Y-83478628D01*
X145285714Y-83954819D02*
X144714286Y-83954819D01*
X145000000Y-83954819D02*
X145000000Y-82954819D01*
X145000000Y-82954819D02*
X144904762Y-83097676D01*
X144904762Y-83097676D02*
X144809524Y-83192914D01*
X144809524Y-83192914D02*
X144714286Y-83240533D01*
X130954819Y-91333333D02*
X131669104Y-91333333D01*
X131669104Y-91333333D02*
X131811961Y-91380952D01*
X131811961Y-91380952D02*
X131907200Y-91476190D01*
X131907200Y-91476190D02*
X131954819Y-91619047D01*
X131954819Y-91619047D02*
X131954819Y-91714285D01*
X131954819Y-90333333D02*
X131954819Y-90904761D01*
X131954819Y-90619047D02*
X130954819Y-90619047D01*
X130954819Y-90619047D02*
X131097676Y-90714285D01*
X131097676Y-90714285D02*
X131192914Y-90809523D01*
X131192914Y-90809523D02*
X131240533Y-90904761D01*
X138238095Y-85454819D02*
X138238095Y-86264342D01*
X138238095Y-86264342D02*
X138285714Y-86359580D01*
X138285714Y-86359580D02*
X138333333Y-86407200D01*
X138333333Y-86407200D02*
X138428571Y-86454819D01*
X138428571Y-86454819D02*
X138619047Y-86454819D01*
X138619047Y-86454819D02*
X138714285Y-86407200D01*
X138714285Y-86407200D02*
X138761904Y-86359580D01*
X138761904Y-86359580D02*
X138809523Y-86264342D01*
X138809523Y-86264342D02*
X138809523Y-85454819D01*
X139809523Y-86454819D02*
X139238095Y-86454819D01*
X139523809Y-86454819D02*
X139523809Y-85454819D01*
X139523809Y-85454819D02*
X139428571Y-85597676D01*
X139428571Y-85597676D02*
X139333333Y-85692914D01*
X139333333Y-85692914D02*
X139238095Y-85740533D01*
X132679580Y-87166666D02*
X132727200Y-87214285D01*
X132727200Y-87214285D02*
X132774819Y-87357142D01*
X132774819Y-87357142D02*
X132774819Y-87452380D01*
X132774819Y-87452380D02*
X132727200Y-87595237D01*
X132727200Y-87595237D02*
X132631961Y-87690475D01*
X132631961Y-87690475D02*
X132536723Y-87738094D01*
X132536723Y-87738094D02*
X132346247Y-87785713D01*
X132346247Y-87785713D02*
X132203390Y-87785713D01*
X132203390Y-87785713D02*
X132012914Y-87738094D01*
X132012914Y-87738094D02*
X131917676Y-87690475D01*
X131917676Y-87690475D02*
X131822438Y-87595237D01*
X131822438Y-87595237D02*
X131774819Y-87452380D01*
X131774819Y-87452380D02*
X131774819Y-87357142D01*
X131774819Y-87357142D02*
X131822438Y-87214285D01*
X131822438Y-87214285D02*
X131870057Y-87166666D01*
X131870057Y-86785713D02*
X131822438Y-86738094D01*
X131822438Y-86738094D02*
X131774819Y-86642856D01*
X131774819Y-86642856D02*
X131774819Y-86404761D01*
X131774819Y-86404761D02*
X131822438Y-86309523D01*
X131822438Y-86309523D02*
X131870057Y-86261904D01*
X131870057Y-86261904D02*
X131965295Y-86214285D01*
X131965295Y-86214285D02*
X132060533Y-86214285D01*
X132060533Y-86214285D02*
X132203390Y-86261904D01*
X132203390Y-86261904D02*
X132774819Y-86833332D01*
X132774819Y-86833332D02*
X132774819Y-86214285D01*
X132679580Y-82666666D02*
X132727200Y-82714285D01*
X132727200Y-82714285D02*
X132774819Y-82857142D01*
X132774819Y-82857142D02*
X132774819Y-82952380D01*
X132774819Y-82952380D02*
X132727200Y-83095237D01*
X132727200Y-83095237D02*
X132631961Y-83190475D01*
X132631961Y-83190475D02*
X132536723Y-83238094D01*
X132536723Y-83238094D02*
X132346247Y-83285713D01*
X132346247Y-83285713D02*
X132203390Y-83285713D01*
X132203390Y-83285713D02*
X132012914Y-83238094D01*
X132012914Y-83238094D02*
X131917676Y-83190475D01*
X131917676Y-83190475D02*
X131822438Y-83095237D01*
X131822438Y-83095237D02*
X131774819Y-82952380D01*
X131774819Y-82952380D02*
X131774819Y-82857142D01*
X131774819Y-82857142D02*
X131822438Y-82714285D01*
X131822438Y-82714285D02*
X131870057Y-82666666D01*
X132774819Y-81714285D02*
X132774819Y-82285713D01*
X132774819Y-81999999D02*
X131774819Y-81999999D01*
X131774819Y-81999999D02*
X131917676Y-82095237D01*
X131917676Y-82095237D02*
X132012914Y-82190475D01*
X132012914Y-82190475D02*
X132060533Y-82285713D01*
X141866666Y-80954819D02*
X141866666Y-81669104D01*
X141866666Y-81669104D02*
X141819047Y-81811961D01*
X141819047Y-81811961D02*
X141723809Y-81907200D01*
X141723809Y-81907200D02*
X141580952Y-81954819D01*
X141580952Y-81954819D02*
X141485714Y-81954819D01*
X142295238Y-81050057D02*
X142342857Y-81002438D01*
X142342857Y-81002438D02*
X142438095Y-80954819D01*
X142438095Y-80954819D02*
X142676190Y-80954819D01*
X142676190Y-80954819D02*
X142771428Y-81002438D01*
X142771428Y-81002438D02*
X142819047Y-81050057D01*
X142819047Y-81050057D02*
X142866666Y-81145295D01*
X142866666Y-81145295D02*
X142866666Y-81240533D01*
X142866666Y-81240533D02*
X142819047Y-81383390D01*
X142819047Y-81383390D02*
X142247619Y-81954819D01*
X142247619Y-81954819D02*
X142866666Y-81954819D01*
X144333333Y-88884819D02*
X144000000Y-88408628D01*
X143761905Y-88884819D02*
X143761905Y-87884819D01*
X143761905Y-87884819D02*
X144142857Y-87884819D01*
X144142857Y-87884819D02*
X144238095Y-87932438D01*
X144238095Y-87932438D02*
X144285714Y-87980057D01*
X144285714Y-87980057D02*
X144333333Y-88075295D01*
X144333333Y-88075295D02*
X144333333Y-88218152D01*
X144333333Y-88218152D02*
X144285714Y-88313390D01*
X144285714Y-88313390D02*
X144238095Y-88361009D01*
X144238095Y-88361009D02*
X144142857Y-88408628D01*
X144142857Y-88408628D02*
X143761905Y-88408628D01*
X144714286Y-87980057D02*
X144761905Y-87932438D01*
X144761905Y-87932438D02*
X144857143Y-87884819D01*
X144857143Y-87884819D02*
X145095238Y-87884819D01*
X145095238Y-87884819D02*
X145190476Y-87932438D01*
X145190476Y-87932438D02*
X145238095Y-87980057D01*
X145238095Y-87980057D02*
X145285714Y-88075295D01*
X145285714Y-88075295D02*
X145285714Y-88170533D01*
X145285714Y-88170533D02*
X145238095Y-88313390D01*
X145238095Y-88313390D02*
X144666667Y-88884819D01*
X144666667Y-88884819D02*
X145285714Y-88884819D01*
D12*
%TO.C,R1*%
X144754724Y-84477500D02*
X144245276Y-84477500D01*
X144754724Y-85522500D02*
X144245276Y-85522500D01*
%TO.C,J1*%
X132630000Y-90170000D02*
X133960000Y-90170000D01*
X132630000Y-91500000D02*
X132630000Y-90170000D01*
X135230000Y-90170000D02*
X145450000Y-90170000D01*
X135230000Y-92830000D02*
X135230000Y-90170000D01*
X135230000Y-92830000D02*
X145450000Y-92830000D01*
X145450000Y-92830000D02*
X145450000Y-90170000D01*
%TO.C,U1*%
X136940000Y-83440000D02*
X141060000Y-83440000D01*
X136940000Y-83535000D02*
X136940000Y-83440000D01*
X136940000Y-88560000D02*
X136940000Y-88465000D01*
X141060000Y-83440000D02*
X141060000Y-83535000D01*
X141060000Y-88465000D02*
X141060000Y-88560000D01*
X141060000Y-88560000D02*
X136940000Y-88560000D01*
X136400000Y-83530000D02*
X136160000Y-83200000D01*
X136640000Y-83200000D01*
X136400000Y-83530000D01*
G36*
X136400000Y-83530000D02*
G01*
X136160000Y-83200000D01*
X136640000Y-83200000D01*
X136400000Y-83530000D01*
G37*
%TO.C,C2*%
X133265000Y-87261252D02*
X133265000Y-86738748D01*
X134735000Y-87261252D02*
X134735000Y-86738748D01*
%TO.C,C1*%
X133265000Y-82761252D02*
X133265000Y-82238748D01*
X134735000Y-82761252D02*
X134735000Y-82238748D01*
%TO.C,J2*%
X136950000Y-81800000D02*
X136950000Y-81200000D01*
X137600000Y-80500000D02*
X140400000Y-80500000D01*
X140200000Y-80300000D02*
X139900000Y-80000000D01*
X140200000Y-80300000D02*
X140500000Y-80000000D01*
X140400000Y-82500000D02*
X137600000Y-82500000D01*
X140500000Y-80000000D02*
X139900000Y-80000000D01*
X141050000Y-81200000D02*
X141050000Y-81800000D01*
X136950000Y-81200000D02*
G75*
G02*
X137650000Y-80500000I700000J0D01*
G01*
X137650000Y-82500000D02*
G75*
G02*
X136950000Y-81800000I0J700000D01*
G01*
X140350000Y-80500000D02*
G75*
G02*
X141050000Y-81200000I1J-699999D01*
G01*
X141050000Y-81800000D02*
G75*
G02*
X140350000Y-82500000I-699999J-1D01*
G01*
%TO.C,R2*%
X144754724Y-86477500D02*
X144245276Y-86477500D01*
X144754724Y-87522500D02*
X144245276Y-87522500D01*
%TD*%
M02*
