%TF.GenerationSoftware,KiCad,Pcbnew,9.0.6*%
%TF.CreationDate,2026-08-22T05:36:46-07:00*%
%TF.ProjectId,AS5600,41533536-3030-42e6-9b69-6361645f7063,rev?*%
%TF.SameCoordinates,Original*%
%TF.FileFunction,Copper,L2,Bot*%
%TF.FilePolarity,Positive*%
%FSLAX46Y46*%
G04 Gerber Fmt 4.6, Leading zero omitted, Abs format (unit mm)*
G04 Created by KiCad (PCBNEW 9.0.6) date 2026-08-22 05:36:46*
%MOMM*%
%LPD*%
G01*
G04 APERTURE LIST*
%TA.AperFunction,ComponentPad*%
%ADD10R,1.700000X1.700000*%
%TD*%
%TA.AperFunction,ComponentPad*%
%ADD11C,1.700000*%
%TD*%
%TA.AperFunction,ViaPad*%
%ADD12C,0.600000*%
%TD*%
G04 APERTURE END LIST*
D10*
%TO.P,J1,1,Pin_1*%
%TO.N,VDD*%
X133960000Y-91500000D03*
D11*
%TO.P,J1,2,Pin_2*%
%TO.N,GND*%
X136500000Y-91500000D03*
%TO.P,J1,3,Pin_3*%
%TO.N,/OUT*%
X139040000Y-91500000D03*
%TO.P,J1,4,Pin_4*%
%TO.N,/SCL*%
X141580000Y-91500000D03*
%TO.P,J1,5,Pin_5*%
%TO.N,/SDA*%
X144120000Y-91500000D03*
%TD*%
D12*
%TO.N,GND*%
X137500000Y-89500000D03*
X136000000Y-89500000D03*
X134500000Y-89500000D03*
X141000000Y-82500000D03*
X136000000Y-81500000D03*
X132000000Y-81500000D03*
%TD*%
%TA.AperFunction,Conductor*%
%TO.N,GND*%
G36*
X146942539Y-80020185D02*
G01*
X146988294Y-80072989D01*
X146999500Y-80124500D01*
X146999500Y-95375500D01*
X146979815Y-95442539D01*
X146927011Y-95488294D01*
X146875500Y-95499500D01*
X131124500Y-95499500D01*
X131057461Y-95479815D01*
X131011706Y-95427011D01*
X131000500Y-95375500D01*
X131000500Y-90602135D01*
X132609500Y-90602135D01*
X132609500Y-92397870D01*
X132609501Y-92397876D01*
X132615908Y-92457483D01*
X132666202Y-92592328D01*
X132666206Y-92592335D01*
X132752452Y-92707544D01*
X132752455Y-92707547D01*
X132867664Y-92793793D01*
X132867671Y-92793797D01*
X133002517Y-92844091D01*
X133002516Y-92844091D01*
X133009444Y-92844835D01*
X133062127Y-92850500D01*
X134857872Y-92850499D01*
X134917483Y-92844091D01*
X135052331Y-92793796D01*
X135167546Y-92707546D01*
X135253796Y-92592331D01*
X135304091Y-92457483D01*
X135310500Y-92397873D01*
X135310499Y-92373979D01*
X135313330Y-92360963D01*
X135323940Y-92341525D01*
X135330179Y-92320275D01*
X135346803Y-92299643D01*
X135346808Y-92299636D01*
X135346811Y-92299634D01*
X135346818Y-92299626D01*
X136017037Y-91629408D01*
X136034075Y-91692993D01*
X136099901Y-91807007D01*
X136192993Y-91900099D01*
X136307007Y-91965925D01*
X136370590Y-91982962D01*
X135738282Y-92615269D01*
X135738282Y-92615270D01*
X135792449Y-92654624D01*
X135981782Y-92751095D01*
X136183870Y-92816757D01*
X136393754Y-92850000D01*
X136606246Y-92850000D01*
X136816127Y-92816757D01*
X136816130Y-92816757D01*
X137018217Y-92751095D01*
X137207554Y-92654622D01*
X137261716Y-92615270D01*
X137261717Y-92615270D01*
X136629408Y-91982962D01*
X136692993Y-91965925D01*
X136807007Y-91900099D01*
X136900099Y-91807007D01*
X136965925Y-91692993D01*
X136982962Y-91629408D01*
X137615270Y-92261717D01*
X137615270Y-92261716D01*
X137654622Y-92207555D01*
X137659232Y-92198507D01*
X137707205Y-92147709D01*
X137775025Y-92130912D01*
X137841161Y-92153447D01*
X137880204Y-92198504D01*
X137884949Y-92207817D01*
X138009890Y-92379786D01*
X138160213Y-92530109D01*
X138332179Y-92655048D01*
X138332181Y-92655049D01*
X138332184Y-92655051D01*
X138521588Y-92751557D01*
X138723757Y-92817246D01*
X138933713Y-92850500D01*
X138933714Y-92850500D01*
X139146286Y-92850500D01*
X139146287Y-92850500D01*
X139356243Y-92817246D01*
X139558412Y-92751557D01*
X139747816Y-92655051D01*
X139834138Y-92592335D01*
X139919786Y-92530109D01*
X139919788Y-92530106D01*
X139919792Y-92530104D01*
X140070104Y-92379792D01*
X140070106Y-92379788D01*
X140070109Y-92379786D01*
X140195048Y-92207820D01*
X140195050Y-92207817D01*
X140195051Y-92207816D01*
X140199514Y-92199054D01*
X140247488Y-92148259D01*
X140315308Y-92131463D01*
X140381444Y-92153999D01*
X140420486Y-92199056D01*
X140424951Y-92207820D01*
X140549890Y-92379786D01*
X140700213Y-92530109D01*
X140872179Y-92655048D01*
X140872181Y-92655049D01*
X140872184Y-92655051D01*
X141061588Y-92751557D01*
X141263757Y-92817246D01*
X141473713Y-92850500D01*
X141473714Y-92850500D01*
X141686286Y-92850500D01*
X141686287Y-92850500D01*
X141896243Y-92817246D01*
X142098412Y-92751557D01*
X142287816Y-92655051D01*
X142374138Y-92592335D01*
X142459786Y-92530109D01*
X142459788Y-92530106D01*
X142459792Y-92530104D01*
X142610104Y-92379792D01*
X142610106Y-92379788D01*
X142610109Y-92379786D01*
X142735048Y-92207820D01*
X142735050Y-92207817D01*
X142735051Y-92207816D01*
X142739514Y-92199054D01*
X142787488Y-92148259D01*
X142855308Y-92131463D01*
X142921444Y-92153999D01*
X142960486Y-92199056D01*
X142964951Y-92207820D01*
X143089890Y-92379786D01*
X143240213Y-92530109D01*
X143412179Y-92655048D01*
X143412181Y-92655049D01*
X143412184Y-92655051D01*
X143601588Y-92751557D01*
X143803757Y-92817246D01*
X144013713Y-92850500D01*
X144013714Y-92850500D01*
X144226286Y-92850500D01*
X144226287Y-92850500D01*
X144436243Y-92817246D01*
X144638412Y-92751557D01*
X144827816Y-92655051D01*
X144914138Y-92592335D01*
X144999786Y-92530109D01*
X144999788Y-92530106D01*
X144999792Y-92530104D01*
X145150104Y-92379792D01*
X145150106Y-92379788D01*
X145150109Y-92379786D01*
X145275048Y-92207820D01*
X145275050Y-92207817D01*
X145275051Y-92207816D01*
X145371557Y-92018412D01*
X145437246Y-91816243D01*
X145470500Y-91606287D01*
X145470500Y-91393713D01*
X145437246Y-91183757D01*
X145371557Y-90981588D01*
X145275051Y-90792184D01*
X145275049Y-90792181D01*
X145275048Y-90792179D01*
X145150109Y-90620213D01*
X144999786Y-90469890D01*
X144827820Y-90344951D01*
X144638414Y-90248444D01*
X144638413Y-90248443D01*
X144638412Y-90248443D01*
X144436243Y-90182754D01*
X144436241Y-90182753D01*
X144436240Y-90182753D01*
X144274957Y-90157208D01*
X144226287Y-90149500D01*
X144013713Y-90149500D01*
X143965042Y-90157208D01*
X143803760Y-90182753D01*
X143601585Y-90248444D01*
X143412179Y-90344951D01*
X143240213Y-90469890D01*
X143089890Y-90620213D01*
X142964949Y-90792182D01*
X142960484Y-90800946D01*
X142912509Y-90851742D01*
X142844688Y-90868536D01*
X142778553Y-90845998D01*
X142739516Y-90800946D01*
X142735050Y-90792182D01*
X142610109Y-90620213D01*
X142459786Y-90469890D01*
X142287820Y-90344951D01*
X142098414Y-90248444D01*
X142098413Y-90248443D01*
X142098412Y-90248443D01*
X141896243Y-90182754D01*
X141896241Y-90182753D01*
X141896240Y-90182753D01*
X141734957Y-90157208D01*
X141686287Y-90149500D01*
X141473713Y-90149500D01*
X141425042Y-90157208D01*
X141263760Y-90182753D01*
X141061585Y-90248444D01*
X140872179Y-90344951D01*
X140700213Y-90469890D01*
X140549890Y-90620213D01*
X140424949Y-90792182D01*
X140420484Y-90800946D01*
X140372509Y-90851742D01*
X140304688Y-90868536D01*
X140238553Y-90845998D01*
X140199516Y-90800946D01*
X140195050Y-90792182D01*
X140070109Y-90620213D01*
X139919786Y-90469890D01*
X139747820Y-90344951D01*
X139558414Y-90248444D01*
X139558413Y-90248443D01*
X139558412Y-90248443D01*
X139356243Y-90182754D01*
X139356241Y-90182753D01*
X139356240Y-90182753D01*
X139194957Y-90157208D01*
X139146287Y-90149500D01*
X138933713Y-90149500D01*
X138885042Y-90157208D01*
X138723760Y-90182753D01*
X138521585Y-90248444D01*
X138332179Y-90344951D01*
X138160213Y-90469890D01*
X138009890Y-90620213D01*
X137884949Y-90792182D01*
X137880202Y-90801499D01*
X137832227Y-90852293D01*
X137764405Y-90869087D01*
X137698271Y-90846548D01*
X137659234Y-90801495D01*
X137654626Y-90792452D01*
X137615270Y-90738282D01*
X137615269Y-90738282D01*
X136982962Y-91370590D01*
X136965925Y-91307007D01*
X136900099Y-91192993D01*
X136807007Y-91099901D01*
X136692993Y-91034075D01*
X136629409Y-91017037D01*
X137261716Y-90384728D01*
X137207550Y-90345375D01*
X137018217Y-90248904D01*
X136816129Y-90183242D01*
X136606246Y-90150000D01*
X136393754Y-90150000D01*
X136183872Y-90183242D01*
X136183869Y-90183242D01*
X135981782Y-90248904D01*
X135792439Y-90345380D01*
X135738282Y-90384727D01*
X135738282Y-90384728D01*
X136370591Y-91017037D01*
X136307007Y-91034075D01*
X136192993Y-91099901D01*
X136099901Y-91192993D01*
X136034075Y-91307007D01*
X136017037Y-91370591D01*
X135346818Y-90700372D01*
X135313333Y-90639049D01*
X135313330Y-90639036D01*
X135310499Y-90626015D01*
X135310499Y-90602128D01*
X135304091Y-90542517D01*
X135275926Y-90467002D01*
X135253798Y-90407673D01*
X135253793Y-90407664D01*
X135167547Y-90292455D01*
X135167544Y-90292452D01*
X135052335Y-90206206D01*
X135052328Y-90206202D01*
X134917482Y-90155908D01*
X134917483Y-90155908D01*
X134857883Y-90149501D01*
X134857881Y-90149500D01*
X134857873Y-90149500D01*
X134857864Y-90149500D01*
X133062129Y-90149500D01*
X133062123Y-90149501D01*
X133002516Y-90155908D01*
X132867671Y-90206202D01*
X132867664Y-90206206D01*
X132752455Y-90292452D01*
X132752452Y-90292455D01*
X132666206Y-90407664D01*
X132666202Y-90407671D01*
X132615908Y-90542517D01*
X132609501Y-90602116D01*
X132609500Y-90602135D01*
X131000500Y-90602135D01*
X131000500Y-80124500D01*
X131020185Y-80057461D01*
X131072989Y-80011706D01*
X131124500Y-80000500D01*
X146875500Y-80000500D01*
X146942539Y-80020185D01*
G37*
%TD.AperFunction*%
%TD*%
M02*
