%TF.GenerationSoftware,KiCad,Pcbnew,9.0.6*%
%TF.CreationDate,2026-08-22T05:36:46-07:00*%
%TF.ProjectId,AS5600,41533536-3030-42e6-9b69-6361645f7063,rev?*%
%TF.SameCoordinates,Original*%
%TF.FileFunction,Copper,L1,Top*%
%TF.FilePolarity,Positive*%
%FSLAX46Y46*%
G04 Gerber Fmt 4.6, Leading zero omitted, Abs format (unit mm)*
G04 Created by KiCad (PCBNEW 9.0.6) date 2026-08-22 05:36:46*
%MOMM*%
%LPD*%
G01*
G04 APERTURE LIST*
G04 Aperture macros list*
%AMRoundRect*
0 Rectangle with rounded corners*
0 $1 Rounding radius*
0 $2 $3 $4 $5 $6 $7 $8 $9 X,Y pos of 4 corners*
0 Add a 4 corners polygon primitive as box body*
4,1,4,$2,$3,$4,$5,$6,$7,$8,$9,$2,$3,0*
0 Add four circle primitives for the rounded corners*
1,1,$1+$1,$2,$3*
1,1,$1+$1,$4,$5*
1,1,$1+$1,$6,$7*
1,1,$1+$1,$8,$9*
0 Add four rect primitives between the rounded corners*
20,1,$1+$1,$2,$3,$4,$5,0*
20,1,$1+$1,$4,$5,$6,$7,0*
20,1,$1+$1,$6,$7,$8,$9,0*
20,1,$1+$1,$8,$9,$2,$3,0*%
%AMFreePoly0*
4,1,23,0.550000,-0.750000,0.000000,-0.750000,0.000000,-0.745722,-0.065263,-0.745722,-0.191342,-0.711940,-0.304381,-0.646677,-0.396677,-0.554381,-0.461940,-0.441342,-0.495722,-0.315263,-0.495722,-0.250000,-0.500000,-0.250000,-0.500000,0.250000,-0.495722,0.250000,-0.495722,0.315263,-0.461940,0.441342,-0.396677,0.554381,-0.304381,0.646677,-0.191342,0.711940,-0.065263,0.745722,0.000000,0.745722,
0.000000,0.750000,0.550000,0.750000,0.550000,-0.750000,0.550000,-0.750000,$1*%
%AMFreePoly1*
4,1,23,0.000000,0.745722,0.065263,0.745722,0.191342,0.711940,0.304381,0.646677,0.396677,0.554381,0.461940,0.441342,0.495722,0.315263,0.495722,0.250000,0.500000,0.250000,0.500000,-0.250000,0.495722,-0.250000,0.495722,-0.315263,0.461940,-0.441342,0.396677,-0.554381,0.304381,-0.646677,0.191342,-0.711940,0.065263,-0.745722,0.000000,-0.745722,0.000000,-0.750000,-0.550000,-0.750000,
-0.550000,0.750000,0.000000,0.750000,0.000000,0.745722,0.000000,0.745722,$1*%
G04 Aperture macros list end*
%TA.AperFunction,EtchedComponent*%
%ADD10C,0.000000*%
%TD*%
%TA.AperFunction,SMDPad,CuDef*%
%ADD11RoundRect,0.237500X0.250000X0.237500X-0.250000X0.237500X-0.250000X-0.237500X0.250000X-0.237500X0*%
%TD*%
%TA.AperFunction,ComponentPad*%
%ADD12R,1.700000X1.700000*%
%TD*%
%TA.AperFunction,ComponentPad*%
%ADD13C,1.700000*%
%TD*%
%TA.AperFunction,SMDPad,CuDef*%
%ADD14RoundRect,0.150000X-0.825000X-0.150000X0.825000X-0.150000X0.825000X0.150000X-0.825000X0.150000X0*%
%TD*%
%TA.AperFunction,SMDPad,CuDef*%
%ADD15RoundRect,0.250000X0.475000X-0.337500X0.475000X0.337500X-0.475000X0.337500X-0.475000X-0.337500X0*%
%TD*%
%TA.AperFunction,SMDPad,CuDef*%
%ADD16FreePoly0,180.000000*%
%TD*%
%TA.AperFunction,SMDPad,CuDef*%
%ADD17R,1.000000X1.500000*%
%TD*%
%TA.AperFunction,SMDPad,CuDef*%
%ADD18FreePoly1,180.000000*%
%TD*%
%TA.AperFunction,ViaPad*%
%ADD19C,0.600000*%
%TD*%
%TA.AperFunction,Conductor*%
%ADD20C,0.200000*%
%TD*%
G04 APERTURE END LIST*
D10*
%TA.AperFunction,EtchedComponent*%
%TO.C,J2*%
G36*
X139900000Y-81800000D02*
G01*
X139400000Y-81800000D01*
X139400000Y-81200000D01*
X139900000Y-81200000D01*
X139900000Y-81800000D01*
G37*
%TD.AperFunction*%
%TD*%
D11*
%TO.P,R1,1*%
%TO.N,VDD*%
X145412500Y-85000000D03*
%TO.P,R1,2*%
%TO.N,/SCL*%
X143587500Y-85000000D03*
%TD*%
D12*
%TO.P,J1,1,Pin_1*%
%TO.N,VDD*%
X133960000Y-91500000D03*
D13*
%TO.P,J1,2,Pin_2*%
%TO.N,GND*%
X136500000Y-91500000D03*
%TO.P,J1,3,Pin_3*%
%TO.N,/OUT*%
X139040000Y-91500000D03*
%TO.P,J1,4,Pin_4*%
%TO.N,/SCL*%
X141580000Y-91500000D03*
%TO.P,J1,5,Pin_5*%
%TO.N,/SDA*%
X144120000Y-91500000D03*
%TD*%
D14*
%TO.P,U1,1,VDD5V*%
%TO.N,VDD*%
X136525000Y-84095000D03*
%TO.P,U1,2,VDD3V3*%
%TO.N,Net-(U1-VDD3V3)*%
X136525000Y-85365000D03*
%TO.P,U1,3,OUT*%
%TO.N,/OUT*%
X136525000Y-86635000D03*
%TO.P,U1,4,GND*%
%TO.N,GND*%
X136525000Y-87905000D03*
%TO.P,U1,5,PGO*%
%TO.N,unconnected-(U1-PGO-Pad5)*%
X141475000Y-87905000D03*
%TO.P,U1,6,SDA*%
%TO.N,/SDA*%
X141475000Y-86635000D03*
%TO.P,U1,7,SCL*%
%TO.N,/SCL*%
X141475000Y-85365000D03*
%TO.P,U1,8,DIR*%
%TO.N,Net-(J2-Pin_2)*%
X141475000Y-84095000D03*
%TD*%
D15*
%TO.P,C2,1*%
%TO.N,GND*%
X134000000Y-88037500D03*
%TO.P,C2,2*%
%TO.N,Net-(U1-VDD3V3)*%
X134000000Y-85962500D03*
%TD*%
%TO.P,C1,1*%
%TO.N,VDD*%
X134000000Y-83537500D03*
%TO.P,C1,2*%
%TO.N,GND*%
X134000000Y-81462500D03*
%TD*%
D16*
%TO.P,J2,1,Pin_1*%
%TO.N,GND*%
X140300000Y-81500000D03*
D17*
%TO.P,J2,2,Pin_2*%
%TO.N,Net-(J2-Pin_2)*%
X139000000Y-81500000D03*
D18*
%TO.P,J2,3,Pin_3*%
%TO.N,VDD*%
X137700000Y-81500000D03*
%TD*%
D11*
%TO.P,R2,1*%
%TO.N,VDD*%
X145412500Y-87000000D03*
%TO.P,R2,2*%
%TO.N,/SDA*%
X143587500Y-87000000D03*
%TD*%
D19*
%TO.N,GND*%
X137500000Y-89500000D03*
X136000000Y-89500000D03*
X134500000Y-89500000D03*
X141000000Y-82500000D03*
X136000000Y-81500000D03*
X132000000Y-81500000D03*
%TD*%
D20*
%TO.N,VDD*%
X135967500Y-83537500D02*
X136525000Y-84095000D01*
X137700000Y-80401000D02*
X137700000Y-81500000D01*
X133960000Y-91500000D02*
X132974000Y-90514000D01*
X138000000Y-80101000D02*
X137700000Y-80401000D01*
X137700000Y-82920000D02*
X137700000Y-81500000D01*
X132974000Y-84563500D02*
X134000000Y-83537500D01*
X145412500Y-85000000D02*
X145412500Y-87000000D01*
X134000000Y-83537500D02*
X135967500Y-83537500D01*
X145412500Y-85000000D02*
X140513500Y-80101000D01*
X132974000Y-90514000D02*
X132974000Y-84563500D01*
X140513500Y-80101000D02*
X138000000Y-80101000D01*
X136525000Y-84095000D02*
X137700000Y-82920000D01*
%TO.N,Net-(U1-VDD3V3)*%
X134000000Y-85962500D02*
X135927500Y-85962500D01*
X135927500Y-85962500D02*
X136525000Y-85365000D01*
%TO.N,/SDA*%
X143222500Y-86635000D02*
X143587500Y-87000000D01*
X143587500Y-87000000D02*
X143587500Y-87087500D01*
X141475000Y-86635000D02*
X143222500Y-86635000D01*
X144120000Y-87620000D02*
X144120000Y-91500000D01*
X143587500Y-87087500D02*
X144120000Y-87620000D01*
%TO.N,/OUT*%
X137635000Y-86635000D02*
X139040000Y-88040000D01*
X139040000Y-88040000D02*
X139040000Y-91500000D01*
X136525000Y-86635000D02*
X137635000Y-86635000D01*
%TO.N,/SCL*%
X141128032Y-85365000D02*
X140199000Y-86294032D01*
X141475000Y-85365000D02*
X141128032Y-85365000D01*
X141840000Y-85000000D02*
X141475000Y-85365000D01*
X140199000Y-90119000D02*
X141580000Y-91500000D01*
X143587500Y-85000000D02*
X141840000Y-85000000D01*
X140199000Y-86294032D02*
X140199000Y-90119000D01*
%TO.N,Net-(J2-Pin_2)*%
X139000000Y-82450000D02*
X140645000Y-84095000D01*
X139000000Y-81500000D02*
X139000000Y-82450000D01*
X140645000Y-84095000D02*
X141475000Y-84095000D01*
%TD*%
%TA.AperFunction,Conductor*%
%TO.N,GND*%
G36*
X137091767Y-80020185D02*
G01*
X137137522Y-80072989D01*
X137147466Y-80142147D01*
X137142216Y-80161281D01*
X137142527Y-80161365D01*
X137140424Y-80169213D01*
X137140423Y-80169215D01*
X137099499Y-80321943D01*
X137099499Y-80321945D01*
X137099499Y-80382239D01*
X137079814Y-80449278D01*
X137050988Y-80480613D01*
X137035554Y-80492456D01*
X137035549Y-80492460D01*
X136942464Y-80585545D01*
X136942455Y-80585555D01*
X136862132Y-80690232D01*
X136862120Y-80690250D01*
X136796303Y-80804248D01*
X136796302Y-80804249D01*
X136745800Y-80926170D01*
X136711724Y-81053341D01*
X136694500Y-81184166D01*
X136694500Y-81815833D01*
X136711724Y-81946658D01*
X136745800Y-82073829D01*
X136796302Y-82195750D01*
X136796303Y-82195751D01*
X136862120Y-82309749D01*
X136862132Y-82309767D01*
X136929051Y-82396976D01*
X136942459Y-82414449D01*
X137012344Y-82484334D01*
X137035553Y-82507543D01*
X137050986Y-82519385D01*
X137053234Y-82522463D01*
X137056703Y-82524048D01*
X137073675Y-82550458D01*
X137092189Y-82575812D01*
X137093014Y-82580550D01*
X137094477Y-82582826D01*
X137099500Y-82617761D01*
X137099500Y-82619903D01*
X137079815Y-82686942D01*
X137063181Y-82707584D01*
X136612681Y-83158083D01*
X136551358Y-83191568D01*
X136481666Y-83186584D01*
X136437319Y-83158083D01*
X136336217Y-83056981D01*
X136336216Y-83056980D01*
X136249404Y-83006860D01*
X136249404Y-83006859D01*
X136249400Y-83006858D01*
X136199285Y-82977923D01*
X136046557Y-82936999D01*
X135888443Y-82936999D01*
X135880847Y-82936999D01*
X135880831Y-82937000D01*
X135263768Y-82937000D01*
X135196729Y-82917315D01*
X135158229Y-82878097D01*
X135067712Y-82731344D01*
X134943656Y-82607288D01*
X134940342Y-82605243D01*
X134938546Y-82603248D01*
X134937989Y-82602807D01*
X134938064Y-82602711D01*
X134893618Y-82553297D01*
X134882397Y-82484334D01*
X134910240Y-82420252D01*
X134940348Y-82394165D01*
X134943342Y-82392318D01*
X135067315Y-82268345D01*
X135159356Y-82119124D01*
X135159358Y-82119119D01*
X135214505Y-81952697D01*
X135214506Y-81952690D01*
X135224999Y-81849986D01*
X135225000Y-81849973D01*
X135225000Y-81712500D01*
X132775001Y-81712500D01*
X132775001Y-81849986D01*
X132785494Y-81952697D01*
X132840641Y-82119119D01*
X132840643Y-82119124D01*
X132932684Y-82268345D01*
X133056655Y-82392316D01*
X133056659Y-82392319D01*
X133059656Y-82394168D01*
X133061279Y-82395972D01*
X133062323Y-82396798D01*
X133062181Y-82396976D01*
X133106381Y-82446116D01*
X133117602Y-82515079D01*
X133089759Y-82579161D01*
X133059661Y-82605241D01*
X133056349Y-82607283D01*
X133056343Y-82607288D01*
X132932289Y-82731342D01*
X132840187Y-82880663D01*
X132840186Y-82880666D01*
X132785001Y-83047203D01*
X132785001Y-83047204D01*
X132785000Y-83047204D01*
X132774500Y-83149983D01*
X132774500Y-83862402D01*
X132754815Y-83929441D01*
X132738181Y-83950083D01*
X132493481Y-84194782D01*
X132493480Y-84194784D01*
X132452731Y-84265365D01*
X132443361Y-84281594D01*
X132443359Y-84281596D01*
X132414425Y-84331709D01*
X132414424Y-84331710D01*
X132398544Y-84390972D01*
X132373499Y-84484443D01*
X132373499Y-84484445D01*
X132373499Y-84652546D01*
X132373500Y-84652559D01*
X132373500Y-90427330D01*
X132373499Y-90427348D01*
X132373499Y-90593054D01*
X132373498Y-90593054D01*
X132412412Y-90738282D01*
X132414423Y-90745785D01*
X132441212Y-90792184D01*
X132493480Y-90882716D01*
X132578739Y-90967975D01*
X132583550Y-90974189D01*
X132593537Y-90999697D01*
X132606666Y-91023740D01*
X132608072Y-91036817D01*
X132609024Y-91039249D01*
X132608574Y-91041489D01*
X132609500Y-91050098D01*
X132609500Y-92397870D01*
X132609501Y-92397876D01*
X132615908Y-92457483D01*
X132666202Y-92592328D01*
X132666206Y-92592335D01*
X132752452Y-92707544D01*
X132752455Y-92707547D01*
X132867664Y-92793793D01*
X132867671Y-92793797D01*
X133002517Y-92844091D01*
X133002516Y-92844091D01*
X133009444Y-92844835D01*
X133062127Y-92850500D01*
X134857872Y-92850499D01*
X134917483Y-92844091D01*
X135052331Y-92793796D01*
X135167546Y-92707546D01*
X135253796Y-92592331D01*
X135304091Y-92457483D01*
X135310500Y-92397873D01*
X135310499Y-92373979D01*
X135313330Y-92360963D01*
X135323940Y-92341525D01*
X135330179Y-92320275D01*
X135346803Y-92299643D01*
X135346808Y-92299636D01*
X135346811Y-92299634D01*
X135346818Y-92299626D01*
X136017037Y-91629408D01*
X136034075Y-91692993D01*
X136099901Y-91807007D01*
X136192993Y-91900099D01*
X136307007Y-91965925D01*
X136370590Y-91982962D01*
X135738282Y-92615269D01*
X135738282Y-92615270D01*
X135792449Y-92654624D01*
X135981782Y-92751095D01*
X136183870Y-92816757D01*
X136393754Y-92850000D01*
X136606246Y-92850000D01*
X136816127Y-92816757D01*
X136816130Y-92816757D01*
X137018217Y-92751095D01*
X137207554Y-92654622D01*
X137261716Y-92615270D01*
X137261717Y-92615270D01*
X136629408Y-91982962D01*
X136692993Y-91965925D01*
X136807007Y-91900099D01*
X136900099Y-91807007D01*
X136965925Y-91692993D01*
X136982962Y-91629408D01*
X137615270Y-92261717D01*
X137615270Y-92261716D01*
X137654622Y-92207555D01*
X137659232Y-92198507D01*
X137707205Y-92147709D01*
X137775025Y-92130912D01*
X137841161Y-92153447D01*
X137880204Y-92198504D01*
X137884949Y-92207817D01*
X138009890Y-92379786D01*
X138160213Y-92530109D01*
X138332179Y-92655048D01*
X138332181Y-92655049D01*
X138332184Y-92655051D01*
X138521588Y-92751557D01*
X138723757Y-92817246D01*
X138933713Y-92850500D01*
X138933714Y-92850500D01*
X139146286Y-92850500D01*
X139146287Y-92850500D01*
X139356243Y-92817246D01*
X139558412Y-92751557D01*
X139747816Y-92655051D01*
X139834138Y-92592335D01*
X139919786Y-92530109D01*
X139919788Y-92530106D01*
X139919792Y-92530104D01*
X140070104Y-92379792D01*
X140070106Y-92379788D01*
X140070109Y-92379786D01*
X140195048Y-92207820D01*
X140195050Y-92207817D01*
X140195051Y-92207816D01*
X140199514Y-92199054D01*
X140247488Y-92148259D01*
X140315308Y-92131463D01*
X140381444Y-92153999D01*
X140420486Y-92199056D01*
X140424951Y-92207820D01*
X140549890Y-92379786D01*
X140700213Y-92530109D01*
X140872179Y-92655048D01*
X140872181Y-92655049D01*
X140872184Y-92655051D01*
X141061588Y-92751557D01*
X141263757Y-92817246D01*
X141473713Y-92850500D01*
X141473714Y-92850500D01*
X141686286Y-92850500D01*
X141686287Y-92850500D01*
X141896243Y-92817246D01*
X142098412Y-92751557D01*
X142287816Y-92655051D01*
X142374138Y-92592335D01*
X142459786Y-92530109D01*
X142459788Y-92530106D01*
X142459792Y-92530104D01*
X142610104Y-92379792D01*
X142610106Y-92379788D01*
X142610109Y-92379786D01*
X142735048Y-92207820D01*
X142735050Y-92207817D01*
X142735051Y-92207816D01*
X142739514Y-92199054D01*
X142787488Y-92148259D01*
X142855308Y-92131463D01*
X142921444Y-92153999D01*
X142960486Y-92199056D01*
X142964951Y-92207820D01*
X143089890Y-92379786D01*
X143240213Y-92530109D01*
X143412179Y-92655048D01*
X143412181Y-92655049D01*
X143412184Y-92655051D01*
X143601588Y-92751557D01*
X143803757Y-92817246D01*
X144013713Y-92850500D01*
X144013714Y-92850500D01*
X144226286Y-92850500D01*
X144226287Y-92850500D01*
X144436243Y-92817246D01*
X144638412Y-92751557D01*
X144827816Y-92655051D01*
X144914138Y-92592335D01*
X144999786Y-92530109D01*
X144999788Y-92530106D01*
X144999792Y-92530104D01*
X145150104Y-92379792D01*
X145150106Y-92379788D01*
X145150109Y-92379786D01*
X145275048Y-92207820D01*
X145275050Y-92207817D01*
X145275051Y-92207816D01*
X145371557Y-92018412D01*
X145437246Y-91816243D01*
X145470500Y-91606287D01*
X145470500Y-91393713D01*
X145437246Y-91183757D01*
X145371557Y-90981588D01*
X145275051Y-90792184D01*
X145275049Y-90792181D01*
X145275048Y-90792179D01*
X145150109Y-90620213D01*
X144999786Y-90469890D01*
X144827815Y-90344948D01*
X144827814Y-90344947D01*
X144788205Y-90324765D01*
X144737409Y-90276791D01*
X144720500Y-90214281D01*
X144720500Y-88040218D01*
X144740185Y-87973179D01*
X144792989Y-87927424D01*
X144862147Y-87917480D01*
X144883498Y-87922510D01*
X145012247Y-87965174D01*
X145113323Y-87975500D01*
X145711676Y-87975499D01*
X145711684Y-87975498D01*
X145711687Y-87975498D01*
X145767030Y-87969844D01*
X145812753Y-87965174D01*
X145976516Y-87910908D01*
X146123350Y-87820340D01*
X146245340Y-87698350D01*
X146335908Y-87551516D01*
X146390174Y-87387753D01*
X146400500Y-87286677D01*
X146400499Y-86713324D01*
X146390174Y-86612247D01*
X146335908Y-86448484D01*
X146245340Y-86301650D01*
X146123350Y-86179660D01*
X146123349Y-86179659D01*
X146071902Y-86147926D01*
X146065078Y-86140339D01*
X146055797Y-86136101D01*
X146042109Y-86114802D01*
X146025178Y-86095978D01*
X146022533Y-86084341D01*
X146018023Y-86077323D01*
X146013000Y-86042388D01*
X146013000Y-85957610D01*
X146032685Y-85890571D01*
X146071901Y-85852073D01*
X146123350Y-85820340D01*
X146245340Y-85698350D01*
X146335908Y-85551516D01*
X146390174Y-85387753D01*
X146400500Y-85286677D01*
X146400499Y-84713324D01*
X146393270Y-84642560D01*
X146390174Y-84612247D01*
X146372799Y-84559814D01*
X146335908Y-84448484D01*
X146245340Y-84301650D01*
X146123350Y-84179660D01*
X145976516Y-84089092D01*
X145812753Y-84034826D01*
X145812751Y-84034825D01*
X145711684Y-84024500D01*
X145711677Y-84024500D01*
X145337597Y-84024500D01*
X145270558Y-84004815D01*
X145249916Y-83988181D01*
X141473916Y-80212181D01*
X141440431Y-80150858D01*
X141445415Y-80081166D01*
X141487287Y-80025233D01*
X141552751Y-80000816D01*
X141561597Y-80000500D01*
X146875500Y-80000500D01*
X146942539Y-80020185D01*
X146988294Y-80072989D01*
X146999500Y-80124500D01*
X146999500Y-95375500D01*
X146979815Y-95442539D01*
X146927011Y-95488294D01*
X146875500Y-95499500D01*
X131124500Y-95499500D01*
X131057461Y-95479815D01*
X131011706Y-95427011D01*
X131000500Y-95375500D01*
X131000500Y-81075013D01*
X132775000Y-81075013D01*
X132775000Y-81212500D01*
X133750000Y-81212500D01*
X134250000Y-81212500D01*
X135224999Y-81212500D01*
X135224999Y-81075028D01*
X135224998Y-81075013D01*
X135214505Y-80972302D01*
X135159358Y-80805880D01*
X135159356Y-80805875D01*
X135067315Y-80656654D01*
X134943345Y-80532684D01*
X134794124Y-80440643D01*
X134794119Y-80440641D01*
X134627697Y-80385494D01*
X134627690Y-80385493D01*
X134524986Y-80375000D01*
X134250000Y-80375000D01*
X134250000Y-81212500D01*
X133750000Y-81212500D01*
X133750000Y-80375000D01*
X133475029Y-80375000D01*
X133475012Y-80375001D01*
X133372302Y-80385494D01*
X133205880Y-80440641D01*
X133205875Y-80440643D01*
X133056654Y-80532684D01*
X132932684Y-80656654D01*
X132840643Y-80805875D01*
X132840641Y-80805880D01*
X132785494Y-80972302D01*
X132785493Y-80972309D01*
X132775000Y-81075013D01*
X131000500Y-81075013D01*
X131000500Y-80124500D01*
X131020185Y-80057461D01*
X131072989Y-80011706D01*
X131124500Y-80000500D01*
X137024728Y-80000500D01*
X137091767Y-80020185D01*
G37*
%TD.AperFunction*%
%TA.AperFunction,Conductor*%
G36*
X136468039Y-87674685D02*
G01*
X136513794Y-87727489D01*
X136525000Y-87779000D01*
X136525000Y-87905000D01*
X136651000Y-87905000D01*
X136718039Y-87924685D01*
X136763794Y-87977489D01*
X136775000Y-88029000D01*
X136775000Y-88705000D01*
X137415634Y-88705000D01*
X137415649Y-88704999D01*
X137452489Y-88702100D01*
X137452495Y-88702099D01*
X137610193Y-88656283D01*
X137610196Y-88656282D01*
X137751552Y-88572685D01*
X137751561Y-88572678D01*
X137867678Y-88456561D01*
X137867685Y-88456552D01*
X137951282Y-88315196D01*
X137951283Y-88315193D01*
X137997099Y-88157495D01*
X137997100Y-88157489D01*
X137998698Y-88137185D01*
X138023581Y-88071897D01*
X138079812Y-88030425D01*
X138149537Y-88025938D01*
X138209997Y-88059232D01*
X138403181Y-88252416D01*
X138436666Y-88313739D01*
X138439500Y-88340097D01*
X138439500Y-90214281D01*
X138419815Y-90281320D01*
X138371795Y-90324765D01*
X138332185Y-90344947D01*
X138332184Y-90344948D01*
X138160213Y-90469890D01*
X138009890Y-90620213D01*
X137884949Y-90792182D01*
X137880202Y-90801499D01*
X137832227Y-90852293D01*
X137764405Y-90869087D01*
X137698271Y-90846548D01*
X137659234Y-90801495D01*
X137654626Y-90792452D01*
X137615270Y-90738282D01*
X137615269Y-90738282D01*
X136982962Y-91370590D01*
X136965925Y-91307007D01*
X136900099Y-91192993D01*
X136807007Y-91099901D01*
X136692993Y-91034075D01*
X136629409Y-91017037D01*
X137261716Y-90384728D01*
X137207550Y-90345375D01*
X137018217Y-90248904D01*
X136816129Y-90183242D01*
X136606246Y-90150000D01*
X136393754Y-90150000D01*
X136183872Y-90183242D01*
X136183869Y-90183242D01*
X135981782Y-90248904D01*
X135792439Y-90345380D01*
X135738282Y-90384727D01*
X135738282Y-90384728D01*
X136370591Y-91017037D01*
X136307007Y-91034075D01*
X136192993Y-91099901D01*
X136099901Y-91192993D01*
X136034075Y-91307007D01*
X136017037Y-91370591D01*
X135346818Y-90700372D01*
X135313333Y-90639049D01*
X135313330Y-90639036D01*
X135310499Y-90626015D01*
X135310499Y-90602128D01*
X135304091Y-90542517D01*
X135261129Y-90427330D01*
X135253798Y-90407673D01*
X135253793Y-90407664D01*
X135167547Y-90292455D01*
X135167544Y-90292452D01*
X135052335Y-90206206D01*
X135052328Y-90206202D01*
X134917482Y-90155908D01*
X134917483Y-90155908D01*
X134857883Y-90149501D01*
X134857881Y-90149500D01*
X134857873Y-90149500D01*
X134857865Y-90149500D01*
X133698500Y-90149500D01*
X133631461Y-90129815D01*
X133585706Y-90077011D01*
X133574500Y-90025500D01*
X133574500Y-89248999D01*
X133594185Y-89181960D01*
X133646989Y-89136205D01*
X133698500Y-89124999D01*
X133750000Y-89124999D01*
X133750000Y-88287500D01*
X134250000Y-88287500D01*
X134250000Y-89124999D01*
X134524972Y-89124999D01*
X134524986Y-89124998D01*
X134627697Y-89114505D01*
X134794119Y-89059358D01*
X134794124Y-89059356D01*
X134943345Y-88967315D01*
X135067315Y-88843345D01*
X135159356Y-88694124D01*
X135159357Y-88694120D01*
X135167398Y-88669855D01*
X135207169Y-88612409D01*
X135271684Y-88585584D01*
X135340461Y-88597898D01*
X135348226Y-88602124D01*
X135439803Y-88656282D01*
X135439806Y-88656283D01*
X135597504Y-88702099D01*
X135597510Y-88702100D01*
X135634350Y-88704999D01*
X135634366Y-88705000D01*
X136275000Y-88705000D01*
X136275000Y-88155000D01*
X135355000Y-88155000D01*
X135355000Y-88163500D01*
X135335315Y-88230539D01*
X135282511Y-88276294D01*
X135231000Y-88287500D01*
X134250000Y-88287500D01*
X133750000Y-88287500D01*
X133750000Y-88161500D01*
X133769685Y-88094461D01*
X133822489Y-88048706D01*
X133874000Y-88037500D01*
X134000000Y-88037500D01*
X134000000Y-87911500D01*
X134019685Y-87844461D01*
X134072489Y-87798706D01*
X134124000Y-87787500D01*
X134920000Y-87787500D01*
X134920000Y-87779000D01*
X134939685Y-87711961D01*
X134992489Y-87666206D01*
X135044000Y-87655000D01*
X136401000Y-87655000D01*
X136468039Y-87674685D01*
G37*
%TD.AperFunction*%
%TA.AperFunction,Conductor*%
G36*
X140280442Y-80721185D02*
G01*
X140301084Y-80737819D01*
X142713422Y-83150157D01*
X142746907Y-83211480D01*
X142741923Y-83281172D01*
X142700051Y-83337105D01*
X142634587Y-83361522D01*
X142566314Y-83346670D01*
X142562623Y-83344572D01*
X142560396Y-83343255D01*
X142560393Y-83343254D01*
X142402573Y-83297402D01*
X142402567Y-83297401D01*
X142365701Y-83294500D01*
X142365694Y-83294500D01*
X140745097Y-83294500D01*
X140678058Y-83274815D01*
X140657416Y-83258181D01*
X139985956Y-82586721D01*
X139952471Y-82525398D01*
X139957454Y-82455710D01*
X139994091Y-82357483D01*
X140000500Y-82297873D01*
X140000499Y-80825499D01*
X140003049Y-80816814D01*
X140001761Y-80807853D01*
X140012739Y-80783812D01*
X140020184Y-80758461D01*
X140027024Y-80752533D01*
X140030786Y-80744297D01*
X140053018Y-80730009D01*
X140072987Y-80712706D01*
X140083502Y-80710418D01*
X140089564Y-80706523D01*
X140124499Y-80701500D01*
X140213403Y-80701500D01*
X140280442Y-80721185D01*
G37*
%TD.AperFunction*%
%TD*%
M02*
