ISO-10303-21;
HEADER;
/* Generated by software containing ST-Developer
 * from STEP Tools, Inc. (www.steptools.com) 
 */
/* OPTION: using custom renumber hook */

FILE_DESCRIPTION(
/* description */ ('STEP AP242 Edition 2',
'CAx-IF Rec.Pracs.---Representation and Presentation of Product Manufa
cturing Information (PMI)---4.0---2014-10-13',
'CAx-IF Rec.Pracs.---3D Tessellated Geometry---0.4---2014-09-14','2;1',
'CAx-IF Rec.Pracs.---User Defined Attributes---1.5---2016-08-15'),
/* implementation_level */ '2;1');

FILE_NAME(
/* name */ 'Back Plate - Plate',
/* time_stamp */ '2026-08-13T15:35:18Z',
/* author */ (''),
/* organization */ (''),
/* preprocessor_version */ 'ST-DEVELOPER v20',
/* originating_system */ 'ONSHAPE BY PTC INC, 1.219',
/* authorisation */ '  ');

FILE_SCHEMA (('AP242_MANAGED_MODEL_BASED_3D_ENGINEERING_MIM_LF { 1 0 10303 442 3 1 4 }'));
ENDSEC;

DATA;
#10=SHAPE_REPRESENTATION_RELATIONSHIP('','',#245,#11);
#11=ADVANCED_BREP_SHAPE_REPRESENTATION('',(#243),#387);
#12=CYLINDRICAL_SURFACE('',#262,0.0013);
#13=CYLINDRICAL_SURFACE('',#263,0.0013);
#14=CIRCLE('',#250,0.0013);
#15=CIRCLE('',#251,0.0013);
#16=CIRCLE('',#254,0.0013);
#17=CIRCLE('',#255,0.0013);
#18=ORIENTED_EDGE('',*,*,#74,.F.);
#19=ORIENTED_EDGE('',*,*,#75,.T.);
#20=ORIENTED_EDGE('',*,*,#76,.T.);
#21=ORIENTED_EDGE('',*,*,#77,.F.);
#22=ORIENTED_EDGE('',*,*,#78,.F.);
#23=ORIENTED_EDGE('',*,*,#79,.T.);
#24=ORIENTED_EDGE('',*,*,#80,.T.);
#25=ORIENTED_EDGE('',*,*,#81,.F.);
#26=ORIENTED_EDGE('',*,*,#82,.F.);
#27=ORIENTED_EDGE('',*,*,#83,.F.);
#28=ORIENTED_EDGE('',*,*,#74,.T.);
#29=ORIENTED_EDGE('',*,*,#84,.T.);
#30=ORIENTED_EDGE('',*,*,#85,.T.);
#31=ORIENTED_EDGE('',*,*,#86,.T.);
#32=ORIENTED_EDGE('',*,*,#87,.T.);
#33=ORIENTED_EDGE('',*,*,#88,.F.);
#34=ORIENTED_EDGE('',*,*,#75,.F.);
#35=ORIENTED_EDGE('',*,*,#83,.T.);
#36=ORIENTED_EDGE('',*,*,#89,.T.);
#37=ORIENTED_EDGE('',*,*,#90,.F.);
#38=ORIENTED_EDGE('',*,*,#76,.F.);
#39=ORIENTED_EDGE('',*,*,#88,.T.);
#40=ORIENTED_EDGE('',*,*,#91,.F.);
#41=ORIENTED_EDGE('',*,*,#92,.F.);
#42=ORIENTED_EDGE('',*,*,#93,.F.);
#43=ORIENTED_EDGE('',*,*,#84,.F.);
#44=ORIENTED_EDGE('',*,*,#77,.T.);
#45=ORIENTED_EDGE('',*,*,#90,.T.);
#46=ORIENTED_EDGE('',*,*,#82,.T.);
#47=ORIENTED_EDGE('',*,*,#93,.T.);
#48=ORIENTED_EDGE('',*,*,#89,.F.);
#49=ORIENTED_EDGE('',*,*,#87,.F.);
#50=ORIENTED_EDGE('',*,*,#79,.F.);
#51=ORIENTED_EDGE('',*,*,#94,.F.);
#52=ORIENTED_EDGE('',*,*,#95,.T.);
#53=ORIENTED_EDGE('',*,*,#96,.T.);
#54=ORIENTED_EDGE('',*,*,#78,.T.);
#55=ORIENTED_EDGE('',*,*,#97,.F.);
#56=ORIENTED_EDGE('',*,*,#98,.F.);
#57=ORIENTED_EDGE('',*,*,#94,.T.);
#58=ORIENTED_EDGE('',*,*,#81,.T.);
#59=ORIENTED_EDGE('',*,*,#99,.F.);
#60=ORIENTED_EDGE('',*,*,#100,.F.);
#61=ORIENTED_EDGE('',*,*,#97,.T.);
#62=ORIENTED_EDGE('',*,*,#80,.F.);
#63=ORIENTED_EDGE('',*,*,#96,.F.);
#64=ORIENTED_EDGE('',*,*,#101,.T.);
#65=ORIENTED_EDGE('',*,*,#99,.T.);
#66=ORIENTED_EDGE('',*,*,#95,.F.);
#67=ORIENTED_EDGE('',*,*,#98,.T.);
#68=ORIENTED_EDGE('',*,*,#100,.T.);
#69=ORIENTED_EDGE('',*,*,#101,.F.);
#70=ORIENTED_EDGE('',*,*,#92,.T.);
#71=ORIENTED_EDGE('',*,*,#86,.F.);
#72=ORIENTED_EDGE('',*,*,#91,.T.);
#73=ORIENTED_EDGE('',*,*,#85,.F.);
#74=EDGE_CURVE('',#102,#103,#122,.T.);
#75=EDGE_CURVE('',#102,#104,#123,.T.);
#76=EDGE_CURVE('',#104,#105,#124,.T.);
#77=EDGE_CURVE('',#103,#105,#125,.T.);
#78=EDGE_CURVE('',#106,#107,#126,.T.);
#79=EDGE_CURVE('',#106,#108,#127,.T.);
#80=EDGE_CURVE('',#108,#109,#128,.T.);
#81=EDGE_CURVE('',#107,#109,#129,.T.);
#82=EDGE_CURVE('',#110,#111,#130,.T.);
#83=EDGE_CURVE('',#102,#110,#131,.T.);
#84=EDGE_CURVE('',#103,#111,#132,.T.);
#85=EDGE_CURVE('',#112,#112,#14,.T.);
#86=EDGE_CURVE('',#113,#113,#15,.T.);
#87=EDGE_CURVE('',#110,#114,#133,.T.);
#88=EDGE_CURVE('',#104,#114,#134,.T.);
#89=EDGE_CURVE('',#114,#115,#135,.T.);
#90=EDGE_CURVE('',#105,#115,#136,.T.);
#91=EDGE_CURVE('',#116,#116,#16,.T.);
#92=EDGE_CURVE('',#117,#117,#17,.T.);
#93=EDGE_CURVE('',#111,#115,#137,.T.);
#94=EDGE_CURVE('',#118,#106,#138,.T.);
#95=EDGE_CURVE('',#118,#119,#139,.T.);
#96=EDGE_CURVE('',#119,#108,#140,.T.);
#97=EDGE_CURVE('',#120,#107,#141,.T.);
#98=EDGE_CURVE('',#118,#120,#142,.T.);
#99=EDGE_CURVE('',#121,#109,#143,.T.);
#100=EDGE_CURVE('',#120,#121,#144,.T.);
#101=EDGE_CURVE('',#119,#121,#145,.T.);
#102=VERTEX_POINT('',#327);
#103=VERTEX_POINT('',#328);
#104=VERTEX_POINT('',#330);
#105=VERTEX_POINT('',#332);
#106=VERTEX_POINT('',#335);
#107=VERTEX_POINT('',#336);
#108=VERTEX_POINT('',#338);
#109=VERTEX_POINT('',#340);
#110=VERTEX_POINT('',#344);
#111=VERTEX_POINT('',#345);
#112=VERTEX_POINT('',#350);
#113=VERTEX_POINT('',#352);
#114=VERTEX_POINT('',#354);
#115=VERTEX_POINT('',#358);
#116=VERTEX_POINT('',#362);
#117=VERTEX_POINT('',#364);
#118=VERTEX_POINT('',#369);
#119=VERTEX_POINT('',#371);
#120=VERTEX_POINT('',#375);
#121=VERTEX_POINT('',#379);
#122=LINE('',#326,#146);
#123=LINE('',#329,#147);
#124=LINE('',#331,#148);
#125=LINE('',#333,#149);
#126=LINE('',#334,#150);
#127=LINE('',#337,#151);
#128=LINE('',#339,#152);
#129=LINE('',#341,#153);
#130=LINE('',#343,#154);
#131=LINE('',#346,#155);
#132=LINE('',#347,#156);
#133=LINE('',#353,#157);
#134=LINE('',#355,#158);
#135=LINE('',#357,#159);
#136=LINE('',#359,#160);
#137=LINE('',#365,#161);
#138=LINE('',#368,#162);
#139=LINE('',#370,#163);
#140=LINE('',#372,#164);
#141=LINE('',#374,#165);
#142=LINE('',#376,#166);
#143=LINE('',#378,#167);
#144=LINE('',#380,#168);
#145=LINE('',#382,#169);
#146=VECTOR('',#268,1.);
#147=VECTOR('',#269,1.);
#148=VECTOR('',#270,1.);
#149=VECTOR('',#271,1.);
#150=VECTOR('',#272,1.);
#151=VECTOR('',#273,1.);
#152=VECTOR('',#274,1.);
#153=VECTOR('',#275,1.);
#154=VECTOR('',#278,1.);
#155=VECTOR('',#279,1.);
#156=VECTOR('',#280,1.);
#157=VECTOR('',#287,1.);
#158=VECTOR('',#288,1.);
#159=VECTOR('',#291,1.);
#160=VECTOR('',#292,1.);
#161=VECTOR('',#299,1.);
#162=VECTOR('',#304,1.);
#163=VECTOR('',#305,1.);
#164=VECTOR('',#306,1.);
#165=VECTOR('',#309,1.);
#166=VECTOR('',#310,1.);
#167=VECTOR('',#313,1.);
#168=VECTOR('',#314,1.);
#169=VECTOR('',#317,1.);
#170=EDGE_LOOP('',(#18,#19,#20,#21));
#171=EDGE_LOOP('',(#22,#23,#24,#25));
#172=EDGE_LOOP('',(#26,#27,#28,#29));
#173=EDGE_LOOP('',(#30));
#174=EDGE_LOOP('',(#31));
#175=EDGE_LOOP('',(#32,#33,#34,#35));
#176=EDGE_LOOP('',(#36,#37,#38,#39));
#177=EDGE_LOOP('',(#40));
#178=EDGE_LOOP('',(#41));
#179=EDGE_LOOP('',(#42,#43,#44,#45));
#180=EDGE_LOOP('',(#46,#47,#48,#49));
#181=EDGE_LOOP('',(#50,#51,#52,#53));
#182=EDGE_LOOP('',(#54,#55,#56,#57));
#183=EDGE_LOOP('',(#58,#59,#60,#61));
#184=EDGE_LOOP('',(#62,#63,#64,#65));
#185=EDGE_LOOP('',(#66,#67,#68,#69));
#186=EDGE_LOOP('',(#70));
#187=EDGE_LOOP('',(#71));
#188=EDGE_LOOP('',(#72));
#189=EDGE_LOOP('',(#73));
#190=FACE_BOUND('',#170,.T.);
#191=FACE_BOUND('',#171,.T.);
#192=FACE_BOUND('',#172,.T.);
#193=FACE_BOUND('',#173,.T.);
#194=FACE_BOUND('',#174,.T.);
#195=FACE_BOUND('',#175,.T.);
#196=FACE_BOUND('',#176,.T.);
#197=FACE_BOUND('',#177,.T.);
#198=FACE_BOUND('',#178,.T.);
#199=FACE_BOUND('',#179,.T.);
#200=FACE_BOUND('',#180,.T.);
#201=FACE_BOUND('',#181,.T.);
#202=FACE_BOUND('',#182,.T.);
#203=FACE_BOUND('',#183,.T.);
#204=FACE_BOUND('',#184,.T.);
#205=FACE_BOUND('',#185,.T.);
#206=FACE_BOUND('',#186,.T.);
#207=FACE_BOUND('',#187,.T.);
#208=FACE_BOUND('',#188,.T.);
#209=FACE_BOUND('',#189,.T.);
#210=PLANE('',#247);
#211=PLANE('',#248);
#212=PLANE('',#249);
#213=PLANE('',#252);
#214=PLANE('',#253);
#215=PLANE('',#256);
#216=PLANE('',#257);
#217=PLANE('',#258);
#218=PLANE('',#259);
#219=PLANE('',#260);
#220=PLANE('',#261);
#221=ADVANCED_FACE('',(#190,#191),#210,.T.);
#222=ADVANCED_FACE('',(#192),#211,.T.);
#223=ADVANCED_FACE('',(#193,#194,#195),#212,.F.);
#224=ADVANCED_FACE('',(#196),#213,.F.);
#225=ADVANCED_FACE('',(#197,#198,#199),#214,.T.);
#226=ADVANCED_FACE('',(#200),#215,.F.);
#227=ADVANCED_FACE('',(#201),#216,.T.);
#228=ADVANCED_FACE('',(#202),#217,.F.);
#229=ADVANCED_FACE('',(#203),#218,.F.);
#230=ADVANCED_FACE('',(#204),#219,.T.);
#231=ADVANCED_FACE('',(#205),#220,.T.);
#232=ADVANCED_FACE('',(#206,#207),#12,.F.);
#233=ADVANCED_FACE('',(#208,#209),#13,.F.);
#234=CLOSED_SHELL('',(#221,#222,#223,#224,#225,#226,#227,#228,#229,#230,
#231,#232,#233));
#235=STYLED_ITEM('',(#236),#243);
#236=PRESENTATION_STYLE_ASSIGNMENT((#237));
#237=SURFACE_STYLE_USAGE(.BOTH.,#238);
#238=SURFACE_SIDE_STYLE('',(#239));
#239=SURFACE_STYLE_FILL_AREA(#240);
#240=FILL_AREA_STYLE('',(#241));
#241=FILL_AREA_STYLE_COLOUR('',#242);
#242=COLOUR_RGB('',0.615686274509804,0.811764705882353,0.929411764705882);
#243=MANIFOLD_SOLID_BREP('Plate',#234);
#244=SHAPE_DEFINITION_REPRESENTATION(#392,#245);
#245=SHAPE_REPRESENTATION('Plate',(#246),#387);
#246=AXIS2_PLACEMENT_3D('',#324,#264,#265);
#247=AXIS2_PLACEMENT_3D('',#325,#266,#267);
#248=AXIS2_PLACEMENT_3D('',#342,#276,#277);
#249=AXIS2_PLACEMENT_3D('',#348,#281,#282);
#250=AXIS2_PLACEMENT_3D('',#349,#283,#284);
#251=AXIS2_PLACEMENT_3D('',#351,#285,#286);
#252=AXIS2_PLACEMENT_3D('',#356,#289,#290);
#253=AXIS2_PLACEMENT_3D('',#360,#293,#294);
#254=AXIS2_PLACEMENT_3D('',#361,#295,#296);
#255=AXIS2_PLACEMENT_3D('',#363,#297,#298);
#256=AXIS2_PLACEMENT_3D('',#366,#300,#301);
#257=AXIS2_PLACEMENT_3D('',#367,#302,#303);
#258=AXIS2_PLACEMENT_3D('',#373,#307,#308);
#259=AXIS2_PLACEMENT_3D('',#377,#311,#312);
#260=AXIS2_PLACEMENT_3D('',#381,#315,#316);
#261=AXIS2_PLACEMENT_3D('',#383,#318,#319);
#262=AXIS2_PLACEMENT_3D('',#384,#320,#321);
#263=AXIS2_PLACEMENT_3D('',#385,#322,#323);
#264=DIRECTION('',(0.,0.,1.));
#265=DIRECTION('',(1.,0.,0.));
#266=DIRECTION('',(1.,0.,0.));
#267=DIRECTION('',(0.,1.,0.));
#268=DIRECTION('',(0.,-1.,-1.46081976924363E-16));
#269=DIRECTION('',(0.,-1.85037170770859E-16,1.));
#270=DIRECTION('',(0.,-1.,0.));
#271=DIRECTION('',(0.,-1.85037170770859E-16,1.));
#272=DIRECTION('',(0.,0.,-1.));
#273=DIRECTION('',(0.,1.,0.));
#274=DIRECTION('',(0.,0.,-1.));
#275=DIRECTION('',(0.,1.,0.));
#276=DIRECTION('',(0.,1.46081976924363E-16,-1.));
#277=DIRECTION('',(0.,1.,1.46081976924363E-16));
#278=DIRECTION('',(0.,-1.,-1.46081976924363E-16));
#279=DIRECTION('',(-1.,0.,0.));
#280=DIRECTION('',(-1.,0.,0.));
#281=DIRECTION('',(0.,-1.,-1.85037170770859E-16));
#282=DIRECTION('',(0.,1.85037170770859E-16,-1.));
#283=DIRECTION('',(0.,-1.,-1.85037170770859E-16));
#284=DIRECTION('',(0.,1.85037170770859E-16,-1.));
#285=DIRECTION('',(0.,-1.,-1.85037170770859E-16));
#286=DIRECTION('',(0.,1.85037170770859E-16,-1.));
#287=DIRECTION('',(0.,-1.85037170770859E-16,1.));
#288=DIRECTION('',(-1.,0.,0.));
#289=DIRECTION('',(0.,0.,-1.));
#290=DIRECTION('',(-1.,0.,0.));
#291=DIRECTION('',(0.,-1.,0.));
#292=DIRECTION('',(-1.,0.,0.));
#293=DIRECTION('',(0.,-1.,-1.85037170770859E-16));
#294=DIRECTION('',(0.,1.85037170770859E-16,-1.));
#295=DIRECTION('',(0.,-1.,-1.85037170770859E-16));
#296=DIRECTION('',(0.,1.85037170770859E-16,-1.));
#297=DIRECTION('',(0.,-1.,-1.85037170770859E-16));
#298=DIRECTION('',(0.,1.85037170770859E-16,-1.));
#299=DIRECTION('',(0.,-1.85037170770859E-16,1.));
#300=DIRECTION('',(1.,0.,0.));
#301=DIRECTION('',(0.,1.,0.));
#302=DIRECTION('',(0.,0.,1.));
#303=DIRECTION('',(1.,0.,0.));
#304=DIRECTION('',(-1.,0.,0.));
#305=DIRECTION('',(0.,1.,0.));
#306=DIRECTION('',(-1.,0.,0.));
#307=DIRECTION('',(0.,1.,0.));
#308=DIRECTION('',(0.,0.,1.));
#309=DIRECTION('',(-1.,0.,0.));
#310=DIRECTION('',(0.,0.,-1.));
#311=DIRECTION('',(0.,0.,1.));
#312=DIRECTION('',(1.,0.,0.));
#313=DIRECTION('',(-1.,0.,0.));
#314=DIRECTION('',(0.,1.,0.));
#315=DIRECTION('',(0.,1.,0.));
#316=DIRECTION('',(0.,0.,1.));
#317=DIRECTION('',(0.,0.,-1.));
#318=DIRECTION('',(1.,0.,0.));
#319=DIRECTION('',(0.,1.,0.));
#320=DIRECTION('',(0.,-1.,-1.85037170770859E-16));
#321=DIRECTION('',(0.,1.85037170770859E-16,-1.));
#322=DIRECTION('',(0.,-1.,-1.85037170770859E-16));
#323=DIRECTION('',(0.,1.85037170770859E-16,-1.));
#324=CARTESIAN_POINT('',(0.,0.,0.));
#325=CARTESIAN_POINT('',(0.005,6.93889390390723E-18,0.));
#326=CARTESIAN_POINT('',(0.005,2.08166817117217E-17,-0.075));
#327=CARTESIAN_POINT('',(0.005,0.0475,-0.075));
#328=CARTESIAN_POINT('',(0.005,-0.0475,-0.075));
#329=CARTESIAN_POINT('',(0.005,0.0475,0.));
#330=CARTESIAN_POINT('',(0.005,0.0475,0.075));
#331=CARTESIAN_POINT('',(0.005,-6.93889390390723E-18,0.075));
#332=CARTESIAN_POINT('',(0.005,-0.0475,0.075));
#333=CARTESIAN_POINT('',(0.005,-0.0475,0.));
#334=CARTESIAN_POINT('',(0.005,-0.0465,0.0325));
#335=CARTESIAN_POINT('',(0.005,-0.0465,0.035));
#336=CARTESIAN_POINT('',(0.005,-0.0465,0.03));
#337=CARTESIAN_POINT('',(0.005,0.,0.035));
#338=CARTESIAN_POINT('',(0.005,0.0465,0.035));
#339=CARTESIAN_POINT('',(0.005,0.0465,0.0325));
#340=CARTESIAN_POINT('',(0.005,0.0465,0.03));
#341=CARTESIAN_POINT('',(0.005,-0.04575,0.03));
#342=CARTESIAN_POINT('',(0.005,2.08166817117217E-17,-0.075));
#343=CARTESIAN_POINT('',(0.,2.08166817117217E-17,-0.075));
#344=CARTESIAN_POINT('',(0.,0.0475,-0.075));
#345=CARTESIAN_POINT('',(0.,-0.0475,-0.075));
#346=CARTESIAN_POINT('',(0.005,0.0475,-0.075));
#347=CARTESIAN_POINT('',(0.005,-0.0475,-0.075));
#348=CARTESIAN_POINT('',(0.005,0.0475,0.));
#349=CARTESIAN_POINT('',(0.003,0.0475,0.045));
#350=CARTESIAN_POINT('',(0.003,0.0475,0.0437));
#351=CARTESIAN_POINT('',(0.003,0.0475,-0.045));
#352=CARTESIAN_POINT('',(0.003,0.0475,-0.0463));
#353=CARTESIAN_POINT('',(0.,0.0475,0.));
#354=CARTESIAN_POINT('',(0.,0.0475,0.075));
#355=CARTESIAN_POINT('',(0.005,0.0475,0.075));
#356=CARTESIAN_POINT('',(0.005,-6.93889390390723E-18,0.075));
#357=CARTESIAN_POINT('',(0.,-6.93889390390723E-18,0.075));
#358=CARTESIAN_POINT('',(0.,-0.0475,0.075));
#359=CARTESIAN_POINT('',(0.005,-0.0475,0.075));
#360=CARTESIAN_POINT('',(0.005,-0.0475,0.));
#361=CARTESIAN_POINT('',(0.003,-0.0475,0.045));
#362=CARTESIAN_POINT('',(0.003,-0.0475,0.0437));
#363=CARTESIAN_POINT('',(0.003,-0.0475,-0.045));
#364=CARTESIAN_POINT('',(0.003,-0.0475,-0.0463));
#365=CARTESIAN_POINT('',(0.,-0.0475,0.));
#366=CARTESIAN_POINT('',(0.,6.93889390390723E-18,0.));
#367=CARTESIAN_POINT('',(0.075,0.,0.035));
#368=CARTESIAN_POINT('',(0.075,-0.0465,0.035));
#369=CARTESIAN_POINT('',(0.075,-0.0465,0.035));
#370=CARTESIAN_POINT('',(0.075,0.,0.035));
#371=CARTESIAN_POINT('',(0.075,0.0465,0.035));
#372=CARTESIAN_POINT('',(0.075,0.0465,0.035));
#373=CARTESIAN_POINT('',(0.075,-0.0465,0.0325));
#374=CARTESIAN_POINT('',(0.075,-0.0465,0.03));
#375=CARTESIAN_POINT('',(0.075,-0.0465,0.03));
#376=CARTESIAN_POINT('',(0.075,-0.0465,0.0325));
#377=CARTESIAN_POINT('',(0.075,-0.04575,0.03));
#378=CARTESIAN_POINT('',(0.075,0.0465,0.03));
#379=CARTESIAN_POINT('',(0.075,0.0465,0.03));
#380=CARTESIAN_POINT('',(0.075,-0.04575,0.03));
#381=CARTESIAN_POINT('',(0.075,0.0465,0.0325));
#382=CARTESIAN_POINT('',(0.075,0.0465,0.0325));
#383=CARTESIAN_POINT('',(0.075,6.93889390390723E-18,0.));
#384=CARTESIAN_POINT('',(0.003,0.145253352673964,-0.045));
#385=CARTESIAN_POINT('',(0.003,0.145253352673964,0.045));
#386=MECHANICAL_DESIGN_GEOMETRIC_PRESENTATION_REPRESENTATION('',(#235),
#387);
#387=(
GEOMETRIC_REPRESENTATION_CONTEXT(3)
GLOBAL_UNCERTAINTY_ASSIGNED_CONTEXT((#388))
GLOBAL_UNIT_ASSIGNED_CONTEXT((#391,#390,#389))
REPRESENTATION_CONTEXT('Plate','TOP_LEVEL_ASSEMBLY_PART')
);
#388=UNCERTAINTY_MEASURE_WITH_UNIT(LENGTH_MEASURE(1.E-8),#391,
'DISTANCE_ACCURACY_VALUE','Maximum Tolerance applied to model');
#389=(
NAMED_UNIT(*)
SI_UNIT($,.STERADIAN.)
SOLID_ANGLE_UNIT()
);
#390=(
NAMED_UNIT(*)
PLANE_ANGLE_UNIT()
SI_UNIT($,.RADIAN.)
);
#391=(
LENGTH_UNIT()
NAMED_UNIT(*)
SI_UNIT($,.METRE.)
);
#392=PRODUCT_DEFINITION_SHAPE('','',#393);
#393=PRODUCT_DEFINITION('','',#395,#394);
#394=PRODUCT_DEFINITION_CONTEXT('',#401,'design');
#395=PRODUCT_DEFINITION_FORMATION_WITH_SPECIFIED_SOURCE('','',#397,
 .NOT_KNOWN.);
#396=PRODUCT_RELATED_PRODUCT_CATEGORY('','',(#397));
#397=PRODUCT('Plate','Plate','Plate',(#399));
#398=PRODUCT_CATEGORY('','');
#399=PRODUCT_CONTEXT('',#401,'mechanical');
#400=APPLICATION_PROTOCOL_DEFINITION('international standard',
'ap242_managed_model_based_3d_engineering',2020,#401);
#401=APPLICATION_CONTEXT('managed model based 3d engineering');
ENDSEC;
END-ISO-10303-21;
