%TF.GenerationSoftware,KiCad,Pcbnew,9.0.6*%
%TF.CreationDate,2026-08-22T05:30:29-07:00*%
%TF.ProjectId,Liquorice_PCB,4c697175-6f72-4696-9365-5f5043422e6b,rev?*%
%TF.SameCoordinates,Original*%
%TF.FileFunction,Legend,Top*%
%TF.FilePolarity,Positive*%
%FSLAX46Y46*%
G04 Gerber Fmt 4.6, Leading zero omitted, Abs format (unit mm)*
G04 Created by KiCad (PCBNEW 9.0.6) date 2026-08-22 05:30:29*
%MOMM*%
%LPD*%
G01*
G04 APERTURE LIST*
%ADD10C,0.100000*%
%ADD11C,0.150000*%
%ADD12C,0.120000*%
G04 APERTURE END LIST*
D10*
X103656265Y-50414856D02*
X103799122Y-50462475D01*
X103799122Y-50462475D02*
X104037217Y-50462475D01*
X104037217Y-50462475D02*
X104132455Y-50414856D01*
X104132455Y-50414856D02*
X104180074Y-50367236D01*
X104180074Y-50367236D02*
X104227693Y-50271998D01*
X104227693Y-50271998D02*
X104227693Y-50176760D01*
X104227693Y-50176760D02*
X104180074Y-50081522D01*
X104180074Y-50081522D02*
X104132455Y-50033903D01*
X104132455Y-50033903D02*
X104037217Y-49986284D01*
X104037217Y-49986284D02*
X103846741Y-49938665D01*
X103846741Y-49938665D02*
X103751503Y-49891046D01*
X103751503Y-49891046D02*
X103703884Y-49843427D01*
X103703884Y-49843427D02*
X103656265Y-49748189D01*
X103656265Y-49748189D02*
X103656265Y-49652951D01*
X103656265Y-49652951D02*
X103703884Y-49557713D01*
X103703884Y-49557713D02*
X103751503Y-49510094D01*
X103751503Y-49510094D02*
X103846741Y-49462475D01*
X103846741Y-49462475D02*
X104084836Y-49462475D01*
X104084836Y-49462475D02*
X104227693Y-49510094D01*
X104656265Y-50462475D02*
X104656265Y-49462475D01*
X104656265Y-49462475D02*
X104894360Y-49462475D01*
X104894360Y-49462475D02*
X105037217Y-49510094D01*
X105037217Y-49510094D02*
X105132455Y-49605332D01*
X105132455Y-49605332D02*
X105180074Y-49700570D01*
X105180074Y-49700570D02*
X105227693Y-49891046D01*
X105227693Y-49891046D02*
X105227693Y-50033903D01*
X105227693Y-50033903D02*
X105180074Y-50224379D01*
X105180074Y-50224379D02*
X105132455Y-50319617D01*
X105132455Y-50319617D02*
X105037217Y-50414856D01*
X105037217Y-50414856D02*
X104894360Y-50462475D01*
X104894360Y-50462475D02*
X104656265Y-50462475D01*
X105608646Y-50176760D02*
X106084836Y-50176760D01*
X105513408Y-50462475D02*
X105846741Y-49462475D01*
X105846741Y-49462475D02*
X106180074Y-50462475D01*
X96303884Y-93072419D02*
X96303884Y-92072419D01*
X96303884Y-92072419D02*
X96637217Y-92786704D01*
X96637217Y-92786704D02*
X96970550Y-92072419D01*
X96970550Y-92072419D02*
X96970550Y-93072419D01*
X97589598Y-93072419D02*
X97494360Y-93024800D01*
X97494360Y-93024800D02*
X97446741Y-92977180D01*
X97446741Y-92977180D02*
X97399122Y-92881942D01*
X97399122Y-92881942D02*
X97399122Y-92596228D01*
X97399122Y-92596228D02*
X97446741Y-92500990D01*
X97446741Y-92500990D02*
X97494360Y-92453371D01*
X97494360Y-92453371D02*
X97589598Y-92405752D01*
X97589598Y-92405752D02*
X97732455Y-92405752D01*
X97732455Y-92405752D02*
X97827693Y-92453371D01*
X97827693Y-92453371D02*
X97875312Y-92500990D01*
X97875312Y-92500990D02*
X97922931Y-92596228D01*
X97922931Y-92596228D02*
X97922931Y-92881942D01*
X97922931Y-92881942D02*
X97875312Y-92977180D01*
X97875312Y-92977180D02*
X97827693Y-93024800D01*
X97827693Y-93024800D02*
X97732455Y-93072419D01*
X97732455Y-93072419D02*
X97589598Y-93072419D01*
X98208646Y-92405752D02*
X98589598Y-92405752D01*
X98351503Y-92072419D02*
X98351503Y-92929561D01*
X98351503Y-92929561D02*
X98399122Y-93024800D01*
X98399122Y-93024800D02*
X98494360Y-93072419D01*
X98494360Y-93072419D02*
X98589598Y-93072419D01*
X99065789Y-93072419D02*
X98970551Y-93024800D01*
X98970551Y-93024800D02*
X98922932Y-92977180D01*
X98922932Y-92977180D02*
X98875313Y-92881942D01*
X98875313Y-92881942D02*
X98875313Y-92596228D01*
X98875313Y-92596228D02*
X98922932Y-92500990D01*
X98922932Y-92500990D02*
X98970551Y-92453371D01*
X98970551Y-92453371D02*
X99065789Y-92405752D01*
X99065789Y-92405752D02*
X99208646Y-92405752D01*
X99208646Y-92405752D02*
X99303884Y-92453371D01*
X99303884Y-92453371D02*
X99351503Y-92500990D01*
X99351503Y-92500990D02*
X99399122Y-92596228D01*
X99399122Y-92596228D02*
X99399122Y-92881942D01*
X99399122Y-92881942D02*
X99351503Y-92977180D01*
X99351503Y-92977180D02*
X99303884Y-93024800D01*
X99303884Y-93024800D02*
X99208646Y-93072419D01*
X99208646Y-93072419D02*
X99065789Y-93072419D01*
X99827694Y-93072419D02*
X99827694Y-92405752D01*
X99827694Y-92596228D02*
X99875313Y-92500990D01*
X99875313Y-92500990D02*
X99922932Y-92453371D01*
X99922932Y-92453371D02*
X100018170Y-92405752D01*
X100018170Y-92405752D02*
X100113408Y-92405752D01*
X101684837Y-93072419D02*
X101208647Y-93072419D01*
X101208647Y-93072419D02*
X101208647Y-92072419D01*
X95703884Y-100672419D02*
X95703884Y-99672419D01*
X95703884Y-99672419D02*
X96037217Y-100386704D01*
X96037217Y-100386704D02*
X96370550Y-99672419D01*
X96370550Y-99672419D02*
X96370550Y-100672419D01*
X96989598Y-100672419D02*
X96894360Y-100624800D01*
X96894360Y-100624800D02*
X96846741Y-100577180D01*
X96846741Y-100577180D02*
X96799122Y-100481942D01*
X96799122Y-100481942D02*
X96799122Y-100196228D01*
X96799122Y-100196228D02*
X96846741Y-100100990D01*
X96846741Y-100100990D02*
X96894360Y-100053371D01*
X96894360Y-100053371D02*
X96989598Y-100005752D01*
X96989598Y-100005752D02*
X97132455Y-100005752D01*
X97132455Y-100005752D02*
X97227693Y-100053371D01*
X97227693Y-100053371D02*
X97275312Y-100100990D01*
X97275312Y-100100990D02*
X97322931Y-100196228D01*
X97322931Y-100196228D02*
X97322931Y-100481942D01*
X97322931Y-100481942D02*
X97275312Y-100577180D01*
X97275312Y-100577180D02*
X97227693Y-100624800D01*
X97227693Y-100624800D02*
X97132455Y-100672419D01*
X97132455Y-100672419D02*
X96989598Y-100672419D01*
X97608646Y-100005752D02*
X97989598Y-100005752D01*
X97751503Y-99672419D02*
X97751503Y-100529561D01*
X97751503Y-100529561D02*
X97799122Y-100624800D01*
X97799122Y-100624800D02*
X97894360Y-100672419D01*
X97894360Y-100672419D02*
X97989598Y-100672419D01*
X98465789Y-100672419D02*
X98370551Y-100624800D01*
X98370551Y-100624800D02*
X98322932Y-100577180D01*
X98322932Y-100577180D02*
X98275313Y-100481942D01*
X98275313Y-100481942D02*
X98275313Y-100196228D01*
X98275313Y-100196228D02*
X98322932Y-100100990D01*
X98322932Y-100100990D02*
X98370551Y-100053371D01*
X98370551Y-100053371D02*
X98465789Y-100005752D01*
X98465789Y-100005752D02*
X98608646Y-100005752D01*
X98608646Y-100005752D02*
X98703884Y-100053371D01*
X98703884Y-100053371D02*
X98751503Y-100100990D01*
X98751503Y-100100990D02*
X98799122Y-100196228D01*
X98799122Y-100196228D02*
X98799122Y-100481942D01*
X98799122Y-100481942D02*
X98751503Y-100577180D01*
X98751503Y-100577180D02*
X98703884Y-100624800D01*
X98703884Y-100624800D02*
X98608646Y-100672419D01*
X98608646Y-100672419D02*
X98465789Y-100672419D01*
X99227694Y-100672419D02*
X99227694Y-100005752D01*
X99227694Y-100196228D02*
X99275313Y-100100990D01*
X99275313Y-100100990D02*
X99322932Y-100053371D01*
X99322932Y-100053371D02*
X99418170Y-100005752D01*
X99418170Y-100005752D02*
X99513408Y-100005752D01*
X101180075Y-100672419D02*
X100846742Y-100196228D01*
X100608647Y-100672419D02*
X100608647Y-99672419D01*
X100608647Y-99672419D02*
X100989599Y-99672419D01*
X100989599Y-99672419D02*
X101084837Y-99720038D01*
X101084837Y-99720038D02*
X101132456Y-99767657D01*
X101132456Y-99767657D02*
X101180075Y-99862895D01*
X101180075Y-99862895D02*
X101180075Y-100005752D01*
X101180075Y-100005752D02*
X101132456Y-100100990D01*
X101132456Y-100100990D02*
X101084837Y-100148609D01*
X101084837Y-100148609D02*
X100989599Y-100196228D01*
X100989599Y-100196228D02*
X100608647Y-100196228D01*
X97503884Y-49148609D02*
X97837217Y-49148609D01*
X97980074Y-49672419D02*
X97503884Y-49672419D01*
X97503884Y-49672419D02*
X97503884Y-48672419D01*
X97503884Y-48672419D02*
X97980074Y-48672419D01*
X98408646Y-49672419D02*
X98408646Y-48672419D01*
X98408646Y-48672419D02*
X98980074Y-49672419D01*
X98980074Y-49672419D02*
X98980074Y-48672419D01*
X100027693Y-49577180D02*
X99980074Y-49624800D01*
X99980074Y-49624800D02*
X99837217Y-49672419D01*
X99837217Y-49672419D02*
X99741979Y-49672419D01*
X99741979Y-49672419D02*
X99599122Y-49624800D01*
X99599122Y-49624800D02*
X99503884Y-49529561D01*
X99503884Y-49529561D02*
X99456265Y-49434323D01*
X99456265Y-49434323D02*
X99408646Y-49243847D01*
X99408646Y-49243847D02*
X99408646Y-49100990D01*
X99408646Y-49100990D02*
X99456265Y-48910514D01*
X99456265Y-48910514D02*
X99503884Y-48815276D01*
X99503884Y-48815276D02*
X99599122Y-48720038D01*
X99599122Y-48720038D02*
X99741979Y-48672419D01*
X99741979Y-48672419D02*
X99837217Y-48672419D01*
X99837217Y-48672419D02*
X99980074Y-48720038D01*
X99980074Y-48720038D02*
X100027693Y-48767657D01*
X100932455Y-49672419D02*
X100456265Y-49672419D01*
X100456265Y-49672419D02*
X100456265Y-48672419D01*
X113303884Y-48948609D02*
X113637217Y-48948609D01*
X113780074Y-49472419D02*
X113303884Y-49472419D01*
X113303884Y-49472419D02*
X113303884Y-48472419D01*
X113303884Y-48472419D02*
X113780074Y-48472419D01*
X114208646Y-49472419D02*
X114208646Y-48472419D01*
X114208646Y-48472419D02*
X114780074Y-49472419D01*
X114780074Y-49472419D02*
X114780074Y-48472419D01*
X115827693Y-49377180D02*
X115780074Y-49424800D01*
X115780074Y-49424800D02*
X115637217Y-49472419D01*
X115637217Y-49472419D02*
X115541979Y-49472419D01*
X115541979Y-49472419D02*
X115399122Y-49424800D01*
X115399122Y-49424800D02*
X115303884Y-49329561D01*
X115303884Y-49329561D02*
X115256265Y-49234323D01*
X115256265Y-49234323D02*
X115208646Y-49043847D01*
X115208646Y-49043847D02*
X115208646Y-48900990D01*
X115208646Y-48900990D02*
X115256265Y-48710514D01*
X115256265Y-48710514D02*
X115303884Y-48615276D01*
X115303884Y-48615276D02*
X115399122Y-48520038D01*
X115399122Y-48520038D02*
X115541979Y-48472419D01*
X115541979Y-48472419D02*
X115637217Y-48472419D01*
X115637217Y-48472419D02*
X115780074Y-48520038D01*
X115780074Y-48520038D02*
X115827693Y-48567657D01*
X116827693Y-49472419D02*
X116494360Y-48996228D01*
X116256265Y-49472419D02*
X116256265Y-48472419D01*
X116256265Y-48472419D02*
X116637217Y-48472419D01*
X116637217Y-48472419D02*
X116732455Y-48520038D01*
X116732455Y-48520038D02*
X116780074Y-48567657D01*
X116780074Y-48567657D02*
X116827693Y-48662895D01*
X116827693Y-48662895D02*
X116827693Y-48805752D01*
X116827693Y-48805752D02*
X116780074Y-48900990D01*
X116780074Y-48900990D02*
X116732455Y-48948609D01*
X116732455Y-48948609D02*
X116637217Y-48996228D01*
X116637217Y-48996228D02*
X116256265Y-48996228D01*
X134957217Y-99548609D02*
X135100074Y-99596228D01*
X135100074Y-99596228D02*
X135147693Y-99643847D01*
X135147693Y-99643847D02*
X135195312Y-99739085D01*
X135195312Y-99739085D02*
X135195312Y-99881942D01*
X135195312Y-99881942D02*
X135147693Y-99977180D01*
X135147693Y-99977180D02*
X135100074Y-100024800D01*
X135100074Y-100024800D02*
X135004836Y-100072419D01*
X135004836Y-100072419D02*
X134623884Y-100072419D01*
X134623884Y-100072419D02*
X134623884Y-99072419D01*
X134623884Y-99072419D02*
X134957217Y-99072419D01*
X134957217Y-99072419D02*
X135052455Y-99120038D01*
X135052455Y-99120038D02*
X135100074Y-99167657D01*
X135100074Y-99167657D02*
X135147693Y-99262895D01*
X135147693Y-99262895D02*
X135147693Y-99358133D01*
X135147693Y-99358133D02*
X135100074Y-99453371D01*
X135100074Y-99453371D02*
X135052455Y-99500990D01*
X135052455Y-99500990D02*
X134957217Y-99548609D01*
X134957217Y-99548609D02*
X134623884Y-99548609D01*
X135576265Y-99786704D02*
X136052455Y-99786704D01*
X135481027Y-100072419D02*
X135814360Y-99072419D01*
X135814360Y-99072419D02*
X136147693Y-100072419D01*
X136338170Y-99072419D02*
X136909598Y-99072419D01*
X136623884Y-100072419D02*
X136623884Y-99072419D01*
X137100075Y-99072419D02*
X137671503Y-99072419D01*
X137385789Y-100072419D02*
X137385789Y-99072419D01*
X138004837Y-99691466D02*
X138766742Y-99691466D01*
X138385789Y-100072419D02*
X138385789Y-99310514D01*
X112656265Y-51624800D02*
X112799122Y-51672419D01*
X112799122Y-51672419D02*
X113037217Y-51672419D01*
X113037217Y-51672419D02*
X113132455Y-51624800D01*
X113132455Y-51624800D02*
X113180074Y-51577180D01*
X113180074Y-51577180D02*
X113227693Y-51481942D01*
X113227693Y-51481942D02*
X113227693Y-51386704D01*
X113227693Y-51386704D02*
X113180074Y-51291466D01*
X113180074Y-51291466D02*
X113132455Y-51243847D01*
X113132455Y-51243847D02*
X113037217Y-51196228D01*
X113037217Y-51196228D02*
X112846741Y-51148609D01*
X112846741Y-51148609D02*
X112751503Y-51100990D01*
X112751503Y-51100990D02*
X112703884Y-51053371D01*
X112703884Y-51053371D02*
X112656265Y-50958133D01*
X112656265Y-50958133D02*
X112656265Y-50862895D01*
X112656265Y-50862895D02*
X112703884Y-50767657D01*
X112703884Y-50767657D02*
X112751503Y-50720038D01*
X112751503Y-50720038D02*
X112846741Y-50672419D01*
X112846741Y-50672419D02*
X113084836Y-50672419D01*
X113084836Y-50672419D02*
X113227693Y-50720038D01*
X114227693Y-51577180D02*
X114180074Y-51624800D01*
X114180074Y-51624800D02*
X114037217Y-51672419D01*
X114037217Y-51672419D02*
X113941979Y-51672419D01*
X113941979Y-51672419D02*
X113799122Y-51624800D01*
X113799122Y-51624800D02*
X113703884Y-51529561D01*
X113703884Y-51529561D02*
X113656265Y-51434323D01*
X113656265Y-51434323D02*
X113608646Y-51243847D01*
X113608646Y-51243847D02*
X113608646Y-51100990D01*
X113608646Y-51100990D02*
X113656265Y-50910514D01*
X113656265Y-50910514D02*
X113703884Y-50815276D01*
X113703884Y-50815276D02*
X113799122Y-50720038D01*
X113799122Y-50720038D02*
X113941979Y-50672419D01*
X113941979Y-50672419D02*
X114037217Y-50672419D01*
X114037217Y-50672419D02*
X114180074Y-50720038D01*
X114180074Y-50720038D02*
X114227693Y-50767657D01*
X115132455Y-51672419D02*
X114656265Y-51672419D01*
X114656265Y-51672419D02*
X114656265Y-50672419D01*
X88456265Y-50614856D02*
X88599122Y-50662475D01*
X88599122Y-50662475D02*
X88837217Y-50662475D01*
X88837217Y-50662475D02*
X88932455Y-50614856D01*
X88932455Y-50614856D02*
X88980074Y-50567236D01*
X88980074Y-50567236D02*
X89027693Y-50471998D01*
X89027693Y-50471998D02*
X89027693Y-50376760D01*
X89027693Y-50376760D02*
X88980074Y-50281522D01*
X88980074Y-50281522D02*
X88932455Y-50233903D01*
X88932455Y-50233903D02*
X88837217Y-50186284D01*
X88837217Y-50186284D02*
X88646741Y-50138665D01*
X88646741Y-50138665D02*
X88551503Y-50091046D01*
X88551503Y-50091046D02*
X88503884Y-50043427D01*
X88503884Y-50043427D02*
X88456265Y-49948189D01*
X88456265Y-49948189D02*
X88456265Y-49852951D01*
X88456265Y-49852951D02*
X88503884Y-49757713D01*
X88503884Y-49757713D02*
X88551503Y-49710094D01*
X88551503Y-49710094D02*
X88646741Y-49662475D01*
X88646741Y-49662475D02*
X88884836Y-49662475D01*
X88884836Y-49662475D02*
X89027693Y-49710094D01*
X89456265Y-50662475D02*
X89456265Y-49662475D01*
X89456265Y-49662475D02*
X89694360Y-49662475D01*
X89694360Y-49662475D02*
X89837217Y-49710094D01*
X89837217Y-49710094D02*
X89932455Y-49805332D01*
X89932455Y-49805332D02*
X89980074Y-49900570D01*
X89980074Y-49900570D02*
X90027693Y-50091046D01*
X90027693Y-50091046D02*
X90027693Y-50233903D01*
X90027693Y-50233903D02*
X89980074Y-50424379D01*
X89980074Y-50424379D02*
X89932455Y-50519617D01*
X89932455Y-50519617D02*
X89837217Y-50614856D01*
X89837217Y-50614856D02*
X89694360Y-50662475D01*
X89694360Y-50662475D02*
X89456265Y-50662475D01*
X90408646Y-50376760D02*
X90884836Y-50376760D01*
X90313408Y-50662475D02*
X90646741Y-49662475D01*
X90646741Y-49662475D02*
X90980074Y-50662475D01*
X97256265Y-51224800D02*
X97399122Y-51272419D01*
X97399122Y-51272419D02*
X97637217Y-51272419D01*
X97637217Y-51272419D02*
X97732455Y-51224800D01*
X97732455Y-51224800D02*
X97780074Y-51177180D01*
X97780074Y-51177180D02*
X97827693Y-51081942D01*
X97827693Y-51081942D02*
X97827693Y-50986704D01*
X97827693Y-50986704D02*
X97780074Y-50891466D01*
X97780074Y-50891466D02*
X97732455Y-50843847D01*
X97732455Y-50843847D02*
X97637217Y-50796228D01*
X97637217Y-50796228D02*
X97446741Y-50748609D01*
X97446741Y-50748609D02*
X97351503Y-50700990D01*
X97351503Y-50700990D02*
X97303884Y-50653371D01*
X97303884Y-50653371D02*
X97256265Y-50558133D01*
X97256265Y-50558133D02*
X97256265Y-50462895D01*
X97256265Y-50462895D02*
X97303884Y-50367657D01*
X97303884Y-50367657D02*
X97351503Y-50320038D01*
X97351503Y-50320038D02*
X97446741Y-50272419D01*
X97446741Y-50272419D02*
X97684836Y-50272419D01*
X97684836Y-50272419D02*
X97827693Y-50320038D01*
X98827693Y-51177180D02*
X98780074Y-51224800D01*
X98780074Y-51224800D02*
X98637217Y-51272419D01*
X98637217Y-51272419D02*
X98541979Y-51272419D01*
X98541979Y-51272419D02*
X98399122Y-51224800D01*
X98399122Y-51224800D02*
X98303884Y-51129561D01*
X98303884Y-51129561D02*
X98256265Y-51034323D01*
X98256265Y-51034323D02*
X98208646Y-50843847D01*
X98208646Y-50843847D02*
X98208646Y-50700990D01*
X98208646Y-50700990D02*
X98256265Y-50510514D01*
X98256265Y-50510514D02*
X98303884Y-50415276D01*
X98303884Y-50415276D02*
X98399122Y-50320038D01*
X98399122Y-50320038D02*
X98541979Y-50272419D01*
X98541979Y-50272419D02*
X98637217Y-50272419D01*
X98637217Y-50272419D02*
X98780074Y-50320038D01*
X98780074Y-50320038D02*
X98827693Y-50367657D01*
X99732455Y-51272419D02*
X99256265Y-51272419D01*
X99256265Y-51272419D02*
X99256265Y-50272419D01*
D11*
X123666666Y-100804819D02*
X123333333Y-100328628D01*
X123095238Y-100804819D02*
X123095238Y-99804819D01*
X123095238Y-99804819D02*
X123476190Y-99804819D01*
X123476190Y-99804819D02*
X123571428Y-99852438D01*
X123571428Y-99852438D02*
X123619047Y-99900057D01*
X123619047Y-99900057D02*
X123666666Y-99995295D01*
X123666666Y-99995295D02*
X123666666Y-100138152D01*
X123666666Y-100138152D02*
X123619047Y-100233390D01*
X123619047Y-100233390D02*
X123571428Y-100281009D01*
X123571428Y-100281009D02*
X123476190Y-100328628D01*
X123476190Y-100328628D02*
X123095238Y-100328628D01*
X124095238Y-100281009D02*
X124428571Y-100281009D01*
X124571428Y-100804819D02*
X124095238Y-100804819D01*
X124095238Y-100804819D02*
X124095238Y-99804819D01*
X124095238Y-99804819D02*
X124571428Y-99804819D01*
X125333333Y-100281009D02*
X125000000Y-100281009D01*
X125000000Y-100804819D02*
X125000000Y-99804819D01*
X125000000Y-99804819D02*
X125476190Y-99804819D01*
X126000000Y-99804819D02*
X126000000Y-100042914D01*
X125761905Y-99947676D02*
X126000000Y-100042914D01*
X126000000Y-100042914D02*
X126238095Y-99947676D01*
X125857143Y-100233390D02*
X126000000Y-100042914D01*
X126000000Y-100042914D02*
X126142857Y-100233390D01*
X126761905Y-99804819D02*
X126761905Y-100042914D01*
X126523810Y-99947676D02*
X126761905Y-100042914D01*
X126761905Y-100042914D02*
X127000000Y-99947676D01*
X126619048Y-100233390D02*
X126761905Y-100042914D01*
X126761905Y-100042914D02*
X126904762Y-100233390D01*
X104024819Y-57966666D02*
X103548628Y-58299999D01*
X104024819Y-58538094D02*
X103024819Y-58538094D01*
X103024819Y-58538094D02*
X103024819Y-58157142D01*
X103024819Y-58157142D02*
X103072438Y-58061904D01*
X103072438Y-58061904D02*
X103120057Y-58014285D01*
X103120057Y-58014285D02*
X103215295Y-57966666D01*
X103215295Y-57966666D02*
X103358152Y-57966666D01*
X103358152Y-57966666D02*
X103453390Y-58014285D01*
X103453390Y-58014285D02*
X103501009Y-58061904D01*
X103501009Y-58061904D02*
X103548628Y-58157142D01*
X103548628Y-58157142D02*
X103548628Y-58538094D01*
X103358152Y-57109523D02*
X104024819Y-57109523D01*
X102977200Y-57347618D02*
X103691485Y-57585713D01*
X103691485Y-57585713D02*
X103691485Y-56966666D01*
X101424819Y-57966666D02*
X100948628Y-58299999D01*
X101424819Y-58538094D02*
X100424819Y-58538094D01*
X100424819Y-58538094D02*
X100424819Y-58157142D01*
X100424819Y-58157142D02*
X100472438Y-58061904D01*
X100472438Y-58061904D02*
X100520057Y-58014285D01*
X100520057Y-58014285D02*
X100615295Y-57966666D01*
X100615295Y-57966666D02*
X100758152Y-57966666D01*
X100758152Y-57966666D02*
X100853390Y-58014285D01*
X100853390Y-58014285D02*
X100901009Y-58061904D01*
X100901009Y-58061904D02*
X100948628Y-58157142D01*
X100948628Y-58157142D02*
X100948628Y-58538094D01*
X100424819Y-57633332D02*
X100424819Y-57014285D01*
X100424819Y-57014285D02*
X100805771Y-57347618D01*
X100805771Y-57347618D02*
X100805771Y-57204761D01*
X100805771Y-57204761D02*
X100853390Y-57109523D01*
X100853390Y-57109523D02*
X100901009Y-57061904D01*
X100901009Y-57061904D02*
X100996247Y-57014285D01*
X100996247Y-57014285D02*
X101234342Y-57014285D01*
X101234342Y-57014285D02*
X101329580Y-57061904D01*
X101329580Y-57061904D02*
X101377200Y-57109523D01*
X101377200Y-57109523D02*
X101424819Y-57204761D01*
X101424819Y-57204761D02*
X101424819Y-57490475D01*
X101424819Y-57490475D02*
X101377200Y-57585713D01*
X101377200Y-57585713D02*
X101329580Y-57633332D01*
X122959580Y-87829166D02*
X123007200Y-87876785D01*
X123007200Y-87876785D02*
X123054819Y-88019642D01*
X123054819Y-88019642D02*
X123054819Y-88114880D01*
X123054819Y-88114880D02*
X123007200Y-88257737D01*
X123007200Y-88257737D02*
X122911961Y-88352975D01*
X122911961Y-88352975D02*
X122816723Y-88400594D01*
X122816723Y-88400594D02*
X122626247Y-88448213D01*
X122626247Y-88448213D02*
X122483390Y-88448213D01*
X122483390Y-88448213D02*
X122292914Y-88400594D01*
X122292914Y-88400594D02*
X122197676Y-88352975D01*
X122197676Y-88352975D02*
X122102438Y-88257737D01*
X122102438Y-88257737D02*
X122054819Y-88114880D01*
X122054819Y-88114880D02*
X122054819Y-88019642D01*
X122054819Y-88019642D02*
X122102438Y-87876785D01*
X122102438Y-87876785D02*
X122150057Y-87829166D01*
X122054819Y-86924404D02*
X122054819Y-87400594D01*
X122054819Y-87400594D02*
X122531009Y-87448213D01*
X122531009Y-87448213D02*
X122483390Y-87400594D01*
X122483390Y-87400594D02*
X122435771Y-87305356D01*
X122435771Y-87305356D02*
X122435771Y-87067261D01*
X122435771Y-87067261D02*
X122483390Y-86972023D01*
X122483390Y-86972023D02*
X122531009Y-86924404D01*
X122531009Y-86924404D02*
X122626247Y-86876785D01*
X122626247Y-86876785D02*
X122864342Y-86876785D01*
X122864342Y-86876785D02*
X122959580Y-86924404D01*
X122959580Y-86924404D02*
X123007200Y-86972023D01*
X123007200Y-86972023D02*
X123054819Y-87067261D01*
X123054819Y-87067261D02*
X123054819Y-87305356D01*
X123054819Y-87305356D02*
X123007200Y-87400594D01*
X123007200Y-87400594D02*
X122959580Y-87448213D01*
X107868333Y-97509580D02*
X107820714Y-97557200D01*
X107820714Y-97557200D02*
X107677857Y-97604819D01*
X107677857Y-97604819D02*
X107582619Y-97604819D01*
X107582619Y-97604819D02*
X107439762Y-97557200D01*
X107439762Y-97557200D02*
X107344524Y-97461961D01*
X107344524Y-97461961D02*
X107296905Y-97366723D01*
X107296905Y-97366723D02*
X107249286Y-97176247D01*
X107249286Y-97176247D02*
X107249286Y-97033390D01*
X107249286Y-97033390D02*
X107296905Y-96842914D01*
X107296905Y-96842914D02*
X107344524Y-96747676D01*
X107344524Y-96747676D02*
X107439762Y-96652438D01*
X107439762Y-96652438D02*
X107582619Y-96604819D01*
X107582619Y-96604819D02*
X107677857Y-96604819D01*
X107677857Y-96604819D02*
X107820714Y-96652438D01*
X107820714Y-96652438D02*
X107868333Y-96700057D01*
X108344524Y-97604819D02*
X108535000Y-97604819D01*
X108535000Y-97604819D02*
X108630238Y-97557200D01*
X108630238Y-97557200D02*
X108677857Y-97509580D01*
X108677857Y-97509580D02*
X108773095Y-97366723D01*
X108773095Y-97366723D02*
X108820714Y-97176247D01*
X108820714Y-97176247D02*
X108820714Y-96795295D01*
X108820714Y-96795295D02*
X108773095Y-96700057D01*
X108773095Y-96700057D02*
X108725476Y-96652438D01*
X108725476Y-96652438D02*
X108630238Y-96604819D01*
X108630238Y-96604819D02*
X108439762Y-96604819D01*
X108439762Y-96604819D02*
X108344524Y-96652438D01*
X108344524Y-96652438D02*
X108296905Y-96700057D01*
X108296905Y-96700057D02*
X108249286Y-96795295D01*
X108249286Y-96795295D02*
X108249286Y-97033390D01*
X108249286Y-97033390D02*
X108296905Y-97128628D01*
X108296905Y-97128628D02*
X108344524Y-97176247D01*
X108344524Y-97176247D02*
X108439762Y-97223866D01*
X108439762Y-97223866D02*
X108630238Y-97223866D01*
X108630238Y-97223866D02*
X108725476Y-97176247D01*
X108725476Y-97176247D02*
X108773095Y-97128628D01*
X108773095Y-97128628D02*
X108820714Y-97033390D01*
X92866666Y-104574819D02*
X92866666Y-105289104D01*
X92866666Y-105289104D02*
X92819047Y-105431961D01*
X92819047Y-105431961D02*
X92723809Y-105527200D01*
X92723809Y-105527200D02*
X92580952Y-105574819D01*
X92580952Y-105574819D02*
X92485714Y-105574819D01*
X93819047Y-104574819D02*
X93342857Y-104574819D01*
X93342857Y-104574819D02*
X93295238Y-105051009D01*
X93295238Y-105051009D02*
X93342857Y-105003390D01*
X93342857Y-105003390D02*
X93438095Y-104955771D01*
X93438095Y-104955771D02*
X93676190Y-104955771D01*
X93676190Y-104955771D02*
X93771428Y-105003390D01*
X93771428Y-105003390D02*
X93819047Y-105051009D01*
X93819047Y-105051009D02*
X93866666Y-105146247D01*
X93866666Y-105146247D02*
X93866666Y-105384342D01*
X93866666Y-105384342D02*
X93819047Y-105479580D01*
X93819047Y-105479580D02*
X93771428Y-105527200D01*
X93771428Y-105527200D02*
X93676190Y-105574819D01*
X93676190Y-105574819D02*
X93438095Y-105574819D01*
X93438095Y-105574819D02*
X93342857Y-105527200D01*
X93342857Y-105527200D02*
X93295238Y-105479580D01*
X112668333Y-97609580D02*
X112620714Y-97657200D01*
X112620714Y-97657200D02*
X112477857Y-97704819D01*
X112477857Y-97704819D02*
X112382619Y-97704819D01*
X112382619Y-97704819D02*
X112239762Y-97657200D01*
X112239762Y-97657200D02*
X112144524Y-97561961D01*
X112144524Y-97561961D02*
X112096905Y-97466723D01*
X112096905Y-97466723D02*
X112049286Y-97276247D01*
X112049286Y-97276247D02*
X112049286Y-97133390D01*
X112049286Y-97133390D02*
X112096905Y-96942914D01*
X112096905Y-96942914D02*
X112144524Y-96847676D01*
X112144524Y-96847676D02*
X112239762Y-96752438D01*
X112239762Y-96752438D02*
X112382619Y-96704819D01*
X112382619Y-96704819D02*
X112477857Y-96704819D01*
X112477857Y-96704819D02*
X112620714Y-96752438D01*
X112620714Y-96752438D02*
X112668333Y-96800057D01*
X113239762Y-97133390D02*
X113144524Y-97085771D01*
X113144524Y-97085771D02*
X113096905Y-97038152D01*
X113096905Y-97038152D02*
X113049286Y-96942914D01*
X113049286Y-96942914D02*
X113049286Y-96895295D01*
X113049286Y-96895295D02*
X113096905Y-96800057D01*
X113096905Y-96800057D02*
X113144524Y-96752438D01*
X113144524Y-96752438D02*
X113239762Y-96704819D01*
X113239762Y-96704819D02*
X113430238Y-96704819D01*
X113430238Y-96704819D02*
X113525476Y-96752438D01*
X113525476Y-96752438D02*
X113573095Y-96800057D01*
X113573095Y-96800057D02*
X113620714Y-96895295D01*
X113620714Y-96895295D02*
X113620714Y-96942914D01*
X113620714Y-96942914D02*
X113573095Y-97038152D01*
X113573095Y-97038152D02*
X113525476Y-97085771D01*
X113525476Y-97085771D02*
X113430238Y-97133390D01*
X113430238Y-97133390D02*
X113239762Y-97133390D01*
X113239762Y-97133390D02*
X113144524Y-97181009D01*
X113144524Y-97181009D02*
X113096905Y-97228628D01*
X113096905Y-97228628D02*
X113049286Y-97323866D01*
X113049286Y-97323866D02*
X113049286Y-97514342D01*
X113049286Y-97514342D02*
X113096905Y-97609580D01*
X113096905Y-97609580D02*
X113144524Y-97657200D01*
X113144524Y-97657200D02*
X113239762Y-97704819D01*
X113239762Y-97704819D02*
X113430238Y-97704819D01*
X113430238Y-97704819D02*
X113525476Y-97657200D01*
X113525476Y-97657200D02*
X113573095Y-97609580D01*
X113573095Y-97609580D02*
X113620714Y-97514342D01*
X113620714Y-97514342D02*
X113620714Y-97323866D01*
X113620714Y-97323866D02*
X113573095Y-97228628D01*
X113573095Y-97228628D02*
X113525476Y-97181009D01*
X113525476Y-97181009D02*
X113430238Y-97133390D01*
X126083333Y-93302080D02*
X126035714Y-93349700D01*
X126035714Y-93349700D02*
X125892857Y-93397319D01*
X125892857Y-93397319D02*
X125797619Y-93397319D01*
X125797619Y-93397319D02*
X125654762Y-93349700D01*
X125654762Y-93349700D02*
X125559524Y-93254461D01*
X125559524Y-93254461D02*
X125511905Y-93159223D01*
X125511905Y-93159223D02*
X125464286Y-92968747D01*
X125464286Y-92968747D02*
X125464286Y-92825890D01*
X125464286Y-92825890D02*
X125511905Y-92635414D01*
X125511905Y-92635414D02*
X125559524Y-92540176D01*
X125559524Y-92540176D02*
X125654762Y-92444938D01*
X125654762Y-92444938D02*
X125797619Y-92397319D01*
X125797619Y-92397319D02*
X125892857Y-92397319D01*
X125892857Y-92397319D02*
X126035714Y-92444938D01*
X126035714Y-92444938D02*
X126083333Y-92492557D01*
X126940476Y-92397319D02*
X126750000Y-92397319D01*
X126750000Y-92397319D02*
X126654762Y-92444938D01*
X126654762Y-92444938D02*
X126607143Y-92492557D01*
X126607143Y-92492557D02*
X126511905Y-92635414D01*
X126511905Y-92635414D02*
X126464286Y-92825890D01*
X126464286Y-92825890D02*
X126464286Y-93206842D01*
X126464286Y-93206842D02*
X126511905Y-93302080D01*
X126511905Y-93302080D02*
X126559524Y-93349700D01*
X126559524Y-93349700D02*
X126654762Y-93397319D01*
X126654762Y-93397319D02*
X126845238Y-93397319D01*
X126845238Y-93397319D02*
X126940476Y-93349700D01*
X126940476Y-93349700D02*
X126988095Y-93302080D01*
X126988095Y-93302080D02*
X127035714Y-93206842D01*
X127035714Y-93206842D02*
X127035714Y-92968747D01*
X127035714Y-92968747D02*
X126988095Y-92873509D01*
X126988095Y-92873509D02*
X126940476Y-92825890D01*
X126940476Y-92825890D02*
X126845238Y-92778271D01*
X126845238Y-92778271D02*
X126654762Y-92778271D01*
X126654762Y-92778271D02*
X126559524Y-92825890D01*
X126559524Y-92825890D02*
X126511905Y-92873509D01*
X126511905Y-92873509D02*
X126464286Y-92968747D01*
X98224819Y-57966666D02*
X97748628Y-58299999D01*
X98224819Y-58538094D02*
X97224819Y-58538094D01*
X97224819Y-58538094D02*
X97224819Y-58157142D01*
X97224819Y-58157142D02*
X97272438Y-58061904D01*
X97272438Y-58061904D02*
X97320057Y-58014285D01*
X97320057Y-58014285D02*
X97415295Y-57966666D01*
X97415295Y-57966666D02*
X97558152Y-57966666D01*
X97558152Y-57966666D02*
X97653390Y-58014285D01*
X97653390Y-58014285D02*
X97701009Y-58061904D01*
X97701009Y-58061904D02*
X97748628Y-58157142D01*
X97748628Y-58157142D02*
X97748628Y-58538094D01*
X97320057Y-57585713D02*
X97272438Y-57538094D01*
X97272438Y-57538094D02*
X97224819Y-57442856D01*
X97224819Y-57442856D02*
X97224819Y-57204761D01*
X97224819Y-57204761D02*
X97272438Y-57109523D01*
X97272438Y-57109523D02*
X97320057Y-57061904D01*
X97320057Y-57061904D02*
X97415295Y-57014285D01*
X97415295Y-57014285D02*
X97510533Y-57014285D01*
X97510533Y-57014285D02*
X97653390Y-57061904D01*
X97653390Y-57061904D02*
X98224819Y-57633332D01*
X98224819Y-57633332D02*
X98224819Y-57014285D01*
X107552142Y-94179580D02*
X107504523Y-94227200D01*
X107504523Y-94227200D02*
X107361666Y-94274819D01*
X107361666Y-94274819D02*
X107266428Y-94274819D01*
X107266428Y-94274819D02*
X107123571Y-94227200D01*
X107123571Y-94227200D02*
X107028333Y-94131961D01*
X107028333Y-94131961D02*
X106980714Y-94036723D01*
X106980714Y-94036723D02*
X106933095Y-93846247D01*
X106933095Y-93846247D02*
X106933095Y-93703390D01*
X106933095Y-93703390D02*
X106980714Y-93512914D01*
X106980714Y-93512914D02*
X107028333Y-93417676D01*
X107028333Y-93417676D02*
X107123571Y-93322438D01*
X107123571Y-93322438D02*
X107266428Y-93274819D01*
X107266428Y-93274819D02*
X107361666Y-93274819D01*
X107361666Y-93274819D02*
X107504523Y-93322438D01*
X107504523Y-93322438D02*
X107552142Y-93370057D01*
X108504523Y-94274819D02*
X107933095Y-94274819D01*
X108218809Y-94274819D02*
X108218809Y-93274819D01*
X108218809Y-93274819D02*
X108123571Y-93417676D01*
X108123571Y-93417676D02*
X108028333Y-93512914D01*
X108028333Y-93512914D02*
X107933095Y-93560533D01*
X109123571Y-93274819D02*
X109218809Y-93274819D01*
X109218809Y-93274819D02*
X109314047Y-93322438D01*
X109314047Y-93322438D02*
X109361666Y-93370057D01*
X109361666Y-93370057D02*
X109409285Y-93465295D01*
X109409285Y-93465295D02*
X109456904Y-93655771D01*
X109456904Y-93655771D02*
X109456904Y-93893866D01*
X109456904Y-93893866D02*
X109409285Y-94084342D01*
X109409285Y-94084342D02*
X109361666Y-94179580D01*
X109361666Y-94179580D02*
X109314047Y-94227200D01*
X109314047Y-94227200D02*
X109218809Y-94274819D01*
X109218809Y-94274819D02*
X109123571Y-94274819D01*
X109123571Y-94274819D02*
X109028333Y-94227200D01*
X109028333Y-94227200D02*
X108980714Y-94179580D01*
X108980714Y-94179580D02*
X108933095Y-94084342D01*
X108933095Y-94084342D02*
X108885476Y-93893866D01*
X108885476Y-93893866D02*
X108885476Y-93655771D01*
X108885476Y-93655771D02*
X108933095Y-93465295D01*
X108933095Y-93465295D02*
X108980714Y-93370057D01*
X108980714Y-93370057D02*
X109028333Y-93322438D01*
X109028333Y-93322438D02*
X109123571Y-93274819D01*
X129954819Y-88361904D02*
X130764342Y-88361904D01*
X130764342Y-88361904D02*
X130859580Y-88314285D01*
X130859580Y-88314285D02*
X130907200Y-88266666D01*
X130907200Y-88266666D02*
X130954819Y-88171428D01*
X130954819Y-88171428D02*
X130954819Y-87980952D01*
X130954819Y-87980952D02*
X130907200Y-87885714D01*
X130907200Y-87885714D02*
X130859580Y-87838095D01*
X130859580Y-87838095D02*
X130764342Y-87790476D01*
X130764342Y-87790476D02*
X129954819Y-87790476D01*
X129954819Y-87409523D02*
X129954819Y-86790476D01*
X129954819Y-86790476D02*
X130335771Y-87123809D01*
X130335771Y-87123809D02*
X130335771Y-86980952D01*
X130335771Y-86980952D02*
X130383390Y-86885714D01*
X130383390Y-86885714D02*
X130431009Y-86838095D01*
X130431009Y-86838095D02*
X130526247Y-86790476D01*
X130526247Y-86790476D02*
X130764342Y-86790476D01*
X130764342Y-86790476D02*
X130859580Y-86838095D01*
X130859580Y-86838095D02*
X130907200Y-86885714D01*
X130907200Y-86885714D02*
X130954819Y-86980952D01*
X130954819Y-86980952D02*
X130954819Y-87266666D01*
X130954819Y-87266666D02*
X130907200Y-87361904D01*
X130907200Y-87361904D02*
X130859580Y-87409523D01*
X112828333Y-101459580D02*
X112780714Y-101507200D01*
X112780714Y-101507200D02*
X112637857Y-101554819D01*
X112637857Y-101554819D02*
X112542619Y-101554819D01*
X112542619Y-101554819D02*
X112399762Y-101507200D01*
X112399762Y-101507200D02*
X112304524Y-101411961D01*
X112304524Y-101411961D02*
X112256905Y-101316723D01*
X112256905Y-101316723D02*
X112209286Y-101126247D01*
X112209286Y-101126247D02*
X112209286Y-100983390D01*
X112209286Y-100983390D02*
X112256905Y-100792914D01*
X112256905Y-100792914D02*
X112304524Y-100697676D01*
X112304524Y-100697676D02*
X112399762Y-100602438D01*
X112399762Y-100602438D02*
X112542619Y-100554819D01*
X112542619Y-100554819D02*
X112637857Y-100554819D01*
X112637857Y-100554819D02*
X112780714Y-100602438D01*
X112780714Y-100602438D02*
X112828333Y-100650057D01*
X113161667Y-100554819D02*
X113828333Y-100554819D01*
X113828333Y-100554819D02*
X113399762Y-101554819D01*
X95024819Y-57966666D02*
X94548628Y-58299999D01*
X95024819Y-58538094D02*
X94024819Y-58538094D01*
X94024819Y-58538094D02*
X94024819Y-58157142D01*
X94024819Y-58157142D02*
X94072438Y-58061904D01*
X94072438Y-58061904D02*
X94120057Y-58014285D01*
X94120057Y-58014285D02*
X94215295Y-57966666D01*
X94215295Y-57966666D02*
X94358152Y-57966666D01*
X94358152Y-57966666D02*
X94453390Y-58014285D01*
X94453390Y-58014285D02*
X94501009Y-58061904D01*
X94501009Y-58061904D02*
X94548628Y-58157142D01*
X94548628Y-58157142D02*
X94548628Y-58538094D01*
X95024819Y-57014285D02*
X95024819Y-57585713D01*
X95024819Y-57299999D02*
X94024819Y-57299999D01*
X94024819Y-57299999D02*
X94167676Y-57395237D01*
X94167676Y-57395237D02*
X94262914Y-57490475D01*
X94262914Y-57490475D02*
X94310533Y-57585713D01*
X93466666Y-88339819D02*
X93466666Y-89054104D01*
X93466666Y-89054104D02*
X93419047Y-89196961D01*
X93419047Y-89196961D02*
X93323809Y-89292200D01*
X93323809Y-89292200D02*
X93180952Y-89339819D01*
X93180952Y-89339819D02*
X93085714Y-89339819D01*
X94371428Y-88673152D02*
X94371428Y-89339819D01*
X94133333Y-88292200D02*
X93895238Y-89006485D01*
X93895238Y-89006485D02*
X94514285Y-89006485D01*
X128799819Y-102733333D02*
X129514104Y-102733333D01*
X129514104Y-102733333D02*
X129656961Y-102780952D01*
X129656961Y-102780952D02*
X129752200Y-102876190D01*
X129752200Y-102876190D02*
X129799819Y-103019047D01*
X129799819Y-103019047D02*
X129799819Y-103114285D01*
X129799819Y-101733333D02*
X129799819Y-102304761D01*
X129799819Y-102019047D02*
X128799819Y-102019047D01*
X128799819Y-102019047D02*
X128942676Y-102114285D01*
X128942676Y-102114285D02*
X129037914Y-102209523D01*
X129037914Y-102209523D02*
X129085533Y-102304761D01*
X115179819Y-89261904D02*
X115989342Y-89261904D01*
X115989342Y-89261904D02*
X116084580Y-89214285D01*
X116084580Y-89214285D02*
X116132200Y-89166666D01*
X116132200Y-89166666D02*
X116179819Y-89071428D01*
X116179819Y-89071428D02*
X116179819Y-88880952D01*
X116179819Y-88880952D02*
X116132200Y-88785714D01*
X116132200Y-88785714D02*
X116084580Y-88738095D01*
X116084580Y-88738095D02*
X115989342Y-88690476D01*
X115989342Y-88690476D02*
X115179819Y-88690476D01*
X116179819Y-87690476D02*
X116179819Y-88261904D01*
X116179819Y-87976190D02*
X115179819Y-87976190D01*
X115179819Y-87976190D02*
X115322676Y-88071428D01*
X115322676Y-88071428D02*
X115417914Y-88166666D01*
X115417914Y-88166666D02*
X115465533Y-88261904D01*
X87454819Y-78933333D02*
X88169104Y-78933333D01*
X88169104Y-78933333D02*
X88311961Y-78980952D01*
X88311961Y-78980952D02*
X88407200Y-79076190D01*
X88407200Y-79076190D02*
X88454819Y-79219047D01*
X88454819Y-79219047D02*
X88454819Y-79314285D01*
X87454819Y-78552380D02*
X87454819Y-77885714D01*
X87454819Y-77885714D02*
X88454819Y-78314285D01*
X137914819Y-54433333D02*
X138629104Y-54433333D01*
X138629104Y-54433333D02*
X138771961Y-54480952D01*
X138771961Y-54480952D02*
X138867200Y-54576190D01*
X138867200Y-54576190D02*
X138914819Y-54719047D01*
X138914819Y-54719047D02*
X138914819Y-54814285D01*
X137914819Y-53528571D02*
X137914819Y-53719047D01*
X137914819Y-53719047D02*
X137962438Y-53814285D01*
X137962438Y-53814285D02*
X138010057Y-53861904D01*
X138010057Y-53861904D02*
X138152914Y-53957142D01*
X138152914Y-53957142D02*
X138343390Y-54004761D01*
X138343390Y-54004761D02*
X138724342Y-54004761D01*
X138724342Y-54004761D02*
X138819580Y-53957142D01*
X138819580Y-53957142D02*
X138867200Y-53909523D01*
X138867200Y-53909523D02*
X138914819Y-53814285D01*
X138914819Y-53814285D02*
X138914819Y-53623809D01*
X138914819Y-53623809D02*
X138867200Y-53528571D01*
X138867200Y-53528571D02*
X138819580Y-53480952D01*
X138819580Y-53480952D02*
X138724342Y-53433333D01*
X138724342Y-53433333D02*
X138486247Y-53433333D01*
X138486247Y-53433333D02*
X138391009Y-53480952D01*
X138391009Y-53480952D02*
X138343390Y-53528571D01*
X138343390Y-53528571D02*
X138295771Y-53623809D01*
X138295771Y-53623809D02*
X138295771Y-53814285D01*
X138295771Y-53814285D02*
X138343390Y-53909523D01*
X138343390Y-53909523D02*
X138391009Y-53957142D01*
X138391009Y-53957142D02*
X138486247Y-54004761D01*
D12*
%TO.C,R4*%
X104477500Y-58054724D02*
X104477500Y-57545276D01*
X105522500Y-58054724D02*
X105522500Y-57545276D01*
%TO.C,R3*%
X101877500Y-58054724D02*
X101877500Y-57545276D01*
X102922500Y-58054724D02*
X102922500Y-57545276D01*
%TO.C,C5*%
X123665000Y-87401248D02*
X123665000Y-87923752D01*
X125135000Y-87401248D02*
X125135000Y-87923752D01*
%TO.C,C9*%
X105540000Y-97945000D02*
X105540000Y-99855000D01*
X105540000Y-99855000D02*
X109635000Y-99855000D01*
X109635000Y-97945000D02*
X105540000Y-97945000D01*
%TO.C,J5*%
X92020000Y-100670000D02*
X92020000Y-98020000D01*
X94780000Y-98020000D02*
X92020000Y-98020000D01*
X94780000Y-100670000D02*
X92020000Y-100670000D01*
X94780000Y-100670000D02*
X94780000Y-98020000D01*
X94780000Y-101940000D02*
X94780000Y-103320000D01*
X94780000Y-103320000D02*
X93400000Y-103320000D01*
%TO.C,C8*%
X111235000Y-96455000D02*
X115330000Y-96455000D01*
X115330000Y-94545000D02*
X111235000Y-94545000D01*
X115330000Y-96455000D02*
X115330000Y-94545000D01*
%TO.C,C6*%
X126511252Y-90527500D02*
X125988748Y-90527500D01*
X126511252Y-91997500D02*
X125988748Y-91997500D01*
%TO.C,R2*%
X98677500Y-58054724D02*
X98677500Y-57545276D01*
X99722500Y-58054724D02*
X99722500Y-57545276D01*
%TO.C,C10*%
X107933748Y-94765000D02*
X108456252Y-94765000D01*
X107933748Y-96235000D02*
X108456252Y-96235000D01*
D10*
%TO.C,U3*%
X126650000Y-86000000D02*
X126650000Y-86720000D01*
X126650000Y-86000000D02*
X126870000Y-86000000D01*
X126650000Y-89200000D02*
X126650000Y-88480000D01*
X126870000Y-89200000D02*
X126650000Y-89200000D01*
X129350000Y-86200000D02*
X129350000Y-86720000D01*
X129350000Y-88480000D02*
X129350000Y-89200000D01*
X129350000Y-89200000D02*
X129130000Y-89200000D01*
X129710000Y-86000000D02*
X129350000Y-86000000D01*
X129350000Y-85640000D01*
X129710000Y-86000000D01*
G36*
X129710000Y-86000000D02*
G01*
X129350000Y-86000000D01*
X129350000Y-85640000D01*
X129710000Y-86000000D01*
G37*
D12*
%TO.C,J2*%
X91220000Y-48620000D02*
X91220000Y-51380000D01*
X93870000Y-48620000D02*
X91220000Y-48620000D01*
X93870000Y-48620000D02*
X93870000Y-51380000D01*
X93870000Y-51380000D02*
X91220000Y-51380000D01*
X95140000Y-48620000D02*
X96520000Y-48620000D01*
X96520000Y-48620000D02*
X96520000Y-50000000D01*
%TO.C,C7*%
X112733748Y-98565000D02*
X113256252Y-98565000D01*
X112733748Y-100035000D02*
X113256252Y-100035000D01*
%TO.C,R1*%
X95477500Y-58054724D02*
X95477500Y-57545276D01*
X96522500Y-58054724D02*
X96522500Y-57545276D01*
%TO.C,J3*%
X106755000Y-47620000D02*
X106755000Y-50380000D01*
X109405000Y-47620000D02*
X106755000Y-47620000D01*
X109405000Y-47620000D02*
X109405000Y-50380000D01*
X109405000Y-50380000D02*
X106755000Y-50380000D01*
X110675000Y-47620000D02*
X112055000Y-47620000D01*
X112055000Y-47620000D02*
X112055000Y-49000000D01*
%TO.C,J4*%
X92220000Y-90685000D02*
X93600000Y-90685000D01*
X92220000Y-92065000D02*
X92220000Y-90685000D01*
X92220000Y-93335000D02*
X92220000Y-95985000D01*
X92220000Y-93335000D02*
X94980000Y-93335000D01*
X92220000Y-95985000D02*
X94980000Y-95985000D01*
X94980000Y-93335000D02*
X94980000Y-95985000D01*
%TO.C,J1*%
X130345000Y-103780000D02*
X130345000Y-102400000D01*
X131725000Y-103780000D02*
X130345000Y-103780000D01*
X132995000Y-101020000D02*
X135645000Y-101020000D01*
X132995000Y-103780000D02*
X132995000Y-101020000D01*
X132995000Y-103780000D02*
X135645000Y-103780000D01*
X135645000Y-103780000D02*
X135645000Y-101020000D01*
%TO.C,U1*%
X106465000Y-85740000D02*
X106640000Y-85740000D01*
X106465000Y-91260000D02*
X106465000Y-85740000D01*
X106640000Y-91260000D02*
X106465000Y-91260000D01*
X114710000Y-85740000D02*
X114885000Y-85740000D01*
X114885000Y-85740000D02*
X114885000Y-91260000D01*
X114885000Y-91260000D02*
X114710000Y-91260000D01*
X115185000Y-85340000D02*
X114715000Y-85000000D01*
X115185000Y-84660000D01*
X115185000Y-85340000D01*
G36*
X115185000Y-85340000D02*
G01*
X114715000Y-85000000D01*
X115185000Y-84660000D01*
X115185000Y-85340000D01*
G37*
%TO.C,J7*%
X89000000Y-79980000D02*
X89000000Y-78600000D01*
X90380000Y-79980000D02*
X89000000Y-79980000D01*
X91650000Y-77220000D02*
X137480000Y-77220000D01*
X91650000Y-79980000D02*
X91650000Y-77220000D01*
X91650000Y-79980000D02*
X137480000Y-79980000D01*
X137480000Y-79980000D02*
X137480000Y-77220000D01*
%TO.C,J6*%
X88980000Y-52720000D02*
X88980000Y-55480000D01*
X134810000Y-52720000D02*
X88980000Y-52720000D01*
X134810000Y-52720000D02*
X134810000Y-55480000D01*
X134810000Y-55480000D02*
X88980000Y-55480000D01*
X136080000Y-52720000D02*
X137460000Y-52720000D01*
X137460000Y-52720000D02*
X137460000Y-54100000D01*
%TD*%
M02*
