%TF.GenerationSoftware,KiCad,Pcbnew,9.0.6*%
%TF.CreationDate,2026-08-22T05:30:29-07:00*%
%TF.ProjectId,Liquorice_PCB,4c697175-6f72-4696-9365-5f5043422e6b,rev?*%
%TF.SameCoordinates,Original*%
%TF.FileFunction,Copper,L1,Top*%
%TF.FilePolarity,Positive*%
%FSLAX46Y46*%
G04 Gerber Fmt 4.6, Leading zero omitted, Abs format (unit mm)*
G04 Created by KiCad (PCBNEW 9.0.6) date 2026-08-22 05:30:29*
%MOMM*%
%LPD*%
G01*
G04 APERTURE LIST*
G04 Aperture macros list*
%AMRoundRect*
0 Rectangle with rounded corners*
0 $1 Rounding radius*
0 $2 $3 $4 $5 $6 $7 $8 $9 X,Y pos of 4 corners*
0 Add a 4 corners polygon primitive as box body*
4,1,4,$2,$3,$4,$5,$6,$7,$8,$9,$2,$3,0*
0 Add four circle primitives for the rounded corners*
1,1,$1+$1,$2,$3*
1,1,$1+$1,$4,$5*
1,1,$1+$1,$6,$7*
1,1,$1+$1,$8,$9*
0 Add four rect primitives between the rounded corners*
20,1,$1+$1,$2,$3,$4,$5,0*
20,1,$1+$1,$4,$5,$6,$7,0*
20,1,$1+$1,$6,$7,$8,$9,0*
20,1,$1+$1,$8,$9,$2,$3,0*%
G04 Aperture macros list end*
%TA.AperFunction,SMDPad,CuDef*%
%ADD10RoundRect,0.237500X0.237500X-0.250000X0.237500X0.250000X-0.237500X0.250000X-0.237500X-0.250000X0*%
%TD*%
%TA.AperFunction,SMDPad,CuDef*%
%ADD11RoundRect,0.250000X-0.475000X0.337500X-0.475000X-0.337500X0.475000X-0.337500X0.475000X0.337500X0*%
%TD*%
%TA.AperFunction,SMDPad,CuDef*%
%ADD12RoundRect,0.250000X-0.545000X-0.445000X0.545000X-0.445000X0.545000X0.445000X-0.545000X0.445000X0*%
%TD*%
%TA.AperFunction,ComponentPad*%
%ADD13R,1.700000X1.700000*%
%TD*%
%TA.AperFunction,ComponentPad*%
%ADD14C,1.700000*%
%TD*%
%TA.AperFunction,SMDPad,CuDef*%
%ADD15RoundRect,0.250000X0.545000X0.445000X-0.545000X0.445000X-0.545000X-0.445000X0.545000X-0.445000X0*%
%TD*%
%TA.AperFunction,SMDPad,CuDef*%
%ADD16RoundRect,0.250000X0.337500X0.475000X-0.337500X0.475000X-0.337500X-0.475000X0.337500X-0.475000X0*%
%TD*%
%TA.AperFunction,SMDPad,CuDef*%
%ADD17RoundRect,0.250000X-0.337500X-0.475000X0.337500X-0.475000X0.337500X0.475000X-0.337500X0.475000X0*%
%TD*%
%TA.AperFunction,SMDPad,CuDef*%
%ADD18R,0.250000X0.675000*%
%TD*%
%TA.AperFunction,SMDPad,CuDef*%
%ADD19R,0.675000X0.250000*%
%TD*%
%TA.AperFunction,SMDPad,CuDef*%
%ADD20RoundRect,0.100000X-0.100000X0.850000X-0.100000X-0.850000X0.100000X-0.850000X0.100000X0.850000X0*%
%TD*%
%TA.AperFunction,ViaPad*%
%ADD21C,0.500000*%
%TD*%
%TA.AperFunction,ViaPad*%
%ADD22C,0.600000*%
%TD*%
%TA.AperFunction,ViaPad*%
%ADD23C,0.700000*%
%TD*%
%TA.AperFunction,Conductor*%
%ADD24C,0.200000*%
%TD*%
%TA.AperFunction,Conductor*%
%ADD25C,0.100000*%
%TD*%
%TA.AperFunction,Conductor*%
%ADD26C,0.400000*%
%TD*%
G04 APERTURE END LIST*
D10*
%TO.P,R4,1*%
%TO.N,+3.3V*%
X105000000Y-58712500D03*
%TO.P,R4,2*%
%TO.N,Net-(J3-Pin_1)*%
X105000000Y-56887500D03*
%TD*%
%TO.P,R3,1*%
%TO.N,+3.3V*%
X102400000Y-58712500D03*
%TO.P,R3,2*%
%TO.N,Net-(J3-Pin_2)*%
X102400000Y-56887500D03*
%TD*%
D11*
%TO.P,C5,1*%
%TO.N,+3.3V*%
X124400000Y-86625000D03*
%TO.P,C5,2*%
%TO.N,GND*%
X124400000Y-88700000D03*
%TD*%
D12*
%TO.P,C9,1*%
%TO.N,VM*%
X106595000Y-98900000D03*
%TO.P,C9,2*%
%TO.N,GND*%
X109475000Y-98900000D03*
%TD*%
D13*
%TO.P,J5,1,Pin_1*%
%TO.N,Net-(J5-Pin_1)*%
X93400000Y-101940000D03*
D14*
%TO.P,J5,2,Pin_2*%
%TO.N,Net-(J5-Pin_2)*%
X93400000Y-99400000D03*
%TD*%
D15*
%TO.P,C8,1*%
%TO.N,+3.3V*%
X114275000Y-95500000D03*
%TO.P,C8,2*%
%TO.N,GND*%
X111395000Y-95500000D03*
%TD*%
D16*
%TO.P,C6,1*%
%TO.N,+3.3V*%
X127287500Y-91262500D03*
%TO.P,C6,2*%
%TO.N,GND*%
X125212500Y-91262500D03*
%TD*%
D10*
%TO.P,R2,1*%
%TO.N,+3.3V*%
X99200000Y-58712500D03*
%TO.P,R2,2*%
%TO.N,Net-(J2-Pin_1)*%
X99200000Y-56887500D03*
%TD*%
D17*
%TO.P,C10,1*%
%TO.N,VM*%
X107157500Y-95500000D03*
%TO.P,C10,2*%
%TO.N,GND*%
X109232500Y-95500000D03*
%TD*%
D18*
%TO.P,U3,1,SDO*%
%TO.N,MISO*%
X128750000Y-86337500D03*
%TO.P,U3,2*%
%TO.N,N/C*%
X128250000Y-86337500D03*
%TO.P,U3,3*%
X127750000Y-86337500D03*
%TO.P,U3,4,INT1*%
%TO.N,unconnected-(U3-INT1-Pad4)*%
X127250000Y-86337500D03*
D19*
%TO.P,U3,5,VDDIO*%
%TO.N,+3.3V*%
X126987500Y-87100000D03*
%TO.P,U3,6,GNDIO*%
%TO.N,GND*%
X126987500Y-87600000D03*
%TO.P,U3,7,GND*%
X126987500Y-88100000D03*
D18*
%TO.P,U3,8,VDD*%
%TO.N,+3.3V*%
X127250000Y-88862500D03*
%TO.P,U3,9,INT2*%
%TO.N,unconnected-(U3-INT2-Pad9)*%
X127750000Y-88862500D03*
%TO.P,U3,10*%
%TO.N,N/C*%
X128250000Y-88862500D03*
%TO.P,U3,11*%
X128750000Y-88862500D03*
D19*
%TO.P,U3,12,CSB*%
%TO.N,CS*%
X129012500Y-88100000D03*
%TO.P,U3,13,SCx*%
%TO.N,SCK*%
X129012500Y-87600000D03*
%TO.P,U3,14,SDx*%
%TO.N,MOSI*%
X129012500Y-87100000D03*
%TD*%
D13*
%TO.P,J2,1,Pin_1*%
%TO.N,Net-(J2-Pin_1)*%
X95140000Y-50000000D03*
D14*
%TO.P,J2,2,Pin_2*%
%TO.N,Net-(J2-Pin_2)*%
X92600000Y-50000000D03*
%TD*%
D17*
%TO.P,C7,1*%
%TO.N,GND*%
X111957500Y-99300000D03*
%TO.P,C7,2*%
%TO.N,+3.3V*%
X114032500Y-99300000D03*
%TD*%
D10*
%TO.P,R1,1*%
%TO.N,+3.3V*%
X96000000Y-58712500D03*
%TO.P,R1,2*%
%TO.N,Net-(J2-Pin_2)*%
X96000000Y-56887500D03*
%TD*%
D13*
%TO.P,J3,1,Pin_1*%
%TO.N,Net-(J3-Pin_1)*%
X110675000Y-49000000D03*
D14*
%TO.P,J3,2,Pin_2*%
%TO.N,Net-(J3-Pin_2)*%
X108135000Y-49000000D03*
%TD*%
D13*
%TO.P,J4,1,Pin_1*%
%TO.N,Net-(J4-Pin_1)*%
X93600000Y-92065000D03*
D14*
%TO.P,J4,2,Pin_2*%
%TO.N,Net-(J4-Pin_2)*%
X93600000Y-94605000D03*
%TD*%
D13*
%TO.P,J1,1,Pin_1*%
%TO.N,GND*%
X131725000Y-102400000D03*
D14*
%TO.P,J1,2,Pin_2*%
%TO.N,VM*%
X134265000Y-102400000D03*
%TD*%
D20*
%TO.P,U1,1,AO1*%
%TO.N,Net-(J4-Pin_2)*%
X114250000Y-85000000D03*
%TO.P,U1,2,AO1*%
X113600000Y-85000000D03*
%TO.P,U1,3,PGND1*%
%TO.N,GND*%
X112950000Y-85000000D03*
%TO.P,U1,4,PGND1*%
X112300000Y-85000000D03*
%TO.P,U1,5,AO2*%
%TO.N,Net-(J4-Pin_1)*%
X111650000Y-85000000D03*
%TO.P,U1,6,AO2*%
X111000000Y-85000000D03*
%TO.P,U1,7,BO2*%
%TO.N,Net-(J5-Pin_1)*%
X110350000Y-85000000D03*
%TO.P,U1,8,BO2*%
X109700000Y-85000000D03*
%TO.P,U1,9,PGND2*%
%TO.N,GND*%
X109050000Y-85000000D03*
%TO.P,U1,10,PGND2*%
X108400000Y-85000000D03*
%TO.P,U1,11,BO1*%
%TO.N,Net-(J5-Pin_2)*%
X107750000Y-85000000D03*
%TO.P,U1,12,BO1*%
X107100000Y-85000000D03*
%TO.P,U1,13,VM2*%
%TO.N,VM*%
X107100000Y-92000000D03*
%TO.P,U1,14,VM3*%
X107750000Y-92000000D03*
%TO.P,U1,15,PWMB*%
%TO.N,PWMB*%
X108400000Y-92000000D03*
%TO.P,U1,16,BIN2*%
%TO.N,BIN2*%
X109050000Y-92000000D03*
%TO.P,U1,17,BIN1*%
%TO.N,BIN1*%
X109700000Y-92000000D03*
%TO.P,U1,18,GND*%
%TO.N,GND*%
X110350000Y-92000000D03*
%TO.P,U1,19,STBY*%
%TO.N,+3.3V*%
X111000000Y-92000000D03*
%TO.P,U1,20,VCC*%
X111650000Y-92000000D03*
%TO.P,U1,21,AIN1*%
%TO.N,AIN1*%
X112300000Y-92000000D03*
%TO.P,U1,22,AIN2*%
%TO.N,AIN2*%
X112950000Y-92000000D03*
%TO.P,U1,23,PWMA*%
%TO.N,PWMA*%
X113600000Y-92000000D03*
%TO.P,U1,24,VM1*%
%TO.N,VM*%
X114250000Y-92000000D03*
%TD*%
D13*
%TO.P,J7,1,Pin_1*%
%TO.N,+3.3V*%
X90380000Y-78600000D03*
D14*
%TO.P,J7,2,Pin_2*%
%TO.N,unconnected-(J7-Pin_2-Pad2)*%
X92920000Y-78600000D03*
%TO.P,J7,3,Pin_3*%
%TO.N,unconnected-(J7-Pin_3-Pad3)*%
X95460000Y-78600000D03*
%TO.P,J7,4,Pin_4*%
%TO.N,unconnected-(J7-Pin_4-Pad4)*%
X98000000Y-78600000D03*
%TO.P,J7,5,Pin_5*%
%TO.N,unconnected-(J7-Pin_5-Pad5)*%
X100540000Y-78600000D03*
%TO.P,J7,6,Pin_6*%
%TO.N,unconnected-(J7-Pin_6-Pad6)*%
X103080000Y-78600000D03*
%TO.P,J7,7,Pin_7*%
%TO.N,PWMB*%
X105620000Y-78600000D03*
%TO.P,J7,8,Pin_8*%
%TO.N,BIN2*%
X108160000Y-78600000D03*
%TO.P,J7,9,Pin_9*%
%TO.N,SCK*%
X110700000Y-78600000D03*
%TO.P,J7,10,Pin_10*%
%TO.N,MOSI*%
X113240000Y-78600000D03*
%TO.P,J7,11,Pin_11*%
%TO.N,MISO*%
X115780000Y-78600000D03*
%TO.P,J7,12,Pin_12*%
%TO.N,PWMA*%
X118320000Y-78600000D03*
%TO.P,J7,13,Pin_13*%
%TO.N,AIN1*%
X120860000Y-78600000D03*
%TO.P,J7,14,Pin_14*%
%TO.N,GND*%
X123400000Y-78600000D03*
%TO.P,J7,15,Pin_15*%
%TO.N,BIN1*%
X125940000Y-78600000D03*
%TO.P,J7,16,Pin_16*%
%TO.N,unconnected-(J7-Pin_16-Pad16)*%
X128480000Y-78600000D03*
%TO.P,J7,17,Pin_17*%
%TO.N,unconnected-(J7-Pin_17-Pad17)*%
X131020000Y-78600000D03*
%TO.P,J7,18,Pin_18*%
%TO.N,unconnected-(J7-Pin_18-Pad18)*%
X133560000Y-78600000D03*
%TO.P,J7,19,Pin_19*%
%TO.N,VM*%
X136100000Y-78600000D03*
%TD*%
D13*
%TO.P,J6,1,Pin_1*%
%TO.N,unconnected-(J6-Pin_1-Pad1)*%
X136080000Y-54100000D03*
D14*
%TO.P,J6,2,Pin_2*%
%TO.N,unconnected-(J6-Pin_2-Pad2)*%
X133540000Y-54100000D03*
%TO.P,J6,3,Pin_3*%
%TO.N,unconnected-(J6-Pin_3-Pad3)*%
X131000000Y-54100000D03*
%TO.P,J6,4,Pin_4*%
%TO.N,AIN2*%
X128460000Y-54100000D03*
%TO.P,J6,5,Pin_5*%
%TO.N,unconnected-(J6-Pin_5-Pad5)*%
X125920000Y-54100000D03*
%TO.P,J6,6,Pin_6*%
%TO.N,unconnected-(J6-Pin_6-Pad6)*%
X123380000Y-54100000D03*
%TO.P,J6,7,Pin_7*%
%TO.N,CS*%
X120840000Y-54100000D03*
%TO.P,J6,8,Pin_8*%
%TO.N,unconnected-(J6-Pin_8-Pad8)*%
X118300000Y-54100000D03*
%TO.P,J6,9,Pin_9*%
%TO.N,unconnected-(J6-Pin_9-Pad9)*%
X115760000Y-54100000D03*
%TO.P,J6,10,Pin_10*%
%TO.N,unconnected-(J6-Pin_10-Pad10)*%
X113220000Y-54100000D03*
%TO.P,J6,11,Pin_11*%
%TO.N,Net-(J3-Pin_1)*%
X110680000Y-54100000D03*
%TO.P,J6,12,Pin_12*%
%TO.N,Net-(J3-Pin_2)*%
X108140000Y-54100000D03*
%TO.P,J6,13,Pin_13*%
%TO.N,GND*%
X105600000Y-54100000D03*
%TO.P,J6,14,Pin_14*%
%TO.N,unconnected-(J6-Pin_14-Pad14)*%
X103060000Y-54100000D03*
%TO.P,J6,15,Pin_15*%
%TO.N,unconnected-(J6-Pin_15-Pad15)*%
X100520000Y-54100000D03*
%TO.P,J6,16,Pin_16*%
%TO.N,unconnected-(J6-Pin_16-Pad16)*%
X97980000Y-54100000D03*
%TO.P,J6,17,Pin_17*%
%TO.N,Net-(J2-Pin_1)*%
X95440000Y-54100000D03*
%TO.P,J6,18,Pin_18*%
%TO.N,Net-(J2-Pin_2)*%
X92900000Y-54100000D03*
%TO.P,J6,19,Pin_19*%
%TO.N,GND*%
X90360000Y-54100000D03*
%TD*%
D21*
%TO.N,GND*%
X110200000Y-95200000D03*
X123200000Y-89000000D03*
X125800000Y-88800000D03*
D22*
X124200000Y-90400000D03*
D21*
X111400000Y-97200000D03*
X105800000Y-85800000D03*
X123200000Y-88200000D03*
X109400000Y-97000000D03*
X113000000Y-83600000D03*
X104600000Y-85800000D03*
X109232500Y-94200000D03*
X111400000Y-94200000D03*
X112000000Y-83600000D03*
D22*
%TO.N,+3.3V*%
X122600000Y-86400000D03*
D23*
%TO.N,VM*%
X104600000Y-96200000D03*
X115800000Y-93400000D03*
X105400000Y-92800000D03*
D22*
%TO.N,CS*%
X128600000Y-90400000D03*
D21*
%TO.N,AIN2*%
X116000000Y-89800000D03*
%TO.N,BIN1*%
X115702000Y-84400000D03*
%TO.N,PWMB*%
X104600000Y-82800000D03*
%TO.N,AIN1*%
X116252000Y-85200000D03*
%TO.N,PWMA*%
X116850000Y-85800000D03*
%TO.N,BIN2*%
X106200000Y-82250000D03*
%TD*%
D24*
%TO.N,Net-(J2-Pin_1)*%
X95140000Y-53800000D02*
X95440000Y-54100000D01*
X95140000Y-50000000D02*
X95140000Y-53800000D01*
%TO.N,Net-(J2-Pin_2)*%
X92600000Y-50200000D02*
X92900000Y-50500000D01*
X92900000Y-50500000D02*
X92900000Y-54100000D01*
X92600000Y-50000000D02*
X92600000Y-50200000D01*
X92600000Y-49600000D02*
X92600000Y-49800000D01*
X92600000Y-49800000D02*
X92900000Y-50100000D01*
D25*
%TO.N,GND*%
X109232500Y-93916660D02*
X109232500Y-94200000D01*
D24*
X110350000Y-93082500D02*
X109232500Y-94200000D01*
D25*
X110350000Y-92000000D02*
X110350000Y-92799160D01*
D24*
X110350000Y-92000000D02*
X110350000Y-93082500D01*
X125800000Y-88800000D02*
X126000000Y-88800000D01*
X126000000Y-88800000D02*
X126700000Y-88100000D01*
X126987500Y-88100000D02*
X126987500Y-87600000D01*
X126700000Y-88100000D02*
X126987500Y-88100000D01*
X109050000Y-85000000D02*
X108400000Y-85000000D01*
D25*
X109232500Y-94200000D02*
X109232500Y-95500000D01*
D24*
X112300000Y-85000000D02*
X112950000Y-85000000D01*
D25*
X111395000Y-95500000D02*
X110350000Y-94455000D01*
D24*
%TO.N,+3.3V*%
X114700000Y-99300000D02*
X117400000Y-96600000D01*
X124875000Y-87100000D02*
X124400000Y-86625000D01*
X102400000Y-58712500D02*
X105000000Y-58712500D01*
X114275000Y-95500000D02*
X111650000Y-92875000D01*
X117400000Y-85167100D02*
X111983900Y-79751000D01*
X96000000Y-71000000D02*
X96000000Y-58712500D01*
X117400000Y-96600000D02*
X117400000Y-85167100D01*
X114275000Y-98525000D02*
X114275000Y-95500000D01*
X91531000Y-79751000D02*
X90380000Y-78600000D01*
X90380000Y-78600000D02*
X90380000Y-76620000D01*
X124400000Y-86625000D02*
X122825000Y-86625000D01*
X127250000Y-88862500D02*
X127250000Y-91225000D01*
X125825000Y-89800000D02*
X123220768Y-89800000D01*
X96000000Y-58712500D02*
X99200000Y-58712500D01*
X123220768Y-89800000D02*
X122600000Y-89179232D01*
X127287500Y-91262500D02*
X125825000Y-89800000D01*
X126987500Y-87100000D02*
X124875000Y-87100000D01*
X122825000Y-86625000D02*
X122600000Y-86400000D01*
X99200000Y-58712500D02*
X102400000Y-58712500D01*
X114032500Y-99300000D02*
X114700000Y-99300000D01*
X114032500Y-99300000D02*
X114032500Y-98767500D01*
X111650000Y-92875000D02*
X111650000Y-92000000D01*
X111650000Y-92000000D02*
X111000000Y-92000000D01*
X111983900Y-79751000D02*
X91531000Y-79751000D01*
X90380000Y-76620000D02*
X96000000Y-71000000D01*
X127250000Y-91225000D02*
X127287500Y-91262500D01*
X114032500Y-98767500D02*
X114275000Y-98525000D01*
X122600000Y-89179232D02*
X122600000Y-86400000D01*
%TO.N,Net-(J2-Pin_2)*%
X95687500Y-56887500D02*
X92900000Y-54100000D01*
X92535000Y-53735000D02*
X92900000Y-54100000D01*
X96000000Y-56887500D02*
X95687500Y-56887500D01*
D26*
%TO.N,VM*%
X106300000Y-92800000D02*
X107100000Y-92000000D01*
X107157500Y-95500000D02*
X107157500Y-92057500D01*
X106595000Y-98195000D02*
X104600000Y-96200000D01*
X106595000Y-98900000D02*
X106595000Y-96062500D01*
X105400000Y-92800000D02*
X106300000Y-92800000D01*
X107157500Y-92057500D02*
X107100000Y-92000000D01*
D24*
X107100000Y-92000000D02*
X107750000Y-92000000D01*
D26*
X106595000Y-98900000D02*
X106595000Y-98195000D01*
D24*
X136100000Y-78600000D02*
X134265000Y-80435000D01*
D26*
X114250000Y-92000000D02*
X114400000Y-92000000D01*
X106595000Y-96062500D02*
X107157500Y-95500000D01*
D24*
X134265000Y-80435000D02*
X134265000Y-102400000D01*
D26*
X114400000Y-92000000D02*
X115800000Y-93400000D01*
D24*
%TO.N,Net-(J2-Pin_1)*%
X98227500Y-56887500D02*
X99200000Y-56887500D01*
X95440000Y-54100000D02*
X98227500Y-56887500D01*
%TO.N,Net-(J3-Pin_1)*%
X107892500Y-56887500D02*
X110680000Y-54100000D01*
X110675000Y-49000000D02*
X110675000Y-54095000D01*
X110675000Y-54095000D02*
X110680000Y-54100000D01*
X105000000Y-56887500D02*
X107892500Y-56887500D01*
%TO.N,Net-(J3-Pin_2)*%
X106989000Y-55251000D02*
X104036500Y-55251000D01*
X108135000Y-54095000D02*
X108140000Y-54100000D01*
X104036500Y-55251000D02*
X102400000Y-56887500D01*
X108140000Y-54100000D02*
X106989000Y-55251000D01*
X108135000Y-49000000D02*
X108135000Y-54095000D01*
D26*
%TO.N,Net-(J4-Pin_2)*%
X93600000Y-94605000D02*
X93795000Y-94605000D01*
X113600000Y-85000000D02*
X114250000Y-85000000D01*
X101000000Y-87400000D02*
X112900000Y-87400000D01*
X112900000Y-87400000D02*
X114250000Y-86050000D01*
X93795000Y-94605000D02*
X101000000Y-87400000D01*
X114250000Y-86050000D02*
X114250000Y-85000000D01*
%TO.N,Net-(J4-Pin_1)*%
X93600000Y-92065000D02*
X98865000Y-86800000D01*
X111000000Y-85000000D02*
X111650000Y-85000000D01*
X110799999Y-86800000D02*
X111650000Y-85949999D01*
X111650000Y-85949999D02*
X111650000Y-85000000D01*
X98865000Y-86800000D02*
X110799999Y-86800000D01*
D24*
%TO.N,CS*%
X129176000Y-89824000D02*
X128600000Y-90400000D01*
X129012500Y-88100000D02*
X129176000Y-88263500D01*
X129176000Y-88263500D02*
X129176000Y-89824000D01*
%TO.N,AIN2*%
X114200001Y-89800000D02*
X116000000Y-89800000D01*
X112950000Y-92000000D02*
X112950000Y-91050001D01*
X112950000Y-91050001D02*
X114200001Y-89800000D01*
%TO.N,BIN1*%
X115702000Y-86698000D02*
X113697000Y-88703000D01*
X115702000Y-84400000D02*
X115702000Y-86698000D01*
X113697000Y-88703000D02*
X112127130Y-88703000D01*
X112127130Y-88703000D02*
X109700000Y-91130130D01*
X109700000Y-91130130D02*
X109700000Y-92000000D01*
%TO.N,PWMB*%
X113107520Y-87901000D02*
X114751000Y-86257520D01*
X113569870Y-82800000D02*
X104600000Y-82800000D01*
X108400000Y-91050001D02*
X111549001Y-87901000D01*
X114751000Y-83981130D02*
X113569870Y-82800000D01*
X111549001Y-87901000D02*
X113107520Y-87901000D01*
X108400000Y-92000000D02*
X108400000Y-91050001D01*
X114751000Y-86257520D02*
X114751000Y-83981130D01*
%TO.N,AIN1*%
X112300000Y-91050001D02*
X116200000Y-87150001D01*
X116200000Y-87150001D02*
X116200000Y-85200000D01*
X116200000Y-85200000D02*
X116252000Y-85200000D01*
X112300000Y-92000000D02*
X112300000Y-91050001D01*
%TO.N,MISO*%
X122728000Y-79751000D02*
X116931000Y-79751000D01*
X128750000Y-85773000D02*
X122728000Y-79751000D01*
X128750000Y-86337500D02*
X128750000Y-85773000D01*
X116931000Y-79751000D02*
X115780000Y-78600000D01*
%TO.N,PWMA*%
X113600000Y-91130130D02*
X114379130Y-90351000D01*
X116228232Y-90351000D02*
X116850000Y-89729232D01*
X114379130Y-90351000D02*
X116228232Y-90351000D01*
X116850000Y-89729232D02*
X116850000Y-85800000D01*
X113600000Y-92000000D02*
X113600000Y-91130130D01*
%TO.N,MOSI*%
X129651000Y-84176760D02*
X129651000Y-86461500D01*
X129651000Y-86461500D02*
X129012500Y-87100000D01*
X114391000Y-77449000D02*
X123876760Y-77449000D01*
X124551000Y-79076760D02*
X129651000Y-84176760D01*
X124551000Y-78123240D02*
X124551000Y-79076760D01*
X123876760Y-77449000D02*
X124551000Y-78123240D01*
X113240000Y-78600000D02*
X114391000Y-77449000D01*
%TO.N,BIN2*%
X111798001Y-88302000D02*
X113273620Y-88302000D01*
X115152000Y-86423620D02*
X115152000Y-83815030D01*
X109050000Y-92000000D02*
X109050000Y-91050001D01*
X115152000Y-83815030D02*
X113586970Y-82250000D01*
X109050000Y-91050001D02*
X111798001Y-88302000D01*
X113273620Y-88302000D02*
X115152000Y-86423620D01*
X113586970Y-82250000D02*
X106200000Y-82250000D01*
%TO.N,SCK*%
X129012500Y-87600000D02*
X129577000Y-87600000D01*
X111400000Y-78600000D02*
X110700000Y-78600000D01*
X129577000Y-87600000D02*
X129651000Y-87674000D01*
X129651000Y-87674000D02*
X129651000Y-90497660D01*
X124639840Y-92288500D02*
X124324000Y-91972660D01*
X124324000Y-91972660D02*
X124324000Y-91524000D01*
X124324000Y-91524000D02*
X111400000Y-78600000D01*
X127860160Y-92288500D02*
X124639840Y-92288500D01*
X129651000Y-90497660D02*
X127860160Y-92288500D01*
D26*
%TO.N,Net-(J5-Pin_1)*%
X110350000Y-84638708D02*
X110350000Y-85000000D01*
X109360292Y-83649000D02*
X110350000Y-84638708D01*
X90600000Y-88000000D02*
X94951000Y-83649000D01*
X93400000Y-101940000D02*
X90600000Y-99140000D01*
X109700000Y-85000000D02*
X110350000Y-85000000D01*
X90600000Y-99140000D02*
X90600000Y-88000000D01*
X94951000Y-83649000D02*
X109360292Y-83649000D01*
%TO.N,Net-(J5-Pin_2)*%
X93400000Y-99400000D02*
X92349000Y-98349000D01*
X92349000Y-98349000D02*
X92349000Y-90814000D01*
X107100000Y-85000000D02*
X107750000Y-85000000D01*
X98163000Y-85000000D02*
X107100000Y-85000000D01*
X92349000Y-90814000D02*
X98163000Y-85000000D01*
%TD*%
%TA.AperFunction,Conductor*%
%TO.N,GND*%
G36*
X125716206Y-90120185D02*
G01*
X125736848Y-90136819D01*
X126463181Y-90863152D01*
X126496666Y-90924475D01*
X126499500Y-90950833D01*
X126499500Y-91791769D01*
X126502353Y-91822199D01*
X126502353Y-91822200D01*
X126502650Y-91823047D01*
X126502683Y-91823712D01*
X126503964Y-91829573D01*
X126502993Y-91829784D01*
X126506211Y-91892826D01*
X126471481Y-91953453D01*
X126409487Y-91985679D01*
X126385608Y-91988000D01*
X124815673Y-91988000D01*
X124786232Y-91979355D01*
X124756246Y-91972832D01*
X124751230Y-91969077D01*
X124748634Y-91968315D01*
X124727992Y-91951681D01*
X124660819Y-91884508D01*
X124627334Y-91823185D01*
X124624500Y-91796827D01*
X124624500Y-91484439D01*
X124604020Y-91408009D01*
X124604017Y-91408004D01*
X124564464Y-91339495D01*
X124564458Y-91339487D01*
X123537152Y-90312181D01*
X123503667Y-90250858D01*
X123508651Y-90181166D01*
X123550523Y-90125233D01*
X123615987Y-90100816D01*
X123624833Y-90100500D01*
X125649167Y-90100500D01*
X125716206Y-90120185D01*
G37*
%TD.AperFunction*%
%TA.AperFunction,Conductor*%
G36*
X109210076Y-84069185D02*
G01*
X109230718Y-84085819D01*
X109263181Y-84118282D01*
X109296666Y-84179605D01*
X109299500Y-84205963D01*
X109299500Y-85894856D01*
X109299502Y-85894882D01*
X109302413Y-85919987D01*
X109302415Y-85919991D01*
X109347793Y-86022764D01*
X109347794Y-86022765D01*
X109427235Y-86102206D01*
X109530009Y-86147585D01*
X109555135Y-86150500D01*
X109844864Y-86150499D01*
X109844879Y-86150497D01*
X109844882Y-86150497D01*
X109869987Y-86147586D01*
X109869987Y-86147585D01*
X109869991Y-86147585D01*
X109972765Y-86102206D01*
X109972766Y-86102204D01*
X109974912Y-86101257D01*
X110044190Y-86092185D01*
X110075085Y-86101257D01*
X110178394Y-86146872D01*
X110180009Y-86147585D01*
X110205135Y-86150500D01*
X110494864Y-86150499D01*
X110494879Y-86150497D01*
X110494882Y-86150497D01*
X110519987Y-86147586D01*
X110519987Y-86147585D01*
X110519991Y-86147585D01*
X110568603Y-86126120D01*
X110637879Y-86117049D01*
X110701064Y-86146872D01*
X110738096Y-86206121D01*
X110737216Y-86275985D01*
X110706370Y-86327235D01*
X110670426Y-86363180D01*
X110609104Y-86396666D01*
X110582744Y-86399500D01*
X98812273Y-86399500D01*
X98710413Y-86426793D01*
X98710410Y-86426794D01*
X98619085Y-86479521D01*
X94120426Y-90978181D01*
X94059103Y-91011666D01*
X94032745Y-91014500D01*
X93014254Y-91014500D01*
X92947215Y-90994815D01*
X92901460Y-90942011D01*
X92891516Y-90872853D01*
X92920541Y-90809297D01*
X92926573Y-90802819D01*
X98292573Y-85436819D01*
X98353896Y-85403334D01*
X98380254Y-85400500D01*
X106575501Y-85400500D01*
X106642540Y-85420185D01*
X106688295Y-85472989D01*
X106699501Y-85524500D01*
X106699501Y-85894856D01*
X106699502Y-85894882D01*
X106702413Y-85919987D01*
X106702415Y-85919991D01*
X106747793Y-86022764D01*
X106747794Y-86022765D01*
X106827235Y-86102206D01*
X106930009Y-86147585D01*
X106955135Y-86150500D01*
X107244864Y-86150499D01*
X107244879Y-86150497D01*
X107244882Y-86150497D01*
X107269987Y-86147586D01*
X107269987Y-86147585D01*
X107269991Y-86147585D01*
X107372765Y-86102206D01*
X107372766Y-86102204D01*
X107374912Y-86101257D01*
X107444190Y-86092185D01*
X107475085Y-86101257D01*
X107578394Y-86146872D01*
X107580009Y-86147585D01*
X107605135Y-86150500D01*
X107894864Y-86150499D01*
X107894879Y-86150497D01*
X107894882Y-86150497D01*
X107919987Y-86147586D01*
X107919988Y-86147585D01*
X107919991Y-86147585D01*
X108022765Y-86102206D01*
X108102206Y-86022765D01*
X108147585Y-85919991D01*
X108150500Y-85894865D01*
X108150500Y-85011914D01*
X108150500Y-84947273D01*
X108150500Y-84932840D01*
X108150499Y-84932830D01*
X108150499Y-84173500D01*
X108170184Y-84106461D01*
X108222988Y-84060706D01*
X108274499Y-84049500D01*
X109143037Y-84049500D01*
X109210076Y-84069185D01*
G37*
%TD.AperFunction*%
%TA.AperFunction,Conductor*%
G36*
X128019321Y-86856969D02*
G01*
X128022009Y-86856680D01*
X128045899Y-86863694D01*
X128105247Y-86875499D01*
X128105250Y-86875500D01*
X128350500Y-86875500D01*
X128417539Y-86895185D01*
X128463294Y-86947989D01*
X128474500Y-86999500D01*
X128474500Y-87244752D01*
X128488515Y-87315209D01*
X128487239Y-87315462D01*
X128493317Y-87372023D01*
X128486303Y-87395910D01*
X128474500Y-87455247D01*
X128474500Y-87744752D01*
X128488515Y-87815209D01*
X128487239Y-87815462D01*
X128493317Y-87872023D01*
X128486303Y-87895910D01*
X128474500Y-87955247D01*
X128474500Y-88200500D01*
X128454815Y-88267539D01*
X128402011Y-88313294D01*
X128350500Y-88324500D01*
X128105249Y-88324500D01*
X128034791Y-88338515D01*
X128034537Y-88337239D01*
X127977977Y-88343317D01*
X127954089Y-88336303D01*
X127894751Y-88324500D01*
X127894748Y-88324500D01*
X127605252Y-88324500D01*
X127605249Y-88324500D01*
X127534791Y-88338515D01*
X127534537Y-88337239D01*
X127477977Y-88343317D01*
X127454089Y-88336303D01*
X127394751Y-88324500D01*
X127394748Y-88324500D01*
X127105252Y-88324500D01*
X127105247Y-88324500D01*
X127046770Y-88336131D01*
X127046769Y-88336132D01*
X126980447Y-88380447D01*
X126936132Y-88446769D01*
X126936131Y-88446770D01*
X126924500Y-88505247D01*
X126924500Y-89219752D01*
X126936130Y-89278223D01*
X126940059Y-89287706D01*
X126949500Y-89335165D01*
X126949500Y-90200167D01*
X126929815Y-90267206D01*
X126877011Y-90312961D01*
X126807853Y-90322905D01*
X126744297Y-90293880D01*
X126737819Y-90287848D01*
X126009512Y-89559541D01*
X126009507Y-89559537D01*
X126000065Y-89554086D01*
X126000064Y-89554086D01*
X125940991Y-89519980D01*
X125940990Y-89519979D01*
X125915513Y-89513152D01*
X125864562Y-89499500D01*
X125864560Y-89499500D01*
X123396601Y-89499500D01*
X123329562Y-89479815D01*
X123308920Y-89463181D01*
X122936819Y-89091080D01*
X122903334Y-89029757D01*
X122900500Y-89003399D01*
X122900500Y-87049500D01*
X122920185Y-86982461D01*
X122972989Y-86936706D01*
X123024500Y-86925500D01*
X123353026Y-86925500D01*
X123420065Y-86945185D01*
X123465820Y-86997989D01*
X123476484Y-87037922D01*
X123476523Y-87038333D01*
X123477354Y-87047203D01*
X123522206Y-87175380D01*
X123522207Y-87175382D01*
X123602850Y-87284650D01*
X123712118Y-87365293D01*
X123754845Y-87380244D01*
X123840299Y-87410146D01*
X123870730Y-87413000D01*
X123870734Y-87413000D01*
X124929270Y-87413000D01*
X124953612Y-87410716D01*
X124959699Y-87410146D01*
X124963969Y-87408652D01*
X124967379Y-87407459D01*
X125008335Y-87400500D01*
X126514834Y-87400500D01*
X126562291Y-87409941D01*
X126571771Y-87413868D01*
X126630247Y-87425499D01*
X126630250Y-87425500D01*
X126630252Y-87425500D01*
X127344750Y-87425500D01*
X127344751Y-87425499D01*
X127359568Y-87422552D01*
X127403229Y-87413868D01*
X127403229Y-87413867D01*
X127403231Y-87413867D01*
X127469552Y-87369552D01*
X127513867Y-87303231D01*
X127513867Y-87303229D01*
X127513868Y-87303229D01*
X127525499Y-87244752D01*
X127525500Y-87244750D01*
X127525500Y-86999500D01*
X127545185Y-86932461D01*
X127597989Y-86886706D01*
X127649500Y-86875500D01*
X127894750Y-86875500D01*
X127894751Y-86875499D01*
X127909485Y-86872568D01*
X127965210Y-86861485D01*
X127965464Y-86862762D01*
X127983053Y-86860870D01*
X128013262Y-86855422D01*
X128019321Y-86856969D01*
G37*
%TD.AperFunction*%
%TA.AperFunction,Conductor*%
G36*
X113461076Y-83120185D02*
G01*
X113481718Y-83136819D01*
X114033385Y-83688486D01*
X114048446Y-83716068D01*
X114065113Y-83742737D01*
X114065065Y-83746504D01*
X114066870Y-83749809D01*
X114064627Y-83781169D01*
X114064230Y-83812602D01*
X114062154Y-83815743D01*
X114061886Y-83819501D01*
X114043045Y-83844667D01*
X114025717Y-83870898D01*
X114021381Y-83873607D01*
X114020014Y-83875434D01*
X113995790Y-83889601D01*
X113981116Y-83896079D01*
X113975083Y-83898744D01*
X113905804Y-83907813D01*
X113874914Y-83898743D01*
X113872765Y-83897794D01*
X113769991Y-83852415D01*
X113744865Y-83849500D01*
X113455143Y-83849500D01*
X113455117Y-83849502D01*
X113430012Y-83852413D01*
X113430008Y-83852415D01*
X113327235Y-83897793D01*
X113247794Y-83977234D01*
X113202415Y-84080006D01*
X113202415Y-84080008D01*
X113199500Y-84105131D01*
X113199500Y-85894856D01*
X113199502Y-85894882D01*
X113202413Y-85919987D01*
X113202415Y-85919991D01*
X113247793Y-86022764D01*
X113247794Y-86022765D01*
X113327235Y-86102206D01*
X113372642Y-86122255D01*
X113426018Y-86167341D01*
X113446545Y-86234127D01*
X113427707Y-86301409D01*
X113410236Y-86323370D01*
X112770426Y-86963181D01*
X112709103Y-86996666D01*
X112682745Y-86999500D01*
X111466254Y-86999500D01*
X111399215Y-86979815D01*
X111353460Y-86927011D01*
X111343516Y-86857853D01*
X111372541Y-86794297D01*
X111378573Y-86787819D01*
X111665332Y-86501060D01*
X111970480Y-86195912D01*
X112023207Y-86104587D01*
X112050500Y-86002726D01*
X112050500Y-85897272D01*
X112050500Y-84947273D01*
X112050500Y-84932840D01*
X112050499Y-84932830D01*
X112050499Y-84105143D01*
X112050499Y-84105136D01*
X112048259Y-84085819D01*
X112047586Y-84080012D01*
X112047585Y-84080010D01*
X112047585Y-84080009D01*
X112002206Y-83977235D01*
X111922765Y-83897794D01*
X111904214Y-83889603D01*
X111819992Y-83852415D01*
X111794865Y-83849500D01*
X111505143Y-83849500D01*
X111505117Y-83849502D01*
X111480013Y-83852413D01*
X111427876Y-83875434D01*
X111377238Y-83897793D01*
X111375086Y-83898743D01*
X111305807Y-83907814D01*
X111274914Y-83898743D01*
X111272765Y-83897794D01*
X111169991Y-83852415D01*
X111144865Y-83849500D01*
X110855143Y-83849500D01*
X110855117Y-83849502D01*
X110830013Y-83852413D01*
X110777876Y-83875434D01*
X110727238Y-83897793D01*
X110725086Y-83898743D01*
X110655807Y-83907814D01*
X110624914Y-83898743D01*
X110622765Y-83897794D01*
X110519991Y-83852415D01*
X110494865Y-83849500D01*
X110205143Y-83849500D01*
X110205129Y-83849501D01*
X110194848Y-83850694D01*
X110125988Y-83838862D01*
X110092885Y-83815200D01*
X109606207Y-83328522D01*
X109606205Y-83328520D01*
X109606202Y-83328518D01*
X109599756Y-83323572D01*
X109601695Y-83321044D01*
X109563817Y-83281311D01*
X109550599Y-83212702D01*
X109576573Y-83147840D01*
X109633491Y-83107316D01*
X109674037Y-83100500D01*
X113394037Y-83100500D01*
X113461076Y-83120185D01*
G37*
%TD.AperFunction*%
%TA.AperFunction,Conductor*%
G36*
X123767966Y-77769185D02*
G01*
X123788608Y-77785819D01*
X124214181Y-78211392D01*
X124247666Y-78272715D01*
X124250500Y-78299073D01*
X124250500Y-79116322D01*
X124255375Y-79134514D01*
X124270979Y-79192750D01*
X124270982Y-79192755D01*
X124310535Y-79261264D01*
X124310541Y-79261272D01*
X129314181Y-84264912D01*
X129347666Y-84326235D01*
X129350500Y-84352593D01*
X129350500Y-86285667D01*
X129341855Y-86315107D01*
X129335332Y-86345094D01*
X129331577Y-86350109D01*
X129330815Y-86352706D01*
X129314181Y-86373348D01*
X129287181Y-86400348D01*
X129225858Y-86433833D01*
X129156166Y-86428849D01*
X129100233Y-86386977D01*
X129075816Y-86321513D01*
X129075500Y-86312667D01*
X129075500Y-85980249D01*
X129075499Y-85980247D01*
X129063868Y-85921770D01*
X129059940Y-85912288D01*
X129050500Y-85864833D01*
X129050500Y-85733439D01*
X129050089Y-85731906D01*
X129030021Y-85657011D01*
X128993988Y-85594599D01*
X128990464Y-85588495D01*
X128990458Y-85588487D01*
X122912512Y-79510541D01*
X122912504Y-79510535D01*
X122843995Y-79470982D01*
X122843990Y-79470979D01*
X122818513Y-79464152D01*
X122767562Y-79450500D01*
X122767560Y-79450500D01*
X121787128Y-79450500D01*
X121720089Y-79430815D01*
X121674334Y-79378011D01*
X121664390Y-79308853D01*
X121684026Y-79257610D01*
X121790940Y-79097600D01*
X121790940Y-79097599D01*
X121790941Y-79097598D01*
X121870130Y-78906420D01*
X121910500Y-78703465D01*
X121910500Y-78496535D01*
X121870130Y-78293580D01*
X121790941Y-78102402D01*
X121790940Y-78102400D01*
X121790940Y-78102399D01*
X121684026Y-77942390D01*
X121663148Y-77875713D01*
X121681633Y-77808333D01*
X121733612Y-77761643D01*
X121787128Y-77749500D01*
X123700927Y-77749500D01*
X123767966Y-77769185D01*
G37*
%TD.AperFunction*%
%TA.AperFunction,Conductor*%
G36*
X139442539Y-41520185D02*
G01*
X139488294Y-41572989D01*
X139499500Y-41624500D01*
X139499500Y-106975500D01*
X139479815Y-107042539D01*
X139427011Y-107088294D01*
X139375500Y-107099500D01*
X87624500Y-107099500D01*
X87557461Y-107079815D01*
X87511706Y-107027011D01*
X87500500Y-106975500D01*
X87500500Y-103874038D01*
X98399500Y-103874038D01*
X98399500Y-104125961D01*
X98438910Y-104374785D01*
X98516760Y-104614383D01*
X98631132Y-104838848D01*
X98779201Y-105042649D01*
X98779205Y-105042654D01*
X98957345Y-105220794D01*
X98957350Y-105220798D01*
X99135117Y-105349952D01*
X99161155Y-105368870D01*
X99304184Y-105441747D01*
X99385616Y-105483239D01*
X99385618Y-105483239D01*
X99385621Y-105483241D01*
X99625215Y-105561090D01*
X99874038Y-105600500D01*
X99874039Y-105600500D01*
X100125961Y-105600500D01*
X100125962Y-105600500D01*
X100374785Y-105561090D01*
X100614379Y-105483241D01*
X100838845Y-105368870D01*
X101042656Y-105220793D01*
X101220793Y-105042656D01*
X101368870Y-104838845D01*
X101483241Y-104614379D01*
X101561090Y-104374785D01*
X101600500Y-104125962D01*
X101600500Y-103874038D01*
X123399500Y-103874038D01*
X123399500Y-104125961D01*
X123438910Y-104374785D01*
X123516760Y-104614383D01*
X123631132Y-104838848D01*
X123779201Y-105042649D01*
X123779205Y-105042654D01*
X123957345Y-105220794D01*
X123957350Y-105220798D01*
X124135117Y-105349952D01*
X124161155Y-105368870D01*
X124304184Y-105441747D01*
X124385616Y-105483239D01*
X124385618Y-105483239D01*
X124385621Y-105483241D01*
X124625215Y-105561090D01*
X124874038Y-105600500D01*
X124874039Y-105600500D01*
X125125961Y-105600500D01*
X125125962Y-105600500D01*
X125374785Y-105561090D01*
X125614379Y-105483241D01*
X125838845Y-105368870D01*
X126042656Y-105220793D01*
X126220793Y-105042656D01*
X126368870Y-104838845D01*
X126483241Y-104614379D01*
X126561090Y-104374785D01*
X126600500Y-104125962D01*
X126600500Y-103874038D01*
X126561090Y-103625215D01*
X126483241Y-103385621D01*
X126483239Y-103385618D01*
X126483239Y-103385616D01*
X126396802Y-103215975D01*
X126368870Y-103161155D01*
X126302392Y-103069655D01*
X126220798Y-102957350D01*
X126220794Y-102957345D01*
X126042654Y-102779205D01*
X126042649Y-102779201D01*
X125838848Y-102631132D01*
X125838847Y-102631131D01*
X125838845Y-102631130D01*
X125768747Y-102595413D01*
X125614383Y-102516760D01*
X125374785Y-102438910D01*
X125125962Y-102399500D01*
X124874038Y-102399500D01*
X124749626Y-102419205D01*
X124625214Y-102438910D01*
X124385616Y-102516760D01*
X124161151Y-102631132D01*
X123957350Y-102779201D01*
X123957345Y-102779205D01*
X123779205Y-102957345D01*
X123779201Y-102957350D01*
X123631132Y-103161151D01*
X123516760Y-103385616D01*
X123438910Y-103625214D01*
X123399500Y-103874038D01*
X101600500Y-103874038D01*
X101561090Y-103625215D01*
X101483241Y-103385621D01*
X101483239Y-103385618D01*
X101483239Y-103385616D01*
X101396802Y-103215975D01*
X101368870Y-103161155D01*
X101302392Y-103069655D01*
X101220798Y-102957350D01*
X101220794Y-102957345D01*
X101042654Y-102779205D01*
X101042649Y-102779201D01*
X100838848Y-102631132D01*
X100838847Y-102631131D01*
X100838845Y-102631130D01*
X100768747Y-102595413D01*
X100614383Y-102516760D01*
X100374785Y-102438910D01*
X100125962Y-102399500D01*
X99874038Y-102399500D01*
X99749626Y-102419205D01*
X99625214Y-102438910D01*
X99385616Y-102516760D01*
X99161151Y-102631132D01*
X98957350Y-102779201D01*
X98957345Y-102779205D01*
X98779205Y-102957345D01*
X98779201Y-102957350D01*
X98631132Y-103161151D01*
X98516760Y-103385616D01*
X98438910Y-103625214D01*
X98399500Y-103874038D01*
X87500500Y-103874038D01*
X87500500Y-77730247D01*
X89329500Y-77730247D01*
X89329500Y-79469752D01*
X89341131Y-79528229D01*
X89341132Y-79528230D01*
X89385447Y-79594552D01*
X89451769Y-79638867D01*
X89451770Y-79638868D01*
X89510247Y-79650499D01*
X89510250Y-79650500D01*
X89510252Y-79650500D01*
X90954167Y-79650500D01*
X91021206Y-79670185D01*
X91041848Y-79686819D01*
X91290540Y-79935511D01*
X91346489Y-79991460D01*
X91346491Y-79991461D01*
X91346495Y-79991464D01*
X91415004Y-80031017D01*
X91415011Y-80031021D01*
X91491438Y-80051500D01*
X111808067Y-80051500D01*
X111875106Y-80071185D01*
X111895748Y-80087819D01*
X113545748Y-81737819D01*
X113579233Y-81799142D01*
X113574249Y-81868834D01*
X113532377Y-81924767D01*
X113466913Y-81949184D01*
X113458067Y-81949500D01*
X106587964Y-81949500D01*
X106520925Y-81929815D01*
X106500283Y-81913181D01*
X106476615Y-81889513D01*
X106476613Y-81889511D01*
X106373886Y-81830201D01*
X106259309Y-81799500D01*
X106140691Y-81799500D01*
X106026114Y-81830201D01*
X106026112Y-81830201D01*
X106026112Y-81830202D01*
X105923387Y-81889511D01*
X105923384Y-81889513D01*
X105839513Y-81973384D01*
X105839511Y-81973387D01*
X105780201Y-82076114D01*
X105749500Y-82190691D01*
X105749500Y-82309309D01*
X105758636Y-82343408D01*
X105756974Y-82413256D01*
X105717812Y-82471119D01*
X105653583Y-82498623D01*
X105638862Y-82499500D01*
X104987964Y-82499500D01*
X104920925Y-82479815D01*
X104900283Y-82463181D01*
X104876615Y-82439513D01*
X104876613Y-82439511D01*
X104773886Y-82380201D01*
X104659309Y-82349500D01*
X104540691Y-82349500D01*
X104426114Y-82380201D01*
X104426112Y-82380201D01*
X104426112Y-82380202D01*
X104323387Y-82439511D01*
X104323384Y-82439513D01*
X104239513Y-82523384D01*
X104239511Y-82523387D01*
X104180201Y-82626114D01*
X104149500Y-82740691D01*
X104149500Y-82859309D01*
X104180201Y-82973886D01*
X104231363Y-83062501D01*
X104247836Y-83130399D01*
X104224984Y-83196426D01*
X104170063Y-83239617D01*
X104123976Y-83248500D01*
X94898273Y-83248500D01*
X94796410Y-83275793D01*
X94705087Y-83328520D01*
X94705084Y-83328522D01*
X90279522Y-87754084D01*
X90279520Y-87754087D01*
X90226791Y-87845414D01*
X90222499Y-87861436D01*
X90222499Y-87861438D01*
X90199500Y-87947273D01*
X90199500Y-99192726D01*
X90226793Y-99294589D01*
X90227917Y-99296535D01*
X90279520Y-99385913D01*
X90279522Y-99385915D01*
X92313181Y-101419574D01*
X92346666Y-101480897D01*
X92349500Y-101507255D01*
X92349500Y-102809752D01*
X92361131Y-102868229D01*
X92361132Y-102868230D01*
X92405447Y-102934552D01*
X92471769Y-102978867D01*
X92471770Y-102978868D01*
X92530247Y-102990499D01*
X92530250Y-102990500D01*
X92530252Y-102990500D01*
X94269750Y-102990500D01*
X94269751Y-102990499D01*
X94284568Y-102987552D01*
X94328229Y-102978868D01*
X94328229Y-102978867D01*
X94328231Y-102978867D01*
X94394552Y-102934552D01*
X94438867Y-102868231D01*
X94438867Y-102868229D01*
X94438868Y-102868229D01*
X94450499Y-102809752D01*
X94450500Y-102809750D01*
X94450500Y-102296530D01*
X133214500Y-102296530D01*
X133214500Y-102503469D01*
X133254868Y-102706412D01*
X133254870Y-102706420D01*
X133285019Y-102779207D01*
X133334059Y-102897598D01*
X133391541Y-102983626D01*
X133449024Y-103069657D01*
X133595342Y-103215975D01*
X133595345Y-103215977D01*
X133767402Y-103330941D01*
X133958580Y-103410130D01*
X134161530Y-103450499D01*
X134161534Y-103450500D01*
X134161535Y-103450500D01*
X134368466Y-103450500D01*
X134368467Y-103450499D01*
X134571420Y-103410130D01*
X134762598Y-103330941D01*
X134934655Y-103215977D01*
X135080977Y-103069655D01*
X135195941Y-102897598D01*
X135275130Y-102706420D01*
X135315500Y-102503465D01*
X135315500Y-102296535D01*
X135275130Y-102093580D01*
X135195941Y-101902402D01*
X135080977Y-101730345D01*
X135080975Y-101730342D01*
X134934657Y-101584024D01*
X134762595Y-101469057D01*
X134642047Y-101419124D01*
X134587643Y-101375282D01*
X134565579Y-101308988D01*
X134565500Y-101304563D01*
X134565500Y-80610832D01*
X134585185Y-80543793D01*
X134601814Y-80523155D01*
X135537896Y-79587073D01*
X135599217Y-79553590D01*
X135668908Y-79558574D01*
X135673007Y-79560186D01*
X135793580Y-79610130D01*
X135938052Y-79638867D01*
X135996530Y-79650499D01*
X135996534Y-79650500D01*
X135996535Y-79650500D01*
X136203466Y-79650500D01*
X136203467Y-79650499D01*
X136406420Y-79610130D01*
X136597598Y-79530941D01*
X136769655Y-79415977D01*
X136915977Y-79269655D01*
X137030941Y-79097598D01*
X137110130Y-78906420D01*
X137150500Y-78703465D01*
X137150500Y-78496535D01*
X137110130Y-78293580D01*
X137030941Y-78102402D01*
X136915977Y-77930345D01*
X136915976Y-77930344D01*
X136915975Y-77930342D01*
X136769657Y-77784024D01*
X136601655Y-77671770D01*
X136597598Y-77669059D01*
X136406420Y-77589870D01*
X136406412Y-77589868D01*
X136203469Y-77549500D01*
X136203465Y-77549500D01*
X135996535Y-77549500D01*
X135996530Y-77549500D01*
X135793587Y-77589868D01*
X135793579Y-77589870D01*
X135602403Y-77669058D01*
X135430342Y-77784024D01*
X135284024Y-77930342D01*
X135169058Y-78102403D01*
X135089870Y-78293579D01*
X135089868Y-78293587D01*
X135049500Y-78496530D01*
X135049500Y-78703469D01*
X135089868Y-78906412D01*
X135089871Y-78906424D01*
X135139803Y-79026971D01*
X135147272Y-79096440D01*
X135115997Y-79158919D01*
X135112923Y-79162104D01*
X134080489Y-80194540D01*
X134024541Y-80250487D01*
X134024535Y-80250495D01*
X133984982Y-80319004D01*
X133984979Y-80319009D01*
X133964500Y-80395439D01*
X133964500Y-101304563D01*
X133944815Y-101371602D01*
X133892011Y-101417357D01*
X133887953Y-101419124D01*
X133767404Y-101469057D01*
X133595342Y-101584024D01*
X133449024Y-101730342D01*
X133334058Y-101902403D01*
X133254870Y-102093579D01*
X133254868Y-102093587D01*
X133214500Y-102296530D01*
X94450500Y-102296530D01*
X94450500Y-101070249D01*
X94450499Y-101070247D01*
X94438868Y-101011770D01*
X94438867Y-101011769D01*
X94394552Y-100945447D01*
X94328230Y-100901132D01*
X94328229Y-100901131D01*
X94269752Y-100889500D01*
X94269748Y-100889500D01*
X92967255Y-100889500D01*
X92900216Y-100869815D01*
X92879574Y-100853181D01*
X91036819Y-99010426D01*
X91003334Y-98949103D01*
X91000500Y-98922745D01*
X91000500Y-88217255D01*
X91020185Y-88150216D01*
X91036819Y-88129574D01*
X95080574Y-84085819D01*
X95141897Y-84052334D01*
X95168255Y-84049500D01*
X106575500Y-84049500D01*
X106642539Y-84069185D01*
X106688294Y-84121989D01*
X106699500Y-84173500D01*
X106699500Y-84475500D01*
X106679815Y-84542539D01*
X106627011Y-84588294D01*
X106575500Y-84599500D01*
X98223339Y-84599500D01*
X98223323Y-84599499D01*
X98215727Y-84599499D01*
X98110273Y-84599499D01*
X98042366Y-84617695D01*
X98008412Y-84626793D01*
X97917084Y-84679522D01*
X92028522Y-90568084D01*
X92028518Y-90568090D01*
X91975792Y-90659412D01*
X91975793Y-90659413D01*
X91948500Y-90761273D01*
X91948500Y-98296273D01*
X91948500Y-98401727D01*
X91958592Y-98439390D01*
X91975793Y-98503589D01*
X92002156Y-98549250D01*
X92028520Y-98594913D01*
X92028522Y-98594915D01*
X92371502Y-98937895D01*
X92404987Y-98999218D01*
X92400003Y-99068910D01*
X92398384Y-99073025D01*
X92389871Y-99093579D01*
X92389869Y-99093583D01*
X92389867Y-99093587D01*
X92349500Y-99296530D01*
X92349500Y-99503469D01*
X92389868Y-99706412D01*
X92389870Y-99706420D01*
X92469058Y-99897596D01*
X92584024Y-100069657D01*
X92730342Y-100215975D01*
X92730345Y-100215977D01*
X92902402Y-100330941D01*
X93093580Y-100410130D01*
X93296530Y-100450499D01*
X93296534Y-100450500D01*
X93296535Y-100450500D01*
X93503466Y-100450500D01*
X93503467Y-100450499D01*
X93706420Y-100410130D01*
X93897598Y-100330941D01*
X94069655Y-100215977D01*
X94215977Y-100069655D01*
X94330941Y-99897598D01*
X94410130Y-99706420D01*
X94450500Y-99503465D01*
X94450500Y-99296535D01*
X94410130Y-99093580D01*
X94330941Y-98902402D01*
X94215977Y-98730345D01*
X94215975Y-98730342D01*
X94069657Y-98584024D01*
X93949276Y-98503589D01*
X93897598Y-98469059D01*
X93726974Y-98398384D01*
X93706420Y-98389870D01*
X93706412Y-98389868D01*
X93503469Y-98349500D01*
X93503465Y-98349500D01*
X93296535Y-98349500D01*
X93296530Y-98349500D01*
X93093587Y-98389867D01*
X93093583Y-98389869D01*
X93093581Y-98389869D01*
X93093580Y-98389870D01*
X93078786Y-98395997D01*
X93073025Y-98398384D01*
X93053149Y-98400520D01*
X93034422Y-98407505D01*
X93019123Y-98404176D01*
X93003555Y-98405850D01*
X92985680Y-98396901D01*
X92966149Y-98392653D01*
X92943855Y-98375963D01*
X92941077Y-98374573D01*
X92937895Y-98371502D01*
X92785819Y-98219426D01*
X92752334Y-98158103D01*
X92749500Y-98131745D01*
X92749500Y-95532128D01*
X92769185Y-95465089D01*
X92821989Y-95419334D01*
X92891147Y-95409390D01*
X92942390Y-95429026D01*
X93102400Y-95535940D01*
X93102401Y-95535940D01*
X93102402Y-95535941D01*
X93293580Y-95615130D01*
X93466371Y-95649500D01*
X93496530Y-95655499D01*
X93496534Y-95655500D01*
X93496535Y-95655500D01*
X93703466Y-95655500D01*
X93703467Y-95655499D01*
X93906420Y-95615130D01*
X94097598Y-95535941D01*
X94269655Y-95420977D01*
X94415977Y-95274655D01*
X94530941Y-95102598D01*
X94610130Y-94911420D01*
X94650500Y-94708465D01*
X94650500Y-94501535D01*
X94632630Y-94411696D01*
X94638857Y-94342106D01*
X94666564Y-94299827D01*
X101129573Y-87836819D01*
X101190896Y-87803334D01*
X101217254Y-87800500D01*
X110925168Y-87800500D01*
X110992207Y-87820185D01*
X111037962Y-87872989D01*
X111047906Y-87942147D01*
X111018881Y-88005703D01*
X111012849Y-88012181D01*
X108215491Y-90809538D01*
X108215490Y-90809540D01*
X108215489Y-90809541D01*
X108180518Y-90844512D01*
X108155299Y-90869731D01*
X108093975Y-90903215D01*
X108024283Y-90898230D01*
X108017532Y-90895483D01*
X107919995Y-90852416D01*
X107919991Y-90852415D01*
X107894865Y-90849500D01*
X107605143Y-90849500D01*
X107605117Y-90849502D01*
X107580013Y-90852413D01*
X107540792Y-90869731D01*
X107477238Y-90897793D01*
X107475086Y-90898743D01*
X107405807Y-90907814D01*
X107374914Y-90898743D01*
X107372765Y-90897794D01*
X107269991Y-90852415D01*
X107244865Y-90849500D01*
X106955143Y-90849500D01*
X106955117Y-90849502D01*
X106930012Y-90852413D01*
X106930008Y-90852415D01*
X106827235Y-90897793D01*
X106747794Y-90977234D01*
X106702415Y-91080006D01*
X106702415Y-91080008D01*
X106699500Y-91105131D01*
X106699500Y-91782744D01*
X106679815Y-91849783D01*
X106663181Y-91870425D01*
X106170426Y-92363181D01*
X106109103Y-92396666D01*
X106082745Y-92399500D01*
X105829386Y-92399500D01*
X105762347Y-92379815D01*
X105741705Y-92363181D01*
X105738017Y-92359493D01*
X105738011Y-92359488D01*
X105612488Y-92287017D01*
X105612489Y-92287017D01*
X105601006Y-92283940D01*
X105472475Y-92249500D01*
X105327525Y-92249500D01*
X105198993Y-92283940D01*
X105187511Y-92287017D01*
X105061988Y-92359488D01*
X105061982Y-92359493D01*
X104959493Y-92461982D01*
X104959488Y-92461988D01*
X104887017Y-92587511D01*
X104887016Y-92587515D01*
X104849500Y-92727525D01*
X104849500Y-92872475D01*
X104872817Y-92959493D01*
X104887017Y-93012488D01*
X104959488Y-93138011D01*
X104959490Y-93138013D01*
X104959491Y-93138015D01*
X105061985Y-93240509D01*
X105061986Y-93240510D01*
X105061988Y-93240511D01*
X105187511Y-93312982D01*
X105187512Y-93312982D01*
X105187515Y-93312984D01*
X105327525Y-93350500D01*
X105327528Y-93350500D01*
X105472472Y-93350500D01*
X105472475Y-93350500D01*
X105612485Y-93312984D01*
X105738015Y-93240509D01*
X105741705Y-93236819D01*
X105803028Y-93203334D01*
X105829386Y-93200500D01*
X106352725Y-93200500D01*
X106352727Y-93200500D01*
X106454588Y-93173207D01*
X106545913Y-93120480D01*
X106545915Y-93120477D01*
X106545920Y-93120475D01*
X106552364Y-93115531D01*
X106553282Y-93116727D01*
X106606630Y-93087591D01*
X106676322Y-93092569D01*
X106732260Y-93134435D01*
X106756683Y-93199897D01*
X106757000Y-93208755D01*
X106757000Y-94481778D01*
X106737315Y-94548817D01*
X106684511Y-94594572D01*
X106673956Y-94598819D01*
X106607117Y-94622207D01*
X106497850Y-94702850D01*
X106417207Y-94812117D01*
X106417206Y-94812119D01*
X106372353Y-94940298D01*
X106372353Y-94940300D01*
X106369500Y-94970730D01*
X106369500Y-95670245D01*
X106349815Y-95737284D01*
X106333181Y-95757926D01*
X106274522Y-95816584D01*
X106274518Y-95816590D01*
X106221792Y-95907912D01*
X106221793Y-95907913D01*
X106194500Y-96009773D01*
X106194500Y-96928745D01*
X106174815Y-96995784D01*
X106122011Y-97041539D01*
X106052853Y-97051483D01*
X105989297Y-97022458D01*
X105982819Y-97016426D01*
X105186819Y-96220426D01*
X105153334Y-96159103D01*
X105150500Y-96132745D01*
X105150500Y-96127527D01*
X105150500Y-96127525D01*
X105112984Y-95987515D01*
X105040509Y-95861985D01*
X104938015Y-95759491D01*
X104938013Y-95759490D01*
X104938011Y-95759488D01*
X104812488Y-95687017D01*
X104812489Y-95687017D01*
X104801006Y-95683940D01*
X104672475Y-95649500D01*
X104527525Y-95649500D01*
X104398993Y-95683940D01*
X104387511Y-95687017D01*
X104261988Y-95759488D01*
X104261982Y-95759493D01*
X104159493Y-95861982D01*
X104159488Y-95861988D01*
X104087017Y-95987511D01*
X104087016Y-95987515D01*
X104049500Y-96127525D01*
X104049500Y-96272475D01*
X104081700Y-96392646D01*
X104087017Y-96412488D01*
X104159488Y-96538011D01*
X104159490Y-96538013D01*
X104159491Y-96538015D01*
X104261985Y-96640509D01*
X104261986Y-96640510D01*
X104261988Y-96640511D01*
X104387511Y-96712982D01*
X104387512Y-96712982D01*
X104387515Y-96712984D01*
X104527525Y-96750500D01*
X104532745Y-96750500D01*
X104599784Y-96770185D01*
X104620426Y-96786819D01*
X105763248Y-97929641D01*
X105796733Y-97990964D01*
X105791749Y-98060656D01*
X105749877Y-98116589D01*
X105749202Y-98117091D01*
X105727851Y-98132849D01*
X105647207Y-98242117D01*
X105647206Y-98242119D01*
X105602353Y-98370298D01*
X105602353Y-98370300D01*
X105599500Y-98400730D01*
X105599500Y-99399269D01*
X105602353Y-99429699D01*
X105602353Y-99429701D01*
X105647206Y-99557880D01*
X105647207Y-99557882D01*
X105727850Y-99667150D01*
X105837118Y-99747793D01*
X105879845Y-99762744D01*
X105965299Y-99792646D01*
X105995730Y-99795500D01*
X105995734Y-99795500D01*
X107194270Y-99795500D01*
X107224699Y-99792646D01*
X107224701Y-99792646D01*
X107288790Y-99770219D01*
X107352882Y-99747793D01*
X107462150Y-99667150D01*
X107542793Y-99557882D01*
X107568467Y-99484511D01*
X107587646Y-99429701D01*
X107587646Y-99429699D01*
X107590500Y-99399269D01*
X107590500Y-98400730D01*
X107587646Y-98370300D01*
X107587646Y-98370298D01*
X107542793Y-98242119D01*
X107542792Y-98242117D01*
X107462150Y-98132850D01*
X107352882Y-98052207D01*
X107352880Y-98052206D01*
X107224700Y-98007353D01*
X107194270Y-98004500D01*
X107194266Y-98004500D01*
X107119500Y-98004500D01*
X107052461Y-97984815D01*
X107006706Y-97932011D01*
X106995500Y-97880500D01*
X106995500Y-96549500D01*
X107015185Y-96482461D01*
X107067989Y-96436706D01*
X107119500Y-96425500D01*
X107549270Y-96425500D01*
X107579699Y-96422646D01*
X107579701Y-96422646D01*
X107665434Y-96392646D01*
X107707882Y-96377793D01*
X107817150Y-96297150D01*
X107897793Y-96187882D01*
X107920219Y-96123790D01*
X107942646Y-96059701D01*
X107942646Y-96059699D01*
X107945500Y-96029269D01*
X107945500Y-94970730D01*
X107942646Y-94940300D01*
X107942646Y-94940298D01*
X107897793Y-94812119D01*
X107897792Y-94812117D01*
X107817150Y-94702850D01*
X107707882Y-94622207D01*
X107641044Y-94598819D01*
X107584268Y-94558097D01*
X107558522Y-94493144D01*
X107558000Y-94481778D01*
X107558000Y-93274499D01*
X107577685Y-93207460D01*
X107630489Y-93161705D01*
X107681996Y-93150499D01*
X107894864Y-93150499D01*
X107894879Y-93150497D01*
X107894882Y-93150497D01*
X107919987Y-93147586D01*
X107919987Y-93147585D01*
X107919991Y-93147585D01*
X108022765Y-93102206D01*
X108022766Y-93102204D01*
X108024912Y-93101257D01*
X108094190Y-93092185D01*
X108125085Y-93101257D01*
X108208339Y-93138017D01*
X108230009Y-93147585D01*
X108255135Y-93150500D01*
X108544864Y-93150499D01*
X108544879Y-93150497D01*
X108544882Y-93150497D01*
X108569987Y-93147586D01*
X108569987Y-93147585D01*
X108569991Y-93147585D01*
X108672765Y-93102206D01*
X108672766Y-93102204D01*
X108674912Y-93101257D01*
X108744190Y-93092185D01*
X108775085Y-93101257D01*
X108858339Y-93138017D01*
X108880009Y-93147585D01*
X108905135Y-93150500D01*
X109194864Y-93150499D01*
X109194879Y-93150497D01*
X109194882Y-93150497D01*
X109219987Y-93147586D01*
X109219987Y-93147585D01*
X109219991Y-93147585D01*
X109322765Y-93102206D01*
X109322766Y-93102204D01*
X109324912Y-93101257D01*
X109394190Y-93092185D01*
X109425085Y-93101257D01*
X109508339Y-93138017D01*
X109530009Y-93147585D01*
X109555135Y-93150500D01*
X109844864Y-93150499D01*
X109844879Y-93150497D01*
X109844882Y-93150497D01*
X109869987Y-93147586D01*
X109869988Y-93147585D01*
X109869991Y-93147585D01*
X109972765Y-93102206D01*
X110052206Y-93022765D01*
X110097585Y-92919991D01*
X110100500Y-92894865D01*
X110100499Y-91205961D01*
X110120184Y-91138923D01*
X110136813Y-91118286D01*
X112215282Y-89039819D01*
X112276605Y-89006334D01*
X112302963Y-89003500D01*
X113622168Y-89003500D01*
X113689207Y-89023185D01*
X113734962Y-89075989D01*
X113744906Y-89145147D01*
X113715881Y-89208703D01*
X113709849Y-89215181D01*
X112115491Y-90809538D01*
X112115490Y-90809540D01*
X112115489Y-90809541D01*
X112080518Y-90844512D01*
X112055299Y-90869731D01*
X111993975Y-90903215D01*
X111924283Y-90898230D01*
X111917532Y-90895483D01*
X111819995Y-90852416D01*
X111819991Y-90852415D01*
X111794865Y-90849500D01*
X111505143Y-90849500D01*
X111505117Y-90849502D01*
X111480013Y-90852413D01*
X111440792Y-90869731D01*
X111377238Y-90897793D01*
X111375086Y-90898743D01*
X111305807Y-90907814D01*
X111274914Y-90898743D01*
X111272765Y-90897794D01*
X111169991Y-90852415D01*
X111144865Y-90849500D01*
X110855143Y-90849500D01*
X110855117Y-90849502D01*
X110830012Y-90852413D01*
X110830008Y-90852415D01*
X110727235Y-90897793D01*
X110647794Y-90977234D01*
X110602415Y-91080006D01*
X110602415Y-91080008D01*
X110599500Y-91105131D01*
X110599500Y-92894856D01*
X110599502Y-92894882D01*
X110602413Y-92919987D01*
X110602415Y-92919991D01*
X110647793Y-93022764D01*
X110647794Y-93022765D01*
X110727235Y-93102206D01*
X110830009Y-93147585D01*
X110855135Y-93150500D01*
X111144864Y-93150499D01*
X111144879Y-93150497D01*
X111144882Y-93150497D01*
X111169987Y-93147586D01*
X111169991Y-93147585D01*
X111169996Y-93147583D01*
X111272765Y-93102206D01*
X111272765Y-93102205D01*
X111274914Y-93101257D01*
X111307962Y-93096929D01*
X111340891Y-93091713D01*
X111343096Y-93092328D01*
X111344192Y-93092185D01*
X111374894Y-93101172D01*
X111377225Y-93102196D01*
X111377235Y-93102206D01*
X111480009Y-93147585D01*
X111480667Y-93147661D01*
X111489720Y-93151640D01*
X111504735Y-93164279D01*
X111527507Y-93177478D01*
X113244389Y-94894360D01*
X113277874Y-94955683D01*
X113280167Y-94993607D01*
X113279500Y-95000726D01*
X113279500Y-95999269D01*
X113282353Y-96029699D01*
X113282353Y-96029701D01*
X113316585Y-96127527D01*
X113327207Y-96157882D01*
X113407850Y-96267150D01*
X113517118Y-96347793D01*
X113559845Y-96362744D01*
X113645299Y-96392646D01*
X113675730Y-96395500D01*
X113675734Y-96395500D01*
X113850500Y-96395500D01*
X113917539Y-96415185D01*
X113963294Y-96467989D01*
X113974500Y-96519500D01*
X113974500Y-98250500D01*
X113954815Y-98317539D01*
X113902011Y-98363294D01*
X113850500Y-98374500D01*
X113640730Y-98374500D01*
X113610300Y-98377353D01*
X113610298Y-98377353D01*
X113482119Y-98422206D01*
X113482117Y-98422207D01*
X113372850Y-98502850D01*
X113292207Y-98612117D01*
X113292206Y-98612119D01*
X113247353Y-98740298D01*
X113247353Y-98740300D01*
X113244500Y-98770730D01*
X113244500Y-99829269D01*
X113247353Y-99859699D01*
X113247353Y-99859701D01*
X113292206Y-99987880D01*
X113292207Y-99987882D01*
X113372850Y-100097150D01*
X113482118Y-100177793D01*
X113524845Y-100192744D01*
X113610299Y-100222646D01*
X113640730Y-100225500D01*
X113640734Y-100225500D01*
X114424270Y-100225500D01*
X114454699Y-100222646D01*
X114454701Y-100222646D01*
X114518790Y-100200219D01*
X114582882Y-100177793D01*
X114692150Y-100097150D01*
X114772793Y-99987882D01*
X114804385Y-99897598D01*
X114817646Y-99859701D01*
X114817646Y-99859699D01*
X114820500Y-99829269D01*
X114820500Y-99649008D01*
X114840185Y-99581969D01*
X114878257Y-99545667D01*
X114878060Y-99545410D01*
X114880457Y-99543570D01*
X114882504Y-99541619D01*
X114883459Y-99541067D01*
X114884511Y-99540460D01*
X114940460Y-99484511D01*
X117640460Y-96784511D01*
X117680022Y-96715988D01*
X117700500Y-96639562D01*
X117700500Y-96560438D01*
X117700500Y-85624833D01*
X117720185Y-85557794D01*
X117772989Y-85512039D01*
X117842147Y-85502095D01*
X117905703Y-85531120D01*
X117912181Y-85537152D01*
X123987181Y-91612152D01*
X124020666Y-91673475D01*
X124023500Y-91699833D01*
X124023500Y-92012222D01*
X124043979Y-92088649D01*
X124052834Y-92103986D01*
X124052835Y-92103989D01*
X124052836Y-92103989D01*
X124083540Y-92157171D01*
X124399380Y-92473011D01*
X124455329Y-92528960D01*
X124455331Y-92528961D01*
X124455335Y-92528964D01*
X124523844Y-92568517D01*
X124523851Y-92568521D01*
X124600278Y-92589000D01*
X124600280Y-92589000D01*
X127899720Y-92589000D01*
X127899722Y-92589000D01*
X127976149Y-92568521D01*
X128044671Y-92528960D01*
X128100620Y-92473011D01*
X129891460Y-90682171D01*
X129912393Y-90645913D01*
X129931021Y-90613649D01*
X129951500Y-90537222D01*
X129951500Y-87634438D01*
X129931021Y-87558011D01*
X129931017Y-87558004D01*
X129891464Y-87489495D01*
X129891458Y-87489487D01*
X129761512Y-87359541D01*
X129761507Y-87359537D01*
X129736146Y-87344895D01*
X129736141Y-87344893D01*
X129728463Y-87340460D01*
X129692989Y-87319979D01*
X129635275Y-87304514D01*
X129628415Y-87301768D01*
X129606525Y-87284554D01*
X129582745Y-87270059D01*
X129579439Y-87263253D01*
X129573494Y-87258578D01*
X129564386Y-87232264D01*
X129552217Y-87207212D01*
X129551104Y-87193891D01*
X129550641Y-87192552D01*
X129550902Y-87191472D01*
X129550500Y-87186650D01*
X129550500Y-87038333D01*
X129570185Y-86971294D01*
X129586819Y-86950652D01*
X129737971Y-86799500D01*
X129891460Y-86646011D01*
X129896085Y-86638000D01*
X129931021Y-86577489D01*
X129951500Y-86501062D01*
X129951500Y-84137198D01*
X129931021Y-84060771D01*
X129931017Y-84060764D01*
X129891464Y-83992255D01*
X129891458Y-83992247D01*
X125761392Y-79862181D01*
X125727907Y-79800858D01*
X125732891Y-79731166D01*
X125774763Y-79675233D01*
X125840227Y-79650816D01*
X125849073Y-79650500D01*
X126043466Y-79650500D01*
X126043467Y-79650499D01*
X126246420Y-79610130D01*
X126437598Y-79530941D01*
X126609655Y-79415977D01*
X126755977Y-79269655D01*
X126870941Y-79097598D01*
X126950130Y-78906420D01*
X126990500Y-78703465D01*
X126990500Y-78496535D01*
X126990499Y-78496530D01*
X127429500Y-78496530D01*
X127429500Y-78703469D01*
X127469868Y-78906412D01*
X127469870Y-78906420D01*
X127539505Y-79074534D01*
X127549059Y-79097598D01*
X127590032Y-79158919D01*
X127664024Y-79269657D01*
X127810342Y-79415975D01*
X127810345Y-79415977D01*
X127982402Y-79530941D01*
X128173580Y-79610130D01*
X128318052Y-79638867D01*
X128376530Y-79650499D01*
X128376534Y-79650500D01*
X128376535Y-79650500D01*
X128583466Y-79650500D01*
X128583467Y-79650499D01*
X128786420Y-79610130D01*
X128977598Y-79530941D01*
X129149655Y-79415977D01*
X129295977Y-79269655D01*
X129410941Y-79097598D01*
X129490130Y-78906420D01*
X129530500Y-78703465D01*
X129530500Y-78496535D01*
X129530499Y-78496530D01*
X129969500Y-78496530D01*
X129969500Y-78703469D01*
X130009868Y-78906412D01*
X130009870Y-78906420D01*
X130079505Y-79074534D01*
X130089059Y-79097598D01*
X130130032Y-79158919D01*
X130204024Y-79269657D01*
X130350342Y-79415975D01*
X130350345Y-79415977D01*
X130522402Y-79530941D01*
X130713580Y-79610130D01*
X130858052Y-79638867D01*
X130916530Y-79650499D01*
X130916534Y-79650500D01*
X130916535Y-79650500D01*
X131123466Y-79650500D01*
X131123467Y-79650499D01*
X131326420Y-79610130D01*
X131517598Y-79530941D01*
X131689655Y-79415977D01*
X131835977Y-79269655D01*
X131950941Y-79097598D01*
X132030130Y-78906420D01*
X132070500Y-78703465D01*
X132070500Y-78496535D01*
X132070499Y-78496530D01*
X132509500Y-78496530D01*
X132509500Y-78703469D01*
X132549868Y-78906412D01*
X132549870Y-78906420D01*
X132619505Y-79074534D01*
X132629059Y-79097598D01*
X132670032Y-79158919D01*
X132744024Y-79269657D01*
X132890342Y-79415975D01*
X132890345Y-79415977D01*
X133062402Y-79530941D01*
X133253580Y-79610130D01*
X133398052Y-79638867D01*
X133456530Y-79650499D01*
X133456534Y-79650500D01*
X133456535Y-79650500D01*
X133663466Y-79650500D01*
X133663467Y-79650499D01*
X133866420Y-79610130D01*
X134057598Y-79530941D01*
X134229655Y-79415977D01*
X134375977Y-79269655D01*
X134490941Y-79097598D01*
X134570130Y-78906420D01*
X134610500Y-78703465D01*
X134610500Y-78496535D01*
X134570130Y-78293580D01*
X134490941Y-78102402D01*
X134375977Y-77930345D01*
X134375976Y-77930344D01*
X134375975Y-77930342D01*
X134229657Y-77784024D01*
X134061655Y-77671770D01*
X134057598Y-77669059D01*
X133866420Y-77589870D01*
X133866412Y-77589868D01*
X133663469Y-77549500D01*
X133663465Y-77549500D01*
X133456535Y-77549500D01*
X133456530Y-77549500D01*
X133253587Y-77589868D01*
X133253579Y-77589870D01*
X133062403Y-77669058D01*
X132890342Y-77784024D01*
X132744024Y-77930342D01*
X132629058Y-78102403D01*
X132549870Y-78293579D01*
X132549868Y-78293587D01*
X132509500Y-78496530D01*
X132070499Y-78496530D01*
X132030130Y-78293580D01*
X131950941Y-78102402D01*
X131835977Y-77930345D01*
X131835976Y-77930344D01*
X131835975Y-77930342D01*
X131689657Y-77784024D01*
X131521655Y-77671770D01*
X131517598Y-77669059D01*
X131326420Y-77589870D01*
X131326412Y-77589868D01*
X131123469Y-77549500D01*
X131123465Y-77549500D01*
X130916535Y-77549500D01*
X130916530Y-77549500D01*
X130713587Y-77589868D01*
X130713579Y-77589870D01*
X130522403Y-77669058D01*
X130350342Y-77784024D01*
X130204024Y-77930342D01*
X130089058Y-78102403D01*
X130009870Y-78293579D01*
X130009868Y-78293587D01*
X129969500Y-78496530D01*
X129530499Y-78496530D01*
X129490130Y-78293580D01*
X129410941Y-78102402D01*
X129295977Y-77930345D01*
X129295976Y-77930344D01*
X129295975Y-77930342D01*
X129149657Y-77784024D01*
X128981655Y-77671770D01*
X128977598Y-77669059D01*
X128786420Y-77589870D01*
X128786412Y-77589868D01*
X128583469Y-77549500D01*
X128583465Y-77549500D01*
X128376535Y-77549500D01*
X128376530Y-77549500D01*
X128173587Y-77589868D01*
X128173579Y-77589870D01*
X127982403Y-77669058D01*
X127810342Y-77784024D01*
X127664024Y-77930342D01*
X127549058Y-78102403D01*
X127469870Y-78293579D01*
X127469868Y-78293587D01*
X127429500Y-78496530D01*
X126990499Y-78496530D01*
X126950130Y-78293580D01*
X126870941Y-78102402D01*
X126755977Y-77930345D01*
X126755976Y-77930344D01*
X126755975Y-77930342D01*
X126609657Y-77784024D01*
X126441655Y-77671770D01*
X126437598Y-77669059D01*
X126246420Y-77589870D01*
X126246412Y-77589868D01*
X126043469Y-77549500D01*
X126043465Y-77549500D01*
X125836535Y-77549500D01*
X125836530Y-77549500D01*
X125633587Y-77589868D01*
X125633579Y-77589870D01*
X125442403Y-77669058D01*
X125270342Y-77784024D01*
X125124022Y-77930344D01*
X125052223Y-78037801D01*
X124998611Y-78082606D01*
X124929286Y-78091313D01*
X124866259Y-78061159D01*
X124836889Y-78013615D01*
X124834130Y-78014758D01*
X124831023Y-78007258D01*
X124831021Y-78007251D01*
X124793574Y-77942390D01*
X124791464Y-77938735D01*
X124791458Y-77938727D01*
X124061272Y-77208541D01*
X124061264Y-77208535D01*
X123992755Y-77168982D01*
X123992750Y-77168979D01*
X123967273Y-77162152D01*
X123916322Y-77148500D01*
X114351438Y-77148500D01*
X114313224Y-77158739D01*
X114275009Y-77168979D01*
X114275004Y-77168982D01*
X114206495Y-77208535D01*
X114206487Y-77208541D01*
X113802104Y-77612923D01*
X113740781Y-77646408D01*
X113671089Y-77641424D01*
X113666971Y-77639803D01*
X113546424Y-77589871D01*
X113546412Y-77589868D01*
X113343469Y-77549500D01*
X113343465Y-77549500D01*
X113136535Y-77549500D01*
X113136530Y-77549500D01*
X112933587Y-77589868D01*
X112933579Y-77589870D01*
X112742403Y-77669058D01*
X112570342Y-77784024D01*
X112424024Y-77930342D01*
X112309058Y-78102403D01*
X112229870Y-78293579D01*
X112229868Y-78293587D01*
X112189500Y-78496530D01*
X112189500Y-78665167D01*
X112169815Y-78732206D01*
X112117011Y-78777961D01*
X112047853Y-78787905D01*
X111984297Y-78758880D01*
X111977819Y-78752848D01*
X111784297Y-78559326D01*
X111750812Y-78498003D01*
X111750361Y-78495836D01*
X111746736Y-78477614D01*
X111710130Y-78293580D01*
X111630941Y-78102402D01*
X111515977Y-77930345D01*
X111515976Y-77930344D01*
X111515975Y-77930342D01*
X111369657Y-77784024D01*
X111201655Y-77671770D01*
X111197598Y-77669059D01*
X111006420Y-77589870D01*
X111006412Y-77589868D01*
X110803469Y-77549500D01*
X110803465Y-77549500D01*
X110596535Y-77549500D01*
X110596530Y-77549500D01*
X110393587Y-77589868D01*
X110393579Y-77589870D01*
X110202403Y-77669058D01*
X110030342Y-77784024D01*
X109884024Y-77930342D01*
X109769058Y-78102403D01*
X109689870Y-78293579D01*
X109689868Y-78293587D01*
X109649500Y-78496530D01*
X109649500Y-78703469D01*
X109689868Y-78906412D01*
X109689870Y-78906420D01*
X109769059Y-79097599D01*
X109769059Y-79097600D01*
X109875974Y-79257610D01*
X109896852Y-79324287D01*
X109878367Y-79391667D01*
X109826388Y-79438357D01*
X109772872Y-79450500D01*
X109087128Y-79450500D01*
X109020089Y-79430815D01*
X108974334Y-79378011D01*
X108964390Y-79308853D01*
X108984026Y-79257610D01*
X109090940Y-79097600D01*
X109090940Y-79097599D01*
X109090941Y-79097598D01*
X109170130Y-78906420D01*
X109210500Y-78703465D01*
X109210500Y-78496535D01*
X109170130Y-78293580D01*
X109090941Y-78102402D01*
X108975977Y-77930345D01*
X108975976Y-77930344D01*
X108975975Y-77930342D01*
X108829657Y-77784024D01*
X108661655Y-77671770D01*
X108657598Y-77669059D01*
X108466420Y-77589870D01*
X108466412Y-77589868D01*
X108263469Y-77549500D01*
X108263465Y-77549500D01*
X108056535Y-77549500D01*
X108056530Y-77549500D01*
X107853587Y-77589868D01*
X107853579Y-77589870D01*
X107662403Y-77669058D01*
X107490342Y-77784024D01*
X107344024Y-77930342D01*
X107229058Y-78102403D01*
X107149870Y-78293579D01*
X107149868Y-78293587D01*
X107109500Y-78496530D01*
X107109500Y-78703469D01*
X107149868Y-78906412D01*
X107149870Y-78906420D01*
X107229059Y-79097599D01*
X107229059Y-79097600D01*
X107335974Y-79257610D01*
X107356852Y-79324287D01*
X107338367Y-79391667D01*
X107286388Y-79438357D01*
X107232872Y-79450500D01*
X106547128Y-79450500D01*
X106480089Y-79430815D01*
X106434334Y-79378011D01*
X106424390Y-79308853D01*
X106444026Y-79257610D01*
X106550940Y-79097600D01*
X106550940Y-79097599D01*
X106550941Y-79097598D01*
X106630130Y-78906420D01*
X106670500Y-78703465D01*
X106670500Y-78496535D01*
X106630130Y-78293580D01*
X106550941Y-78102402D01*
X106435977Y-77930345D01*
X106435976Y-77930344D01*
X106435975Y-77930342D01*
X106289657Y-77784024D01*
X106121655Y-77671770D01*
X106117598Y-77669059D01*
X105926420Y-77589870D01*
X105926412Y-77589868D01*
X105723469Y-77549500D01*
X105723465Y-77549500D01*
X105516535Y-77549500D01*
X105516530Y-77549500D01*
X105313587Y-77589868D01*
X105313579Y-77589870D01*
X105122403Y-77669058D01*
X104950342Y-77784024D01*
X104804024Y-77930342D01*
X104689058Y-78102403D01*
X104609870Y-78293579D01*
X104609868Y-78293587D01*
X104569500Y-78496530D01*
X104569500Y-78703469D01*
X104609868Y-78906412D01*
X104609870Y-78906420D01*
X104689059Y-79097599D01*
X104689059Y-79097600D01*
X104795974Y-79257610D01*
X104816852Y-79324287D01*
X104798367Y-79391667D01*
X104746388Y-79438357D01*
X104692872Y-79450500D01*
X104007128Y-79450500D01*
X103940089Y-79430815D01*
X103894334Y-79378011D01*
X103884390Y-79308853D01*
X103904026Y-79257610D01*
X104010940Y-79097600D01*
X104010940Y-79097599D01*
X104010941Y-79097598D01*
X104090130Y-78906420D01*
X104130500Y-78703465D01*
X104130500Y-78496535D01*
X104090130Y-78293580D01*
X104010941Y-78102402D01*
X103895977Y-77930345D01*
X103895976Y-77930344D01*
X103895975Y-77930342D01*
X103749657Y-77784024D01*
X103581655Y-77671770D01*
X103577598Y-77669059D01*
X103386420Y-77589870D01*
X103386412Y-77589868D01*
X103183469Y-77549500D01*
X103183465Y-77549500D01*
X102976535Y-77549500D01*
X102976530Y-77549500D01*
X102773587Y-77589868D01*
X102773579Y-77589870D01*
X102582403Y-77669058D01*
X102410342Y-77784024D01*
X102264024Y-77930342D01*
X102149058Y-78102403D01*
X102069870Y-78293579D01*
X102069868Y-78293587D01*
X102029500Y-78496530D01*
X102029500Y-78703469D01*
X102069868Y-78906412D01*
X102069870Y-78906420D01*
X102149059Y-79097599D01*
X102149059Y-79097600D01*
X102255974Y-79257610D01*
X102276852Y-79324287D01*
X102258367Y-79391667D01*
X102206388Y-79438357D01*
X102152872Y-79450500D01*
X101467128Y-79450500D01*
X101400089Y-79430815D01*
X101354334Y-79378011D01*
X101344390Y-79308853D01*
X101364026Y-79257610D01*
X101470940Y-79097600D01*
X101470940Y-79097599D01*
X101470941Y-79097598D01*
X101550130Y-78906420D01*
X101590500Y-78703465D01*
X101590500Y-78496535D01*
X101550130Y-78293580D01*
X101470941Y-78102402D01*
X101355977Y-77930345D01*
X101355976Y-77930344D01*
X101355975Y-77930342D01*
X101209657Y-77784024D01*
X101041655Y-77671770D01*
X101037598Y-77669059D01*
X100846420Y-77589870D01*
X100846412Y-77589868D01*
X100643469Y-77549500D01*
X100643465Y-77549500D01*
X100436535Y-77549500D01*
X100436530Y-77549500D01*
X100233587Y-77589868D01*
X100233579Y-77589870D01*
X100042403Y-77669058D01*
X99870342Y-77784024D01*
X99724024Y-77930342D01*
X99609058Y-78102403D01*
X99529870Y-78293579D01*
X99529868Y-78293587D01*
X99489500Y-78496530D01*
X99489500Y-78703469D01*
X99529868Y-78906412D01*
X99529870Y-78906420D01*
X99609059Y-79097599D01*
X99609059Y-79097600D01*
X99715974Y-79257610D01*
X99736852Y-79324287D01*
X99718367Y-79391667D01*
X99666388Y-79438357D01*
X99612872Y-79450500D01*
X98927128Y-79450500D01*
X98860089Y-79430815D01*
X98814334Y-79378011D01*
X98804390Y-79308853D01*
X98824026Y-79257610D01*
X98930940Y-79097600D01*
X98930940Y-79097599D01*
X98930941Y-79097598D01*
X99010130Y-78906420D01*
X99050500Y-78703465D01*
X99050500Y-78496535D01*
X99010130Y-78293580D01*
X98930941Y-78102402D01*
X98815977Y-77930345D01*
X98815976Y-77930344D01*
X98815975Y-77930342D01*
X98669657Y-77784024D01*
X98501655Y-77671770D01*
X98497598Y-77669059D01*
X98306420Y-77589870D01*
X98306412Y-77589868D01*
X98103469Y-77549500D01*
X98103465Y-77549500D01*
X97896535Y-77549500D01*
X97896530Y-77549500D01*
X97693587Y-77589868D01*
X97693579Y-77589870D01*
X97502403Y-77669058D01*
X97330342Y-77784024D01*
X97184024Y-77930342D01*
X97069058Y-78102403D01*
X96989870Y-78293579D01*
X96989868Y-78293587D01*
X96949500Y-78496530D01*
X96949500Y-78703469D01*
X96989868Y-78906412D01*
X96989870Y-78906420D01*
X97069059Y-79097599D01*
X97069059Y-79097600D01*
X97175974Y-79257610D01*
X97196852Y-79324287D01*
X97178367Y-79391667D01*
X97126388Y-79438357D01*
X97072872Y-79450500D01*
X96387128Y-79450500D01*
X96320089Y-79430815D01*
X96274334Y-79378011D01*
X96264390Y-79308853D01*
X96284026Y-79257610D01*
X96390940Y-79097600D01*
X96390940Y-79097599D01*
X96390941Y-79097598D01*
X96470130Y-78906420D01*
X96510500Y-78703465D01*
X96510500Y-78496535D01*
X96470130Y-78293580D01*
X96390941Y-78102402D01*
X96275977Y-77930345D01*
X96275976Y-77930344D01*
X96275975Y-77930342D01*
X96129657Y-77784024D01*
X95961655Y-77671770D01*
X95957598Y-77669059D01*
X95766420Y-77589870D01*
X95766412Y-77589868D01*
X95563469Y-77549500D01*
X95563465Y-77549500D01*
X95356535Y-77549500D01*
X95356530Y-77549500D01*
X95153587Y-77589868D01*
X95153579Y-77589870D01*
X94962403Y-77669058D01*
X94790342Y-77784024D01*
X94644024Y-77930342D01*
X94529058Y-78102403D01*
X94449870Y-78293579D01*
X94449868Y-78293587D01*
X94409500Y-78496530D01*
X94409500Y-78703469D01*
X94449868Y-78906412D01*
X94449870Y-78906420D01*
X94529059Y-79097599D01*
X94529059Y-79097600D01*
X94635974Y-79257610D01*
X94656852Y-79324287D01*
X94638367Y-79391667D01*
X94586388Y-79438357D01*
X94532872Y-79450500D01*
X93847128Y-79450500D01*
X93780089Y-79430815D01*
X93734334Y-79378011D01*
X93724390Y-79308853D01*
X93744026Y-79257610D01*
X93850940Y-79097600D01*
X93850940Y-79097599D01*
X93850941Y-79097598D01*
X93930130Y-78906420D01*
X93970500Y-78703465D01*
X93970500Y-78496535D01*
X93930130Y-78293580D01*
X93850941Y-78102402D01*
X93735977Y-77930345D01*
X93735976Y-77930344D01*
X93735975Y-77930342D01*
X93589657Y-77784024D01*
X93421655Y-77671770D01*
X93417598Y-77669059D01*
X93226420Y-77589870D01*
X93226412Y-77589868D01*
X93023469Y-77549500D01*
X93023465Y-77549500D01*
X92816535Y-77549500D01*
X92816530Y-77549500D01*
X92613587Y-77589868D01*
X92613579Y-77589870D01*
X92422403Y-77669058D01*
X92250342Y-77784024D01*
X92104024Y-77930342D01*
X91989058Y-78102403D01*
X91909870Y-78293579D01*
X91909868Y-78293587D01*
X91869500Y-78496530D01*
X91869500Y-78703469D01*
X91909868Y-78906412D01*
X91909870Y-78906420D01*
X91989059Y-79097599D01*
X91989059Y-79097600D01*
X92095974Y-79257610D01*
X92116852Y-79324287D01*
X92098367Y-79391667D01*
X92046388Y-79438357D01*
X91992872Y-79450500D01*
X91706833Y-79450500D01*
X91677392Y-79441855D01*
X91647406Y-79435332D01*
X91642390Y-79431577D01*
X91639794Y-79430815D01*
X91619152Y-79414181D01*
X91466819Y-79261848D01*
X91433334Y-79200525D01*
X91430500Y-79174167D01*
X91430500Y-77730249D01*
X91430499Y-77730247D01*
X91418868Y-77671770D01*
X91418867Y-77671769D01*
X91374552Y-77605447D01*
X91308230Y-77561132D01*
X91308229Y-77561131D01*
X91249752Y-77549500D01*
X91249748Y-77549500D01*
X90804500Y-77549500D01*
X90737461Y-77529815D01*
X90691706Y-77477011D01*
X90680500Y-77425500D01*
X90680500Y-76795833D01*
X90700185Y-76728794D01*
X90716819Y-76708152D01*
X91045431Y-76379540D01*
X96240460Y-71184511D01*
X96280021Y-71115989D01*
X96300500Y-71039562D01*
X96300500Y-59492477D01*
X96320185Y-59425438D01*
X96372989Y-59379683D01*
X96383522Y-59375444D01*
X96444475Y-59354116D01*
X96550711Y-59275711D01*
X96629116Y-59169475D01*
X96654811Y-59096045D01*
X96695533Y-59039269D01*
X96760486Y-59013522D01*
X96771852Y-59013000D01*
X98428148Y-59013000D01*
X98495187Y-59032685D01*
X98540942Y-59085489D01*
X98545189Y-59096045D01*
X98570884Y-59169475D01*
X98570884Y-59169476D01*
X98649288Y-59275710D01*
X98649289Y-59275711D01*
X98755523Y-59354115D01*
X98755524Y-59354115D01*
X98755525Y-59354116D01*
X98880151Y-59397725D01*
X98880150Y-59397725D01*
X98909740Y-59400500D01*
X98909744Y-59400500D01*
X99490260Y-59400500D01*
X99519849Y-59397725D01*
X99644475Y-59354116D01*
X99750711Y-59275711D01*
X99829116Y-59169475D01*
X99854811Y-59096045D01*
X99895533Y-59039269D01*
X99960486Y-59013522D01*
X99971852Y-59013000D01*
X101628148Y-59013000D01*
X101695187Y-59032685D01*
X101740942Y-59085489D01*
X101745189Y-59096045D01*
X101770884Y-59169475D01*
X101770884Y-59169476D01*
X101849288Y-59275710D01*
X101849289Y-59275711D01*
X101955523Y-59354115D01*
X101955524Y-59354115D01*
X101955525Y-59354116D01*
X102080151Y-59397725D01*
X102080150Y-59397725D01*
X102109740Y-59400500D01*
X102109744Y-59400500D01*
X102690260Y-59400500D01*
X102719849Y-59397725D01*
X102844475Y-59354116D01*
X102950711Y-59275711D01*
X103029116Y-59169475D01*
X103054811Y-59096045D01*
X103095533Y-59039269D01*
X103160486Y-59013522D01*
X103171852Y-59013000D01*
X104228148Y-59013000D01*
X104295187Y-59032685D01*
X104340942Y-59085489D01*
X104345189Y-59096045D01*
X104370884Y-59169475D01*
X104370884Y-59169476D01*
X104449288Y-59275710D01*
X104449289Y-59275711D01*
X104555523Y-59354115D01*
X104555524Y-59354115D01*
X104555525Y-59354116D01*
X104680151Y-59397725D01*
X104680150Y-59397725D01*
X104709740Y-59400500D01*
X104709744Y-59400500D01*
X105290260Y-59400500D01*
X105319849Y-59397725D01*
X105444475Y-59354116D01*
X105550711Y-59275711D01*
X105629116Y-59169475D01*
X105672725Y-59044849D01*
X105675500Y-59015256D01*
X105675500Y-58409744D01*
X105672725Y-58380151D01*
X105629116Y-58255525D01*
X105550711Y-58149289D01*
X105550710Y-58149288D01*
X105444476Y-58070884D01*
X105319848Y-58027274D01*
X105319849Y-58027274D01*
X105290260Y-58024500D01*
X105290256Y-58024500D01*
X104709744Y-58024500D01*
X104709740Y-58024500D01*
X104680150Y-58027274D01*
X104555523Y-58070884D01*
X104449289Y-58149288D01*
X104449288Y-58149289D01*
X104370884Y-58255523D01*
X104370884Y-58255524D01*
X104345189Y-58328955D01*
X104304467Y-58385731D01*
X104239514Y-58411478D01*
X104228148Y-58412000D01*
X103171852Y-58412000D01*
X103104813Y-58392315D01*
X103059058Y-58339511D01*
X103054811Y-58328955D01*
X103044286Y-58298879D01*
X103029116Y-58255525D01*
X102950711Y-58149289D01*
X102950710Y-58149288D01*
X102844476Y-58070884D01*
X102719848Y-58027274D01*
X102719849Y-58027274D01*
X102690260Y-58024500D01*
X102690256Y-58024500D01*
X102109744Y-58024500D01*
X102109740Y-58024500D01*
X102080150Y-58027274D01*
X101955523Y-58070884D01*
X101849289Y-58149288D01*
X101849288Y-58149289D01*
X101770884Y-58255523D01*
X101770884Y-58255524D01*
X101745189Y-58328955D01*
X101704467Y-58385731D01*
X101639514Y-58411478D01*
X101628148Y-58412000D01*
X99971852Y-58412000D01*
X99904813Y-58392315D01*
X99859058Y-58339511D01*
X99854811Y-58328955D01*
X99844286Y-58298879D01*
X99829116Y-58255525D01*
X99750711Y-58149289D01*
X99750710Y-58149288D01*
X99644476Y-58070884D01*
X99519848Y-58027274D01*
X99519849Y-58027274D01*
X99490260Y-58024500D01*
X99490256Y-58024500D01*
X98909744Y-58024500D01*
X98909740Y-58024500D01*
X98880150Y-58027274D01*
X98755523Y-58070884D01*
X98649289Y-58149288D01*
X98649288Y-58149289D01*
X98570884Y-58255523D01*
X98570884Y-58255524D01*
X98545189Y-58328955D01*
X98504467Y-58385731D01*
X98439514Y-58411478D01*
X98428148Y-58412000D01*
X96771852Y-58412000D01*
X96704813Y-58392315D01*
X96659058Y-58339511D01*
X96654811Y-58328955D01*
X96644286Y-58298879D01*
X96629116Y-58255525D01*
X96550711Y-58149289D01*
X96550710Y-58149288D01*
X96444476Y-58070884D01*
X96319848Y-58027274D01*
X96319849Y-58027274D01*
X96290260Y-58024500D01*
X96290256Y-58024500D01*
X95709744Y-58024500D01*
X95709740Y-58024500D01*
X95680150Y-58027274D01*
X95555523Y-58070884D01*
X95449289Y-58149288D01*
X95449288Y-58149289D01*
X95370884Y-58255523D01*
X95327274Y-58380150D01*
X95324500Y-58409739D01*
X95324500Y-59015260D01*
X95327274Y-59044849D01*
X95370884Y-59169476D01*
X95449288Y-59275710D01*
X95449289Y-59275711D01*
X95555525Y-59354116D01*
X95616457Y-59375437D01*
X95673230Y-59416157D01*
X95698978Y-59481109D01*
X95699500Y-59492477D01*
X95699500Y-70824167D01*
X95679815Y-70891206D01*
X95663181Y-70911848D01*
X90139541Y-76435487D01*
X90139535Y-76435495D01*
X90099982Y-76504004D01*
X90099979Y-76504009D01*
X90079500Y-76580439D01*
X90079500Y-77425500D01*
X90059815Y-77492539D01*
X90007011Y-77538294D01*
X89955500Y-77549500D01*
X89510247Y-77549500D01*
X89451770Y-77561131D01*
X89451769Y-77561132D01*
X89385447Y-77605447D01*
X89341132Y-77671769D01*
X89341131Y-77671770D01*
X89329500Y-77730247D01*
X87500500Y-77730247D01*
X87500500Y-49896530D01*
X91549500Y-49896530D01*
X91549500Y-50103469D01*
X91589868Y-50306412D01*
X91589870Y-50306420D01*
X91669058Y-50497596D01*
X91784024Y-50669657D01*
X91930342Y-50815975D01*
X91930345Y-50815977D01*
X92102402Y-50930941D01*
X92293580Y-51010130D01*
X92422160Y-51035706D01*
X92499691Y-51051128D01*
X92561602Y-51083512D01*
X92596176Y-51144228D01*
X92599500Y-51172745D01*
X92599500Y-53004563D01*
X92579815Y-53071602D01*
X92527011Y-53117357D01*
X92522953Y-53119124D01*
X92402404Y-53169057D01*
X92230342Y-53284024D01*
X92084024Y-53430342D01*
X91969058Y-53602403D01*
X91889870Y-53793579D01*
X91889868Y-53793587D01*
X91849500Y-53996530D01*
X91849500Y-54203469D01*
X91889868Y-54406412D01*
X91889870Y-54406420D01*
X91969058Y-54597596D01*
X92084024Y-54769657D01*
X92230342Y-54915975D01*
X92230345Y-54915977D01*
X92402402Y-55030941D01*
X92593580Y-55110130D01*
X92738052Y-55138867D01*
X92796530Y-55150499D01*
X92796534Y-55150500D01*
X92796535Y-55150500D01*
X93003466Y-55150500D01*
X93003467Y-55150499D01*
X93206420Y-55110130D01*
X93326974Y-55060194D01*
X93396438Y-55052726D01*
X93458918Y-55084000D01*
X93462104Y-55087075D01*
X95288181Y-56913152D01*
X95321666Y-56974475D01*
X95324500Y-57000833D01*
X95324500Y-57190260D01*
X95327274Y-57219849D01*
X95370884Y-57344476D01*
X95449288Y-57450710D01*
X95449289Y-57450711D01*
X95555523Y-57529115D01*
X95555524Y-57529115D01*
X95555525Y-57529116D01*
X95680151Y-57572725D01*
X95680150Y-57572725D01*
X95709740Y-57575500D01*
X95709744Y-57575500D01*
X96290260Y-57575500D01*
X96319849Y-57572725D01*
X96444475Y-57529116D01*
X96550711Y-57450711D01*
X96629116Y-57344475D01*
X96672725Y-57219849D01*
X96675500Y-57190256D01*
X96675500Y-56584744D01*
X96672725Y-56555151D01*
X96661454Y-56522942D01*
X96629115Y-56430523D01*
X96550711Y-56324289D01*
X96550710Y-56324288D01*
X96444476Y-56245884D01*
X96319848Y-56202274D01*
X96319849Y-56202274D01*
X96290260Y-56199500D01*
X96290256Y-56199500D01*
X95709744Y-56199500D01*
X95709740Y-56199500D01*
X95680150Y-56202274D01*
X95680148Y-56202275D01*
X95566344Y-56242097D01*
X95496565Y-56245659D01*
X95437708Y-56212737D01*
X93887075Y-54662104D01*
X93853590Y-54600781D01*
X93858574Y-54531089D01*
X93860163Y-54527049D01*
X93910130Y-54406420D01*
X93950500Y-54203465D01*
X93950500Y-53996535D01*
X93910130Y-53793580D01*
X93830941Y-53602402D01*
X93715977Y-53430345D01*
X93715975Y-53430342D01*
X93569657Y-53284024D01*
X93397595Y-53169057D01*
X93277047Y-53119124D01*
X93222643Y-53075282D01*
X93200579Y-53008988D01*
X93200500Y-53004563D01*
X93200500Y-50928463D01*
X93220185Y-50861424D01*
X93255611Y-50825360D01*
X93269655Y-50815977D01*
X93415977Y-50669655D01*
X93530941Y-50497598D01*
X93610130Y-50306420D01*
X93650500Y-50103465D01*
X93650500Y-49896535D01*
X93610130Y-49693580D01*
X93530941Y-49502402D01*
X93415977Y-49330345D01*
X93415975Y-49330342D01*
X93269657Y-49184024D01*
X93189173Y-49130247D01*
X94089500Y-49130247D01*
X94089500Y-50869752D01*
X94101131Y-50928229D01*
X94101132Y-50928230D01*
X94145447Y-50994552D01*
X94211769Y-51038867D01*
X94211770Y-51038868D01*
X94270247Y-51050499D01*
X94270250Y-51050500D01*
X94270252Y-51050500D01*
X94715500Y-51050500D01*
X94782539Y-51070185D01*
X94828294Y-51122989D01*
X94839500Y-51174500D01*
X94839500Y-53171535D01*
X94819815Y-53238574D01*
X94784392Y-53274636D01*
X94770347Y-53284020D01*
X94770341Y-53284025D01*
X94624024Y-53430342D01*
X94509058Y-53602403D01*
X94429870Y-53793579D01*
X94429868Y-53793587D01*
X94389500Y-53996530D01*
X94389500Y-54203469D01*
X94429868Y-54406412D01*
X94429870Y-54406420D01*
X94509058Y-54597596D01*
X94624024Y-54769657D01*
X94770342Y-54915975D01*
X94770345Y-54915977D01*
X94942402Y-55030941D01*
X95133580Y-55110130D01*
X95278052Y-55138867D01*
X95336530Y-55150499D01*
X95336534Y-55150500D01*
X95336535Y-55150500D01*
X95543466Y-55150500D01*
X95543467Y-55150499D01*
X95746420Y-55110130D01*
X95866974Y-55060194D01*
X95936438Y-55052726D01*
X95998918Y-55084000D01*
X96002104Y-55087075D01*
X97987040Y-57072011D01*
X98042989Y-57127960D01*
X98042991Y-57127961D01*
X98042995Y-57127964D01*
X98111504Y-57167517D01*
X98111511Y-57167521D01*
X98187938Y-57188000D01*
X98267062Y-57188000D01*
X98428148Y-57188000D01*
X98495187Y-57207685D01*
X98540942Y-57260489D01*
X98545189Y-57271045D01*
X98570884Y-57344475D01*
X98570884Y-57344476D01*
X98649288Y-57450710D01*
X98649289Y-57450711D01*
X98755523Y-57529115D01*
X98755524Y-57529115D01*
X98755525Y-57529116D01*
X98880151Y-57572725D01*
X98880150Y-57572725D01*
X98909740Y-57575500D01*
X98909744Y-57575500D01*
X99490260Y-57575500D01*
X99519849Y-57572725D01*
X99644475Y-57529116D01*
X99750711Y-57450711D01*
X99829116Y-57344475D01*
X99872725Y-57219849D01*
X99875500Y-57190256D01*
X99875500Y-56584744D01*
X99875500Y-56584739D01*
X101724500Y-56584739D01*
X101724500Y-57190260D01*
X101727274Y-57219849D01*
X101770884Y-57344476D01*
X101849288Y-57450710D01*
X101849289Y-57450711D01*
X101955523Y-57529115D01*
X101955524Y-57529115D01*
X101955525Y-57529116D01*
X102080151Y-57572725D01*
X102080150Y-57572725D01*
X102109740Y-57575500D01*
X102109744Y-57575500D01*
X102690260Y-57575500D01*
X102719849Y-57572725D01*
X102844475Y-57529116D01*
X102950711Y-57450711D01*
X103029116Y-57344475D01*
X103072725Y-57219849D01*
X103075500Y-57190256D01*
X103075500Y-56688333D01*
X103084144Y-56658892D01*
X103090668Y-56628906D01*
X103094422Y-56623890D01*
X103095185Y-56621294D01*
X103111819Y-56600652D01*
X103127732Y-56584739D01*
X104324500Y-56584739D01*
X104324500Y-57190260D01*
X104327274Y-57219849D01*
X104370884Y-57344476D01*
X104449288Y-57450710D01*
X104449289Y-57450711D01*
X104555523Y-57529115D01*
X104555524Y-57529115D01*
X104555525Y-57529116D01*
X104680151Y-57572725D01*
X104680150Y-57572725D01*
X104709740Y-57575500D01*
X104709744Y-57575500D01*
X105290260Y-57575500D01*
X105319849Y-57572725D01*
X105444475Y-57529116D01*
X105550711Y-57450711D01*
X105629116Y-57344475D01*
X105654811Y-57271045D01*
X105695533Y-57214269D01*
X105760486Y-57188522D01*
X105771852Y-57188000D01*
X107932060Y-57188000D01*
X107932062Y-57188000D01*
X108008489Y-57167521D01*
X108077011Y-57127960D01*
X108132960Y-57072011D01*
X110117896Y-55087073D01*
X110179217Y-55053590D01*
X110248908Y-55058574D01*
X110253007Y-55060186D01*
X110373580Y-55110130D01*
X110518052Y-55138867D01*
X110576530Y-55150499D01*
X110576534Y-55150500D01*
X110576535Y-55150500D01*
X110783466Y-55150500D01*
X110783467Y-55150499D01*
X110986420Y-55110130D01*
X111177598Y-55030941D01*
X111349655Y-54915977D01*
X111495977Y-54769655D01*
X111610941Y-54597598D01*
X111690130Y-54406420D01*
X111730500Y-54203465D01*
X111730500Y-53996535D01*
X111730499Y-53996530D01*
X112169500Y-53996530D01*
X112169500Y-54203469D01*
X112209868Y-54406412D01*
X112209870Y-54406420D01*
X112289058Y-54597596D01*
X112404024Y-54769657D01*
X112550342Y-54915975D01*
X112550345Y-54915977D01*
X112722402Y-55030941D01*
X112913580Y-55110130D01*
X113058052Y-55138867D01*
X113116530Y-55150499D01*
X113116534Y-55150500D01*
X113116535Y-55150500D01*
X113323466Y-55150500D01*
X113323467Y-55150499D01*
X113526420Y-55110130D01*
X113717598Y-55030941D01*
X113889655Y-54915977D01*
X114035977Y-54769655D01*
X114150941Y-54597598D01*
X114230130Y-54406420D01*
X114270500Y-54203465D01*
X114270500Y-53996535D01*
X114270499Y-53996530D01*
X114709500Y-53996530D01*
X114709500Y-54203469D01*
X114749868Y-54406412D01*
X114749870Y-54406420D01*
X114829058Y-54597596D01*
X114944024Y-54769657D01*
X115090342Y-54915975D01*
X115090345Y-54915977D01*
X115262402Y-55030941D01*
X115453580Y-55110130D01*
X115598052Y-55138867D01*
X115656530Y-55150499D01*
X115656534Y-55150500D01*
X115656535Y-55150500D01*
X115863466Y-55150500D01*
X115863467Y-55150499D01*
X116066420Y-55110130D01*
X116257598Y-55030941D01*
X116429655Y-54915977D01*
X116575977Y-54769655D01*
X116690941Y-54597598D01*
X116770130Y-54406420D01*
X116810500Y-54203465D01*
X116810500Y-53996535D01*
X116810499Y-53996530D01*
X117249500Y-53996530D01*
X117249500Y-54203469D01*
X117289868Y-54406412D01*
X117289870Y-54406420D01*
X117369058Y-54597596D01*
X117484024Y-54769657D01*
X117630342Y-54915975D01*
X117630345Y-54915977D01*
X117802402Y-55030941D01*
X117993580Y-55110130D01*
X118138052Y-55138867D01*
X118196530Y-55150499D01*
X118196534Y-55150500D01*
X118196535Y-55150500D01*
X118403466Y-55150500D01*
X118403467Y-55150499D01*
X118606420Y-55110130D01*
X118797598Y-55030941D01*
X118969655Y-54915977D01*
X119115977Y-54769655D01*
X119230941Y-54597598D01*
X119310130Y-54406420D01*
X119350500Y-54203465D01*
X119350500Y-53996535D01*
X119350499Y-53996530D01*
X119789500Y-53996530D01*
X119789500Y-54203469D01*
X119829868Y-54406412D01*
X119829870Y-54406420D01*
X119909058Y-54597596D01*
X120024024Y-54769657D01*
X120170342Y-54915975D01*
X120170345Y-54915977D01*
X120342402Y-55030941D01*
X120533580Y-55110130D01*
X120678052Y-55138867D01*
X120736530Y-55150499D01*
X120736534Y-55150500D01*
X120736535Y-55150500D01*
X120943466Y-55150500D01*
X120943467Y-55150499D01*
X121146420Y-55110130D01*
X121337598Y-55030941D01*
X121509655Y-54915977D01*
X121655977Y-54769655D01*
X121770941Y-54597598D01*
X121850130Y-54406420D01*
X121890500Y-54203465D01*
X121890500Y-53996535D01*
X121890499Y-53996530D01*
X122329500Y-53996530D01*
X122329500Y-54203469D01*
X122369868Y-54406412D01*
X122369870Y-54406420D01*
X122449058Y-54597596D01*
X122564024Y-54769657D01*
X122710342Y-54915975D01*
X122710345Y-54915977D01*
X122882402Y-55030941D01*
X123073580Y-55110130D01*
X123218052Y-55138867D01*
X123276530Y-55150499D01*
X123276534Y-55150500D01*
X123276535Y-55150500D01*
X123483466Y-55150500D01*
X123483467Y-55150499D01*
X123686420Y-55110130D01*
X123877598Y-55030941D01*
X124049655Y-54915977D01*
X124195977Y-54769655D01*
X124310941Y-54597598D01*
X124390130Y-54406420D01*
X124430500Y-54203465D01*
X124430500Y-53996535D01*
X124430499Y-53996530D01*
X124869500Y-53996530D01*
X124869500Y-54203469D01*
X124909868Y-54406412D01*
X124909870Y-54406420D01*
X124989058Y-54597596D01*
X125104024Y-54769657D01*
X125250342Y-54915975D01*
X125250345Y-54915977D01*
X125422402Y-55030941D01*
X125613580Y-55110130D01*
X125758052Y-55138867D01*
X125816530Y-55150499D01*
X125816534Y-55150500D01*
X125816535Y-55150500D01*
X126023466Y-55150500D01*
X126023467Y-55150499D01*
X126226420Y-55110130D01*
X126417598Y-55030941D01*
X126589655Y-54915977D01*
X126735977Y-54769655D01*
X126850941Y-54597598D01*
X126930130Y-54406420D01*
X126970500Y-54203465D01*
X126970500Y-53996535D01*
X126970499Y-53996530D01*
X127409500Y-53996530D01*
X127409500Y-54203469D01*
X127449868Y-54406412D01*
X127449870Y-54406420D01*
X127529058Y-54597596D01*
X127644024Y-54769657D01*
X127790342Y-54915975D01*
X127790345Y-54915977D01*
X127962402Y-55030941D01*
X128153580Y-55110130D01*
X128298052Y-55138867D01*
X128356530Y-55150499D01*
X128356534Y-55150500D01*
X128356535Y-55150500D01*
X128563466Y-55150500D01*
X128563467Y-55150499D01*
X128766420Y-55110130D01*
X128957598Y-55030941D01*
X129129655Y-54915977D01*
X129275977Y-54769655D01*
X129390941Y-54597598D01*
X129470130Y-54406420D01*
X129510500Y-54203465D01*
X129510500Y-53996535D01*
X129510499Y-53996530D01*
X129949500Y-53996530D01*
X129949500Y-54203469D01*
X129989868Y-54406412D01*
X129989870Y-54406420D01*
X130069058Y-54597596D01*
X130184024Y-54769657D01*
X130330342Y-54915975D01*
X130330345Y-54915977D01*
X130502402Y-55030941D01*
X130693580Y-55110130D01*
X130838052Y-55138867D01*
X130896530Y-55150499D01*
X130896534Y-55150500D01*
X130896535Y-55150500D01*
X131103466Y-55150500D01*
X131103467Y-55150499D01*
X131306420Y-55110130D01*
X131497598Y-55030941D01*
X131669655Y-54915977D01*
X131815977Y-54769655D01*
X131930941Y-54597598D01*
X132010130Y-54406420D01*
X132050500Y-54203465D01*
X132050500Y-53996535D01*
X132050499Y-53996530D01*
X132489500Y-53996530D01*
X132489500Y-54203469D01*
X132529868Y-54406412D01*
X132529870Y-54406420D01*
X132609058Y-54597596D01*
X132724024Y-54769657D01*
X132870342Y-54915975D01*
X132870345Y-54915977D01*
X133042402Y-55030941D01*
X133233580Y-55110130D01*
X133378052Y-55138867D01*
X133436530Y-55150499D01*
X133436534Y-55150500D01*
X133436535Y-55150500D01*
X133643466Y-55150500D01*
X133643467Y-55150499D01*
X133846420Y-55110130D01*
X134037598Y-55030941D01*
X134209655Y-54915977D01*
X134355977Y-54769655D01*
X134470941Y-54597598D01*
X134550130Y-54406420D01*
X134590500Y-54203465D01*
X134590500Y-53996535D01*
X134550130Y-53793580D01*
X134470941Y-53602402D01*
X134355977Y-53430345D01*
X134355975Y-53430342D01*
X134209657Y-53284024D01*
X134129173Y-53230247D01*
X135029500Y-53230247D01*
X135029500Y-54969752D01*
X135041131Y-55028229D01*
X135041132Y-55028230D01*
X135085447Y-55094552D01*
X135151769Y-55138867D01*
X135151770Y-55138868D01*
X135210247Y-55150499D01*
X135210250Y-55150500D01*
X135210252Y-55150500D01*
X136949750Y-55150500D01*
X136949751Y-55150499D01*
X136964568Y-55147552D01*
X137008229Y-55138868D01*
X137008229Y-55138867D01*
X137008231Y-55138867D01*
X137074552Y-55094552D01*
X137118867Y-55028231D01*
X137118867Y-55028229D01*
X137118868Y-55028229D01*
X137130499Y-54969752D01*
X137130500Y-54969750D01*
X137130500Y-53230249D01*
X137130499Y-53230247D01*
X137118868Y-53171770D01*
X137118867Y-53171769D01*
X137074552Y-53105447D01*
X137008230Y-53061132D01*
X137008229Y-53061131D01*
X136949752Y-53049500D01*
X136949748Y-53049500D01*
X135210252Y-53049500D01*
X135210247Y-53049500D01*
X135151770Y-53061131D01*
X135151769Y-53061132D01*
X135085447Y-53105447D01*
X135041132Y-53171769D01*
X135041131Y-53171770D01*
X135029500Y-53230247D01*
X134129173Y-53230247D01*
X134041655Y-53171770D01*
X134037598Y-53169059D01*
X134037593Y-53169057D01*
X133846420Y-53089870D01*
X133846412Y-53089868D01*
X133643469Y-53049500D01*
X133643465Y-53049500D01*
X133436535Y-53049500D01*
X133436530Y-53049500D01*
X133233587Y-53089868D01*
X133233579Y-53089870D01*
X133042403Y-53169058D01*
X132870342Y-53284024D01*
X132724024Y-53430342D01*
X132609058Y-53602403D01*
X132529870Y-53793579D01*
X132529868Y-53793587D01*
X132489500Y-53996530D01*
X132050499Y-53996530D01*
X132010130Y-53793580D01*
X131930941Y-53602402D01*
X131815977Y-53430345D01*
X131815975Y-53430342D01*
X131669657Y-53284024D01*
X131501655Y-53171770D01*
X131497598Y-53169059D01*
X131497593Y-53169057D01*
X131306420Y-53089870D01*
X131306412Y-53089868D01*
X131103469Y-53049500D01*
X131103465Y-53049500D01*
X130896535Y-53049500D01*
X130896530Y-53049500D01*
X130693587Y-53089868D01*
X130693579Y-53089870D01*
X130502403Y-53169058D01*
X130330342Y-53284024D01*
X130184024Y-53430342D01*
X130069058Y-53602403D01*
X129989870Y-53793579D01*
X129989868Y-53793587D01*
X129949500Y-53996530D01*
X129510499Y-53996530D01*
X129470130Y-53793580D01*
X129390941Y-53602402D01*
X129275977Y-53430345D01*
X129275975Y-53430342D01*
X129129657Y-53284024D01*
X128961655Y-53171770D01*
X128957598Y-53169059D01*
X128957593Y-53169057D01*
X128766420Y-53089870D01*
X128766412Y-53089868D01*
X128563469Y-53049500D01*
X128563465Y-53049500D01*
X128356535Y-53049500D01*
X128356530Y-53049500D01*
X128153587Y-53089868D01*
X128153579Y-53089870D01*
X127962403Y-53169058D01*
X127790342Y-53284024D01*
X127644024Y-53430342D01*
X127529058Y-53602403D01*
X127449870Y-53793579D01*
X127449868Y-53793587D01*
X127409500Y-53996530D01*
X126970499Y-53996530D01*
X126930130Y-53793580D01*
X126850941Y-53602402D01*
X126735977Y-53430345D01*
X126735975Y-53430342D01*
X126589657Y-53284024D01*
X126421655Y-53171770D01*
X126417598Y-53169059D01*
X126417593Y-53169057D01*
X126226420Y-53089870D01*
X126226412Y-53089868D01*
X126023469Y-53049500D01*
X126023465Y-53049500D01*
X125816535Y-53049500D01*
X125816530Y-53049500D01*
X125613587Y-53089868D01*
X125613579Y-53089870D01*
X125422403Y-53169058D01*
X125250342Y-53284024D01*
X125104024Y-53430342D01*
X124989058Y-53602403D01*
X124909870Y-53793579D01*
X124909868Y-53793587D01*
X124869500Y-53996530D01*
X124430499Y-53996530D01*
X124390130Y-53793580D01*
X124310941Y-53602402D01*
X124195977Y-53430345D01*
X124195975Y-53430342D01*
X124049657Y-53284024D01*
X123881655Y-53171770D01*
X123877598Y-53169059D01*
X123877593Y-53169057D01*
X123686420Y-53089870D01*
X123686412Y-53089868D01*
X123483469Y-53049500D01*
X123483465Y-53049500D01*
X123276535Y-53049500D01*
X123276530Y-53049500D01*
X123073587Y-53089868D01*
X123073579Y-53089870D01*
X122882403Y-53169058D01*
X122710342Y-53284024D01*
X122564024Y-53430342D01*
X122449058Y-53602403D01*
X122369870Y-53793579D01*
X122369868Y-53793587D01*
X122329500Y-53996530D01*
X121890499Y-53996530D01*
X121850130Y-53793580D01*
X121770941Y-53602402D01*
X121655977Y-53430345D01*
X121655975Y-53430342D01*
X121509657Y-53284024D01*
X121341655Y-53171770D01*
X121337598Y-53169059D01*
X121337593Y-53169057D01*
X121146420Y-53089870D01*
X121146412Y-53089868D01*
X120943469Y-53049500D01*
X120943465Y-53049500D01*
X120736535Y-53049500D01*
X120736530Y-53049500D01*
X120533587Y-53089868D01*
X120533579Y-53089870D01*
X120342403Y-53169058D01*
X120170342Y-53284024D01*
X120024024Y-53430342D01*
X119909058Y-53602403D01*
X119829870Y-53793579D01*
X119829868Y-53793587D01*
X119789500Y-53996530D01*
X119350499Y-53996530D01*
X119310130Y-53793580D01*
X119230941Y-53602402D01*
X119115977Y-53430345D01*
X119115975Y-53430342D01*
X118969657Y-53284024D01*
X118801655Y-53171770D01*
X118797598Y-53169059D01*
X118797593Y-53169057D01*
X118606420Y-53089870D01*
X118606412Y-53089868D01*
X118403469Y-53049500D01*
X118403465Y-53049500D01*
X118196535Y-53049500D01*
X118196530Y-53049500D01*
X117993587Y-53089868D01*
X117993579Y-53089870D01*
X117802403Y-53169058D01*
X117630342Y-53284024D01*
X117484024Y-53430342D01*
X117369058Y-53602403D01*
X117289870Y-53793579D01*
X117289868Y-53793587D01*
X117249500Y-53996530D01*
X116810499Y-53996530D01*
X116770130Y-53793580D01*
X116690941Y-53602402D01*
X116575977Y-53430345D01*
X116575975Y-53430342D01*
X116429657Y-53284024D01*
X116261655Y-53171770D01*
X116257598Y-53169059D01*
X116257593Y-53169057D01*
X116066420Y-53089870D01*
X116066412Y-53089868D01*
X115863469Y-53049500D01*
X115863465Y-53049500D01*
X115656535Y-53049500D01*
X115656530Y-53049500D01*
X115453587Y-53089868D01*
X115453579Y-53089870D01*
X115262403Y-53169058D01*
X115090342Y-53284024D01*
X114944024Y-53430342D01*
X114829058Y-53602403D01*
X114749870Y-53793579D01*
X114749868Y-53793587D01*
X114709500Y-53996530D01*
X114270499Y-53996530D01*
X114230130Y-53793580D01*
X114150941Y-53602402D01*
X114035977Y-53430345D01*
X114035975Y-53430342D01*
X113889657Y-53284024D01*
X113721655Y-53171770D01*
X113717598Y-53169059D01*
X113717593Y-53169057D01*
X113526420Y-53089870D01*
X113526412Y-53089868D01*
X113323469Y-53049500D01*
X113323465Y-53049500D01*
X113116535Y-53049500D01*
X113116530Y-53049500D01*
X112913587Y-53089868D01*
X112913579Y-53089870D01*
X112722403Y-53169058D01*
X112550342Y-53284024D01*
X112404024Y-53430342D01*
X112289058Y-53602403D01*
X112209870Y-53793579D01*
X112209868Y-53793587D01*
X112169500Y-53996530D01*
X111730499Y-53996530D01*
X111690130Y-53793580D01*
X111610941Y-53602402D01*
X111495977Y-53430345D01*
X111495975Y-53430342D01*
X111349657Y-53284024D01*
X111177595Y-53169057D01*
X111052047Y-53117053D01*
X110997643Y-53073211D01*
X110975579Y-53006917D01*
X110975500Y-53002492D01*
X110975500Y-50174500D01*
X110995185Y-50107461D01*
X111047989Y-50061706D01*
X111099500Y-50050500D01*
X111544750Y-50050500D01*
X111544751Y-50050499D01*
X111559568Y-50047552D01*
X111603229Y-50038868D01*
X111603229Y-50038867D01*
X111603231Y-50038867D01*
X111669552Y-49994552D01*
X111713867Y-49928231D01*
X111713867Y-49928229D01*
X111713868Y-49928229D01*
X111725499Y-49869752D01*
X111725500Y-49869750D01*
X111725500Y-48130249D01*
X111725499Y-48130247D01*
X111713868Y-48071770D01*
X111713867Y-48071769D01*
X111669552Y-48005447D01*
X111603230Y-47961132D01*
X111603229Y-47961131D01*
X111544752Y-47949500D01*
X111544748Y-47949500D01*
X109805252Y-47949500D01*
X109805247Y-47949500D01*
X109746770Y-47961131D01*
X109746769Y-47961132D01*
X109680447Y-48005447D01*
X109636132Y-48071769D01*
X109636131Y-48071770D01*
X109624500Y-48130247D01*
X109624500Y-49869752D01*
X109636131Y-49928229D01*
X109636132Y-49928230D01*
X109680447Y-49994552D01*
X109746769Y-50038867D01*
X109746770Y-50038868D01*
X109805247Y-50050499D01*
X109805250Y-50050500D01*
X109805252Y-50050500D01*
X110250500Y-50050500D01*
X110317539Y-50070185D01*
X110363294Y-50122989D01*
X110374500Y-50174500D01*
X110374500Y-53006634D01*
X110354815Y-53073673D01*
X110302011Y-53119428D01*
X110297954Y-53121195D01*
X110182402Y-53169058D01*
X110010342Y-53284024D01*
X109864024Y-53430342D01*
X109749058Y-53602403D01*
X109669870Y-53793579D01*
X109669868Y-53793587D01*
X109629500Y-53996530D01*
X109629500Y-54203469D01*
X109669868Y-54406412D01*
X109669871Y-54406424D01*
X109719803Y-54526971D01*
X109727272Y-54596440D01*
X109695997Y-54658919D01*
X109692923Y-54662104D01*
X107804348Y-56550681D01*
X107743025Y-56584166D01*
X107716667Y-56587000D01*
X105771852Y-56587000D01*
X105704813Y-56567315D01*
X105659058Y-56514511D01*
X105654811Y-56503955D01*
X105644286Y-56473879D01*
X105629116Y-56430525D01*
X105550711Y-56324289D01*
X105550710Y-56324288D01*
X105444476Y-56245884D01*
X105319848Y-56202274D01*
X105319849Y-56202274D01*
X105290260Y-56199500D01*
X105290256Y-56199500D01*
X104709744Y-56199500D01*
X104709740Y-56199500D01*
X104680150Y-56202274D01*
X104555523Y-56245884D01*
X104449289Y-56324288D01*
X104449288Y-56324289D01*
X104370884Y-56430523D01*
X104327274Y-56555150D01*
X104324500Y-56584739D01*
X103127732Y-56584739D01*
X104124652Y-55587819D01*
X104185975Y-55554334D01*
X104212333Y-55551500D01*
X107028560Y-55551500D01*
X107028562Y-55551500D01*
X107104989Y-55531021D01*
X107173511Y-55491460D01*
X107229460Y-55435511D01*
X107577896Y-55087073D01*
X107639217Y-55053590D01*
X107708908Y-55058574D01*
X107713007Y-55060186D01*
X107833580Y-55110130D01*
X107978052Y-55138867D01*
X108036530Y-55150499D01*
X108036534Y-55150500D01*
X108036535Y-55150500D01*
X108243466Y-55150500D01*
X108243467Y-55150499D01*
X108446420Y-55110130D01*
X108637598Y-55030941D01*
X108809655Y-54915977D01*
X108955977Y-54769655D01*
X109070941Y-54597598D01*
X109150130Y-54406420D01*
X109190500Y-54203465D01*
X109190500Y-53996535D01*
X109150130Y-53793580D01*
X109070941Y-53602402D01*
X108955977Y-53430345D01*
X108955975Y-53430342D01*
X108809657Y-53284024D01*
X108637595Y-53169057D01*
X108512047Y-53117053D01*
X108457643Y-53073211D01*
X108435579Y-53006917D01*
X108435500Y-53002492D01*
X108435500Y-50095435D01*
X108455185Y-50028396D01*
X108507989Y-49982641D01*
X108512012Y-49980889D01*
X108632598Y-49930941D01*
X108804655Y-49815977D01*
X108950977Y-49669655D01*
X109065941Y-49497598D01*
X109145130Y-49306420D01*
X109185500Y-49103465D01*
X109185500Y-48896535D01*
X109145130Y-48693580D01*
X109065941Y-48502402D01*
X108950977Y-48330345D01*
X108950975Y-48330342D01*
X108804657Y-48184024D01*
X108636655Y-48071770D01*
X108632598Y-48069059D01*
X108441420Y-47989870D01*
X108441412Y-47989868D01*
X108238469Y-47949500D01*
X108238465Y-47949500D01*
X108031535Y-47949500D01*
X108031530Y-47949500D01*
X107828587Y-47989868D01*
X107828579Y-47989870D01*
X107637403Y-48069058D01*
X107465342Y-48184024D01*
X107319024Y-48330342D01*
X107204058Y-48502403D01*
X107124870Y-48693579D01*
X107124868Y-48693587D01*
X107084500Y-48896530D01*
X107084500Y-49103469D01*
X107124868Y-49306412D01*
X107124870Y-49306420D01*
X107204058Y-49497596D01*
X107319024Y-49669657D01*
X107465342Y-49815975D01*
X107465345Y-49815977D01*
X107637402Y-49930941D01*
X107757953Y-49980875D01*
X107812356Y-50024714D01*
X107834421Y-50091008D01*
X107834500Y-50095435D01*
X107834500Y-53006634D01*
X107814815Y-53073673D01*
X107762011Y-53119428D01*
X107757954Y-53121195D01*
X107642402Y-53169058D01*
X107470342Y-53284024D01*
X107324024Y-53430342D01*
X107209058Y-53602403D01*
X107129870Y-53793579D01*
X107129868Y-53793587D01*
X107089500Y-53996530D01*
X107089500Y-54203469D01*
X107129868Y-54406412D01*
X107129871Y-54406424D01*
X107179803Y-54526971D01*
X107187272Y-54596440D01*
X107155997Y-54658919D01*
X107152924Y-54662104D01*
X106900846Y-54914182D01*
X106839526Y-54947666D01*
X106813167Y-54950500D01*
X103988810Y-54950500D01*
X103988810Y-54947454D01*
X103934061Y-54938890D01*
X103881828Y-54892485D01*
X103862975Y-54825207D01*
X103883487Y-54758416D01*
X103883584Y-54758269D01*
X103990941Y-54597598D01*
X104070130Y-54406420D01*
X104110500Y-54203465D01*
X104110500Y-53996535D01*
X104070130Y-53793580D01*
X103990941Y-53602402D01*
X103875977Y-53430345D01*
X103875975Y-53430342D01*
X103729657Y-53284024D01*
X103561655Y-53171770D01*
X103557598Y-53169059D01*
X103557593Y-53169057D01*
X103366420Y-53089870D01*
X103366412Y-53089868D01*
X103163469Y-53049500D01*
X103163465Y-53049500D01*
X102956535Y-53049500D01*
X102956530Y-53049500D01*
X102753587Y-53089868D01*
X102753579Y-53089870D01*
X102562403Y-53169058D01*
X102390342Y-53284024D01*
X102244024Y-53430342D01*
X102129058Y-53602403D01*
X102049870Y-53793579D01*
X102049868Y-53793587D01*
X102009500Y-53996530D01*
X102009500Y-54203469D01*
X102049868Y-54406412D01*
X102049870Y-54406420D01*
X102129058Y-54597596D01*
X102244024Y-54769657D01*
X102390342Y-54915975D01*
X102390345Y-54915977D01*
X102562402Y-55030941D01*
X102753580Y-55110130D01*
X102898052Y-55138867D01*
X102956530Y-55150499D01*
X102956534Y-55150500D01*
X102956535Y-55150500D01*
X103163466Y-55150500D01*
X103163467Y-55150499D01*
X103366420Y-55110130D01*
X103449391Y-55075761D01*
X103518859Y-55068293D01*
X103581338Y-55099568D01*
X103616991Y-55159656D01*
X103614498Y-55229482D01*
X103584524Y-55278004D01*
X102699348Y-56163181D01*
X102638025Y-56196666D01*
X102611667Y-56199500D01*
X102109740Y-56199500D01*
X102080150Y-56202274D01*
X101955523Y-56245884D01*
X101849289Y-56324288D01*
X101849288Y-56324289D01*
X101770884Y-56430523D01*
X101727274Y-56555150D01*
X101724500Y-56584739D01*
X99875500Y-56584739D01*
X99872725Y-56555151D01*
X99861454Y-56522942D01*
X99829115Y-56430523D01*
X99750711Y-56324289D01*
X99750710Y-56324288D01*
X99644476Y-56245884D01*
X99519848Y-56202274D01*
X99519849Y-56202274D01*
X99490260Y-56199500D01*
X99490256Y-56199500D01*
X98909744Y-56199500D01*
X98909740Y-56199500D01*
X98880150Y-56202274D01*
X98755523Y-56245884D01*
X98649289Y-56324288D01*
X98649288Y-56324289D01*
X98570884Y-56430523D01*
X98570884Y-56430524D01*
X98545189Y-56503955D01*
X98531570Y-56522942D01*
X98521861Y-56544203D01*
X98511584Y-56550806D01*
X98504467Y-56560731D01*
X98482743Y-56569342D01*
X98463083Y-56581977D01*
X98443916Y-56584732D01*
X98439514Y-56586478D01*
X98428148Y-56587000D01*
X98403333Y-56587000D01*
X98336294Y-56567315D01*
X98315652Y-56550681D01*
X96427075Y-54662104D01*
X96393590Y-54600781D01*
X96398574Y-54531089D01*
X96400163Y-54527049D01*
X96450130Y-54406420D01*
X96490500Y-54203465D01*
X96490500Y-53996535D01*
X96490499Y-53996530D01*
X96929500Y-53996530D01*
X96929500Y-54203469D01*
X96969868Y-54406412D01*
X96969870Y-54406420D01*
X97049058Y-54597596D01*
X97164024Y-54769657D01*
X97310342Y-54915975D01*
X97310345Y-54915977D01*
X97482402Y-55030941D01*
X97673580Y-55110130D01*
X97818052Y-55138867D01*
X97876530Y-55150499D01*
X97876534Y-55150500D01*
X97876535Y-55150500D01*
X98083466Y-55150500D01*
X98083467Y-55150499D01*
X98286420Y-55110130D01*
X98477598Y-55030941D01*
X98649655Y-54915977D01*
X98795977Y-54769655D01*
X98910941Y-54597598D01*
X98990130Y-54406420D01*
X99030500Y-54203465D01*
X99030500Y-53996535D01*
X99030499Y-53996530D01*
X99469500Y-53996530D01*
X99469500Y-54203469D01*
X99509868Y-54406412D01*
X99509870Y-54406420D01*
X99589058Y-54597596D01*
X99704024Y-54769657D01*
X99850342Y-54915975D01*
X99850345Y-54915977D01*
X100022402Y-55030941D01*
X100213580Y-55110130D01*
X100358052Y-55138867D01*
X100416530Y-55150499D01*
X100416534Y-55150500D01*
X100416535Y-55150500D01*
X100623466Y-55150500D01*
X100623467Y-55150499D01*
X100826420Y-55110130D01*
X101017598Y-55030941D01*
X101189655Y-54915977D01*
X101335977Y-54769655D01*
X101450941Y-54597598D01*
X101530130Y-54406420D01*
X101570500Y-54203465D01*
X101570500Y-53996535D01*
X101530130Y-53793580D01*
X101450941Y-53602402D01*
X101335977Y-53430345D01*
X101335975Y-53430342D01*
X101189657Y-53284024D01*
X101021655Y-53171770D01*
X101017598Y-53169059D01*
X101017593Y-53169057D01*
X100826420Y-53089870D01*
X100826412Y-53089868D01*
X100623469Y-53049500D01*
X100623465Y-53049500D01*
X100416535Y-53049500D01*
X100416530Y-53049500D01*
X100213587Y-53089868D01*
X100213579Y-53089870D01*
X100022403Y-53169058D01*
X99850342Y-53284024D01*
X99704024Y-53430342D01*
X99589058Y-53602403D01*
X99509870Y-53793579D01*
X99509868Y-53793587D01*
X99469500Y-53996530D01*
X99030499Y-53996530D01*
X98990130Y-53793580D01*
X98910941Y-53602402D01*
X98795977Y-53430345D01*
X98795975Y-53430342D01*
X98649657Y-53284024D01*
X98481655Y-53171770D01*
X98477598Y-53169059D01*
X98477593Y-53169057D01*
X98286420Y-53089870D01*
X98286412Y-53089868D01*
X98083469Y-53049500D01*
X98083465Y-53049500D01*
X97876535Y-53049500D01*
X97876530Y-53049500D01*
X97673587Y-53089868D01*
X97673579Y-53089870D01*
X97482403Y-53169058D01*
X97310342Y-53284024D01*
X97164024Y-53430342D01*
X97049058Y-53602403D01*
X96969870Y-53793579D01*
X96969868Y-53793587D01*
X96929500Y-53996530D01*
X96490499Y-53996530D01*
X96450130Y-53793580D01*
X96370941Y-53602402D01*
X96255977Y-53430345D01*
X96255975Y-53430342D01*
X96109657Y-53284024D01*
X95941655Y-53171770D01*
X95937598Y-53169059D01*
X95937593Y-53169057D01*
X95746420Y-53089870D01*
X95746412Y-53089868D01*
X95540309Y-53048871D01*
X95478398Y-53016486D01*
X95443823Y-52955770D01*
X95440500Y-52927254D01*
X95440500Y-51174500D01*
X95460185Y-51107461D01*
X95512989Y-51061706D01*
X95564500Y-51050500D01*
X96009750Y-51050500D01*
X96009751Y-51050499D01*
X96024568Y-51047552D01*
X96068229Y-51038868D01*
X96068229Y-51038867D01*
X96068231Y-51038867D01*
X96134552Y-50994552D01*
X96178867Y-50928231D01*
X96178867Y-50928229D01*
X96178868Y-50928229D01*
X96190499Y-50869752D01*
X96190500Y-50869750D01*
X96190500Y-49130249D01*
X96190499Y-49130247D01*
X96178868Y-49071770D01*
X96178867Y-49071769D01*
X96134552Y-49005447D01*
X96068230Y-48961132D01*
X96068229Y-48961131D01*
X96009752Y-48949500D01*
X96009748Y-48949500D01*
X94270252Y-48949500D01*
X94270247Y-48949500D01*
X94211770Y-48961131D01*
X94211769Y-48961132D01*
X94145447Y-49005447D01*
X94101132Y-49071769D01*
X94101131Y-49071770D01*
X94089500Y-49130247D01*
X93189173Y-49130247D01*
X93183626Y-49126541D01*
X93097598Y-49069059D01*
X92906420Y-48989870D01*
X92906412Y-48989868D01*
X92703469Y-48949500D01*
X92703465Y-48949500D01*
X92496535Y-48949500D01*
X92496530Y-48949500D01*
X92293587Y-48989868D01*
X92293579Y-48989870D01*
X92102403Y-49069058D01*
X91930342Y-49184024D01*
X91784024Y-49330342D01*
X91669058Y-49502403D01*
X91589870Y-49693579D01*
X91589868Y-49693587D01*
X91549500Y-49896530D01*
X87500500Y-49896530D01*
X87500500Y-44874038D01*
X91399500Y-44874038D01*
X91399500Y-45125961D01*
X91438910Y-45374785D01*
X91516760Y-45614383D01*
X91631132Y-45838848D01*
X91779201Y-46042649D01*
X91779205Y-46042654D01*
X91957345Y-46220794D01*
X91957350Y-46220798D01*
X92135117Y-46349952D01*
X92161155Y-46368870D01*
X92304184Y-46441747D01*
X92385616Y-46483239D01*
X92385618Y-46483239D01*
X92385621Y-46483241D01*
X92625215Y-46561090D01*
X92874038Y-46600500D01*
X92874039Y-46600500D01*
X93125961Y-46600500D01*
X93125962Y-46600500D01*
X93374785Y-46561090D01*
X93614379Y-46483241D01*
X93838845Y-46368870D01*
X94042656Y-46220793D01*
X94220793Y-46042656D01*
X94368870Y-45838845D01*
X94483241Y-45614379D01*
X94561090Y-45374785D01*
X94600500Y-45125962D01*
X94600500Y-44874038D01*
X132399500Y-44874038D01*
X132399500Y-45125961D01*
X132438910Y-45374785D01*
X132516760Y-45614383D01*
X132631132Y-45838848D01*
X132779201Y-46042649D01*
X132779205Y-46042654D01*
X132957345Y-46220794D01*
X132957350Y-46220798D01*
X133135117Y-46349952D01*
X133161155Y-46368870D01*
X133304184Y-46441747D01*
X133385616Y-46483239D01*
X133385618Y-46483239D01*
X133385621Y-46483241D01*
X133625215Y-46561090D01*
X133874038Y-46600500D01*
X133874039Y-46600500D01*
X134125961Y-46600500D01*
X134125962Y-46600500D01*
X134374785Y-46561090D01*
X134614379Y-46483241D01*
X134838845Y-46368870D01*
X135042656Y-46220793D01*
X135220793Y-46042656D01*
X135368870Y-45838845D01*
X135483241Y-45614379D01*
X135561090Y-45374785D01*
X135600500Y-45125962D01*
X135600500Y-44874038D01*
X135561090Y-44625215D01*
X135483241Y-44385621D01*
X135483239Y-44385618D01*
X135483239Y-44385616D01*
X135441747Y-44304184D01*
X135368870Y-44161155D01*
X135349952Y-44135117D01*
X135220798Y-43957350D01*
X135220794Y-43957345D01*
X135042654Y-43779205D01*
X135042649Y-43779201D01*
X134838848Y-43631132D01*
X134838847Y-43631131D01*
X134838845Y-43631130D01*
X134768747Y-43595413D01*
X134614383Y-43516760D01*
X134374785Y-43438910D01*
X134125962Y-43399500D01*
X133874038Y-43399500D01*
X133749626Y-43419205D01*
X133625214Y-43438910D01*
X133385616Y-43516760D01*
X133161151Y-43631132D01*
X132957350Y-43779201D01*
X132957345Y-43779205D01*
X132779205Y-43957345D01*
X132779201Y-43957350D01*
X132631132Y-44161151D01*
X132516760Y-44385616D01*
X132438910Y-44625214D01*
X132399500Y-44874038D01*
X94600500Y-44874038D01*
X94561090Y-44625215D01*
X94483241Y-44385621D01*
X94483239Y-44385618D01*
X94483239Y-44385616D01*
X94441747Y-44304184D01*
X94368870Y-44161155D01*
X94349952Y-44135117D01*
X94220798Y-43957350D01*
X94220794Y-43957345D01*
X94042654Y-43779205D01*
X94042649Y-43779201D01*
X93838848Y-43631132D01*
X93838847Y-43631131D01*
X93838845Y-43631130D01*
X93768747Y-43595413D01*
X93614383Y-43516760D01*
X93374785Y-43438910D01*
X93125962Y-43399500D01*
X92874038Y-43399500D01*
X92749626Y-43419205D01*
X92625214Y-43438910D01*
X92385616Y-43516760D01*
X92161151Y-43631132D01*
X91957350Y-43779201D01*
X91957345Y-43779205D01*
X91779205Y-43957345D01*
X91779201Y-43957350D01*
X91631132Y-44161151D01*
X91516760Y-44385616D01*
X91438910Y-44625214D01*
X91399500Y-44874038D01*
X87500500Y-44874038D01*
X87500500Y-41624500D01*
X87520185Y-41557461D01*
X87572989Y-41511706D01*
X87624500Y-41500500D01*
X139375500Y-41500500D01*
X139442539Y-41520185D01*
G37*
%TD.AperFunction*%
%TD*%
M02*
