M48
; DRILL file {KiCad 9.0.6} date 2026-08-22T05:30:37-0700
; FORMAT={-:-/ absolute / metric / decimal}
; #@! TF.CreationDate,2026-08-22T05:30:37-07:00
; #@! TF.GenerationSoftware,Kicad,Pcbnew,9.0.6
; #@! TF.FileFunction,Plated,1,2,PTH
FMAT,2
METRIC
; #@! TA.AperFunction,Plated,PTH,ViaDrill
T1C0.300
; #@! TA.AperFunction,Plated,PTH,ComponentDrill
T2C1.000
%
G90
G05
T1
X104.6Y-82.8
X104.6Y-85.8
X104.6Y-96.2
X105.4Y-92.8
X105.8Y-85.8
X106.2Y-82.25
X109.233Y-94.2
X109.4Y-97.0
X110.2Y-95.2
X111.4Y-94.2
X111.4Y-97.2
X112.0Y-83.6
X113.0Y-83.6
X115.702Y-84.4
X115.8Y-93.4
X116.0Y-89.8
X116.252Y-85.2
X116.85Y-85.8
X122.6Y-86.4
X123.2Y-88.2
X123.2Y-89.0
X124.2Y-90.4
X125.8Y-88.8
X128.6Y-90.4
T2
X90.36Y-54.1
X90.38Y-78.6
X92.6Y-50.0
X92.9Y-54.1
X92.92Y-78.6
X93.4Y-99.4
X93.4Y-101.94
X93.6Y-92.065
X93.6Y-94.605
X95.14Y-50.0
X95.44Y-54.1
X95.46Y-78.6
X97.98Y-54.1
X98.0Y-78.6
X100.52Y-54.1
X100.54Y-78.6
X103.06Y-54.1
X103.08Y-78.6
X105.6Y-54.1
X105.62Y-78.6
X108.135Y-49.0
X108.14Y-54.1
X108.16Y-78.6
X110.675Y-49.0
X110.68Y-54.1
X110.7Y-78.6
X113.22Y-54.1
X113.24Y-78.6
X115.76Y-54.1
X115.78Y-78.6
X118.3Y-54.1
X118.32Y-78.6
X120.84Y-54.1
X120.86Y-78.6
X123.38Y-54.1
X123.4Y-78.6
X125.92Y-54.1
X125.94Y-78.6
X128.46Y-54.1
X128.48Y-78.6
X131.0Y-54.1
X131.02Y-78.6
X131.725Y-102.4
X133.54Y-54.1
X133.56Y-78.6
X134.265Y-102.4
X136.08Y-54.1
X136.1Y-78.6
M30
