%TF.GenerationSoftware,KiCad,Pcbnew,9.0.6*%
%TF.CreationDate,2026-08-22T05:30:29-07:00*%
%TF.ProjectId,Liquorice_PCB,4c697175-6f72-4696-9365-5f5043422e6b,rev?*%
%TF.SameCoordinates,Original*%
%TF.FileFunction,Legend,Bot*%
%TF.FilePolarity,Positive*%
%FSLAX46Y46*%
G04 Gerber Fmt 4.6, Leading zero omitted, Abs format (unit mm)*
G04 Created by KiCad (PCBNEW 9.0.6) date 2026-08-22 05:30:29*
%MOMM*%
%LPD*%
G01*
G04 APERTURE LIST*
%ADD10C,1.500000*%
G04 APERTURE END LIST*
D10*
G36*
X135753244Y-66100000D02*
G01*
X139114026Y-66100000D01*
X139114026Y-59675436D01*
X137835170Y-59675436D01*
X137835170Y-65232449D01*
X135753244Y-65232449D01*
X135753244Y-66100000D01*
G37*
G36*
X133787578Y-61363642D02*
G01*
X135039078Y-61363642D01*
X135039078Y-60402302D01*
X133787578Y-60402302D01*
X133787578Y-61363642D01*
G37*
G36*
X133798324Y-66100000D02*
G01*
X135027843Y-66100000D01*
X135027843Y-61949825D01*
X133798324Y-61949825D01*
X133798324Y-66100000D01*
G37*
G36*
X132179370Y-61951290D02*
G01*
X132420882Y-62021028D01*
X132615700Y-62133374D01*
X132760457Y-62282528D01*
X132850953Y-62468012D01*
X132883391Y-62700139D01*
X132883391Y-65279344D01*
X132846365Y-65525416D01*
X132742541Y-65722470D01*
X132574668Y-65881646D01*
X132352759Y-65999902D01*
X132079720Y-66073655D01*
X131741311Y-66100000D01*
X130457082Y-66100000D01*
X130457082Y-67624075D01*
X129210955Y-67624075D01*
X129210955Y-62747034D01*
X130457082Y-62747034D01*
X130457082Y-65326238D01*
X131238171Y-65326238D01*
X131466287Y-65289839D01*
X131594409Y-65191034D01*
X131642637Y-65010799D01*
X131642637Y-63003122D01*
X131595985Y-62830349D01*
X131471638Y-62735280D01*
X131249406Y-62700139D01*
X130457082Y-62747034D01*
X129210955Y-62747034D01*
X129210955Y-61949825D01*
X130457082Y-61949825D01*
X130457082Y-62090509D01*
X131531851Y-61953247D01*
X131877598Y-61926378D01*
X132179370Y-61951290D01*
G37*
G36*
X124635798Y-66100000D02*
G01*
X125881437Y-66100000D01*
X125881437Y-65959316D01*
X126750453Y-66063363D01*
X127258518Y-66110069D01*
X127624842Y-66123447D01*
X127936017Y-66088569D01*
X128137868Y-65996051D01*
X128261694Y-65845909D01*
X128308234Y-65615300D01*
X128308234Y-61949825D01*
X127067480Y-61949825D01*
X127067480Y-65326238D01*
X125881437Y-65302791D01*
X125881437Y-61949825D01*
X124635798Y-61949825D01*
X124635798Y-66100000D01*
G37*
G36*
X123345960Y-61985206D02*
G01*
X123554172Y-62078547D01*
X123680847Y-62228782D01*
X123728192Y-62457972D01*
X123728192Y-65591852D01*
X123680847Y-65821043D01*
X123554172Y-65971278D01*
X123345960Y-66064618D01*
X123022818Y-66100000D01*
X120782623Y-66100000D01*
X120465604Y-66064874D01*
X120260642Y-65971951D01*
X120135420Y-65821763D01*
X120088485Y-65591852D01*
X120088485Y-65326238D01*
X121312630Y-65326238D01*
X122498185Y-65326238D01*
X122498185Y-62723586D01*
X121312630Y-62723586D01*
X121312630Y-65326238D01*
X120088485Y-65326238D01*
X120088485Y-62457972D01*
X120135420Y-62228062D01*
X120260642Y-62077874D01*
X120465604Y-61984951D01*
X120782623Y-61949825D01*
X123022818Y-61949825D01*
X123345960Y-61985206D01*
G37*
G36*
X115705791Y-63684926D02*
G01*
X116946545Y-63684926D01*
X116946545Y-62723586D01*
X117935728Y-62758757D01*
X117935728Y-66100000D01*
X119187229Y-66100000D01*
X119187229Y-61949825D01*
X117935728Y-61949825D01*
X117935728Y-62102233D01*
X117165386Y-61990858D01*
X116718212Y-61940804D01*
X116389183Y-61926378D01*
X116078008Y-61961256D01*
X115876156Y-62053774D01*
X115752331Y-62203916D01*
X115705791Y-62434525D01*
X115705791Y-63684926D01*
G37*
G36*
X113724493Y-61363642D02*
G01*
X114975993Y-61363642D01*
X114975993Y-60402302D01*
X113724493Y-60402302D01*
X113724493Y-61363642D01*
G37*
G36*
X113735240Y-66100000D02*
G01*
X114964758Y-66100000D01*
X114964758Y-61949825D01*
X113735240Y-61949825D01*
X113735240Y-66100000D01*
G37*
G36*
X109240683Y-65591852D02*
G01*
X109287619Y-65821763D01*
X109412841Y-65971951D01*
X109617803Y-66064874D01*
X109934821Y-66100000D01*
X112104186Y-66100000D01*
X112427328Y-66064618D01*
X112635540Y-65971278D01*
X112762214Y-65821043D01*
X112809559Y-65591852D01*
X112809559Y-62457972D01*
X112762214Y-62228782D01*
X112635540Y-62078547D01*
X112427328Y-61985206D01*
X112104186Y-61949825D01*
X109934821Y-61949825D01*
X109617803Y-61984951D01*
X109412841Y-62077874D01*
X109287619Y-62228062D01*
X109240683Y-62457972D01*
X109240683Y-63450453D01*
X110459455Y-63450453D01*
X110459455Y-62723586D01*
X111579552Y-62723586D01*
X111579552Y-65326238D01*
X110459455Y-65326238D01*
X110459455Y-64552477D01*
X109240683Y-64552477D01*
X109240683Y-65591852D01*
G37*
G36*
X107964523Y-61985206D02*
G01*
X108172734Y-62078547D01*
X108299409Y-62228782D01*
X108346754Y-62457972D01*
X108346754Y-65591852D01*
X108299409Y-65821043D01*
X108172734Y-65971278D01*
X107964523Y-66064618D01*
X107641381Y-66100000D01*
X105482762Y-66100000D01*
X105159887Y-66064629D01*
X104951817Y-65971307D01*
X104825205Y-65821074D01*
X104777878Y-65591852D01*
X104777878Y-64716608D01*
X105974668Y-64716608D01*
X105974668Y-65420027D01*
X107149964Y-65420027D01*
X107149964Y-64247662D01*
X105122260Y-64247662D01*
X104777878Y-63989741D01*
X104777878Y-63631071D01*
X105974668Y-63631071D01*
X107149964Y-63631071D01*
X107149964Y-62629797D01*
X105974668Y-62629797D01*
X105974668Y-63631071D01*
X104777878Y-63631071D01*
X104777878Y-62457972D01*
X104825205Y-62228751D01*
X104951817Y-62078518D01*
X105159887Y-61985195D01*
X105482762Y-61949825D01*
X107641381Y-61949825D01*
X107964523Y-61985206D01*
G37*
G36*
X96327075Y-66100000D02*
G01*
X97556594Y-66100000D01*
X97556594Y-62922889D01*
X97480390Y-62223133D01*
X98583879Y-65490369D01*
X99234542Y-65490369D01*
X100343893Y-62223133D01*
X100267201Y-62922889D01*
X100267201Y-66100000D01*
X101496719Y-66100000D01*
X101496719Y-59675436D01*
X100289183Y-59675436D01*
X98944870Y-63212683D01*
X98912141Y-63502843D01*
X98879413Y-63212683D01*
X97534612Y-59675436D01*
X96327075Y-59675436D01*
X96327075Y-66100000D01*
G37*
G36*
X90994765Y-66100000D02*
G01*
X92405023Y-66100000D01*
X94027773Y-63245289D01*
X94027773Y-66100000D01*
X95306628Y-66100000D01*
X95306628Y-59675436D01*
X94027773Y-59675436D01*
X94027773Y-62405216D01*
X92607257Y-59675436D01*
X91208234Y-59675436D01*
X91208234Y-59720498D01*
X92945777Y-62782205D01*
X90994765Y-66100000D01*
G37*
G36*
X88937752Y-66100000D02*
G01*
X90194626Y-66100000D01*
X90194626Y-61551221D01*
X90686531Y-61551221D01*
X90686531Y-61422260D01*
X90025610Y-59675436D01*
X88937752Y-59675436D01*
X88937752Y-66100000D01*
G37*
G36*
X113031332Y-69755436D02*
G01*
X114671178Y-76180000D01*
X115944172Y-76180000D01*
X117578157Y-69755436D01*
X116293928Y-69755436D01*
X115337473Y-74154371D01*
X115304744Y-74703918D01*
X115272016Y-74154371D01*
X114310187Y-69755436D01*
X113031332Y-69755436D01*
G37*
G36*
X110763293Y-76180000D02*
G01*
X112020166Y-76180000D01*
X112020166Y-71631221D01*
X112512071Y-71631221D01*
X112512071Y-71502260D01*
X111851150Y-69755436D01*
X110763293Y-69755436D01*
X110763293Y-76180000D01*
G37*
M02*
