%TF.GenerationSoftware,KiCad,Pcbnew,9.0.6*%
%TF.CreationDate,2026-08-22T05:30:29-07:00*%
%TF.ProjectId,Liquorice_PCB,4c697175-6f72-4696-9365-5f5043422e6b,rev?*%
%TF.SameCoordinates,Original*%
%TF.FileFunction,Soldermask,Bot*%
%TF.FilePolarity,Negative*%
%FSLAX46Y46*%
G04 Gerber Fmt 4.6, Leading zero omitted, Abs format (unit mm)*
G04 Created by KiCad (PCBNEW 9.0.6) date 2026-08-22 05:30:29*
%MOMM*%
%LPD*%
G01*
G04 APERTURE LIST*
%ADD10C,2.700000*%
%ADD11R,1.700000X1.700000*%
%ADD12C,1.700000*%
G04 APERTURE END LIST*
D10*
%TO.C,REF\u002A\u002A*%
X125000000Y-104000000D03*
%TD*%
%TO.C,REF\u002A\u002A*%
X100000000Y-104000000D03*
%TD*%
%TO.C,REF\u002A\u002A*%
X93000000Y-45000000D03*
%TD*%
%TO.C,REF\u002A\u002A*%
X134000000Y-45000000D03*
%TD*%
D11*
%TO.C,J5*%
X93400000Y-101940000D03*
D12*
X93400000Y-99400000D03*
%TD*%
D11*
%TO.C,J2*%
X95140000Y-50000000D03*
D12*
X92600000Y-50000000D03*
%TD*%
D11*
%TO.C,J3*%
X110675000Y-49000000D03*
D12*
X108135000Y-49000000D03*
%TD*%
D11*
%TO.C,J4*%
X93600000Y-92065000D03*
D12*
X93600000Y-94605000D03*
%TD*%
D11*
%TO.C,J1*%
X131725000Y-102400000D03*
D12*
X134265000Y-102400000D03*
%TD*%
D11*
%TO.C,J7*%
X90380000Y-78600000D03*
D12*
X92920000Y-78600000D03*
X95460000Y-78600000D03*
X98000000Y-78600000D03*
X100540000Y-78600000D03*
X103080000Y-78600000D03*
X105620000Y-78600000D03*
X108160000Y-78600000D03*
X110700000Y-78600000D03*
X113240000Y-78600000D03*
X115780000Y-78600000D03*
X118320000Y-78600000D03*
X120860000Y-78600000D03*
X123400000Y-78600000D03*
X125940000Y-78600000D03*
X128480000Y-78600000D03*
X131020000Y-78600000D03*
X133560000Y-78600000D03*
X136100000Y-78600000D03*
%TD*%
D11*
%TO.C,J6*%
X136080000Y-54100000D03*
D12*
X133540000Y-54100000D03*
X131000000Y-54100000D03*
X128460000Y-54100000D03*
X125920000Y-54100000D03*
X123380000Y-54100000D03*
X120840000Y-54100000D03*
X118300000Y-54100000D03*
X115760000Y-54100000D03*
X113220000Y-54100000D03*
X110680000Y-54100000D03*
X108140000Y-54100000D03*
X105600000Y-54100000D03*
X103060000Y-54100000D03*
X100520000Y-54100000D03*
X97980000Y-54100000D03*
X95440000Y-54100000D03*
X92900000Y-54100000D03*
X90360000Y-54100000D03*
%TD*%
M02*
