%TF.GenerationSoftware,KiCad,Pcbnew,9.0.6*%
%TF.CreationDate,2026-08-22T05:30:29-07:00*%
%TF.ProjectId,Liquorice_PCB,4c697175-6f72-4696-9365-5f5043422e6b,rev?*%
%TF.SameCoordinates,Original*%
%TF.FileFunction,Copper,L2,Bot*%
%TF.FilePolarity,Positive*%
%FSLAX46Y46*%
G04 Gerber Fmt 4.6, Leading zero omitted, Abs format (unit mm)*
G04 Created by KiCad (PCBNEW 9.0.6) date 2026-08-22 05:30:29*
%MOMM*%
%LPD*%
G01*
G04 APERTURE LIST*
%TA.AperFunction,ComponentPad*%
%ADD10R,1.700000X1.700000*%
%TD*%
%TA.AperFunction,ComponentPad*%
%ADD11C,1.700000*%
%TD*%
%TA.AperFunction,ViaPad*%
%ADD12C,0.500000*%
%TD*%
%TA.AperFunction,ViaPad*%
%ADD13C,0.600000*%
%TD*%
%TA.AperFunction,ViaPad*%
%ADD14C,0.700000*%
%TD*%
%TA.AperFunction,Conductor*%
%ADD15C,0.200000*%
%TD*%
%TA.AperFunction,Conductor*%
%ADD16C,0.400000*%
%TD*%
G04 APERTURE END LIST*
D10*
%TO.P,J5,1,Pin_1*%
%TO.N,Net-(J5-Pin_1)*%
X93400000Y-101940000D03*
D11*
%TO.P,J5,2,Pin_2*%
%TO.N,Net-(J5-Pin_2)*%
X93400000Y-99400000D03*
%TD*%
D10*
%TO.P,J2,1,Pin_1*%
%TO.N,Net-(J2-Pin_1)*%
X95140000Y-50000000D03*
D11*
%TO.P,J2,2,Pin_2*%
%TO.N,Net-(J2-Pin_2)*%
X92600000Y-50000000D03*
%TD*%
D10*
%TO.P,J3,1,Pin_1*%
%TO.N,Net-(J3-Pin_1)*%
X110675000Y-49000000D03*
D11*
%TO.P,J3,2,Pin_2*%
%TO.N,Net-(J3-Pin_2)*%
X108135000Y-49000000D03*
%TD*%
D10*
%TO.P,J4,1,Pin_1*%
%TO.N,Net-(J4-Pin_1)*%
X93600000Y-92065000D03*
D11*
%TO.P,J4,2,Pin_2*%
%TO.N,Net-(J4-Pin_2)*%
X93600000Y-94605000D03*
%TD*%
D10*
%TO.P,J1,1,Pin_1*%
%TO.N,GND*%
X131725000Y-102400000D03*
D11*
%TO.P,J1,2,Pin_2*%
%TO.N,VM*%
X134265000Y-102400000D03*
%TD*%
D10*
%TO.P,J7,1,Pin_1*%
%TO.N,+3.3V*%
X90380000Y-78600000D03*
D11*
%TO.P,J7,2,Pin_2*%
%TO.N,unconnected-(J7-Pin_2-Pad2)*%
X92920000Y-78600000D03*
%TO.P,J7,3,Pin_3*%
%TO.N,unconnected-(J7-Pin_3-Pad3)*%
X95460000Y-78600000D03*
%TO.P,J7,4,Pin_4*%
%TO.N,unconnected-(J7-Pin_4-Pad4)*%
X98000000Y-78600000D03*
%TO.P,J7,5,Pin_5*%
%TO.N,unconnected-(J7-Pin_5-Pad5)*%
X100540000Y-78600000D03*
%TO.P,J7,6,Pin_6*%
%TO.N,unconnected-(J7-Pin_6-Pad6)*%
X103080000Y-78600000D03*
%TO.P,J7,7,Pin_7*%
%TO.N,PWMB*%
X105620000Y-78600000D03*
%TO.P,J7,8,Pin_8*%
%TO.N,BIN2*%
X108160000Y-78600000D03*
%TO.P,J7,9,Pin_9*%
%TO.N,SCK*%
X110700000Y-78600000D03*
%TO.P,J7,10,Pin_10*%
%TO.N,MOSI*%
X113240000Y-78600000D03*
%TO.P,J7,11,Pin_11*%
%TO.N,MISO*%
X115780000Y-78600000D03*
%TO.P,J7,12,Pin_12*%
%TO.N,PWMA*%
X118320000Y-78600000D03*
%TO.P,J7,13,Pin_13*%
%TO.N,AIN1*%
X120860000Y-78600000D03*
%TO.P,J7,14,Pin_14*%
%TO.N,GND*%
X123400000Y-78600000D03*
%TO.P,J7,15,Pin_15*%
%TO.N,BIN1*%
X125940000Y-78600000D03*
%TO.P,J7,16,Pin_16*%
%TO.N,unconnected-(J7-Pin_16-Pad16)*%
X128480000Y-78600000D03*
%TO.P,J7,17,Pin_17*%
%TO.N,unconnected-(J7-Pin_17-Pad17)*%
X131020000Y-78600000D03*
%TO.P,J7,18,Pin_18*%
%TO.N,unconnected-(J7-Pin_18-Pad18)*%
X133560000Y-78600000D03*
%TO.P,J7,19,Pin_19*%
%TO.N,VM*%
X136100000Y-78600000D03*
%TD*%
D10*
%TO.P,J6,1,Pin_1*%
%TO.N,unconnected-(J6-Pin_1-Pad1)*%
X136080000Y-54100000D03*
D11*
%TO.P,J6,2,Pin_2*%
%TO.N,unconnected-(J6-Pin_2-Pad2)*%
X133540000Y-54100000D03*
%TO.P,J6,3,Pin_3*%
%TO.N,unconnected-(J6-Pin_3-Pad3)*%
X131000000Y-54100000D03*
%TO.P,J6,4,Pin_4*%
%TO.N,AIN2*%
X128460000Y-54100000D03*
%TO.P,J6,5,Pin_5*%
%TO.N,unconnected-(J6-Pin_5-Pad5)*%
X125920000Y-54100000D03*
%TO.P,J6,6,Pin_6*%
%TO.N,unconnected-(J6-Pin_6-Pad6)*%
X123380000Y-54100000D03*
%TO.P,J6,7,Pin_7*%
%TO.N,CS*%
X120840000Y-54100000D03*
%TO.P,J6,8,Pin_8*%
%TO.N,unconnected-(J6-Pin_8-Pad8)*%
X118300000Y-54100000D03*
%TO.P,J6,9,Pin_9*%
%TO.N,unconnected-(J6-Pin_9-Pad9)*%
X115760000Y-54100000D03*
%TO.P,J6,10,Pin_10*%
%TO.N,unconnected-(J6-Pin_10-Pad10)*%
X113220000Y-54100000D03*
%TO.P,J6,11,Pin_11*%
%TO.N,Net-(J3-Pin_1)*%
X110680000Y-54100000D03*
%TO.P,J6,12,Pin_12*%
%TO.N,Net-(J3-Pin_2)*%
X108140000Y-54100000D03*
%TO.P,J6,13,Pin_13*%
%TO.N,GND*%
X105600000Y-54100000D03*
%TO.P,J6,14,Pin_14*%
%TO.N,unconnected-(J6-Pin_14-Pad14)*%
X103060000Y-54100000D03*
%TO.P,J6,15,Pin_15*%
%TO.N,unconnected-(J6-Pin_15-Pad15)*%
X100520000Y-54100000D03*
%TO.P,J6,16,Pin_16*%
%TO.N,unconnected-(J6-Pin_16-Pad16)*%
X97980000Y-54100000D03*
%TO.P,J6,17,Pin_17*%
%TO.N,Net-(J2-Pin_1)*%
X95440000Y-54100000D03*
%TO.P,J6,18,Pin_18*%
%TO.N,Net-(J2-Pin_2)*%
X92900000Y-54100000D03*
%TO.P,J6,19,Pin_19*%
%TO.N,GND*%
X90360000Y-54100000D03*
%TD*%
D12*
%TO.N,GND*%
X110200000Y-95200000D03*
X123200000Y-89000000D03*
X125800000Y-88800000D03*
D13*
X124200000Y-90400000D03*
D12*
X111400000Y-97200000D03*
X105800000Y-85800000D03*
X123200000Y-88200000D03*
X109400000Y-97000000D03*
X113000000Y-83600000D03*
X104600000Y-85800000D03*
X109232500Y-94200000D03*
X111400000Y-94200000D03*
X112000000Y-83600000D03*
D13*
%TO.N,+3.3V*%
X122600000Y-86400000D03*
D14*
%TO.N,VM*%
X104600000Y-96200000D03*
X115800000Y-93400000D03*
X105400000Y-92800000D03*
D13*
%TO.N,CS*%
X128600000Y-90400000D03*
D12*
%TO.N,AIN2*%
X116000000Y-89800000D03*
%TO.N,BIN1*%
X115702000Y-84400000D03*
%TO.N,PWMB*%
X104600000Y-82800000D03*
%TO.N,AIN1*%
X116252000Y-85200000D03*
%TO.N,PWMA*%
X116850000Y-85800000D03*
%TO.N,BIN2*%
X106200000Y-82250000D03*
%TD*%
D15*
%TO.N,+3.3V*%
X98180000Y-86400000D02*
X90380000Y-78600000D01*
X122600000Y-86400000D02*
X98180000Y-86400000D01*
D16*
%TO.N,VM*%
X128065000Y-96200000D02*
X134265000Y-102400000D01*
X104600000Y-96200000D02*
X128065000Y-96200000D01*
X115800000Y-93400000D02*
X106000000Y-93400000D01*
X106000000Y-93400000D02*
X105400000Y-92800000D01*
D15*
%TO.N,CS*%
X128600000Y-90400000D02*
X127091000Y-88891000D01*
X127091000Y-60351000D02*
X120840000Y-54100000D01*
X127091000Y-88891000D02*
X127091000Y-60351000D01*
%TO.N,AIN2*%
X117201000Y-91001000D02*
X128848943Y-91001000D01*
X128848943Y-91001000D02*
X132389000Y-87460943D01*
X132389000Y-58029000D02*
X128460000Y-54100000D01*
X116000000Y-89800000D02*
X117201000Y-91001000D01*
X132389000Y-87460943D02*
X132389000Y-58029000D01*
%TO.N,BIN1*%
X121940000Y-82600000D02*
X125940000Y-78600000D01*
X115702000Y-84400000D02*
X117502000Y-82600000D01*
X117502000Y-82600000D02*
X121940000Y-82600000D01*
%TO.N,PWMB*%
X104600000Y-79620000D02*
X105620000Y-78600000D01*
X104600000Y-82800000D02*
X104600000Y-79620000D01*
%TO.N,AIN1*%
X115722768Y-85200000D02*
X115151000Y-84628232D01*
X115151000Y-84628232D02*
X115151000Y-84171768D01*
X120722768Y-78600000D02*
X120860000Y-78600000D01*
X116252000Y-85200000D02*
X115722768Y-85200000D01*
X115151000Y-84171768D02*
X120722768Y-78600000D01*
%TO.N,PWMA*%
X114750000Y-82170000D02*
X118320000Y-78600000D01*
X114750000Y-84794332D02*
X114750000Y-82170000D01*
X116850000Y-85800000D02*
X115755668Y-85800000D01*
X115755668Y-85800000D02*
X114750000Y-84794332D01*
%TO.N,BIN2*%
X106200000Y-82250000D02*
X106200000Y-80560000D01*
X106200000Y-80560000D02*
X108160000Y-78600000D01*
%TD*%
%TA.AperFunction,Conductor*%
%TO.N,GND*%
G36*
X139442539Y-41520185D02*
G01*
X139488294Y-41572989D01*
X139499500Y-41624500D01*
X139499500Y-106975500D01*
X139479815Y-107042539D01*
X139427011Y-107088294D01*
X139375500Y-107099500D01*
X87624500Y-107099500D01*
X87557461Y-107079815D01*
X87511706Y-107027011D01*
X87500500Y-106975500D01*
X87500500Y-103874038D01*
X98399500Y-103874038D01*
X98399500Y-104125961D01*
X98438910Y-104374785D01*
X98516760Y-104614383D01*
X98631132Y-104838848D01*
X98779201Y-105042649D01*
X98779205Y-105042654D01*
X98957345Y-105220794D01*
X98957350Y-105220798D01*
X99135117Y-105349952D01*
X99161155Y-105368870D01*
X99304184Y-105441747D01*
X99385616Y-105483239D01*
X99385618Y-105483239D01*
X99385621Y-105483241D01*
X99625215Y-105561090D01*
X99874038Y-105600500D01*
X99874039Y-105600500D01*
X100125961Y-105600500D01*
X100125962Y-105600500D01*
X100374785Y-105561090D01*
X100614379Y-105483241D01*
X100838845Y-105368870D01*
X101042656Y-105220793D01*
X101220793Y-105042656D01*
X101368870Y-104838845D01*
X101483241Y-104614379D01*
X101561090Y-104374785D01*
X101600500Y-104125962D01*
X101600500Y-103874038D01*
X123399500Y-103874038D01*
X123399500Y-104125961D01*
X123438910Y-104374785D01*
X123516760Y-104614383D01*
X123631132Y-104838848D01*
X123779201Y-105042649D01*
X123779205Y-105042654D01*
X123957345Y-105220794D01*
X123957350Y-105220798D01*
X124135117Y-105349952D01*
X124161155Y-105368870D01*
X124304184Y-105441747D01*
X124385616Y-105483239D01*
X124385618Y-105483239D01*
X124385621Y-105483241D01*
X124625215Y-105561090D01*
X124874038Y-105600500D01*
X124874039Y-105600500D01*
X125125961Y-105600500D01*
X125125962Y-105600500D01*
X125374785Y-105561090D01*
X125614379Y-105483241D01*
X125838845Y-105368870D01*
X126042656Y-105220793D01*
X126220793Y-105042656D01*
X126368870Y-104838845D01*
X126483241Y-104614379D01*
X126561090Y-104374785D01*
X126600500Y-104125962D01*
X126600500Y-103874038D01*
X126561090Y-103625215D01*
X126483241Y-103385621D01*
X126483239Y-103385618D01*
X126483239Y-103385616D01*
X126396802Y-103215975D01*
X126368870Y-103161155D01*
X126302392Y-103069655D01*
X126220798Y-102957350D01*
X126220794Y-102957345D01*
X126042654Y-102779205D01*
X126042649Y-102779201D01*
X125838848Y-102631132D01*
X125838847Y-102631131D01*
X125838845Y-102631130D01*
X125768747Y-102595413D01*
X125614383Y-102516760D01*
X125374785Y-102438910D01*
X125125962Y-102399500D01*
X124874038Y-102399500D01*
X124749626Y-102419205D01*
X124625214Y-102438910D01*
X124385616Y-102516760D01*
X124161151Y-102631132D01*
X123957350Y-102779201D01*
X123957345Y-102779205D01*
X123779205Y-102957345D01*
X123779201Y-102957350D01*
X123631132Y-103161151D01*
X123516760Y-103385616D01*
X123438910Y-103625214D01*
X123399500Y-103874038D01*
X101600500Y-103874038D01*
X101561090Y-103625215D01*
X101483241Y-103385621D01*
X101483239Y-103385618D01*
X101483239Y-103385616D01*
X101396802Y-103215975D01*
X101368870Y-103161155D01*
X101302392Y-103069655D01*
X101220798Y-102957350D01*
X101220794Y-102957345D01*
X101042654Y-102779205D01*
X101042649Y-102779201D01*
X100838848Y-102631132D01*
X100838847Y-102631131D01*
X100838845Y-102631130D01*
X100768747Y-102595413D01*
X100614383Y-102516760D01*
X100374785Y-102438910D01*
X100125962Y-102399500D01*
X99874038Y-102399500D01*
X99749626Y-102419205D01*
X99625214Y-102438910D01*
X99385616Y-102516760D01*
X99161151Y-102631132D01*
X98957350Y-102779201D01*
X98957345Y-102779205D01*
X98779205Y-102957345D01*
X98779201Y-102957350D01*
X98631132Y-103161151D01*
X98516760Y-103385616D01*
X98438910Y-103625214D01*
X98399500Y-103874038D01*
X87500500Y-103874038D01*
X87500500Y-101070247D01*
X92349500Y-101070247D01*
X92349500Y-102809752D01*
X92361131Y-102868229D01*
X92361132Y-102868230D01*
X92405447Y-102934552D01*
X92471769Y-102978867D01*
X92471770Y-102978868D01*
X92530247Y-102990499D01*
X92530250Y-102990500D01*
X92530252Y-102990500D01*
X94269750Y-102990500D01*
X94269751Y-102990499D01*
X94284568Y-102987552D01*
X94328229Y-102978868D01*
X94328229Y-102978867D01*
X94328231Y-102978867D01*
X94394552Y-102934552D01*
X94438867Y-102868231D01*
X94438867Y-102868229D01*
X94438868Y-102868229D01*
X94450499Y-102809752D01*
X94450500Y-102809750D01*
X94450500Y-101070249D01*
X94450499Y-101070247D01*
X94438868Y-101011770D01*
X94438867Y-101011769D01*
X94394552Y-100945447D01*
X94328230Y-100901132D01*
X94328229Y-100901131D01*
X94269752Y-100889500D01*
X94269748Y-100889500D01*
X92530252Y-100889500D01*
X92530247Y-100889500D01*
X92471770Y-100901131D01*
X92471769Y-100901132D01*
X92405447Y-100945447D01*
X92361132Y-101011769D01*
X92361131Y-101011770D01*
X92349500Y-101070247D01*
X87500500Y-101070247D01*
X87500500Y-99296530D01*
X92349500Y-99296530D01*
X92349500Y-99503469D01*
X92389868Y-99706412D01*
X92389870Y-99706420D01*
X92469058Y-99897596D01*
X92584024Y-100069657D01*
X92730342Y-100215975D01*
X92730345Y-100215977D01*
X92902402Y-100330941D01*
X93093580Y-100410130D01*
X93296530Y-100450499D01*
X93296534Y-100450500D01*
X93296535Y-100450500D01*
X93503466Y-100450500D01*
X93503467Y-100450499D01*
X93706420Y-100410130D01*
X93897598Y-100330941D01*
X94069655Y-100215977D01*
X94215977Y-100069655D01*
X94330941Y-99897598D01*
X94410130Y-99706420D01*
X94450500Y-99503465D01*
X94450500Y-99296535D01*
X94410130Y-99093580D01*
X94330941Y-98902402D01*
X94215977Y-98730345D01*
X94215975Y-98730342D01*
X94069657Y-98584024D01*
X93983626Y-98526541D01*
X93897598Y-98469059D01*
X93706420Y-98389870D01*
X93706412Y-98389868D01*
X93503469Y-98349500D01*
X93503465Y-98349500D01*
X93296535Y-98349500D01*
X93296530Y-98349500D01*
X93093587Y-98389868D01*
X93093579Y-98389870D01*
X92902403Y-98469058D01*
X92730342Y-98584024D01*
X92584024Y-98730342D01*
X92469058Y-98902403D01*
X92389870Y-99093579D01*
X92389868Y-99093587D01*
X92349500Y-99296530D01*
X87500500Y-99296530D01*
X87500500Y-96127525D01*
X104049500Y-96127525D01*
X104049500Y-96272475D01*
X104087016Y-96412485D01*
X104087017Y-96412488D01*
X104159488Y-96538011D01*
X104159490Y-96538013D01*
X104159491Y-96538015D01*
X104261985Y-96640509D01*
X104261986Y-96640510D01*
X104261988Y-96640511D01*
X104387511Y-96712982D01*
X104387512Y-96712982D01*
X104387515Y-96712984D01*
X104527525Y-96750500D01*
X104527528Y-96750500D01*
X104672472Y-96750500D01*
X104672475Y-96750500D01*
X104812485Y-96712984D01*
X104938015Y-96640509D01*
X104941705Y-96636819D01*
X105003028Y-96603334D01*
X105029386Y-96600500D01*
X127847745Y-96600500D01*
X127914784Y-96620185D01*
X127935426Y-96636819D01*
X133236502Y-101937895D01*
X133269987Y-101999218D01*
X133265003Y-102068910D01*
X133263384Y-102073025D01*
X133254871Y-102093579D01*
X133254869Y-102093583D01*
X133254867Y-102093587D01*
X133214500Y-102296530D01*
X133214500Y-102503469D01*
X133254868Y-102706412D01*
X133254870Y-102706420D01*
X133285019Y-102779207D01*
X133334059Y-102897598D01*
X133391541Y-102983626D01*
X133449024Y-103069657D01*
X133595342Y-103215975D01*
X133595345Y-103215977D01*
X133767402Y-103330941D01*
X133958580Y-103410130D01*
X134161530Y-103450499D01*
X134161534Y-103450500D01*
X134161535Y-103450500D01*
X134368466Y-103450500D01*
X134368467Y-103450499D01*
X134571420Y-103410130D01*
X134762598Y-103330941D01*
X134934655Y-103215977D01*
X135080977Y-103069655D01*
X135195941Y-102897598D01*
X135275130Y-102706420D01*
X135315500Y-102503465D01*
X135315500Y-102296535D01*
X135275130Y-102093580D01*
X135195941Y-101902402D01*
X135080977Y-101730345D01*
X135080975Y-101730342D01*
X134934657Y-101584024D01*
X134848626Y-101526541D01*
X134762598Y-101469059D01*
X134591974Y-101398384D01*
X134571420Y-101389870D01*
X134571412Y-101389868D01*
X134368469Y-101349500D01*
X134368465Y-101349500D01*
X134161535Y-101349500D01*
X134161530Y-101349500D01*
X133958587Y-101389867D01*
X133958583Y-101389869D01*
X133958581Y-101389869D01*
X133958580Y-101389870D01*
X133943786Y-101395997D01*
X133938025Y-101398384D01*
X133868555Y-101405850D01*
X133806077Y-101374573D01*
X133802895Y-101371502D01*
X128310915Y-95879522D01*
X128310913Y-95879520D01*
X128265250Y-95853156D01*
X128219589Y-95826793D01*
X128168657Y-95813146D01*
X128117727Y-95799500D01*
X128117726Y-95799500D01*
X105029386Y-95799500D01*
X104962347Y-95779815D01*
X104941705Y-95763181D01*
X104938017Y-95759493D01*
X104938011Y-95759488D01*
X104812488Y-95687017D01*
X104812489Y-95687017D01*
X104801006Y-95683940D01*
X104672475Y-95649500D01*
X104527525Y-95649500D01*
X104398993Y-95683940D01*
X104387511Y-95687017D01*
X104261988Y-95759488D01*
X104261982Y-95759493D01*
X104159493Y-95861982D01*
X104159488Y-95861988D01*
X104087017Y-95987511D01*
X104087016Y-95987515D01*
X104049500Y-96127525D01*
X87500500Y-96127525D01*
X87500500Y-94501530D01*
X92549500Y-94501530D01*
X92549500Y-94708469D01*
X92589868Y-94911412D01*
X92589870Y-94911420D01*
X92669058Y-95102596D01*
X92784024Y-95274657D01*
X92930342Y-95420975D01*
X92930345Y-95420977D01*
X93102402Y-95535941D01*
X93293580Y-95615130D01*
X93466371Y-95649500D01*
X93496530Y-95655499D01*
X93496534Y-95655500D01*
X93496535Y-95655500D01*
X93703466Y-95655500D01*
X93703467Y-95655499D01*
X93906420Y-95615130D01*
X94097598Y-95535941D01*
X94269655Y-95420977D01*
X94415977Y-95274655D01*
X94530941Y-95102598D01*
X94610130Y-94911420D01*
X94650500Y-94708465D01*
X94650500Y-94501535D01*
X94610130Y-94298580D01*
X94530941Y-94107402D01*
X94415977Y-93935345D01*
X94415975Y-93935342D01*
X94269657Y-93789024D01*
X94167068Y-93720477D01*
X94097598Y-93674059D01*
X93906420Y-93594870D01*
X93906412Y-93594868D01*
X93703469Y-93554500D01*
X93703465Y-93554500D01*
X93496535Y-93554500D01*
X93496530Y-93554500D01*
X93293587Y-93594868D01*
X93293579Y-93594870D01*
X93102403Y-93674058D01*
X92930342Y-93789024D01*
X92784024Y-93935342D01*
X92669058Y-94107403D01*
X92589870Y-94298579D01*
X92589868Y-94298587D01*
X92549500Y-94501530D01*
X87500500Y-94501530D01*
X87500500Y-91195247D01*
X92549500Y-91195247D01*
X92549500Y-92934752D01*
X92561131Y-92993229D01*
X92561132Y-92993230D01*
X92605447Y-93059552D01*
X92671769Y-93103867D01*
X92671770Y-93103868D01*
X92730247Y-93115499D01*
X92730250Y-93115500D01*
X92730252Y-93115500D01*
X94469750Y-93115500D01*
X94469751Y-93115499D01*
X94484568Y-93112552D01*
X94528229Y-93103868D01*
X94528229Y-93103867D01*
X94528231Y-93103867D01*
X94594552Y-93059552D01*
X94638867Y-92993231D01*
X94638867Y-92993229D01*
X94638868Y-92993229D01*
X94650499Y-92934752D01*
X94650500Y-92934750D01*
X94650500Y-92727525D01*
X104849500Y-92727525D01*
X104849500Y-92872475D01*
X104883537Y-92999500D01*
X104887017Y-93012488D01*
X104959488Y-93138011D01*
X104959490Y-93138013D01*
X104959491Y-93138015D01*
X105061985Y-93240509D01*
X105061986Y-93240510D01*
X105061988Y-93240511D01*
X105187511Y-93312982D01*
X105187512Y-93312982D01*
X105187515Y-93312984D01*
X105327525Y-93350500D01*
X105332745Y-93350500D01*
X105399784Y-93370185D01*
X105420426Y-93386819D01*
X105754087Y-93720480D01*
X105845412Y-93773207D01*
X105947273Y-93800500D01*
X106052727Y-93800500D01*
X115370614Y-93800500D01*
X115437653Y-93820185D01*
X115458295Y-93836819D01*
X115461985Y-93840509D01*
X115461986Y-93840510D01*
X115461988Y-93840511D01*
X115587511Y-93912982D01*
X115587512Y-93912982D01*
X115587515Y-93912984D01*
X115727525Y-93950500D01*
X115727528Y-93950500D01*
X115872472Y-93950500D01*
X115872475Y-93950500D01*
X116012485Y-93912984D01*
X116138015Y-93840509D01*
X116240509Y-93738015D01*
X116312984Y-93612485D01*
X116350500Y-93472475D01*
X116350500Y-93327525D01*
X116312984Y-93187515D01*
X116284406Y-93138017D01*
X116240511Y-93061988D01*
X116240506Y-93061982D01*
X116138017Y-92959493D01*
X116138011Y-92959488D01*
X116012488Y-92887017D01*
X116012489Y-92887017D01*
X116001006Y-92883940D01*
X115872475Y-92849500D01*
X115727525Y-92849500D01*
X115598993Y-92883940D01*
X115587511Y-92887017D01*
X115461988Y-92959488D01*
X115461982Y-92959493D01*
X115458295Y-92963181D01*
X115396972Y-92996666D01*
X115370614Y-92999500D01*
X106217255Y-92999500D01*
X106187814Y-92990855D01*
X106157828Y-92984332D01*
X106152812Y-92980577D01*
X106150216Y-92979815D01*
X106129574Y-92963181D01*
X105986819Y-92820426D01*
X105953334Y-92759103D01*
X105950500Y-92732745D01*
X105950500Y-92727527D01*
X105950500Y-92727525D01*
X105912984Y-92587515D01*
X105840509Y-92461985D01*
X105738015Y-92359491D01*
X105738013Y-92359490D01*
X105738011Y-92359488D01*
X105612488Y-92287017D01*
X105612489Y-92287017D01*
X105601006Y-92283940D01*
X105472475Y-92249500D01*
X105327525Y-92249500D01*
X105198993Y-92283940D01*
X105187511Y-92287017D01*
X105061988Y-92359488D01*
X105061982Y-92359493D01*
X104959493Y-92461982D01*
X104959488Y-92461988D01*
X104887017Y-92587511D01*
X104887016Y-92587515D01*
X104849500Y-92727525D01*
X94650500Y-92727525D01*
X94650500Y-91195249D01*
X94650499Y-91195247D01*
X94638868Y-91136770D01*
X94638867Y-91136769D01*
X94594552Y-91070447D01*
X94528230Y-91026132D01*
X94528229Y-91026131D01*
X94469752Y-91014500D01*
X94469748Y-91014500D01*
X92730252Y-91014500D01*
X92730247Y-91014500D01*
X92671770Y-91026131D01*
X92671769Y-91026132D01*
X92605447Y-91070447D01*
X92561132Y-91136769D01*
X92561131Y-91136770D01*
X92549500Y-91195247D01*
X87500500Y-91195247D01*
X87500500Y-77730247D01*
X89329500Y-77730247D01*
X89329500Y-79469752D01*
X89341131Y-79528229D01*
X89341132Y-79528230D01*
X89385447Y-79594552D01*
X89451769Y-79638867D01*
X89451770Y-79638868D01*
X89510247Y-79650499D01*
X89510250Y-79650500D01*
X89510252Y-79650500D01*
X90954167Y-79650500D01*
X91021206Y-79670185D01*
X91041848Y-79686819D01*
X97995489Y-86640460D01*
X98064012Y-86680022D01*
X98140438Y-86700500D01*
X122141324Y-86700500D01*
X122208363Y-86720185D01*
X122229005Y-86736819D01*
X122292686Y-86800500D01*
X122406814Y-86866392D01*
X122534108Y-86900500D01*
X122534110Y-86900500D01*
X122665890Y-86900500D01*
X122665892Y-86900500D01*
X122793186Y-86866392D01*
X122907314Y-86800500D01*
X123000500Y-86707314D01*
X123066392Y-86593186D01*
X123100500Y-86465892D01*
X123100500Y-86334108D01*
X123066392Y-86206814D01*
X123000500Y-86092686D01*
X122907314Y-85999500D01*
X122850250Y-85966554D01*
X122793187Y-85933608D01*
X122729539Y-85916554D01*
X122665892Y-85899500D01*
X122534108Y-85899500D01*
X122406812Y-85933608D01*
X122292686Y-85999500D01*
X122292683Y-85999502D01*
X122229005Y-86063181D01*
X122167682Y-86096666D01*
X122141324Y-86099500D01*
X117397741Y-86099500D01*
X117330702Y-86079815D01*
X117284947Y-86027011D01*
X117275003Y-85957853D01*
X117277966Y-85943407D01*
X117280021Y-85935736D01*
X117300500Y-85859309D01*
X117300500Y-85740691D01*
X117269799Y-85626114D01*
X117210489Y-85523387D01*
X117126613Y-85439511D01*
X117023886Y-85380201D01*
X116909309Y-85349500D01*
X116826500Y-85349500D01*
X116759461Y-85329815D01*
X116713706Y-85277011D01*
X116702500Y-85225500D01*
X116702500Y-85140693D01*
X116702500Y-85140691D01*
X116671799Y-85026114D01*
X116612489Y-84923387D01*
X116528613Y-84839511D01*
X116425886Y-84780201D01*
X116311309Y-84749500D01*
X116234637Y-84749500D01*
X116167598Y-84729815D01*
X116121843Y-84677011D01*
X116111899Y-84607853D01*
X116113276Y-84600055D01*
X116117031Y-84582143D01*
X116121799Y-84573886D01*
X116152500Y-84459309D01*
X116152500Y-84412974D01*
X116155139Y-84400388D01*
X116165819Y-84380473D01*
X116172185Y-84358794D01*
X116187913Y-84339276D01*
X116188161Y-84338814D01*
X116188386Y-84338688D01*
X116188819Y-84338152D01*
X117590152Y-82936819D01*
X117651475Y-82903334D01*
X117677833Y-82900500D01*
X121979560Y-82900500D01*
X121979562Y-82900500D01*
X122055989Y-82880021D01*
X122124511Y-82840460D01*
X122180460Y-82784511D01*
X125377896Y-79587073D01*
X125439217Y-79553590D01*
X125508909Y-79558574D01*
X125513007Y-79560186D01*
X125633580Y-79610130D01*
X125778052Y-79638867D01*
X125836530Y-79650499D01*
X125836534Y-79650500D01*
X125836535Y-79650500D01*
X126043466Y-79650500D01*
X126043467Y-79650499D01*
X126246420Y-79610130D01*
X126437598Y-79530941D01*
X126437599Y-79530940D01*
X126437600Y-79530940D01*
X126597610Y-79424026D01*
X126664287Y-79403148D01*
X126731667Y-79421633D01*
X126778357Y-79473612D01*
X126790500Y-79527128D01*
X126790500Y-88930562D01*
X126804152Y-88981513D01*
X126810979Y-89006990D01*
X126810982Y-89006995D01*
X126850535Y-89075504D01*
X126850541Y-89075512D01*
X128063181Y-90288152D01*
X128074297Y-90308510D01*
X128089182Y-90326310D01*
X128092368Y-90341605D01*
X128096666Y-90349475D01*
X128098529Y-90360344D01*
X128099500Y-90368056D01*
X128099500Y-90465892D01*
X128122733Y-90552599D01*
X128123792Y-90561011D01*
X128119512Y-90587464D01*
X128118875Y-90614257D01*
X128114018Y-90621432D01*
X128112635Y-90629984D01*
X128094733Y-90649924D01*
X128079712Y-90672119D01*
X128071748Y-90675529D01*
X128065960Y-90681977D01*
X128040116Y-90689074D01*
X128015484Y-90699623D01*
X128000763Y-90700500D01*
X117376833Y-90700500D01*
X117309794Y-90680815D01*
X117289152Y-90664181D01*
X116486819Y-89861848D01*
X116453334Y-89800525D01*
X116450500Y-89774167D01*
X116450500Y-89740693D01*
X116450500Y-89740691D01*
X116419799Y-89626114D01*
X116360489Y-89523387D01*
X116276613Y-89439511D01*
X116173886Y-89380201D01*
X116059309Y-89349500D01*
X115940691Y-89349500D01*
X115826114Y-89380201D01*
X115826112Y-89380201D01*
X115826112Y-89380202D01*
X115723387Y-89439511D01*
X115723384Y-89439513D01*
X115639513Y-89523384D01*
X115639511Y-89523387D01*
X115580201Y-89626114D01*
X115549500Y-89740691D01*
X115549500Y-89859309D01*
X115580201Y-89973886D01*
X115639511Y-90076613D01*
X115723387Y-90160489D01*
X115826114Y-90219799D01*
X115940691Y-90250500D01*
X115974167Y-90250500D01*
X116041206Y-90270185D01*
X116061848Y-90286819D01*
X116960540Y-91185511D01*
X117016489Y-91241460D01*
X117016491Y-91241461D01*
X117016495Y-91241464D01*
X117085004Y-91281017D01*
X117085011Y-91281021D01*
X117161438Y-91301500D01*
X117161440Y-91301500D01*
X128888503Y-91301500D01*
X128888505Y-91301500D01*
X128964932Y-91281021D01*
X129033454Y-91241460D01*
X129089403Y-91185511D01*
X132629460Y-87645454D01*
X132669022Y-87576931D01*
X132689500Y-87500505D01*
X132689500Y-87421381D01*
X132689500Y-79513324D01*
X132709185Y-79446285D01*
X132761989Y-79400530D01*
X132831147Y-79390586D01*
X132884326Y-79414017D01*
X132885279Y-79412592D01*
X132890344Y-79415976D01*
X132890345Y-79415977D01*
X133062402Y-79530941D01*
X133253580Y-79610130D01*
X133398052Y-79638867D01*
X133456530Y-79650499D01*
X133456534Y-79650500D01*
X133456535Y-79650500D01*
X133663466Y-79650500D01*
X133663467Y-79650499D01*
X133866420Y-79610130D01*
X134057598Y-79530941D01*
X134229655Y-79415977D01*
X134375977Y-79269655D01*
X134490941Y-79097598D01*
X134570130Y-78906420D01*
X134610500Y-78703465D01*
X134610500Y-78496535D01*
X134610499Y-78496530D01*
X135049500Y-78496530D01*
X135049500Y-78703469D01*
X135089868Y-78906412D01*
X135089870Y-78906420D01*
X135169058Y-79097596D01*
X135284024Y-79269657D01*
X135430342Y-79415975D01*
X135430345Y-79415977D01*
X135602402Y-79530941D01*
X135793580Y-79610130D01*
X135938052Y-79638867D01*
X135996530Y-79650499D01*
X135996534Y-79650500D01*
X135996535Y-79650500D01*
X136203466Y-79650500D01*
X136203467Y-79650499D01*
X136406420Y-79610130D01*
X136597598Y-79530941D01*
X136769655Y-79415977D01*
X136915977Y-79269655D01*
X137030941Y-79097598D01*
X137110130Y-78906420D01*
X137150500Y-78703465D01*
X137150500Y-78496535D01*
X137110130Y-78293580D01*
X137030941Y-78102402D01*
X136915977Y-77930345D01*
X136915976Y-77930344D01*
X136915975Y-77930342D01*
X136769657Y-77784024D01*
X136601655Y-77671770D01*
X136597598Y-77669059D01*
X136406420Y-77589870D01*
X136406412Y-77589868D01*
X136203469Y-77549500D01*
X136203465Y-77549500D01*
X135996535Y-77549500D01*
X135996530Y-77549500D01*
X135793587Y-77589868D01*
X135793579Y-77589870D01*
X135602403Y-77669058D01*
X135430342Y-77784024D01*
X135284024Y-77930342D01*
X135169058Y-78102403D01*
X135089870Y-78293579D01*
X135089868Y-78293587D01*
X135049500Y-78496530D01*
X134610499Y-78496530D01*
X134570130Y-78293580D01*
X134490941Y-78102402D01*
X134375977Y-77930345D01*
X134375976Y-77930344D01*
X134375975Y-77930342D01*
X134229657Y-77784024D01*
X134061655Y-77671770D01*
X134057598Y-77669059D01*
X133866420Y-77589870D01*
X133866412Y-77589868D01*
X133663469Y-77549500D01*
X133663465Y-77549500D01*
X133456535Y-77549500D01*
X133456530Y-77549500D01*
X133253587Y-77589868D01*
X133253579Y-77589870D01*
X133062403Y-77669058D01*
X132885279Y-77787408D01*
X132884264Y-77785889D01*
X132827831Y-77809844D01*
X132758966Y-77798039D01*
X132707415Y-77750877D01*
X132689500Y-77686675D01*
X132689500Y-57989439D01*
X132669020Y-57913009D01*
X132669017Y-57913004D01*
X132629464Y-57844495D01*
X132629458Y-57844487D01*
X129447075Y-54662104D01*
X129413590Y-54600781D01*
X129418574Y-54531089D01*
X129420163Y-54527049D01*
X129470130Y-54406420D01*
X129510500Y-54203465D01*
X129510500Y-53996535D01*
X129510499Y-53996530D01*
X129949500Y-53996530D01*
X129949500Y-54203469D01*
X129989868Y-54406412D01*
X129989870Y-54406420D01*
X130069058Y-54597596D01*
X130184024Y-54769657D01*
X130330342Y-54915975D01*
X130330345Y-54915977D01*
X130502402Y-55030941D01*
X130693580Y-55110130D01*
X130838052Y-55138867D01*
X130896530Y-55150499D01*
X130896534Y-55150500D01*
X130896535Y-55150500D01*
X131103466Y-55150500D01*
X131103467Y-55150499D01*
X131306420Y-55110130D01*
X131497598Y-55030941D01*
X131669655Y-54915977D01*
X131815977Y-54769655D01*
X131930941Y-54597598D01*
X132010130Y-54406420D01*
X132050500Y-54203465D01*
X132050500Y-53996535D01*
X132050499Y-53996530D01*
X132489500Y-53996530D01*
X132489500Y-54203469D01*
X132529868Y-54406412D01*
X132529870Y-54406420D01*
X132609058Y-54597596D01*
X132724024Y-54769657D01*
X132870342Y-54915975D01*
X132870345Y-54915977D01*
X133042402Y-55030941D01*
X133233580Y-55110130D01*
X133378052Y-55138867D01*
X133436530Y-55150499D01*
X133436534Y-55150500D01*
X133436535Y-55150500D01*
X133643466Y-55150500D01*
X133643467Y-55150499D01*
X133846420Y-55110130D01*
X134037598Y-55030941D01*
X134209655Y-54915977D01*
X134355977Y-54769655D01*
X134470941Y-54597598D01*
X134550130Y-54406420D01*
X134590500Y-54203465D01*
X134590500Y-53996535D01*
X134550130Y-53793580D01*
X134470941Y-53602402D01*
X134355977Y-53430345D01*
X134355975Y-53430342D01*
X134209657Y-53284024D01*
X134129173Y-53230247D01*
X135029500Y-53230247D01*
X135029500Y-54969752D01*
X135041131Y-55028229D01*
X135041132Y-55028230D01*
X135085447Y-55094552D01*
X135151769Y-55138867D01*
X135151770Y-55138868D01*
X135210247Y-55150499D01*
X135210250Y-55150500D01*
X135210252Y-55150500D01*
X136949750Y-55150500D01*
X136949751Y-55150499D01*
X136964568Y-55147552D01*
X137008229Y-55138868D01*
X137008229Y-55138867D01*
X137008231Y-55138867D01*
X137074552Y-55094552D01*
X137118867Y-55028231D01*
X137118867Y-55028229D01*
X137118868Y-55028229D01*
X137130499Y-54969752D01*
X137130500Y-54969750D01*
X137130500Y-53230249D01*
X137130499Y-53230247D01*
X137118868Y-53171770D01*
X137118867Y-53171769D01*
X137074552Y-53105447D01*
X137008230Y-53061132D01*
X137008229Y-53061131D01*
X136949752Y-53049500D01*
X136949748Y-53049500D01*
X135210252Y-53049500D01*
X135210247Y-53049500D01*
X135151770Y-53061131D01*
X135151769Y-53061132D01*
X135085447Y-53105447D01*
X135041132Y-53171769D01*
X135041131Y-53171770D01*
X135029500Y-53230247D01*
X134129173Y-53230247D01*
X134041655Y-53171770D01*
X134037598Y-53169059D01*
X133846420Y-53089870D01*
X133846412Y-53089868D01*
X133643469Y-53049500D01*
X133643465Y-53049500D01*
X133436535Y-53049500D01*
X133436530Y-53049500D01*
X133233587Y-53089868D01*
X133233579Y-53089870D01*
X133042403Y-53169058D01*
X132870342Y-53284024D01*
X132724024Y-53430342D01*
X132609058Y-53602403D01*
X132529870Y-53793579D01*
X132529868Y-53793587D01*
X132489500Y-53996530D01*
X132050499Y-53996530D01*
X132010130Y-53793580D01*
X131930941Y-53602402D01*
X131815977Y-53430345D01*
X131815975Y-53430342D01*
X131669657Y-53284024D01*
X131501655Y-53171770D01*
X131497598Y-53169059D01*
X131306420Y-53089870D01*
X131306412Y-53089868D01*
X131103469Y-53049500D01*
X131103465Y-53049500D01*
X130896535Y-53049500D01*
X130896530Y-53049500D01*
X130693587Y-53089868D01*
X130693579Y-53089870D01*
X130502403Y-53169058D01*
X130330342Y-53284024D01*
X130184024Y-53430342D01*
X130069058Y-53602403D01*
X129989870Y-53793579D01*
X129989868Y-53793587D01*
X129949500Y-53996530D01*
X129510499Y-53996530D01*
X129470130Y-53793580D01*
X129390941Y-53602402D01*
X129275977Y-53430345D01*
X129275975Y-53430342D01*
X129129657Y-53284024D01*
X128961655Y-53171770D01*
X128957598Y-53169059D01*
X128766420Y-53089870D01*
X128766412Y-53089868D01*
X128563469Y-53049500D01*
X128563465Y-53049500D01*
X128356535Y-53049500D01*
X128356530Y-53049500D01*
X128153587Y-53089868D01*
X128153579Y-53089870D01*
X127962403Y-53169058D01*
X127790342Y-53284024D01*
X127644024Y-53430342D01*
X127529058Y-53602403D01*
X127449870Y-53793579D01*
X127449868Y-53793587D01*
X127409500Y-53996530D01*
X127409500Y-54203469D01*
X127449868Y-54406412D01*
X127449870Y-54406420D01*
X127529058Y-54597596D01*
X127644024Y-54769657D01*
X127790342Y-54915975D01*
X127790345Y-54915977D01*
X127962402Y-55030941D01*
X128153580Y-55110130D01*
X128298052Y-55138867D01*
X128356530Y-55150499D01*
X128356534Y-55150500D01*
X128356535Y-55150500D01*
X128563466Y-55150500D01*
X128563467Y-55150499D01*
X128766420Y-55110130D01*
X128886974Y-55060194D01*
X128956438Y-55052726D01*
X129018918Y-55084000D01*
X129022104Y-55087075D01*
X132052181Y-58117152D01*
X132085666Y-58178475D01*
X132088500Y-58204833D01*
X132088500Y-77899499D01*
X132068815Y-77966538D01*
X132016011Y-78012293D01*
X131946853Y-78022237D01*
X131883297Y-77993212D01*
X131861398Y-77968389D01*
X131835980Y-77930349D01*
X131835974Y-77930341D01*
X131689657Y-77784024D01*
X131521655Y-77671770D01*
X131517598Y-77669059D01*
X131326420Y-77589870D01*
X131326412Y-77589868D01*
X131123469Y-77549500D01*
X131123465Y-77549500D01*
X130916535Y-77549500D01*
X130916530Y-77549500D01*
X130713587Y-77589868D01*
X130713579Y-77589870D01*
X130522403Y-77669058D01*
X130350342Y-77784024D01*
X130204024Y-77930342D01*
X130089058Y-78102403D01*
X130009870Y-78293579D01*
X130009868Y-78293587D01*
X129969500Y-78496530D01*
X129969500Y-78703469D01*
X130009868Y-78906412D01*
X130009870Y-78906420D01*
X130089058Y-79097596D01*
X130204024Y-79269657D01*
X130350342Y-79415975D01*
X130350345Y-79415977D01*
X130522402Y-79530941D01*
X130713580Y-79610130D01*
X130858052Y-79638867D01*
X130916530Y-79650499D01*
X130916534Y-79650500D01*
X130916535Y-79650500D01*
X131123466Y-79650500D01*
X131123467Y-79650499D01*
X131326420Y-79610130D01*
X131517598Y-79530941D01*
X131689655Y-79415977D01*
X131835977Y-79269655D01*
X131861397Y-79231610D01*
X131915008Y-79186805D01*
X131984333Y-79178096D01*
X132047361Y-79208250D01*
X132084081Y-79267693D01*
X132088500Y-79300500D01*
X132088500Y-87285109D01*
X132068815Y-87352148D01*
X132052181Y-87372790D01*
X129236210Y-90188760D01*
X129174887Y-90222245D01*
X129105195Y-90217261D01*
X129049262Y-90175389D01*
X129041142Y-90163080D01*
X129039646Y-90160489D01*
X129000500Y-90092686D01*
X128907314Y-89999500D01*
X128850250Y-89966554D01*
X128793187Y-89933608D01*
X128729539Y-89916554D01*
X128665892Y-89899500D01*
X128575833Y-89899500D01*
X128508794Y-89879815D01*
X128488152Y-89863181D01*
X127427819Y-88802848D01*
X127394334Y-88741525D01*
X127391500Y-88715167D01*
X127391500Y-79270568D01*
X127411185Y-79203529D01*
X127463989Y-79157774D01*
X127533147Y-79147830D01*
X127596703Y-79176855D01*
X127618601Y-79201675D01*
X127622994Y-79208250D01*
X127664024Y-79269657D01*
X127810342Y-79415975D01*
X127810345Y-79415977D01*
X127982402Y-79530941D01*
X128173580Y-79610130D01*
X128318052Y-79638867D01*
X128376530Y-79650499D01*
X128376534Y-79650500D01*
X128376535Y-79650500D01*
X128583466Y-79650500D01*
X128583467Y-79650499D01*
X128786420Y-79610130D01*
X128977598Y-79530941D01*
X129149655Y-79415977D01*
X129295977Y-79269655D01*
X129410941Y-79097598D01*
X129490130Y-78906420D01*
X129530500Y-78703465D01*
X129530500Y-78496535D01*
X129490130Y-78293580D01*
X129410941Y-78102402D01*
X129295977Y-77930345D01*
X129295976Y-77930344D01*
X129295975Y-77930342D01*
X129149657Y-77784024D01*
X128981655Y-77671770D01*
X128977598Y-77669059D01*
X128786420Y-77589870D01*
X128786412Y-77589868D01*
X128583469Y-77549500D01*
X128583465Y-77549500D01*
X128376535Y-77549500D01*
X128376530Y-77549500D01*
X128173587Y-77589868D01*
X128173579Y-77589870D01*
X127982403Y-77669058D01*
X127810342Y-77784024D01*
X127664022Y-77930344D01*
X127618602Y-77998322D01*
X127564990Y-78043127D01*
X127495665Y-78051834D01*
X127432638Y-78021680D01*
X127395918Y-77962237D01*
X127391500Y-77929431D01*
X127391500Y-60311439D01*
X127371020Y-60235009D01*
X127371017Y-60235004D01*
X127331464Y-60166495D01*
X127331458Y-60166487D01*
X121827075Y-54662104D01*
X121793590Y-54600781D01*
X121798574Y-54531089D01*
X121800163Y-54527049D01*
X121850130Y-54406420D01*
X121890500Y-54203465D01*
X121890500Y-53996535D01*
X121890499Y-53996530D01*
X122329500Y-53996530D01*
X122329500Y-54203469D01*
X122369868Y-54406412D01*
X122369870Y-54406420D01*
X122449058Y-54597596D01*
X122564024Y-54769657D01*
X122710342Y-54915975D01*
X122710345Y-54915977D01*
X122882402Y-55030941D01*
X123073580Y-55110130D01*
X123218052Y-55138867D01*
X123276530Y-55150499D01*
X123276534Y-55150500D01*
X123276535Y-55150500D01*
X123483466Y-55150500D01*
X123483467Y-55150499D01*
X123686420Y-55110130D01*
X123877598Y-55030941D01*
X124049655Y-54915977D01*
X124195977Y-54769655D01*
X124310941Y-54597598D01*
X124390130Y-54406420D01*
X124430500Y-54203465D01*
X124430500Y-53996535D01*
X124430499Y-53996530D01*
X124869500Y-53996530D01*
X124869500Y-54203469D01*
X124909868Y-54406412D01*
X124909870Y-54406420D01*
X124989058Y-54597596D01*
X125104024Y-54769657D01*
X125250342Y-54915975D01*
X125250345Y-54915977D01*
X125422402Y-55030941D01*
X125613580Y-55110130D01*
X125758052Y-55138867D01*
X125816530Y-55150499D01*
X125816534Y-55150500D01*
X125816535Y-55150500D01*
X126023466Y-55150500D01*
X126023467Y-55150499D01*
X126226420Y-55110130D01*
X126417598Y-55030941D01*
X126589655Y-54915977D01*
X126735977Y-54769655D01*
X126850941Y-54597598D01*
X126930130Y-54406420D01*
X126970500Y-54203465D01*
X126970500Y-53996535D01*
X126930130Y-53793580D01*
X126850941Y-53602402D01*
X126735977Y-53430345D01*
X126735975Y-53430342D01*
X126589657Y-53284024D01*
X126421655Y-53171770D01*
X126417598Y-53169059D01*
X126226420Y-53089870D01*
X126226412Y-53089868D01*
X126023469Y-53049500D01*
X126023465Y-53049500D01*
X125816535Y-53049500D01*
X125816530Y-53049500D01*
X125613587Y-53089868D01*
X125613579Y-53089870D01*
X125422403Y-53169058D01*
X125250342Y-53284024D01*
X125104024Y-53430342D01*
X124989058Y-53602403D01*
X124909870Y-53793579D01*
X124909868Y-53793587D01*
X124869500Y-53996530D01*
X124430499Y-53996530D01*
X124390130Y-53793580D01*
X124310941Y-53602402D01*
X124195977Y-53430345D01*
X124195975Y-53430342D01*
X124049657Y-53284024D01*
X123881655Y-53171770D01*
X123877598Y-53169059D01*
X123686420Y-53089870D01*
X123686412Y-53089868D01*
X123483469Y-53049500D01*
X123483465Y-53049500D01*
X123276535Y-53049500D01*
X123276530Y-53049500D01*
X123073587Y-53089868D01*
X123073579Y-53089870D01*
X122882403Y-53169058D01*
X122710342Y-53284024D01*
X122564024Y-53430342D01*
X122449058Y-53602403D01*
X122369870Y-53793579D01*
X122369868Y-53793587D01*
X122329500Y-53996530D01*
X121890499Y-53996530D01*
X121850130Y-53793580D01*
X121770941Y-53602402D01*
X121655977Y-53430345D01*
X121655975Y-53430342D01*
X121509657Y-53284024D01*
X121341655Y-53171770D01*
X121337598Y-53169059D01*
X121146420Y-53089870D01*
X121146412Y-53089868D01*
X120943469Y-53049500D01*
X120943465Y-53049500D01*
X120736535Y-53049500D01*
X120736530Y-53049500D01*
X120533587Y-53089868D01*
X120533579Y-53089870D01*
X120342403Y-53169058D01*
X120170342Y-53284024D01*
X120024024Y-53430342D01*
X119909058Y-53602403D01*
X119829870Y-53793579D01*
X119829868Y-53793587D01*
X119789500Y-53996530D01*
X119789500Y-54203469D01*
X119829868Y-54406412D01*
X119829870Y-54406420D01*
X119909058Y-54597596D01*
X120024024Y-54769657D01*
X120170342Y-54915975D01*
X120170345Y-54915977D01*
X120342402Y-55030941D01*
X120533580Y-55110130D01*
X120678052Y-55138867D01*
X120736530Y-55150499D01*
X120736534Y-55150500D01*
X120736535Y-55150500D01*
X120943466Y-55150500D01*
X120943467Y-55150499D01*
X121146420Y-55110130D01*
X121266974Y-55060194D01*
X121336438Y-55052726D01*
X121398918Y-55084000D01*
X121402104Y-55087075D01*
X126754181Y-60439152D01*
X126787666Y-60500475D01*
X126790500Y-60526833D01*
X126790500Y-77672871D01*
X126770815Y-77739910D01*
X126718011Y-77785665D01*
X126648853Y-77795609D01*
X126597610Y-77775974D01*
X126441655Y-77671770D01*
X126437598Y-77669059D01*
X126246420Y-77589870D01*
X126246412Y-77589868D01*
X126043469Y-77549500D01*
X126043465Y-77549500D01*
X125836535Y-77549500D01*
X125836530Y-77549500D01*
X125633587Y-77589868D01*
X125633579Y-77589870D01*
X125442403Y-77669058D01*
X125270342Y-77784024D01*
X125124024Y-77930342D01*
X125009058Y-78102403D01*
X124929870Y-78293579D01*
X124929868Y-78293587D01*
X124889500Y-78496530D01*
X124889500Y-78703469D01*
X124929868Y-78906412D01*
X124929871Y-78906424D01*
X124979803Y-79026971D01*
X124987272Y-79096440D01*
X124955997Y-79158919D01*
X124952923Y-79162104D01*
X121851848Y-82263181D01*
X121790525Y-82296666D01*
X121764167Y-82299500D01*
X117747600Y-82299500D01*
X117680561Y-82279815D01*
X117634806Y-82227011D01*
X117624862Y-82157853D01*
X117653887Y-82094297D01*
X117659919Y-82087819D01*
X117885702Y-81862036D01*
X120203162Y-79544575D01*
X120264483Y-79511092D01*
X120334175Y-79516076D01*
X120359734Y-79529158D01*
X120362402Y-79530941D01*
X120553580Y-79610130D01*
X120698052Y-79638867D01*
X120756530Y-79650499D01*
X120756534Y-79650500D01*
X120756535Y-79650500D01*
X120963466Y-79650500D01*
X120963467Y-79650499D01*
X121166420Y-79610130D01*
X121357598Y-79530941D01*
X121529655Y-79415977D01*
X121675977Y-79269655D01*
X121790941Y-79097598D01*
X121870130Y-78906420D01*
X121910500Y-78703465D01*
X121910500Y-78496535D01*
X121870130Y-78293580D01*
X121790941Y-78102402D01*
X121675977Y-77930345D01*
X121675976Y-77930344D01*
X121675975Y-77930342D01*
X121529657Y-77784024D01*
X121361655Y-77671770D01*
X121357598Y-77669059D01*
X121166420Y-77589870D01*
X121166412Y-77589868D01*
X120963469Y-77549500D01*
X120963465Y-77549500D01*
X120756535Y-77549500D01*
X120756530Y-77549500D01*
X120553587Y-77589868D01*
X120553579Y-77589870D01*
X120362403Y-77669058D01*
X120190342Y-77784024D01*
X120044024Y-77930342D01*
X119929058Y-78102403D01*
X119849870Y-78293579D01*
X119849868Y-78293587D01*
X119809500Y-78496530D01*
X119809500Y-78703469D01*
X119849868Y-78906412D01*
X119849871Y-78906424D01*
X119859609Y-78929933D01*
X119867078Y-78999402D01*
X119835802Y-79061881D01*
X119832729Y-79065066D01*
X115262181Y-83635615D01*
X115200858Y-83669100D01*
X115131166Y-83664116D01*
X115075233Y-83622244D01*
X115050816Y-83556780D01*
X115050500Y-83547934D01*
X115050500Y-82345832D01*
X115070185Y-82278793D01*
X115086814Y-82258156D01*
X117757896Y-79587073D01*
X117819217Y-79553590D01*
X117888909Y-79558574D01*
X117893007Y-79560186D01*
X118013580Y-79610130D01*
X118158052Y-79638867D01*
X118216530Y-79650499D01*
X118216534Y-79650500D01*
X118216535Y-79650500D01*
X118423466Y-79650500D01*
X118423467Y-79650499D01*
X118626420Y-79610130D01*
X118817598Y-79530941D01*
X118989655Y-79415977D01*
X119135977Y-79269655D01*
X119250941Y-79097598D01*
X119330130Y-78906420D01*
X119370500Y-78703465D01*
X119370500Y-78496535D01*
X119330130Y-78293580D01*
X119250941Y-78102402D01*
X119135977Y-77930345D01*
X119135976Y-77930344D01*
X119135975Y-77930342D01*
X118989657Y-77784024D01*
X118821655Y-77671770D01*
X118817598Y-77669059D01*
X118626420Y-77589870D01*
X118626412Y-77589868D01*
X118423469Y-77549500D01*
X118423465Y-77549500D01*
X118216535Y-77549500D01*
X118216530Y-77549500D01*
X118013587Y-77589868D01*
X118013579Y-77589870D01*
X117822403Y-77669058D01*
X117650342Y-77784024D01*
X117504024Y-77930342D01*
X117389058Y-78102403D01*
X117309870Y-78293579D01*
X117309868Y-78293587D01*
X117269500Y-78496530D01*
X117269500Y-78703469D01*
X117309868Y-78906412D01*
X117309871Y-78906424D01*
X117359803Y-79026971D01*
X117367272Y-79096440D01*
X117335997Y-79158919D01*
X117332923Y-79162104D01*
X114565489Y-81929540D01*
X114509541Y-81985487D01*
X114509535Y-81985495D01*
X114469982Y-82054004D01*
X114469979Y-82054009D01*
X114464057Y-82076112D01*
X114449500Y-82130438D01*
X114449500Y-84833894D01*
X114463152Y-84884845D01*
X114469979Y-84910322D01*
X114469982Y-84910327D01*
X114509535Y-84978836D01*
X114509541Y-84978844D01*
X115418516Y-85887819D01*
X115452001Y-85949142D01*
X115447017Y-86018834D01*
X115405145Y-86074767D01*
X115339681Y-86099184D01*
X115330835Y-86099500D01*
X98355833Y-86099500D01*
X98288794Y-86079815D01*
X98268152Y-86063181D01*
X94945662Y-82740691D01*
X104149500Y-82740691D01*
X104149500Y-82859309D01*
X104180201Y-82973886D01*
X104239511Y-83076613D01*
X104323387Y-83160489D01*
X104426114Y-83219799D01*
X104540691Y-83250500D01*
X104540694Y-83250500D01*
X104659306Y-83250500D01*
X104659309Y-83250500D01*
X104773886Y-83219799D01*
X104876613Y-83160489D01*
X104960489Y-83076613D01*
X105019799Y-82973886D01*
X105050500Y-82859309D01*
X105050500Y-82740691D01*
X105019799Y-82626114D01*
X104960489Y-82523387D01*
X104936819Y-82499717D01*
X104922115Y-82472789D01*
X104905523Y-82446971D01*
X104904631Y-82440770D01*
X104903334Y-82438394D01*
X104900500Y-82412036D01*
X104900500Y-82190691D01*
X105749500Y-82190691D01*
X105749500Y-82309309D01*
X105780201Y-82423886D01*
X105839511Y-82526613D01*
X105923387Y-82610489D01*
X106026114Y-82669799D01*
X106140691Y-82700500D01*
X106140694Y-82700500D01*
X106259306Y-82700500D01*
X106259309Y-82700500D01*
X106373886Y-82669799D01*
X106476613Y-82610489D01*
X106560489Y-82526613D01*
X106619799Y-82423886D01*
X106650500Y-82309309D01*
X106650500Y-82190691D01*
X106619799Y-82076114D01*
X106560489Y-81973387D01*
X106536819Y-81949717D01*
X106503334Y-81888394D01*
X106500500Y-81862036D01*
X106500500Y-80735832D01*
X106520185Y-80668793D01*
X106536814Y-80648155D01*
X107597896Y-79587073D01*
X107659217Y-79553590D01*
X107728909Y-79558574D01*
X107733007Y-79560186D01*
X107853580Y-79610130D01*
X107998052Y-79638867D01*
X108056530Y-79650499D01*
X108056534Y-79650500D01*
X108056535Y-79650500D01*
X108263466Y-79650500D01*
X108263467Y-79650499D01*
X108466420Y-79610130D01*
X108657598Y-79530941D01*
X108829655Y-79415977D01*
X108975977Y-79269655D01*
X109090941Y-79097598D01*
X109170130Y-78906420D01*
X109210500Y-78703465D01*
X109210500Y-78496535D01*
X109210499Y-78496530D01*
X109649500Y-78496530D01*
X109649500Y-78703469D01*
X109689868Y-78906412D01*
X109689870Y-78906420D01*
X109769058Y-79097596D01*
X109884024Y-79269657D01*
X110030342Y-79415975D01*
X110030345Y-79415977D01*
X110202402Y-79530941D01*
X110393580Y-79610130D01*
X110538052Y-79638867D01*
X110596530Y-79650499D01*
X110596534Y-79650500D01*
X110596535Y-79650500D01*
X110803466Y-79650500D01*
X110803467Y-79650499D01*
X111006420Y-79610130D01*
X111197598Y-79530941D01*
X111369655Y-79415977D01*
X111515977Y-79269655D01*
X111630941Y-79097598D01*
X111710130Y-78906420D01*
X111750500Y-78703465D01*
X111750500Y-78496535D01*
X111750499Y-78496530D01*
X112189500Y-78496530D01*
X112189500Y-78703469D01*
X112229868Y-78906412D01*
X112229870Y-78906420D01*
X112309058Y-79097596D01*
X112424024Y-79269657D01*
X112570342Y-79415975D01*
X112570345Y-79415977D01*
X112742402Y-79530941D01*
X112933580Y-79610130D01*
X113078052Y-79638867D01*
X113136530Y-79650499D01*
X113136534Y-79650500D01*
X113136535Y-79650500D01*
X113343466Y-79650500D01*
X113343467Y-79650499D01*
X113546420Y-79610130D01*
X113737598Y-79530941D01*
X113909655Y-79415977D01*
X114055977Y-79269655D01*
X114170941Y-79097598D01*
X114250130Y-78906420D01*
X114290500Y-78703465D01*
X114290500Y-78496535D01*
X114290499Y-78496530D01*
X114729500Y-78496530D01*
X114729500Y-78703469D01*
X114769868Y-78906412D01*
X114769870Y-78906420D01*
X114849058Y-79097596D01*
X114964024Y-79269657D01*
X115110342Y-79415975D01*
X115110345Y-79415977D01*
X115282402Y-79530941D01*
X115473580Y-79610130D01*
X115618052Y-79638867D01*
X115676530Y-79650499D01*
X115676534Y-79650500D01*
X115676535Y-79650500D01*
X115883466Y-79650500D01*
X115883467Y-79650499D01*
X116086420Y-79610130D01*
X116277598Y-79530941D01*
X116449655Y-79415977D01*
X116595977Y-79269655D01*
X116710941Y-79097598D01*
X116790130Y-78906420D01*
X116830500Y-78703465D01*
X116830500Y-78496535D01*
X116790130Y-78293580D01*
X116710941Y-78102402D01*
X116595977Y-77930345D01*
X116595976Y-77930344D01*
X116595975Y-77930342D01*
X116449657Y-77784024D01*
X116281655Y-77671770D01*
X116277598Y-77669059D01*
X116086420Y-77589870D01*
X116086412Y-77589868D01*
X115883469Y-77549500D01*
X115883465Y-77549500D01*
X115676535Y-77549500D01*
X115676530Y-77549500D01*
X115473587Y-77589868D01*
X115473579Y-77589870D01*
X115282403Y-77669058D01*
X115110342Y-77784024D01*
X114964024Y-77930342D01*
X114849058Y-78102403D01*
X114769870Y-78293579D01*
X114769868Y-78293587D01*
X114729500Y-78496530D01*
X114290499Y-78496530D01*
X114250130Y-78293580D01*
X114170941Y-78102402D01*
X114055977Y-77930345D01*
X114055976Y-77930344D01*
X114055975Y-77930342D01*
X113909657Y-77784024D01*
X113741655Y-77671770D01*
X113737598Y-77669059D01*
X113546420Y-77589870D01*
X113546412Y-77589868D01*
X113343469Y-77549500D01*
X113343465Y-77549500D01*
X113136535Y-77549500D01*
X113136530Y-77549500D01*
X112933587Y-77589868D01*
X112933579Y-77589870D01*
X112742403Y-77669058D01*
X112570342Y-77784024D01*
X112424024Y-77930342D01*
X112309058Y-78102403D01*
X112229870Y-78293579D01*
X112229868Y-78293587D01*
X112189500Y-78496530D01*
X111750499Y-78496530D01*
X111710130Y-78293580D01*
X111630941Y-78102402D01*
X111515977Y-77930345D01*
X111515976Y-77930344D01*
X111515975Y-77930342D01*
X111369657Y-77784024D01*
X111201655Y-77671770D01*
X111197598Y-77669059D01*
X111006420Y-77589870D01*
X111006412Y-77589868D01*
X110803469Y-77549500D01*
X110803465Y-77549500D01*
X110596535Y-77549500D01*
X110596530Y-77549500D01*
X110393587Y-77589868D01*
X110393579Y-77589870D01*
X110202403Y-77669058D01*
X110030342Y-77784024D01*
X109884024Y-77930342D01*
X109769058Y-78102403D01*
X109689870Y-78293579D01*
X109689868Y-78293587D01*
X109649500Y-78496530D01*
X109210499Y-78496530D01*
X109170130Y-78293580D01*
X109090941Y-78102402D01*
X108975977Y-77930345D01*
X108975976Y-77930344D01*
X108975975Y-77930342D01*
X108829657Y-77784024D01*
X108661655Y-77671770D01*
X108657598Y-77669059D01*
X108466420Y-77589870D01*
X108466412Y-77589868D01*
X108263469Y-77549500D01*
X108263465Y-77549500D01*
X108056535Y-77549500D01*
X108056530Y-77549500D01*
X107853587Y-77589868D01*
X107853579Y-77589870D01*
X107662403Y-77669058D01*
X107490342Y-77784024D01*
X107344024Y-77930342D01*
X107229058Y-78102403D01*
X107149870Y-78293579D01*
X107149868Y-78293587D01*
X107109500Y-78496530D01*
X107109500Y-78703469D01*
X107149868Y-78906412D01*
X107149871Y-78906424D01*
X107199803Y-79026971D01*
X107207272Y-79096440D01*
X107175997Y-79158919D01*
X107172923Y-79162104D01*
X106015489Y-80319540D01*
X105959541Y-80375487D01*
X105959535Y-80375495D01*
X105919982Y-80444004D01*
X105919979Y-80444009D01*
X105899500Y-80520439D01*
X105899500Y-81862036D01*
X105879815Y-81929075D01*
X105863181Y-81949717D01*
X105839513Y-81973384D01*
X105839511Y-81973387D01*
X105780201Y-82076114D01*
X105749500Y-82190691D01*
X104900500Y-82190691D01*
X104900500Y-79795832D01*
X104920185Y-79728793D01*
X104936810Y-79708160D01*
X105057898Y-79587072D01*
X105119216Y-79553590D01*
X105188908Y-79558574D01*
X105193007Y-79560186D01*
X105313580Y-79610130D01*
X105458052Y-79638867D01*
X105516530Y-79650499D01*
X105516534Y-79650500D01*
X105516535Y-79650500D01*
X105723466Y-79650500D01*
X105723467Y-79650499D01*
X105926420Y-79610130D01*
X106117598Y-79530941D01*
X106289655Y-79415977D01*
X106435977Y-79269655D01*
X106550941Y-79097598D01*
X106630130Y-78906420D01*
X106670500Y-78703465D01*
X106670500Y-78496535D01*
X106630130Y-78293580D01*
X106550941Y-78102402D01*
X106435977Y-77930345D01*
X106435976Y-77930344D01*
X106435975Y-77930342D01*
X106289657Y-77784024D01*
X106121655Y-77671770D01*
X106117598Y-77669059D01*
X105926420Y-77589870D01*
X105926412Y-77589868D01*
X105723469Y-77549500D01*
X105723465Y-77549500D01*
X105516535Y-77549500D01*
X105516530Y-77549500D01*
X105313587Y-77589868D01*
X105313579Y-77589870D01*
X105122403Y-77669058D01*
X104950342Y-77784024D01*
X104804024Y-77930342D01*
X104689058Y-78102403D01*
X104609870Y-78293579D01*
X104609868Y-78293587D01*
X104569500Y-78496530D01*
X104569500Y-78703469D01*
X104609868Y-78906412D01*
X104609871Y-78906424D01*
X104659803Y-79026971D01*
X104667272Y-79096440D01*
X104635997Y-79158919D01*
X104632924Y-79162104D01*
X104415489Y-79379540D01*
X104359541Y-79435487D01*
X104359535Y-79435495D01*
X104319982Y-79504004D01*
X104319979Y-79504009D01*
X104299500Y-79580439D01*
X104299500Y-82412036D01*
X104279815Y-82479075D01*
X104263181Y-82499717D01*
X104239513Y-82523384D01*
X104239511Y-82523387D01*
X104180201Y-82626114D01*
X104149500Y-82740691D01*
X94945662Y-82740691D01*
X91466819Y-79261848D01*
X91433334Y-79200525D01*
X91430500Y-79174167D01*
X91430500Y-78496530D01*
X91869500Y-78496530D01*
X91869500Y-78703469D01*
X91909868Y-78906412D01*
X91909870Y-78906420D01*
X91989058Y-79097596D01*
X92104024Y-79269657D01*
X92250342Y-79415975D01*
X92250345Y-79415977D01*
X92422402Y-79530941D01*
X92613580Y-79610130D01*
X92758052Y-79638867D01*
X92816530Y-79650499D01*
X92816534Y-79650500D01*
X92816535Y-79650500D01*
X93023466Y-79650500D01*
X93023467Y-79650499D01*
X93226420Y-79610130D01*
X93417598Y-79530941D01*
X93589655Y-79415977D01*
X93735977Y-79269655D01*
X93850941Y-79097598D01*
X93930130Y-78906420D01*
X93970500Y-78703465D01*
X93970500Y-78496535D01*
X93970499Y-78496530D01*
X94409500Y-78496530D01*
X94409500Y-78703469D01*
X94449868Y-78906412D01*
X94449870Y-78906420D01*
X94529058Y-79097596D01*
X94644024Y-79269657D01*
X94790342Y-79415975D01*
X94790345Y-79415977D01*
X94962402Y-79530941D01*
X95153580Y-79610130D01*
X95298052Y-79638867D01*
X95356530Y-79650499D01*
X95356534Y-79650500D01*
X95356535Y-79650500D01*
X95563466Y-79650500D01*
X95563467Y-79650499D01*
X95766420Y-79610130D01*
X95957598Y-79530941D01*
X96129655Y-79415977D01*
X96275977Y-79269655D01*
X96390941Y-79097598D01*
X96470130Y-78906420D01*
X96510500Y-78703465D01*
X96510500Y-78496535D01*
X96510499Y-78496530D01*
X96949500Y-78496530D01*
X96949500Y-78703469D01*
X96989868Y-78906412D01*
X96989870Y-78906420D01*
X97069058Y-79097596D01*
X97184024Y-79269657D01*
X97330342Y-79415975D01*
X97330345Y-79415977D01*
X97502402Y-79530941D01*
X97693580Y-79610130D01*
X97838052Y-79638867D01*
X97896530Y-79650499D01*
X97896534Y-79650500D01*
X97896535Y-79650500D01*
X98103466Y-79650500D01*
X98103467Y-79650499D01*
X98306420Y-79610130D01*
X98497598Y-79530941D01*
X98669655Y-79415977D01*
X98815977Y-79269655D01*
X98930941Y-79097598D01*
X99010130Y-78906420D01*
X99050500Y-78703465D01*
X99050500Y-78496535D01*
X99050499Y-78496530D01*
X99489500Y-78496530D01*
X99489500Y-78703469D01*
X99529868Y-78906412D01*
X99529870Y-78906420D01*
X99609058Y-79097596D01*
X99724024Y-79269657D01*
X99870342Y-79415975D01*
X99870345Y-79415977D01*
X100042402Y-79530941D01*
X100233580Y-79610130D01*
X100378052Y-79638867D01*
X100436530Y-79650499D01*
X100436534Y-79650500D01*
X100436535Y-79650500D01*
X100643466Y-79650500D01*
X100643467Y-79650499D01*
X100846420Y-79610130D01*
X101037598Y-79530941D01*
X101209655Y-79415977D01*
X101355977Y-79269655D01*
X101470941Y-79097598D01*
X101550130Y-78906420D01*
X101590500Y-78703465D01*
X101590500Y-78496535D01*
X101590499Y-78496530D01*
X102029500Y-78496530D01*
X102029500Y-78703469D01*
X102069868Y-78906412D01*
X102069870Y-78906420D01*
X102149058Y-79097596D01*
X102264024Y-79269657D01*
X102410342Y-79415975D01*
X102410345Y-79415977D01*
X102582402Y-79530941D01*
X102773580Y-79610130D01*
X102918052Y-79638867D01*
X102976530Y-79650499D01*
X102976534Y-79650500D01*
X102976535Y-79650500D01*
X103183466Y-79650500D01*
X103183467Y-79650499D01*
X103386420Y-79610130D01*
X103577598Y-79530941D01*
X103749655Y-79415977D01*
X103895977Y-79269655D01*
X104010941Y-79097598D01*
X104090130Y-78906420D01*
X104130500Y-78703465D01*
X104130500Y-78496535D01*
X104090130Y-78293580D01*
X104010941Y-78102402D01*
X103895977Y-77930345D01*
X103895976Y-77930344D01*
X103895975Y-77930342D01*
X103749657Y-77784024D01*
X103581655Y-77671770D01*
X103577598Y-77669059D01*
X103386420Y-77589870D01*
X103386412Y-77589868D01*
X103183469Y-77549500D01*
X103183465Y-77549500D01*
X102976535Y-77549500D01*
X102976530Y-77549500D01*
X102773587Y-77589868D01*
X102773579Y-77589870D01*
X102582403Y-77669058D01*
X102410342Y-77784024D01*
X102264024Y-77930342D01*
X102149058Y-78102403D01*
X102069870Y-78293579D01*
X102069868Y-78293587D01*
X102029500Y-78496530D01*
X101590499Y-78496530D01*
X101550130Y-78293580D01*
X101470941Y-78102402D01*
X101355977Y-77930345D01*
X101355976Y-77930344D01*
X101355975Y-77930342D01*
X101209657Y-77784024D01*
X101041655Y-77671770D01*
X101037598Y-77669059D01*
X100846420Y-77589870D01*
X100846412Y-77589868D01*
X100643469Y-77549500D01*
X100643465Y-77549500D01*
X100436535Y-77549500D01*
X100436530Y-77549500D01*
X100233587Y-77589868D01*
X100233579Y-77589870D01*
X100042403Y-77669058D01*
X99870342Y-77784024D01*
X99724024Y-77930342D01*
X99609058Y-78102403D01*
X99529870Y-78293579D01*
X99529868Y-78293587D01*
X99489500Y-78496530D01*
X99050499Y-78496530D01*
X99010130Y-78293580D01*
X98930941Y-78102402D01*
X98815977Y-77930345D01*
X98815976Y-77930344D01*
X98815975Y-77930342D01*
X98669657Y-77784024D01*
X98501655Y-77671770D01*
X98497598Y-77669059D01*
X98306420Y-77589870D01*
X98306412Y-77589868D01*
X98103469Y-77549500D01*
X98103465Y-77549500D01*
X97896535Y-77549500D01*
X97896530Y-77549500D01*
X97693587Y-77589868D01*
X97693579Y-77589870D01*
X97502403Y-77669058D01*
X97330342Y-77784024D01*
X97184024Y-77930342D01*
X97069058Y-78102403D01*
X96989870Y-78293579D01*
X96989868Y-78293587D01*
X96949500Y-78496530D01*
X96510499Y-78496530D01*
X96470130Y-78293580D01*
X96390941Y-78102402D01*
X96275977Y-77930345D01*
X96275976Y-77930344D01*
X96275975Y-77930342D01*
X96129657Y-77784024D01*
X95961655Y-77671770D01*
X95957598Y-77669059D01*
X95766420Y-77589870D01*
X95766412Y-77589868D01*
X95563469Y-77549500D01*
X95563465Y-77549500D01*
X95356535Y-77549500D01*
X95356530Y-77549500D01*
X95153587Y-77589868D01*
X95153579Y-77589870D01*
X94962403Y-77669058D01*
X94790342Y-77784024D01*
X94644024Y-77930342D01*
X94529058Y-78102403D01*
X94449870Y-78293579D01*
X94449868Y-78293587D01*
X94409500Y-78496530D01*
X93970499Y-78496530D01*
X93930130Y-78293580D01*
X93850941Y-78102402D01*
X93735977Y-77930345D01*
X93735976Y-77930344D01*
X93735975Y-77930342D01*
X93589657Y-77784024D01*
X93421655Y-77671770D01*
X93417598Y-77669059D01*
X93226420Y-77589870D01*
X93226412Y-77589868D01*
X93023469Y-77549500D01*
X93023465Y-77549500D01*
X92816535Y-77549500D01*
X92816530Y-77549500D01*
X92613587Y-77589868D01*
X92613579Y-77589870D01*
X92422403Y-77669058D01*
X92250342Y-77784024D01*
X92104024Y-77930342D01*
X91989058Y-78102403D01*
X91909870Y-78293579D01*
X91909868Y-78293587D01*
X91869500Y-78496530D01*
X91430500Y-78496530D01*
X91430500Y-77730249D01*
X91430499Y-77730247D01*
X91418868Y-77671770D01*
X91418867Y-77671769D01*
X91374552Y-77605447D01*
X91308230Y-77561132D01*
X91308229Y-77561131D01*
X91249752Y-77549500D01*
X91249748Y-77549500D01*
X89510252Y-77549500D01*
X89510247Y-77549500D01*
X89451770Y-77561131D01*
X89451769Y-77561132D01*
X89385447Y-77605447D01*
X89341132Y-77671769D01*
X89341131Y-77671770D01*
X89329500Y-77730247D01*
X87500500Y-77730247D01*
X87500500Y-53996530D01*
X91849500Y-53996530D01*
X91849500Y-54203469D01*
X91889868Y-54406412D01*
X91889870Y-54406420D01*
X91969058Y-54597596D01*
X92084024Y-54769657D01*
X92230342Y-54915975D01*
X92230345Y-54915977D01*
X92402402Y-55030941D01*
X92593580Y-55110130D01*
X92738052Y-55138867D01*
X92796530Y-55150499D01*
X92796534Y-55150500D01*
X92796535Y-55150500D01*
X93003466Y-55150500D01*
X93003467Y-55150499D01*
X93206420Y-55110130D01*
X93397598Y-55030941D01*
X93569655Y-54915977D01*
X93715977Y-54769655D01*
X93830941Y-54597598D01*
X93910130Y-54406420D01*
X93950500Y-54203465D01*
X93950500Y-53996535D01*
X93950499Y-53996530D01*
X94389500Y-53996530D01*
X94389500Y-54203469D01*
X94429868Y-54406412D01*
X94429870Y-54406420D01*
X94509058Y-54597596D01*
X94624024Y-54769657D01*
X94770342Y-54915975D01*
X94770345Y-54915977D01*
X94942402Y-55030941D01*
X95133580Y-55110130D01*
X95278052Y-55138867D01*
X95336530Y-55150499D01*
X95336534Y-55150500D01*
X95336535Y-55150500D01*
X95543466Y-55150500D01*
X95543467Y-55150499D01*
X95746420Y-55110130D01*
X95937598Y-55030941D01*
X96109655Y-54915977D01*
X96255977Y-54769655D01*
X96370941Y-54597598D01*
X96450130Y-54406420D01*
X96490500Y-54203465D01*
X96490500Y-53996535D01*
X96490499Y-53996530D01*
X96929500Y-53996530D01*
X96929500Y-54203469D01*
X96969868Y-54406412D01*
X96969870Y-54406420D01*
X97049058Y-54597596D01*
X97164024Y-54769657D01*
X97310342Y-54915975D01*
X97310345Y-54915977D01*
X97482402Y-55030941D01*
X97673580Y-55110130D01*
X97818052Y-55138867D01*
X97876530Y-55150499D01*
X97876534Y-55150500D01*
X97876535Y-55150500D01*
X98083466Y-55150500D01*
X98083467Y-55150499D01*
X98286420Y-55110130D01*
X98477598Y-55030941D01*
X98649655Y-54915977D01*
X98795977Y-54769655D01*
X98910941Y-54597598D01*
X98990130Y-54406420D01*
X99030500Y-54203465D01*
X99030500Y-53996535D01*
X99030499Y-53996530D01*
X99469500Y-53996530D01*
X99469500Y-54203469D01*
X99509868Y-54406412D01*
X99509870Y-54406420D01*
X99589058Y-54597596D01*
X99704024Y-54769657D01*
X99850342Y-54915975D01*
X99850345Y-54915977D01*
X100022402Y-55030941D01*
X100213580Y-55110130D01*
X100358052Y-55138867D01*
X100416530Y-55150499D01*
X100416534Y-55150500D01*
X100416535Y-55150500D01*
X100623466Y-55150500D01*
X100623467Y-55150499D01*
X100826420Y-55110130D01*
X101017598Y-55030941D01*
X101189655Y-54915977D01*
X101335977Y-54769655D01*
X101450941Y-54597598D01*
X101530130Y-54406420D01*
X101570500Y-54203465D01*
X101570500Y-53996535D01*
X101570499Y-53996530D01*
X102009500Y-53996530D01*
X102009500Y-54203469D01*
X102049868Y-54406412D01*
X102049870Y-54406420D01*
X102129058Y-54597596D01*
X102244024Y-54769657D01*
X102390342Y-54915975D01*
X102390345Y-54915977D01*
X102562402Y-55030941D01*
X102753580Y-55110130D01*
X102898052Y-55138867D01*
X102956530Y-55150499D01*
X102956534Y-55150500D01*
X102956535Y-55150500D01*
X103163466Y-55150500D01*
X103163467Y-55150499D01*
X103366420Y-55110130D01*
X103557598Y-55030941D01*
X103729655Y-54915977D01*
X103875977Y-54769655D01*
X103990941Y-54597598D01*
X104070130Y-54406420D01*
X104110500Y-54203465D01*
X104110500Y-53996535D01*
X104110499Y-53996530D01*
X107089500Y-53996530D01*
X107089500Y-54203469D01*
X107129868Y-54406412D01*
X107129870Y-54406420D01*
X107209058Y-54597596D01*
X107324024Y-54769657D01*
X107470342Y-54915975D01*
X107470345Y-54915977D01*
X107642402Y-55030941D01*
X107833580Y-55110130D01*
X107978052Y-55138867D01*
X108036530Y-55150499D01*
X108036534Y-55150500D01*
X108036535Y-55150500D01*
X108243466Y-55150500D01*
X108243467Y-55150499D01*
X108446420Y-55110130D01*
X108637598Y-55030941D01*
X108809655Y-54915977D01*
X108955977Y-54769655D01*
X109070941Y-54597598D01*
X109150130Y-54406420D01*
X109190500Y-54203465D01*
X109190500Y-53996535D01*
X109190499Y-53996530D01*
X109629500Y-53996530D01*
X109629500Y-54203469D01*
X109669868Y-54406412D01*
X109669870Y-54406420D01*
X109749058Y-54597596D01*
X109864024Y-54769657D01*
X110010342Y-54915975D01*
X110010345Y-54915977D01*
X110182402Y-55030941D01*
X110373580Y-55110130D01*
X110518052Y-55138867D01*
X110576530Y-55150499D01*
X110576534Y-55150500D01*
X110576535Y-55150500D01*
X110783466Y-55150500D01*
X110783467Y-55150499D01*
X110986420Y-55110130D01*
X111177598Y-55030941D01*
X111349655Y-54915977D01*
X111495977Y-54769655D01*
X111610941Y-54597598D01*
X111690130Y-54406420D01*
X111730500Y-54203465D01*
X111730500Y-53996535D01*
X111730499Y-53996530D01*
X112169500Y-53996530D01*
X112169500Y-54203469D01*
X112209868Y-54406412D01*
X112209870Y-54406420D01*
X112289058Y-54597596D01*
X112404024Y-54769657D01*
X112550342Y-54915975D01*
X112550345Y-54915977D01*
X112722402Y-55030941D01*
X112913580Y-55110130D01*
X113058052Y-55138867D01*
X113116530Y-55150499D01*
X113116534Y-55150500D01*
X113116535Y-55150500D01*
X113323466Y-55150500D01*
X113323467Y-55150499D01*
X113526420Y-55110130D01*
X113717598Y-55030941D01*
X113889655Y-54915977D01*
X114035977Y-54769655D01*
X114150941Y-54597598D01*
X114230130Y-54406420D01*
X114270500Y-54203465D01*
X114270500Y-53996535D01*
X114270499Y-53996530D01*
X114709500Y-53996530D01*
X114709500Y-54203469D01*
X114749868Y-54406412D01*
X114749870Y-54406420D01*
X114829058Y-54597596D01*
X114944024Y-54769657D01*
X115090342Y-54915975D01*
X115090345Y-54915977D01*
X115262402Y-55030941D01*
X115453580Y-55110130D01*
X115598052Y-55138867D01*
X115656530Y-55150499D01*
X115656534Y-55150500D01*
X115656535Y-55150500D01*
X115863466Y-55150500D01*
X115863467Y-55150499D01*
X116066420Y-55110130D01*
X116257598Y-55030941D01*
X116429655Y-54915977D01*
X116575977Y-54769655D01*
X116690941Y-54597598D01*
X116770130Y-54406420D01*
X116810500Y-54203465D01*
X116810500Y-53996535D01*
X116810499Y-53996530D01*
X117249500Y-53996530D01*
X117249500Y-54203469D01*
X117289868Y-54406412D01*
X117289870Y-54406420D01*
X117369058Y-54597596D01*
X117484024Y-54769657D01*
X117630342Y-54915975D01*
X117630345Y-54915977D01*
X117802402Y-55030941D01*
X117993580Y-55110130D01*
X118138052Y-55138867D01*
X118196530Y-55150499D01*
X118196534Y-55150500D01*
X118196535Y-55150500D01*
X118403466Y-55150500D01*
X118403467Y-55150499D01*
X118606420Y-55110130D01*
X118797598Y-55030941D01*
X118969655Y-54915977D01*
X119115977Y-54769655D01*
X119230941Y-54597598D01*
X119310130Y-54406420D01*
X119350500Y-54203465D01*
X119350500Y-53996535D01*
X119310130Y-53793580D01*
X119230941Y-53602402D01*
X119115977Y-53430345D01*
X119115975Y-53430342D01*
X118969657Y-53284024D01*
X118801655Y-53171770D01*
X118797598Y-53169059D01*
X118606420Y-53089870D01*
X118606412Y-53089868D01*
X118403469Y-53049500D01*
X118403465Y-53049500D01*
X118196535Y-53049500D01*
X118196530Y-53049500D01*
X117993587Y-53089868D01*
X117993579Y-53089870D01*
X117802403Y-53169058D01*
X117630342Y-53284024D01*
X117484024Y-53430342D01*
X117369058Y-53602403D01*
X117289870Y-53793579D01*
X117289868Y-53793587D01*
X117249500Y-53996530D01*
X116810499Y-53996530D01*
X116770130Y-53793580D01*
X116690941Y-53602402D01*
X116575977Y-53430345D01*
X116575975Y-53430342D01*
X116429657Y-53284024D01*
X116261655Y-53171770D01*
X116257598Y-53169059D01*
X116066420Y-53089870D01*
X116066412Y-53089868D01*
X115863469Y-53049500D01*
X115863465Y-53049500D01*
X115656535Y-53049500D01*
X115656530Y-53049500D01*
X115453587Y-53089868D01*
X115453579Y-53089870D01*
X115262403Y-53169058D01*
X115090342Y-53284024D01*
X114944024Y-53430342D01*
X114829058Y-53602403D01*
X114749870Y-53793579D01*
X114749868Y-53793587D01*
X114709500Y-53996530D01*
X114270499Y-53996530D01*
X114230130Y-53793580D01*
X114150941Y-53602402D01*
X114035977Y-53430345D01*
X114035975Y-53430342D01*
X113889657Y-53284024D01*
X113721655Y-53171770D01*
X113717598Y-53169059D01*
X113526420Y-53089870D01*
X113526412Y-53089868D01*
X113323469Y-53049500D01*
X113323465Y-53049500D01*
X113116535Y-53049500D01*
X113116530Y-53049500D01*
X112913587Y-53089868D01*
X112913579Y-53089870D01*
X112722403Y-53169058D01*
X112550342Y-53284024D01*
X112404024Y-53430342D01*
X112289058Y-53602403D01*
X112209870Y-53793579D01*
X112209868Y-53793587D01*
X112169500Y-53996530D01*
X111730499Y-53996530D01*
X111690130Y-53793580D01*
X111610941Y-53602402D01*
X111495977Y-53430345D01*
X111495975Y-53430342D01*
X111349657Y-53284024D01*
X111181655Y-53171770D01*
X111177598Y-53169059D01*
X110986420Y-53089870D01*
X110986412Y-53089868D01*
X110783469Y-53049500D01*
X110783465Y-53049500D01*
X110576535Y-53049500D01*
X110576530Y-53049500D01*
X110373587Y-53089868D01*
X110373579Y-53089870D01*
X110182403Y-53169058D01*
X110010342Y-53284024D01*
X109864024Y-53430342D01*
X109749058Y-53602403D01*
X109669870Y-53793579D01*
X109669868Y-53793587D01*
X109629500Y-53996530D01*
X109190499Y-53996530D01*
X109150130Y-53793580D01*
X109070941Y-53602402D01*
X108955977Y-53430345D01*
X108955975Y-53430342D01*
X108809657Y-53284024D01*
X108641655Y-53171770D01*
X108637598Y-53169059D01*
X108446420Y-53089870D01*
X108446412Y-53089868D01*
X108243469Y-53049500D01*
X108243465Y-53049500D01*
X108036535Y-53049500D01*
X108036530Y-53049500D01*
X107833587Y-53089868D01*
X107833579Y-53089870D01*
X107642403Y-53169058D01*
X107470342Y-53284024D01*
X107324024Y-53430342D01*
X107209058Y-53602403D01*
X107129870Y-53793579D01*
X107129868Y-53793587D01*
X107089500Y-53996530D01*
X104110499Y-53996530D01*
X104070130Y-53793580D01*
X103990941Y-53602402D01*
X103875977Y-53430345D01*
X103875975Y-53430342D01*
X103729657Y-53284024D01*
X103561655Y-53171770D01*
X103557598Y-53169059D01*
X103366420Y-53089870D01*
X103366412Y-53089868D01*
X103163469Y-53049500D01*
X103163465Y-53049500D01*
X102956535Y-53049500D01*
X102956530Y-53049500D01*
X102753587Y-53089868D01*
X102753579Y-53089870D01*
X102562403Y-53169058D01*
X102390342Y-53284024D01*
X102244024Y-53430342D01*
X102129058Y-53602403D01*
X102049870Y-53793579D01*
X102049868Y-53793587D01*
X102009500Y-53996530D01*
X101570499Y-53996530D01*
X101530130Y-53793580D01*
X101450941Y-53602402D01*
X101335977Y-53430345D01*
X101335975Y-53430342D01*
X101189657Y-53284024D01*
X101021655Y-53171770D01*
X101017598Y-53169059D01*
X100826420Y-53089870D01*
X100826412Y-53089868D01*
X100623469Y-53049500D01*
X100623465Y-53049500D01*
X100416535Y-53049500D01*
X100416530Y-53049500D01*
X100213587Y-53089868D01*
X100213579Y-53089870D01*
X100022403Y-53169058D01*
X99850342Y-53284024D01*
X99704024Y-53430342D01*
X99589058Y-53602403D01*
X99509870Y-53793579D01*
X99509868Y-53793587D01*
X99469500Y-53996530D01*
X99030499Y-53996530D01*
X98990130Y-53793580D01*
X98910941Y-53602402D01*
X98795977Y-53430345D01*
X98795975Y-53430342D01*
X98649657Y-53284024D01*
X98481655Y-53171770D01*
X98477598Y-53169059D01*
X98286420Y-53089870D01*
X98286412Y-53089868D01*
X98083469Y-53049500D01*
X98083465Y-53049500D01*
X97876535Y-53049500D01*
X97876530Y-53049500D01*
X97673587Y-53089868D01*
X97673579Y-53089870D01*
X97482403Y-53169058D01*
X97310342Y-53284024D01*
X97164024Y-53430342D01*
X97049058Y-53602403D01*
X96969870Y-53793579D01*
X96969868Y-53793587D01*
X96929500Y-53996530D01*
X96490499Y-53996530D01*
X96450130Y-53793580D01*
X96370941Y-53602402D01*
X96255977Y-53430345D01*
X96255975Y-53430342D01*
X96109657Y-53284024D01*
X95941655Y-53171770D01*
X95937598Y-53169059D01*
X95746420Y-53089870D01*
X95746412Y-53089868D01*
X95543469Y-53049500D01*
X95543465Y-53049500D01*
X95336535Y-53049500D01*
X95336530Y-53049500D01*
X95133587Y-53089868D01*
X95133579Y-53089870D01*
X94942403Y-53169058D01*
X94770342Y-53284024D01*
X94624024Y-53430342D01*
X94509058Y-53602403D01*
X94429870Y-53793579D01*
X94429868Y-53793587D01*
X94389500Y-53996530D01*
X93950499Y-53996530D01*
X93910130Y-53793580D01*
X93830941Y-53602402D01*
X93715977Y-53430345D01*
X93715975Y-53430342D01*
X93569657Y-53284024D01*
X93401655Y-53171770D01*
X93397598Y-53169059D01*
X93206420Y-53089870D01*
X93206412Y-53089868D01*
X93003469Y-53049500D01*
X93003465Y-53049500D01*
X92796535Y-53049500D01*
X92796530Y-53049500D01*
X92593587Y-53089868D01*
X92593579Y-53089870D01*
X92402403Y-53169058D01*
X92230342Y-53284024D01*
X92084024Y-53430342D01*
X91969058Y-53602403D01*
X91889870Y-53793579D01*
X91889868Y-53793587D01*
X91849500Y-53996530D01*
X87500500Y-53996530D01*
X87500500Y-49896530D01*
X91549500Y-49896530D01*
X91549500Y-50103469D01*
X91589868Y-50306412D01*
X91589870Y-50306420D01*
X91669058Y-50497596D01*
X91784024Y-50669657D01*
X91930342Y-50815975D01*
X91930345Y-50815977D01*
X92102402Y-50930941D01*
X92293580Y-51010130D01*
X92438052Y-51038867D01*
X92496530Y-51050499D01*
X92496534Y-51050500D01*
X92496535Y-51050500D01*
X92703466Y-51050500D01*
X92703467Y-51050499D01*
X92906420Y-51010130D01*
X93097598Y-50930941D01*
X93269655Y-50815977D01*
X93415977Y-50669655D01*
X93530941Y-50497598D01*
X93610130Y-50306420D01*
X93650500Y-50103465D01*
X93650500Y-49896535D01*
X93610130Y-49693580D01*
X93530941Y-49502402D01*
X93415977Y-49330345D01*
X93415975Y-49330342D01*
X93269657Y-49184024D01*
X93189173Y-49130247D01*
X94089500Y-49130247D01*
X94089500Y-50869752D01*
X94101131Y-50928229D01*
X94101132Y-50928230D01*
X94145447Y-50994552D01*
X94211769Y-51038867D01*
X94211770Y-51038868D01*
X94270247Y-51050499D01*
X94270250Y-51050500D01*
X94270252Y-51050500D01*
X96009750Y-51050500D01*
X96009751Y-51050499D01*
X96024568Y-51047552D01*
X96068229Y-51038868D01*
X96068229Y-51038867D01*
X96068231Y-51038867D01*
X96134552Y-50994552D01*
X96178867Y-50928231D01*
X96178867Y-50928229D01*
X96178868Y-50928229D01*
X96190499Y-50869752D01*
X96190500Y-50869750D01*
X96190500Y-49130249D01*
X96190499Y-49130247D01*
X96178868Y-49071770D01*
X96178867Y-49071769D01*
X96134552Y-49005448D01*
X96116738Y-48993545D01*
X96116736Y-48993543D01*
X96068230Y-48961132D01*
X96068229Y-48961131D01*
X96009752Y-48949500D01*
X96009748Y-48949500D01*
X94270252Y-48949500D01*
X94270247Y-48949500D01*
X94211770Y-48961131D01*
X94211769Y-48961132D01*
X94145447Y-49005447D01*
X94101132Y-49071769D01*
X94101131Y-49071770D01*
X94089500Y-49130247D01*
X93189173Y-49130247D01*
X93183626Y-49126541D01*
X93097598Y-49069059D01*
X92906420Y-48989870D01*
X92906412Y-48989868D01*
X92703469Y-48949500D01*
X92703465Y-48949500D01*
X92496535Y-48949500D01*
X92496530Y-48949500D01*
X92293587Y-48989868D01*
X92293579Y-48989870D01*
X92102403Y-49069058D01*
X91930342Y-49184024D01*
X91784024Y-49330342D01*
X91669058Y-49502403D01*
X91589870Y-49693579D01*
X91589868Y-49693587D01*
X91549500Y-49896530D01*
X87500500Y-49896530D01*
X87500500Y-48896530D01*
X107084500Y-48896530D01*
X107084500Y-49103469D01*
X107124868Y-49306412D01*
X107124870Y-49306420D01*
X107204058Y-49497596D01*
X107319024Y-49669657D01*
X107465342Y-49815975D01*
X107465345Y-49815977D01*
X107637402Y-49930941D01*
X107828580Y-50010130D01*
X107973052Y-50038867D01*
X108031530Y-50050499D01*
X108031534Y-50050500D01*
X108031535Y-50050500D01*
X108238466Y-50050500D01*
X108238467Y-50050499D01*
X108441420Y-50010130D01*
X108632598Y-49930941D01*
X108804655Y-49815977D01*
X108950977Y-49669655D01*
X109065941Y-49497598D01*
X109145130Y-49306420D01*
X109185500Y-49103465D01*
X109185500Y-48896535D01*
X109145130Y-48693580D01*
X109065941Y-48502402D01*
X108950977Y-48330345D01*
X108950975Y-48330342D01*
X108804657Y-48184024D01*
X108724173Y-48130247D01*
X109624500Y-48130247D01*
X109624500Y-49869752D01*
X109636131Y-49928229D01*
X109636132Y-49928230D01*
X109680447Y-49994552D01*
X109746769Y-50038867D01*
X109746770Y-50038868D01*
X109805247Y-50050499D01*
X109805250Y-50050500D01*
X109805252Y-50050500D01*
X111544750Y-50050500D01*
X111544751Y-50050499D01*
X111559568Y-50047552D01*
X111603229Y-50038868D01*
X111603229Y-50038867D01*
X111603231Y-50038867D01*
X111669552Y-49994552D01*
X111713867Y-49928231D01*
X111713867Y-49928229D01*
X111713868Y-49928229D01*
X111725499Y-49869752D01*
X111725500Y-49869750D01*
X111725500Y-48130249D01*
X111725499Y-48130247D01*
X111713868Y-48071770D01*
X111713867Y-48071769D01*
X111669552Y-48005447D01*
X111603230Y-47961132D01*
X111603229Y-47961131D01*
X111544752Y-47949500D01*
X111544748Y-47949500D01*
X109805252Y-47949500D01*
X109805247Y-47949500D01*
X109746770Y-47961131D01*
X109746769Y-47961132D01*
X109680447Y-48005447D01*
X109636132Y-48071769D01*
X109636131Y-48071770D01*
X109624500Y-48130247D01*
X108724173Y-48130247D01*
X108636655Y-48071770D01*
X108632598Y-48069059D01*
X108441420Y-47989870D01*
X108441412Y-47989868D01*
X108238469Y-47949500D01*
X108238465Y-47949500D01*
X108031535Y-47949500D01*
X108031530Y-47949500D01*
X107828587Y-47989868D01*
X107828579Y-47989870D01*
X107637403Y-48069058D01*
X107465342Y-48184024D01*
X107319024Y-48330342D01*
X107204058Y-48502403D01*
X107124870Y-48693579D01*
X107124868Y-48693587D01*
X107084500Y-48896530D01*
X87500500Y-48896530D01*
X87500500Y-44874038D01*
X91399500Y-44874038D01*
X91399500Y-45125961D01*
X91438910Y-45374785D01*
X91516760Y-45614383D01*
X91631132Y-45838848D01*
X91779201Y-46042649D01*
X91779205Y-46042654D01*
X91957345Y-46220794D01*
X91957350Y-46220798D01*
X92135117Y-46349952D01*
X92161155Y-46368870D01*
X92304184Y-46441747D01*
X92385616Y-46483239D01*
X92385618Y-46483239D01*
X92385621Y-46483241D01*
X92625215Y-46561090D01*
X92874038Y-46600500D01*
X92874039Y-46600500D01*
X93125961Y-46600500D01*
X93125962Y-46600500D01*
X93374785Y-46561090D01*
X93614379Y-46483241D01*
X93838845Y-46368870D01*
X94042656Y-46220793D01*
X94220793Y-46042656D01*
X94368870Y-45838845D01*
X94483241Y-45614379D01*
X94561090Y-45374785D01*
X94600500Y-45125962D01*
X94600500Y-44874038D01*
X132399500Y-44874038D01*
X132399500Y-45125961D01*
X132438910Y-45374785D01*
X132516760Y-45614383D01*
X132631132Y-45838848D01*
X132779201Y-46042649D01*
X132779205Y-46042654D01*
X132957345Y-46220794D01*
X132957350Y-46220798D01*
X133135117Y-46349952D01*
X133161155Y-46368870D01*
X133304184Y-46441747D01*
X133385616Y-46483239D01*
X133385618Y-46483239D01*
X133385621Y-46483241D01*
X133625215Y-46561090D01*
X133874038Y-46600500D01*
X133874039Y-46600500D01*
X134125961Y-46600500D01*
X134125962Y-46600500D01*
X134374785Y-46561090D01*
X134614379Y-46483241D01*
X134838845Y-46368870D01*
X135042656Y-46220793D01*
X135220793Y-46042656D01*
X135368870Y-45838845D01*
X135483241Y-45614379D01*
X135561090Y-45374785D01*
X135600500Y-45125962D01*
X135600500Y-44874038D01*
X135561090Y-44625215D01*
X135483241Y-44385621D01*
X135483239Y-44385618D01*
X135483239Y-44385616D01*
X135441747Y-44304184D01*
X135368870Y-44161155D01*
X135349952Y-44135117D01*
X135220798Y-43957350D01*
X135220794Y-43957345D01*
X135042654Y-43779205D01*
X135042649Y-43779201D01*
X134838848Y-43631132D01*
X134838847Y-43631131D01*
X134838845Y-43631130D01*
X134768747Y-43595413D01*
X134614383Y-43516760D01*
X134374785Y-43438910D01*
X134125962Y-43399500D01*
X133874038Y-43399500D01*
X133749626Y-43419205D01*
X133625214Y-43438910D01*
X133385616Y-43516760D01*
X133161151Y-43631132D01*
X132957350Y-43779201D01*
X132957345Y-43779205D01*
X132779205Y-43957345D01*
X132779201Y-43957350D01*
X132631132Y-44161151D01*
X132516760Y-44385616D01*
X132438910Y-44625214D01*
X132399500Y-44874038D01*
X94600500Y-44874038D01*
X94561090Y-44625215D01*
X94483241Y-44385621D01*
X94483239Y-44385618D01*
X94483239Y-44385616D01*
X94441747Y-44304184D01*
X94368870Y-44161155D01*
X94349952Y-44135117D01*
X94220798Y-43957350D01*
X94220794Y-43957345D01*
X94042654Y-43779205D01*
X94042649Y-43779201D01*
X93838848Y-43631132D01*
X93838847Y-43631131D01*
X93838845Y-43631130D01*
X93768747Y-43595413D01*
X93614383Y-43516760D01*
X93374785Y-43438910D01*
X93125962Y-43399500D01*
X92874038Y-43399500D01*
X92749626Y-43419205D01*
X92625214Y-43438910D01*
X92385616Y-43516760D01*
X92161151Y-43631132D01*
X91957350Y-43779201D01*
X91957345Y-43779205D01*
X91779205Y-43957345D01*
X91779201Y-43957350D01*
X91631132Y-44161151D01*
X91516760Y-44385616D01*
X91438910Y-44625214D01*
X91399500Y-44874038D01*
X87500500Y-44874038D01*
X87500500Y-41624500D01*
X87520185Y-41557461D01*
X87572989Y-41511706D01*
X87624500Y-41500500D01*
X139375500Y-41500500D01*
X139442539Y-41520185D01*
G37*
%TD.AperFunction*%
%TD*%
M02*
